<svg preserveAspectRatio="none" width="100%" height="100%" overflow="visible" style="display: block;" viewBox="0 0 152.19 53.89" fill="none" xmlns="http://www.w3.org/2000/svg">
<g id="encyclopedia box" clip-path="url(#clip0_0_72)">
<path id="Vector" d="M3.28 53.83C2.74 49.44 2.72 43.2 1.84 38.63C1.53 37.01 0.69 36.6 0.61 34.51C0.44 30.52 0.62 26.49 0.62 22.5C0.62 18.73 0.7 14.94 0.62 11.17C0.58 9.22 5.96046e-08 7.88 1.85 7.07C3.6 6.31 6.69 7.57 8.61 7.23C10.53 6.89 11.9 5.93 13.94 5.8C15.63 5.69 17.72 6.29 19.34 5.9C20.88 5.53 21.49 4.67 23.24 4.47C25.4 4.22 27.8 4.95 29.94 4.57C31.89 4.23 33.23 3.25 35.27 3.14C37.31 3.03 39.34 3.48 41.27 3.06C43.39 2.6 44.34 1.88 46.6 1.83C48.86 1.78 51.05 1.83 53.27 1.84C54.93 1.84 56.9 2.1 58.49 1.73C60.4 1.28 60.94 0.48 63.28 0.52C67.28 0.57 71.28 0.52 75.28 0.52H109.28C111.06 0.52 112.84 0.54 114.61 0.52C117.32 0.49 118.68 1.21 121.23 1.74C129.13 3.36 137.94 0.93 145.98 1.83C153.51 2.67 148.9 18.95 149.88 24.52C150.32 26.99 151.31 28.55 151.28 31.19C151.25 33.41 151.28 35.64 151.28 37.86C151.28 41.7 152.35 47.41 151.05 50.97L149.94 51.2" stroke="var(--stroke-0, black)" stroke-miterlimit="10"/>
</g>
<defs>
<clipPath id="clip0_0_72">
<rect width="152.19" height="53.89" fill="white"/>
</clipPath>
</defs>
</svg>
