<svg preserveAspectRatio="none" width="100%" height="100%" overflow="visible" style="display: block;" viewBox="0 0 222.75 33.5" fill="none" xmlns="http://www.w3.org/2000/svg">
<g id="search box" clip-path="url(#clip0_0_59)">
<g id="Vector">
<path d="M1.24 4.55C1.24 7.82 0.48 11.81 1.2 15.12C1.49 16.45 2.03 17.5 2.01 18.87C1.99 20.06 2.01 21.25 2.01 22.44C2.01 24.49 1.33 26.96 2.18 28.93C2.24 29.08 2.84 31.13 2.91 31.16C3.47 31.42 5.02 30.83 5.78 30.76C9.65 30.44 14.28 30.82 18.01 31.31C18.19 31.33 18.55 31.64 18.9 31.68C19.5 31.76 20.23 31.64 20.85 31.69C21.64 31.76 22.14 32.03 23.02 32.11C25.19 32.3 27.54 32.27 29.75 32.44C34.36 32.8 38.96 32.96 43.62 32.99C48.28 33.02 53.05 32.61 57.77 32.48C60.99 32.39 64.18 32.09 67.41 32.07C70.99 32.05 74.58 32.25 78.14 32C88.92 31.23 100.07 31.66 110.93 31.65C126.87 31.65 142.65 30.32 158.56 30.32C165.28 30.32 171.85 30.14 178.56 29.93C183.61 29.77 188.59 29.39 193.64 29.43C197.69 29.46 201.57 28.95 205.6 28.98C207.17 28.98 208.96 28.86 210.49 29.09C211.82 29.29 212.47 29.44 213.95 29.43C215.7 29.42 221.38 29.96 222.09 29.02C222.55 28.4 221.85 27.12 221.65 26.55C221.27 25.46 221.35 24.48 221.28 23.33C221.2 21.92 220.48 20.63 220.48 19.21C220.48 17.73 220.6 16.24 220.52 14.75C220.44 13.36 219.7 12.09 219.74 10.7C219.77 9.39 219.74 8.08 219.74 6.77C219.74 4.93 220.52 2.36 219.58 0.59C213.67 2.23 206.04 1.81 199.51 2.42C196.14 2.74 192.98 2.77 189.56 2.77C186.14 2.77 182.6 3.25 179.03 3.23C164.03 3.12 148.81 4.28 133.89 4.96C126.7 5.29 119.28 5 112.06 5H85.45C77.82 5 70.44 4.56 62.79 4.56H45.15C41.9 4.56 37.97 4.94 34.83 4.52C34.08 4.42 33.71 4.16 32.81 4.1C31.81 4.03 30.9 4.17 29.92 4.01C24.75 3.2 17.96 3.52 12.4 3.66C11.22 3.69 10.93 3.97 10.03 4.07C9.09 4.17 8 4.12 7.02 4.11C5.8 4.11 5.07 4.17 3.94 4.33C2.81 4.49 1.69 4.45 0.61 4.63L0.48 5" fill="var(--fill-0, #DFD9C9)"/>
<path d="M1.24 4.55C1.24 7.82 0.48 11.81 1.2 15.12C1.49 16.45 2.03 17.5 2.01 18.87C1.99 20.06 2.01 21.25 2.01 22.44C2.01 24.49 1.33 26.96 2.18 28.93C2.24 29.08 2.84 31.13 2.91 31.16C3.47 31.42 5.02 30.83 5.78 30.76C9.65 30.44 14.28 30.82 18.01 31.31C18.19 31.33 18.55 31.64 18.9 31.68C19.5 31.76 20.23 31.64 20.85 31.69C21.64 31.76 22.14 32.03 23.02 32.11C25.19 32.3 27.54 32.27 29.75 32.44C34.36 32.8 38.96 32.96 43.62 32.99C48.28 33.02 53.05 32.61 57.77 32.48C60.99 32.39 64.18 32.09 67.41 32.07C70.99 32.05 74.58 32.25 78.14 32C88.92 31.23 100.07 31.66 110.93 31.65C126.87 31.65 142.65 30.32 158.56 30.32C165.28 30.32 171.85 30.14 178.56 29.93C183.61 29.77 188.59 29.39 193.64 29.43C197.69 29.46 201.57 28.95 205.6 28.98C207.17 28.98 208.96 28.86 210.49 29.09C211.82 29.29 212.47 29.44 213.95 29.43C215.7 29.42 221.38 29.96 222.09 29.02C222.55 28.4 221.85 27.12 221.65 26.55C221.27 25.46 221.35 24.48 221.28 23.33C221.2 21.92 220.48 20.63 220.48 19.21C220.48 17.73 220.6 16.24 220.52 14.75C220.44 13.36 219.7 12.09 219.74 10.7C219.77 9.39 219.74 8.08 219.74 6.77C219.74 4.93 220.52 2.36 219.58 0.59C213.67 2.23 206.04 1.81 199.51 2.42C196.14 2.74 192.98 2.77 189.56 2.77C186.14 2.77 182.6 3.25 179.03 3.23C164.03 3.12 148.81 4.28 133.89 4.96C126.7 5.29 119.28 5 112.06 5H85.45C77.82 5 70.44 4.56 62.79 4.56H45.15C41.9 4.56 37.97 4.94 34.83 4.52C34.08 4.42 33.71 4.16 32.81 4.1C31.81 4.03 30.9 4.17 29.92 4.01C24.75 3.2 17.96 3.52 12.4 3.66C11.22 3.69 10.93 3.97 10.03 4.07C9.09 4.17 8 4.12 7.02 4.11C5.8 4.11 5.07 4.17 3.94 4.33C2.81 4.49 1.69 4.45 0.61 4.63L0.48 5" stroke="var(--stroke-0, black)" stroke-miterlimit="10"/>
</g>
<g id="&#235;&#143;&#139;&#235;&#179;&#180;&#234;&#184;&#176;" clip-path="url(#clip1_0_59)">
<path id="Vector_2" d="M16.36 8.49C14.26 8.83 12.18 9.3 10.14 9.9C9.96 11.01 8.41 11.89 8.04 13.04C7.53 14.65 7.19 15.64 7.91 17.24C9.12 19.92 11.64 22.19 14.89 21.68C17.92 21.2 19.91 18.38 20.58 15.71C20.93 14.33 19.66 12.56 18.9 11.47C17.9 10.05 16.92 9.05 15.16 9.09" stroke="var(--stroke-0, black)" stroke-miterlimit="10"/>
<path id="Vector_3" d="M19.72 17.92C20.75 19.07 22.18 20.27 23.02 21.55C23.14 21.73 23.14 21.97 23.29 22.15C23.59 22.53 23.95 22.86 24.29 23.21C24.8 23.73 25.92 24.53 26.07 25.25" stroke="var(--stroke-0, black)" stroke-miterlimit="10"/>
</g>
</g>
<defs>
<clipPath id="clip0_0_59">
<rect width="222.75" height="33.5" fill="white"/>
</clipPath>
<clipPath id="clip1_0_59">
<rect width="19.55" height="17.35" fill="white" transform="translate(7 8)"/>
</clipPath>
</defs>
</svg>
