<svg preserveAspectRatio="none" width="100%" height="100%" overflow="visible" style="display: block;" viewBox="0 0 8.8375 10.9678" fill="none" xmlns="http://www.w3.org/2000/svg">
<path id="Vector 78" d="M8.49877 1.26673C8.65462 1.17646 8.76823 1.02797 8.8146 0.853941C8.86097 0.679908 8.83631 0.494582 8.74605 0.338731C8.65578 0.18288 8.50729 0.0692717 8.33326 0.0228982C8.15923 -0.0234754 7.9739 0.00118464 7.81805 0.0914533C7.81805 0.0914533 7.81805 0.0914533 7.81805 0.0914533C7.58088 0.228821 7.34368 0.366208 7.10611 0.504191C4.90646 1.84704 2.61231 2.9151 0.644444 5.03016C0.639246 5.03667 0.634075 5.04319 0.62893 5.04972C0.188687 5.57168 -0.216171 6.52786 0.130762 7.38398C0.454527 8.20065 1.03923 8.64098 1.54809 9.03009C1.55353 9.0341 1.55898 9.03811 1.56443 9.04211C2.57791 9.79928 3.74746 10.2574 4.84154 10.6545C5.10369 10.749 5.36589 10.8407 5.62752 10.9306C5.79981 10.9898 5.98847 10.9781 6.15205 10.8979C6.31562 10.8177 6.44071 10.6756 6.49975 10.5029C6.55879 10.3303 6.54693 10.1414 6.46673 9.9778C6.38654 9.81422 6.24457 9.68942 6.07211 9.63072C6.07211 9.63072 6.07211 9.63072 6.07211 9.63072C5.81488 9.54314 5.55856 9.45444 5.30498 9.36386C4.23124 8.97873 3.21624 8.57637 2.36922 7.94381C2.36454 7.94039 2.35986 7.93696 2.35518 7.93352C1.9084 7.60961 1.51953 7.23583 1.40548 6.91223C1.28925 6.61497 1.38602 6.28543 1.69558 5.89049C1.69908 5.88606 1.70261 5.8816 1.70617 5.87714C3.22647 4.21696 5.63321 2.96991 7.78824 1.67864C8.02486 1.54121 8.2616 1.40409 8.49877 1.26673Z" fill="var(--stroke-0, black)"/>
</svg>
