<svg preserveAspectRatio="none" width="100%" height="100%" overflow="visible" style="display: block;" viewBox="0 0 307.181 183.062" fill="none" xmlns="http://www.w3.org/2000/svg">
<path id="Vector 63" d="M70.5093 86.9661C70.4541 86.5573 70.399 86.1485 70.3438 85.7396C65.2127 86.4336 59.9766 86.7998 54.8215 87.7431C53.6692 87.9416 52.5107 88.1368 51.3536 88.3282C36.4468 90.9466 21.4409 92.1588 6.51885 95.7874C6.411 95.8257 6.31219 95.8664 6.21739 95.9151C6.11599 95.9727 5.96944 96.0345 5.80379 96.2541C5.70054 96.3893 5.62382 96.6389 5.66897 96.8486C5.70547 97.0548 5.83002 97.211 5.9003 97.281C6.02086 97.4058 6.182 97.4947 6.25481 97.5319C6.66042 97.7278 6.94191 97.7915 7.29092 97.8833C7.93673 98.0415 8.55198 98.1477 9.19087 98.2493C16.7607 99.2974 24.3185 99.6172 31.8976 99.8345C33.9143 99.882 35.93 99.9327 37.9444 99.9909C41.2481 100.087 44.5565 100.2 47.8526 100.372C50.4054 100.508 52.9729 100.672 55.4969 100.951C56.7577 101.094 58.034 101.264 59.2442 101.529C59.8497 101.665 60.4447 101.822 60.9447 102.053C61.183 102.157 61.4069 102.331 61.4184 102.373C61.4224 102.393 61.4085 102.315 61.4141 102.321C61.414 102.326 61.3861 102.389 61.3096 102.472C59.6728 104.197 57.2454 105.306 54.909 106.319C46.3999 109.797 37.3015 111.884 28.5165 114.986C25.9391 115.902 23.355 116.809 20.7849 117.699C14.0054 120.101 7.31062 122.099 0.392413 124.711C0.326906 124.751 0.254082 124.785 0.144966 124.917C0.118199 124.952 0.0895113 124.994 0.0633438 125.05C0.0404804 125.102 0.0052011 125.175 0.000290871 125.321C-0.00869131 125.61 0.192565 125.821 0.295824 125.884C0.352215 125.922 0.398536 125.943 0.438449 125.959C0.462965 125.968 0.471798 125.971 0.487268 125.976C0.515437 125.986 0.54077 125.993 0.564656 125.998C0.612314 126.009 0.654524 126.016 0.696471 126.022C0.845124 126.039 0.911363 126.039 1.03581 126.042C1.20392 126.044 1.42645 126.037 1.58263 126.03C1.76223 126.022 1.94783 126.011 2.116 126C2.294 125.988 2.47882 125.975 2.64388 125.962C3.3559 125.905 4.02978 125.84 4.73515 125.768C6.11614 125.627 7.49914 125.469 8.88243 125.307C19.3189 124.058 29.7026 122.641 40.1136 121.226C43.3206 120.789 46.521 120.367 49.7276 120.017C53.485 119.687 57.6697 118.99 60.9255 119.842C61.0575 119.902 61.1359 119.971 61.1494 119.994C61.1598 120.015 61.1684 120.006 61.1564 120.1C61.1288 120.286 60.9388 120.617 60.7194 120.904C60.27 121.494 59.6901 122.066 59.1096 122.614C57.9324 123.716 56.6757 124.767 55.4157 125.814C53.7142 127.223 52.0013 128.608 50.2779 130.014C47.5602 132.229 44.8377 134.464 42.1332 136.707C35.4391 142.289 28.7272 147.84 22.2942 153.772C21.0934 154.945 19.8906 155.941 18.8432 157.537C18.7798 157.654 18.719 157.766 18.6606 157.964C18.6234 158.118 18.5177 158.477 18.8099 158.868C19.121 159.222 19.4138 159.212 19.576 159.234C19.763 159.246 19.8945 159.23 20.0216 159.214C20.5279 159.138 20.9246 159.004 21.3328 158.87C22.1399 158.594 22.8984 158.284 23.6638 157.97C23.9347 157.858 24.2053 157.746 24.4755 157.633C27.2454 156.473 29.9896 155.254 32.6982 153.961C39.3565 150.784 45.8331 147.244 52.1786 143.504C55.0378 141.818 57.9181 140.164 60.8221 138.549C70.3965 133.32 80.8301 127.635 90.3961 124.627C90.4748 124.665 90.4505 124.653 90.4694 124.683C90.4855 124.717 90.5029 124.832 90.4839 124.986C90.4474 125.294 90.3237 125.653 90.168 126.02C89.8564 126.745 89.4376 127.477 89.0031 128.192C88.1234 129.628 87.1499 131.028 86.1698 132.418C83.0255 136.84 79.7603 141.218 76.6686 145.712C74.5092 148.842 72.3694 151.958 70.2363 155.093C66.4697 160.86 62.4761 165.788 59.2126 172.59C59.2242 172.752 59.2036 172.869 59.3773 173.156C59.564 173.443 59.9275 173.545 60.1373 173.527C60.3029 173.52 60.4341 173.478 60.5319 173.442C60.6168 173.41 60.6965 173.372 60.7762 173.33C61.0445 173.186 61.2624 173.026 61.4708 172.869C61.8881 172.548 62.2457 172.233 62.6169 171.899C63.342 171.242 64.0381 170.563 64.726 169.882C66.103 168.516 67.4425 167.135 68.7828 165.75C72.0295 162.389 75.2509 159.029 78.5293 155.71C81.5372 152.664 84.5546 149.7 87.6711 146.809C92.5303 142.408 97.4196 137.797 103.208 134.914C103.286 134.873 103.326 134.87 103.32 134.871C103.312 134.875 103.239 134.853 103.229 134.839C103.214 134.806 103.329 134.992 103.369 135.169C103.48 135.596 103.51 136.089 103.519 136.617C103.529 137.648 103.443 138.701 103.329 139.785C103.101 141.896 102.758 144.04 102.388 146.166C100.293 157.84 97.5563 169.432 95.2854 181.114C95.2455 181.344 95.2125 181.459 95.2183 181.788C95.2252 181.862 95.2186 181.923 95.2784 182.109C95.337 182.262 95.4615 182.541 95.8698 182.646C96.0454 182.686 96.2076 182.656 96.3 182.627C96.3661 182.606 96.4209 182.582 96.4693 182.557C96.5625 182.509 96.6495 182.443 96.6981 182.404C96.7864 182.332 96.8659 182.254 96.9477 182.167C97.0113 182.099 97.0683 182.034 97.1309 181.96C97.2699 181.793 97.3474 181.691 97.4628 181.537C97.8713 180.985 98.2424 180.417 98.6001 179.858C99.3226 178.724 99.9988 177.592 100.667 176.459C102 174.192 103.304 171.891 104.596 169.594C108.027 163.483 111.386 157.368 114.778 151.241C117.846 145.847 120.614 140.038 123.925 135.103C123.997 135.019 124.081 134.933 124.136 134.888C124.178 134.88 123.989 134.927 123.98 134.901C123.967 134.888 124.087 134.973 124.161 135.062C124.357 135.285 124.537 135.586 124.705 135.906C125.051 136.573 125.324 137.259 125.592 137.983C126.122 139.429 126.57 140.91 126.998 142.411C127.851 145.428 128.589 148.442 129.306 151.502C131.552 161.13 133.488 170.847 135.735 180.507C135.869 181.052 135.941 181.568 136.16 182.234C136.192 182.32 136.229 182.416 136.291 182.529C136.36 182.637 136.426 182.801 136.724 182.968C136.875 183.05 137.098 183.082 137.262 183.05C137.431 183.02 137.539 182.959 137.62 182.908C137.784 182.798 137.852 182.716 137.929 182.629C138.19 182.31 138.317 182.054 138.465 181.78C141.209 176.525 143.386 170.993 145.15 165.356C145.493 164.26 145.872 163.183 146.185 162.075C148.476 154.127 149.816 145.628 151.006 137.79C151.078 137.591 151.153 137.444 151.219 137.343C151.308 137.211 151.366 137.172 151.401 137.155C151.421 137.127 151.631 137.133 151.945 137.346C152.545 137.754 153.093 138.401 153.628 139.09C154.671 140.458 155.598 141.983 156.491 143.517C158.271 146.604 159.895 149.784 161.505 152.971C164.834 159.433 167.717 166.103 171.833 172.285C173.174 174.156 174.468 176.123 175.748 178.065L177.212 180.301L177.104 177.63C176.831 170.764 176.578 163.885 176.35 157.002C176.286 155.082 176.247 153.16 176.188 151.241C176.054 145.799 175.766 139.928 175.97 134.902C176.561 131.65 180.341 132.751 182.98 134.235C185.794 135.763 188.363 137.698 190.917 139.715C195.976 143.754 200.787 148.166 205.679 152.493C209.043 155.436 212.384 158.482 216.175 161.011C218.453 162.461 220.731 163.781 223.261 164.905C223.363 164.947 223.462 164.983 223.562 165.012C223.611 165.026 223.661 165.039 223.712 165.05C223.778 165.064 223.863 165.078 223.946 165.083C224.03 165.088 224.12 165.086 224.219 165.07C224.332 165.054 224.521 164.994 224.666 164.878C224.988 164.62 225.037 164.299 225.039 164.078C225.038 163.92 225.013 163.79 224.979 163.661C224.946 163.542 224.919 163.471 224.882 163.375C224.802 163.175 224.74 163.05 224.658 162.891C224.35 162.31 223.988 161.772 223.648 161.28C222.939 160.264 222.198 159.304 221.449 158.354C219.945 156.455 218.394 154.604 216.829 152.762C213.706 149.09 210.511 145.465 207.359 141.845C205.761 140.007 204.254 138.09 202.862 136.101C201.446 134.054 200.063 131.878 199.145 129.704C199.11 129.613 199.098 129.553 199.096 129.532C206.417 131.618 217.714 137.338 227.202 141.007C228.586 141.557 229.978 142.094 231.374 142.612C234.705 143.847 238.059 145.002 241.432 146.066C245.203 147.254 248.992 148.325 252.849 149.212C254.783 149.654 256.698 150.045 258.683 150.349C259.669 150.498 260.655 150.626 261.674 150.691C262.174 150.719 262.692 150.744 263.269 150.687C263.388 150.675 263.589 150.647 263.759 150.595C263.882 150.555 263.977 150.527 264.147 150.411C264.248 150.338 264.366 150.227 264.447 150.055C264.534 149.884 264.55 149.617 264.492 149.443C264.375 149.115 264.275 149.063 264.163 148.948C264.088 148.882 264.012 148.826 263.931 148.774C263.775 148.675 263.67 148.621 263.518 148.547C258.886 146.288 254.458 143.438 250.094 140.568C243.096 135.928 236.287 130.996 229.491 126.042C228.983 125.675 228.474 125.362 228.007 125.044C227.776 124.886 227.552 124.725 227.376 124.57C227.192 124.438 227.114 124.189 227.164 124.411C227.147 124.634 227.05 124.649 227.114 124.609C227.17 124.568 227.262 124.519 227.393 124.466C227.62 124.373 227.914 124.288 228.213 124.217C228.819 124.075 229.42 123.979 230.064 123.889C231.321 123.717 232.613 123.598 233.901 123.495C243.806 122.791 253.792 122.537 263.758 122.015C267.523 121.828 271.265 121.595 275.015 121.298C276.207 121.204 277.432 121.1 278.623 120.991C283.617 120.489 288.469 120.109 293.552 118.913C293.616 118.89 293.69 118.861 293.787 118.793C293.835 118.758 293.889 118.712 293.943 118.646C293.971 118.612 293.996 118.576 294.022 118.529C294.056 118.466 294.085 118.392 294.1 118.313C294.168 117.976 293.992 117.725 293.915 117.642C293.866 117.586 293.822 117.549 293.782 117.518C293.604 117.392 293.56 117.385 293.47 117.342C293.303 117.27 293.188 117.232 293.054 117.188C292.803 117.107 292.56 117.04 292.308 116.973C291.815 116.843 291.345 116.732 290.853 116.62C289.881 116.399 288.919 116.198 287.959 116.003C286.036 115.614 284.1 115.246 282.169 114.888C278.301 114.17 274.443 113.488 270.573 112.816C268.907 112.527 267.239 112.24 265.57 111.955C258.28 110.731 251.092 109.105 243.864 107.438C243.935 107.451 244.182 107.538 244.296 107.812C244.39 108.06 244.331 108.197 244.31 108.267C244.251 108.396 244.27 108.339 244.278 108.337C244.32 108.288 244.362 108.248 244.44 108.178C244.571 108.06 244.76 107.912 244.905 107.803C245.067 107.68 245.25 107.547 245.416 107.43C245.594 107.305 245.774 107.181 245.946 107.064C254.184 101.723 262.882 96.9351 271.484 92.0715C275.851 89.6242 280.241 87.2099 284.651 84.7954C286.781 83.6295 288.89 82.4665 291.008 81.2824C295.914 78.5045 300.851 75.8306 305.588 72.6117C306.067 72.2325 306.478 72.0777 307.043 71.2739C307.102 71.1448 307.243 70.9426 307.149 70.5246C307.096 70.327 306.98 70.1726 306.859 70.0698C306.752 69.9792 306.662 69.9338 306.571 69.8949C306.273 69.7804 306.083 69.7822 305.919 69.77C305.58 69.7558 305.268 69.7803 304.99 69.8054C303.836 69.9215 302.741 70.1281 301.66 70.3299C299.479 70.7469 297.336 71.2108 295.166 71.6831C289.169 72.9979 283.184 74.3638 277.192 75.6983C269.718 77.3435 262.241 79.106 254.747 80.3862C254.709 80.3925 254.689 80.392 254.702 80.3921C254.714 80.3936 254.703 80.3885 254.768 80.4016C254.822 80.4149 254.936 80.4509 255.045 80.5704C255.157 80.6869 255.207 80.8747 255.2 80.9793C255.196 81.0863 255.167 81.1439 255.166 81.1478C255.153 81.1763 255.155 81.1672 255.172 81.1444C255.229 81.0629 255.377 80.9091 255.512 80.7828C258.749 78.0341 262.553 75.6011 266.167 73.1455C273.137 68.4938 280.189 63.9695 287.256 59.4612C291.543 56.6228 295.96 54.0767 299.624 50.0631C299.748 49.9005 299.87 49.733 299.986 49.514C300.084 49.2969 300.272 49.0015 300.135 48.4717C300.038 48.1464 299.785 47.9283 299.597 47.8249C299.414 47.7221 299.249 47.674 299.1 47.6382C298.8 47.5704 298.559 47.5552 298.305 47.5449C297.815 47.5293 297.354 47.5574 296.893 47.5951C295.986 47.6726 295.088 47.7988 294.207 47.9346C292.433 48.2113 290.697 48.5385 288.937 48.8835C278.686 50.9407 268.516 53.2955 258.347 55.6466C255.27 56.3618 252.192 57.0986 249.129 57.8362C247.189 58.3031 245.286 58.7651 243.358 59.2216C242.302 59.471 241.26 59.7161 240.216 59.9434C239.696 60.0558 239.169 60.1667 238.663 60.249C238.415 60.2889 238.146 60.3241 237.98 60.3213C237.94 60.3216 237.909 60.3132 237.948 60.3222C237.974 60.3331 238.013 60.3309 238.124 60.425C238.227 60.4983 238.321 60.7453 238.304 60.8428C238.281 61.0581 238.256 61.0126 238.273 61.0044C238.285 60.9851 238.313 60.949 238.348 60.9075C239.489 59.553 240.681 58.2378 241.903 56.944C250.753 47.8531 260.207 39.1483 268.281 29.1928C268.855 28.4977 269.416 27.7961 269.964 27.0777C271.284 25.2325 272.733 23.6715 273.503 21.1096C273.524 20.9205 273.578 20.6802 273.405 20.3064C273.315 20.1227 273.137 19.954 272.974 19.8725C272.806 19.786 272.668 19.76 272.545 19.7443C272.085 19.7052 271.807 19.7926 271.519 19.8605C270.948 20.014 270.461 20.2053 269.962 20.4075C268.975 20.8142 268.02 21.2647 267.087 21.7181C264.705 22.8821 262.39 24.0948 260.053 25.327C249.448 30.9554 238.93 36.7491 228.403 42.5232C225.668 44.0252 222.959 45.6025 220.23 47.11C219.559 47.4808 218.883 47.854 218.227 48.2164C214.664 50.1433 211.148 52.2592 207.524 53.791C207.096 53.9578 206.541 54.1026 206.378 54.0581C206.35 54.0478 206.411 54.0718 206.429 54.1047C206.446 54.1348 206.425 54.1044 206.422 54.0346C206.41 53.8933 206.44 53.6655 206.488 53.4396C208.473 41.9292 214.883 32.495 221.28 22.5531C221.307 22.4816 221.332 22.4009 221.341 22.2922C221.344 22.2361 221.345 22.1819 221.331 22.1018C221.313 21.9999 221.264 21.8803 221.183 21.7833C221.105 21.6863 220.992 21.6153 220.913 21.5835C220.85 21.5569 220.792 21.5424 220.739 21.5339C220.637 21.5172 220.544 21.5231 220.484 21.53C220.297 21.5532 220.149 21.6084 220.038 21.6496C219.79 21.7451 219.583 21.849 219.397 21.9443C218.988 22.157 218.637 22.3627 218.249 22.5967C217.509 23.046 216.805 23.5072 216.096 23.9831C214.668 24.9447 213.301 25.9193 211.924 26.9246C207.717 30.0056 203.566 33.1839 199.549 36.4835C197.877 37.8575 196.219 39.2477 194.572 40.6533C189.748 44.6601 185.273 49.3057 180.311 52.7845C179.612 53.22 178.74 53.5808 178.344 53.4231C177.974 53.3521 177.634 52.4901 177.427 51.6576C177.002 50.1621 176.501 48.652 176.036 47.2001C172.581 36.5766 169.012 25.9768 165.467 15.3705C163.99 10.9574 162.541 6.50871 161.092 2.12895L160.38 0L159.752 2.15805C159.285 3.75122 158.819 5.34507 158.358 6.94036C157.854 8.6864 157.351 10.4325 156.848 12.1789C154.367 20.7931 151.894 29.4096 149.411 38.0232C146.875 46.8186 144.34 55.6142 141.804 64.4097L143.055 64.2768C138.046 54.8695 133.168 45.3194 128.6 35.6674C126.67 31.5716 124.797 27.4574 123.084 23.2807C121.473 19.3454 119.745 15.4264 117.843 11.6246C116.88 9.70471 115.882 7.82828 114.782 5.98066C114.23 5.05662 113.665 4.15667 113.032 3.26074C112.724 2.8273 112.386 2.37427 112.019 1.94869C111.833 1.73519 111.636 1.5197 111.398 1.31018C111.274 1.20388 111.146 1.09589 110.943 0.98628C110.83 0.931925 110.71 0.863234 110.455 0.848855C110.347 0.84171 110.131 0.873829 109.976 0.975654C109.818 1.07362 109.713 1.21433 109.653 1.3404C107.785 6.60205 109.293 11.614 109.889 16.5444C110.682 21.5763 111.545 26.5687 111.926 31.5998C112.176 35.4856 111.725 39.4721 111.186 43.4032C110.769 46.3271 110.26 49.2445 109.657 52.127L110.203 51.6317C103.517 52.1303 96.2641 50.7112 91.0495 46.3728C90.0396 45.5286 89.083 44.7297 88.0747 43.8886C82.3937 39.15 76.7237 34.395 71.006 29.6988C66.3178 25.8512 61.5972 21.9971 56.853 18.2196L55.8259 19.0936C56.3171 19.9731 56.8577 20.9279 57.3815 21.8477C65.2273 35.459 73.2221 49.0183 82.6752 61.641C84.1803 63.5961 85.7392 65.5228 87.4581 67.3063C87.5275 67.3758 87.5457 67.421 87.5262 67.38C87.524 67.369 87.4807 67.2945 87.5118 67.1377C87.539 66.9868 87.6734 66.8683 87.6936 66.8612C87.7622 66.8204 87.7348 66.8476 87.648 66.8574C87.5914 66.8653 87.5197 66.871 87.4289 66.8732C87.2297 66.8774 87.0423 66.8665 86.8499 66.8513C86.6609 66.8366 86.3944 66.8063 86.2262 66.7842C85.4079 66.6771 84.5449 66.5144 83.7295 66.3492C82.0439 66.0044 80.3785 65.6081 78.7119 65.1978C75.3635 64.3695 72.038 63.4813 68.7087 62.5855C64.7543 61.5207 60.7892 60.4316 56.8328 59.3857C54.854 58.8637 52.8483 58.3432 50.8475 57.8644C49.8893 57.636 48.8487 57.3964 47.824 57.1944C47.5977 57.1498 47.3032 57.0943 47.045 57.05C46.7764 57.0043 46.5752 56.9714 46.2603 56.93C45.965 56.894 45.7789 56.8693 45.4145 56.8602C45.3364 56.8592 45.2616 56.8604 45.1885 56.8646C45.1519 56.8667 45.1158 56.8695 45.0797 56.8733C45.0154 56.88 44.9485 56.8901 44.8805 56.9057C44.746 56.9399 44.5889 56.9828 44.4142 57.148C44.287 57.2644 44.1777 57.4954 44.1828 57.6934C44.1833 57.8929 44.2488 58.0349 44.3103 58.1407C44.9763 59.035 45.6267 59.2855 46.2941 59.715C51.8014 62.7323 57.5014 64.9887 62.9135 67.8702C65.405 69.256 68.4362 70.7304 69.7222 72.7966C69.8032 72.9833 69.8184 73.1212 69.7973 73.2291C60.166 77.9604 45.922 76.3943 33.8276 77.7711C32.8738 77.8563 31.8699 77.9557 30.9224 78.0728C29.3445 78.2688 27.7838 78.4623 26.206 78.6906C25.4229 78.8059 24.631 78.9256 23.8341 79.0917C23.6302 79.1352 23.4441 79.1768 23.2143 79.2408C23.1169 79.2682 22.9928 79.306 22.8799 79.3486C22.8321 79.3665 22.7485 79.4003 22.6783 79.4358C22.6149 79.4694 22.5134 79.5166 22.3866 79.638C22.3432 79.6813 22.2088 79.8171 22.1615 80.0418C22.1088 80.272 22.1924 80.5124 22.2891 80.6399C22.4026 80.7872 22.4397 80.8 22.5019 80.8488C22.5561 80.8876 22.6213 80.9232 22.6559 80.9403C22.8046 81.0137 22.9317 81.0524 23.0451 81.086C23.2742 81.1514 23.4762 81.1926 23.6848 81.2327C25.7426 81.5854 27.734 81.753 29.746 81.9746C39.1148 82.956 48.5018 83.9055 57.8812 84.8284C59.844 85.0209 61.8174 85.166 63.78 85.2594C64.9761 85.3174 66.1581 85.3589 67.3497 85.4094C67.9393 85.4372 68.5385 85.4563 69.1081 85.5284C69.2429 85.5467 69.404 85.5781 69.4715 85.6163C69.491 85.6296 69.4964 85.6034 69.4879 85.7057C69.4746 85.793 69.513 85.9251 69.5777 85.9866C69.837 86.2236 70.1386 86.2715 70.4266 86.3529C70.1668 86.2226 69.8599 86.0788 69.72 85.8771C69.6914 85.8257 69.692 85.7973 69.7079 85.7389C69.728 85.7017 69.7564 85.4989 69.6452 85.4168C69.4805 85.2767 69.3354 85.2458 69.188 85.1914C68.6002 85.0059 68.0131 84.8905 67.426 84.772C66.2435 84.5413 65.0715 84.3539 63.8824 84.1837C61.939 83.9053 59.9758 83.6677 58.0139 83.4753C48.6387 82.5527 39.2512 81.6054 29.8877 80.6268C27.8905 80.4084 25.8475 80.2306 23.9368 79.9026C23.752 79.8675 23.5734 79.8296 23.4203 79.7859C23.3476 79.7657 23.2718 79.7372 23.2617 79.7311C23.2608 79.7389 23.2639 79.7022 23.3897 79.8547C23.4555 79.9386 23.5275 80.1365 23.4843 80.3198C23.4443 80.5 23.3526 80.5815 23.3349 80.601C23.2156 80.6974 23.3075 80.6232 23.3584 80.6114C23.4166 80.5888 23.5067 80.5602 23.5824 80.5386C23.7628 80.4874 23.9311 80.4481 24.1165 80.4074C24.8508 80.2495 25.6346 80.1232 26.4032 80.0031C27.9578 79.7636 29.5125 79.5535 31.0845 79.3473C32.0083 79.2264 32.9976 79.124 33.941 79.0397C46.2566 77.333 59.1875 80.3597 71.0558 73.4766C71.1417 73.0372 71.0485 72.6294 70.8985 72.2843C68.971 69.2972 66.1001 68.2455 63.5189 66.7294C58.0543 63.8126 52.2773 61.5011 46.9564 58.5833C46.3634 58.2395 45.6182 57.7493 45.438 57.472C51.5911 59.8018 60.739 61.618 68.3705 63.8411C71.7031 64.7377 75.0338 65.6277 78.4 66.4611C80.0765 66.874 81.7524 67.2736 83.4697 67.6253C84.3022 67.7941 85.1832 67.9614 86.0586 68.0764C86.2388 68.1002 86.5289 68.1334 86.7447 68.1503C86.8576 68.1595 86.9656 68.1664 87.069 68.1711C87.1748 68.1761 87.3378 68.1796 87.4601 68.1763C87.5899 68.173 87.7052 68.1655 87.8302 68.1482C88.0228 68.1185 88.207 68.0806 88.4147 67.9474C88.5014 67.9013 88.7417 67.6729 88.7845 67.4209C88.8127 67.2952 88.8083 67.1709 88.7872 67.0658C88.7633 66.9568 88.752 66.9357 88.7294 66.8778C88.6438 66.6784 88.529 66.5401 88.395 66.3994C86.7368 64.6782 85.1977 62.7776 83.7123 60.8453C74.3536 48.3378 66.4003 34.7421 58.577 21.1669C58.0549 20.25 57.5139 19.2949 57.0272 18.4243L56.0001 19.2983C60.7287 23.0603 65.4577 26.9096 70.148 30.7454C75.8701 35.4285 81.5946 40.1125 87.2733 44.8492C88.2812 45.69 89.2374 46.4887 90.2467 47.3329C95.8441 51.957 103.295 53.4018 110.351 52.8905L110.801 52.8375L110.896 52.3952C111.512 49.4643 112.025 46.541 112.452 43.5836C112.999 39.6027 113.488 35.6027 113.252 31.5035C112.894 26.3862 112.052 21.3466 111.262 16.3292C110.624 11.49 109.322 6.22065 110.9 1.93504C114.255 7.64358 118.839 16.1605 121.833 23.7932C123.565 28.0038 125.448 32.1317 127.384 36.2412C131.967 45.9246 136.842 55.4816 141.858 64.9193L142.647 66.3877L143.109 64.7864C145.651 55.9928 148.194 47.1994 150.736 38.4058C153.226 29.7942 155.726 21.1855 158.218 12.5744C158.723 10.8287 159.227 9.08276 159.731 7.33673C160.192 5.74143 160.647 4.1447 161.101 2.54728L159.762 2.57638C161.252 6.94119 162.778 11.3639 164.255 15.7763C167.798 26.3799 171.342 36.9928 174.773 47.6071C175.231 49.0458 175.74 50.5991 176.133 52.0012C176.415 52.8329 176.488 54.0708 177.904 54.6958C179.309 55.0544 180.178 54.3869 181.012 53.9445C186.348 50.2245 190.642 45.7318 195.489 41.7296C197.132 40.3322 198.786 38.9491 200.451 37.5805C204.451 34.2948 208.488 31.0036 212.664 27.9353C214.029 26.9349 215.385 25.9654 216.791 25.0152C217.488 24.5454 218.181 24.0909 218.893 23.6568C219.264 23.4316 219.601 23.2343 219.966 23.0438C220.129 22.9593 220.315 22.868 220.478 22.8056C220.546 22.7779 220.64 22.7541 220.626 22.7583C220.622 22.7584 220.598 22.7629 220.542 22.7543C220.514 22.7497 220.477 22.7412 220.433 22.7227C220.379 22.7009 220.291 22.647 220.229 22.5701C220.165 22.4935 220.128 22.3988 220.115 22.3262C220.105 22.2692 220.106 22.2346 220.108 22.203C220.113 22.1421 220.124 22.1173 220.126 22.11C214.107 31.3946 207.254 41.6364 205.319 53.1967C205.264 53.4765 205.209 53.7571 205.231 54.1248C205.247 54.3083 205.281 54.5361 205.443 54.7777C205.601 55.0231 205.903 55.1824 206.119 55.2232C206.977 55.3368 207.415 55.0767 207.943 54.9087C211.805 53.2734 215.22 51.216 218.819 49.2957C219.477 48.9365 220.155 48.5666 220.828 48.199C223.565 46.7051 226.348 45.2644 229.084 43.7635C239.61 37.9945 250.134 32.2044 260.72 26.5887C263.05 25.3604 265.36 24.1507 267.712 23.0016C268.631 22.5547 269.57 22.1066 270.503 21.7138C270.97 21.5195 271.432 21.337 271.879 21.2131C272.087 21.1532 272.333 21.1171 272.386 21.127C272.426 21.1372 272.249 21.1029 272.17 20.9395C272.113 20.8005 272.152 20.8338 272.135 20.902C271.656 22.6059 270.172 24.5601 268.903 26.2676C268.366 26.9702 267.816 27.6588 267.252 28.3419C259.22 38.2433 249.87 46.8431 240.93 56.0245C239.694 57.3324 238.488 58.6699 237.33 60.0523C237.273 60.1205 237.22 60.1869 237.159 60.2794C237.102 60.3871 237.007 60.4598 236.977 60.8118C236.956 60.9714 237.079 61.2933 237.23 61.4071C237.399 61.5505 237.49 61.568 237.588 61.6004C237.751 61.6434 237.852 61.6451 237.957 61.6483C238.319 61.6484 238.59 61.6007 238.875 61.5568C239.432 61.4644 239.967 61.3497 240.498 61.2338C241.559 61.0002 242.602 60.7529 243.661 60.5029C245.593 60.0456 247.497 59.5951 249.439 59.1424C252.505 58.4275 255.588 57.7199 258.662 57.0059C268.824 54.6595 279 52.3067 289.207 50.26C290.957 49.9172 292.682 49.5926 294.422 49.3214C295.285 49.1883 296.161 49.066 297.01 48.9938C297.439 48.9582 297.864 48.9347 298.256 48.9476C298.455 48.9545 298.638 48.9718 298.78 49.0048C298.848 49.02 298.901 49.0424 298.903 49.0449C298.912 49.0525 298.827 48.9964 298.794 48.8856C298.76 48.7025 298.802 48.7723 298.742 48.8643C298.692 48.9592 298.609 49.0811 298.513 49.2048C295.269 52.7736 290.723 55.5093 286.506 58.2854C279.438 62.8034 272.389 67.3392 265.406 72.0074C261.756 74.4967 258.06 76.8357 254.578 79.7915C254.413 79.9487 254.239 80.1133 254.065 80.3498C254.01 80.4281 253.958 80.5089 253.912 80.6155C253.868 80.6988 253.723 81.1461 254.036 81.4858C254.176 81.639 254.337 81.6995 254.454 81.7276C254.602 81.7576 254.601 81.7499 254.667 81.7542C254.772 81.7566 254.865 81.747 254.96 81.7322C262.555 80.4423 270.018 78.7571 277.508 77.1188C283.505 75.7911 289.494 74.4327 295.481 73.1277C297.645 72.6591 299.785 72.1989 301.936 71.7899C302.996 71.5924 304.092 71.3907 305.129 71.2883C305.371 71.2657 305.647 71.2487 305.849 71.2584C305.938 71.2591 306.055 71.2876 306 71.2716C305.98 71.2631 305.946 71.249 305.889 71.2013C305.825 71.1476 305.745 71.0458 305.711 70.9158C305.653 70.6363 305.739 70.5715 305.735 70.5581C305.743 70.5622 305.528 70.785 305.344 70.928C305.147 71.0878 304.944 71.2378 304.721 71.397C300.151 74.499 295.157 77.2117 290.276 79.9732C288.162 81.155 286.059 82.3232 283.937 83.4969C279.534 85.9318 275.157 88.3768 270.787 90.8266C262.163 95.7045 253.514 100.459 245.145 105.884C244.967 106.005 244.78 106.134 244.593 106.266C244.419 106.389 244.224 106.53 244.045 106.665C243.885 106.786 243.673 106.951 243.492 107.113C243.377 107.218 243.332 107.253 243.184 107.422C243.153 107.458 243.124 107.496 243.095 107.539C243.08 107.56 243.066 107.583 243.051 107.607C243.028 107.647 242.999 107.7 242.976 107.763C242.934 107.89 242.87 108.071 242.981 108.363C243.115 108.682 243.407 108.801 243.553 108.83C250.75 110.491 258.006 112.138 265.327 113.373C266.995 113.659 268.661 113.946 270.326 114.236C277.941 115.223 286.148 118.18 293.074 117.533C288.489 118.597 283.393 119.048 278.489 119.527C277.304 119.634 276.086 119.738 274.899 119.832C271.166 120.126 267.438 120.357 263.685 120.542C253.723 121.061 243.774 121.307 233.784 122.017C232.479 122.122 231.169 122.241 229.861 122.42C229.188 122.515 228.559 122.614 227.87 122.775C227.527 122.858 227.178 122.953 226.832 123.094C226.626 123.18 226.467 123.25 226.238 123.414C226.063 123.546 225.698 123.84 225.682 124.394C225.75 125.224 226.157 125.425 226.395 125.681C226.661 125.914 226.92 126.095 227.173 126.269C227.68 126.613 228.175 126.918 228.62 127.241C235.416 132.192 242.245 137.137 249.278 141.8C253.672 144.688 258.104 147.551 262.878 149.886C262.986 149.938 263.057 149.977 263.123 150.019C263.156 150.04 263.175 150.056 263.176 150.057C263.177 150.047 263.143 150.066 263.068 149.861C263.029 149.75 263.039 149.546 263.102 149.425C263.16 149.302 263.237 149.237 263.28 149.206C263.35 149.158 263.35 149.169 263.332 149.173C263.305 149.182 263.188 149.203 263.109 149.211C262.716 149.251 262.221 149.235 261.766 149.207C260.822 149.147 259.865 149.023 258.907 148.877C256.977 148.58 255.09 148.193 253.183 147.755C249.379 146.877 245.624 145.812 241.886 144.631C238.54 143.572 235.217 142.408 231.912 141.169C230.531 140.651 229.15 140.113 227.777 139.565C222.871 137.607 218.021 135.479 213.166 133.353C210.734 132.291 208.3 131.224 205.835 130.223C204.602 129.725 203.362 129.239 202.059 128.812C201.41 128.603 200.746 128.404 200.041 128.274C199.844 128.239 199.657 128.213 199.477 128.197C199.25 128.18 199.076 128.172 198.815 128.199C198.683 128.215 198.551 128.241 198.418 128.285C198.252 128.341 198.074 128.43 197.92 128.57C197.752 128.718 197.615 128.942 197.559 129.157C197.508 129.344 197.502 129.527 197.519 129.696C197.544 129.916 197.595 130.086 197.666 130.274C198.73 132.766 200.157 134.849 201.617 136.972C203.043 139.009 204.582 140.965 206.213 142.841C209.372 146.468 212.563 150.085 215.675 153.743C217.234 155.577 218.778 157.419 220.262 159.293C221.001 160.229 221.73 161.174 222.406 162.144C222.728 162.608 223.072 163.125 223.318 163.592C223.436 163.797 223.546 164.14 223.527 164.078C223.527 164.04 223.537 163.845 223.74 163.683C223.952 163.538 224.029 163.581 224.041 163.574C224.046 163.575 223.957 163.558 223.833 163.505C221.517 162.478 219.186 161.14 216.994 159.742C213.391 157.343 210.023 154.291 206.679 151.362C201.798 147.045 196.981 142.618 191.865 138.525C189.275 136.477 186.68 134.506 183.704 132.883C182.219 132.108 180.661 131.355 178.794 131.213C177.888 131.15 176.786 131.35 175.978 132.016C175.148 132.696 174.748 133.565 174.483 134.488C174.154 140.402 174.521 145.708 174.637 151.288C174.695 153.209 174.78 155.132 174.845 157.053C175.082 163.94 175.345 170.82 175.627 177.69L176.983 177.255C175.69 175.298 174.405 173.348 173.02 171.421C169.089 165.541 166.119 158.766 162.803 152.317C161.188 149.12 159.562 145.926 157.758 142.785C156.851 141.22 155.914 139.665 154.799 138.193C154.208 137.442 153.667 136.743 152.762 136.11C152.521 135.952 152.26 135.81 151.937 135.723C151.585 135.629 151.176 135.626 150.788 135.803C150.381 135.999 150.19 136.222 149.982 136.52C149.832 136.746 149.712 136.997 149.608 137.281C148.239 145.75 147.002 153.698 144.711 161.659C144.402 162.754 144.136 163.85 143.799 164.934C142.06 170.507 139.916 175.964 137.224 181.133C137.104 181.364 136.965 181.605 136.865 181.722C136.844 181.748 136.821 181.761 136.863 181.732C136.885 181.719 136.928 181.69 137.027 181.672C137.122 181.652 137.272 181.674 137.359 181.722C137.531 181.824 137.512 181.862 137.514 181.85C137.508 181.841 137.49 181.802 137.474 181.757C137.335 181.349 137.228 180.743 137.094 180.188C134.846 170.565 132.9 160.845 130.648 151.189C129.928 148.118 129.196 145.088 128.342 142.032C127.912 140.509 127.464 139.005 126.916 137.497C126.636 136.739 126.355 136.02 125.959 135.25C125.759 134.875 125.565 134.52 125.221 134.121C125.084 133.967 124.833 133.712 124.495 133.581C124.089 133.401 123.535 133.519 123.233 133.794C123.08 133.921 122.954 134.057 122.851 134.176C119.197 139.589 116.641 145.097 113.525 150.548C110.129 156.674 106.767 162.788 103.341 168.889C102.052 171.181 100.751 173.478 99.4295 175.732C98.768 176.857 98.0979 177.981 97.3942 179.09C97.0473 179.634 96.6845 180.189 96.3175 180.686C96.137 180.93 95.9258 181.191 95.798 181.298C95.7871 181.308 95.7807 181.309 95.8095 181.294C95.8237 181.286 95.8464 181.275 95.8825 181.264C95.9312 181.249 96.043 181.224 96.1805 181.255C96.5046 181.338 96.5941 181.562 96.6215 181.633C96.6493 181.723 96.6389 181.713 96.641 181.715C96.6387 181.673 96.6514 181.546 96.6831 181.385C98.928 169.727 101.63 158.144 103.738 146.402C104.11 144.259 104.46 142.098 104.7 139.933C104.819 138.818 104.914 137.735 104.907 136.601C104.896 136.009 104.882 135.473 104.715 134.807C104.673 134.654 104.621 134.488 104.528 134.297C104.483 134.207 104.431 134.118 104.37 134.034C104.299 133.935 104.203 133.828 104.093 133.741C103.879 133.565 103.546 133.453 103.25 133.474C102.987 133.49 102.786 133.561 102.58 133.663C96.4959 136.681 91.5862 141.307 86.6813 145.742C83.543 148.653 80.5143 151.633 77.4985 154.694C74.2153 158.026 70.9931 161.398 67.7561 164.759C66.4205 166.144 65.0875 167.524 63.7293 168.88C63.0518 169.554 62.3668 170.226 61.673 170.859C61.3197 171.179 60.9783 171.48 60.6196 171.757C60.4452 171.892 60.2575 172.023 60.1207 172.096C60.0536 172.138 59.9661 172.146 60.0844 172.132C60.1554 172.119 60.4141 172.183 60.5282 172.367C60.6308 172.538 60.6005 172.567 60.6074 172.579C63.4062 167.344 67.6492 161.37 71.3475 155.849C73.4783 152.718 75.618 149.605 77.7779 146.478C80.8578 142.007 84.1122 137.65 87.2768 133.2C88.2647 131.8 89.248 130.387 90.1608 128.898C90.613 128.153 91.0539 127.391 91.416 126.551C91.5963 126.116 91.7603 125.697 91.8316 125.14C91.8613 124.853 91.869 124.538 91.727 124.175C91.5889 123.805 91.2355 123.49 90.9001 123.367C79.172 126.387 70.0936 132.121 60.1619 137.362C57.2474 138.982 54.3549 140.636 51.4828 142.321C45.1553 146.031 38.7007 149.527 32.0883 152.683C29.3985 153.967 26.6876 155.206 23.9417 156.36C23.6738 156.473 23.4056 156.585 23.1371 156.696C22.3833 157.007 21.6357 157.312 20.8912 157.567C20.5245 157.691 20.1423 157.809 19.8347 157.853C19.7638 157.863 19.6953 157.867 19.6685 157.865C19.6362 157.873 19.7012 157.819 19.8835 158.013C20.0455 158.245 19.9663 158.362 19.9814 158.335C19.9849 158.32 20.0095 158.261 20.0434 158.2C20.7827 157.056 22.0771 155.875 23.2298 154.766C29.5892 148.886 36.3101 143.312 42.9832 137.73C45.6812 135.485 48.3918 133.24 51.0998 131.019C52.8172 129.609 54.5264 128.221 56.2366 126.804C57.5045 125.75 58.7702 124.696 59.9931 123.556C60.5996 122.983 61.2066 122.397 61.7539 121.685C62.0192 121.317 62.3072 120.945 62.4362 120.323C62.4991 120.02 62.4483 119.566 62.218 119.253C61.9947 118.938 61.7236 118.781 61.4751 118.662C57.2082 117.542 53.4865 118.41 49.5849 118.702C46.3556 119.054 43.1471 119.48 39.9347 119.922C29.5292 121.348 19.1461 122.79 8.73316 124.04C7.35399 124.203 5.97561 124.36 4.60565 124.5C3.9064 124.572 3.23883 124.636 2.5435 124.692C2.38245 124.705 2.20287 124.718 2.03171 124.729C1.87006 124.74 1.69303 124.751 1.52671 124.758C1.38218 124.765 1.17991 124.77 1.05116 124.768C0.960134 124.767 0.902635 124.764 0.859343 124.759C0.849787 124.758 0.847462 124.757 0.857617 124.759C0.86275 124.76 0.871091 124.763 0.884032 124.767C0.894293 124.772 0.914702 124.769 1.01058 124.83C1.09166 124.877 1.28191 125.072 1.27324 125.342C1.24587 125.622 1.18959 125.629 1.14681 125.703C1.05881 125.808 1.02547 125.812 1.01811 125.82C7.46359 123.416 14.486 121.272 21.2005 118.899C23.7738 118.009 26.3615 117.102 28.9428 116.188C37.6432 113.123 46.733 111.069 55.4177 107.523C57.8248 106.464 60.2999 105.406 62.2804 103.347C62.4417 103.162 62.5792 102.985 62.6734 102.67C62.7681 102.373 62.7062 101.955 62.5375 101.698C62.2075 101.198 61.829 101.038 61.4992 100.87C60.8191 100.56 60.1822 100.404 59.5269 100.254C58.2316 99.9711 56.9284 99.8 55.6416 99.6545C53.0709 99.3716 50.4876 99.2078 47.9205 99.0722C44.6073 98.9009 41.291 98.7888 37.9817 98.6938C35.9638 98.6363 33.9459 98.5864 31.9277 98.5399C24.3977 98.3295 16.8082 98.0073 9.38912 96.9846C8.77172 96.8872 8.17539 96.7833 7.59877 96.6422C7.30007 96.5677 7.02203 96.4865 6.83894 96.3953C6.80717 96.3812 6.77268 96.3502 6.81295 96.3868C6.82892 96.4033 6.89898 96.4771 6.92512 96.6156C6.95683 96.7549 6.89793 96.9296 6.84634 96.9923C6.7617 97.0966 6.77257 97.0602 6.80243 97.0505C6.82911 97.0366 6.87818 97.0149 6.94542 96.9911C21.4111 93.4668 36.6791 92.1555 51.5556 89.5492C52.7151 89.3574 53.8764 89.1617 55.0316 88.9627C60.1422 88.0274 65.3094 87.6683 70.5093 86.9661ZM70.3438 85.7396L70.5093 86.9661L70.4266 86.3529L70.3438 85.7396Z" fill="var(--stroke-0, black)"/>
</svg>
