<svg preserveAspectRatio="none" width="100%" height="100%" overflow="visible" style="display: block;" viewBox="0 0 21.3798 26.1642" fill="none" xmlns="http://www.w3.org/2000/svg">
<path id="Vector 55" d="M0.50008 0.50008C1.18765 0.903815 2.98122 3.09622 3.80092 5.90118C4.73683 9.10379 4.53743 13.0561 4.57725 18.8625C4.59035 20.7726 4.24453 22.3205 4.34368 23.8675C4.38929 24.5792 4.80696 25.0916 5.27615 25.4023C5.74534 25.7131 6.35094 25.7938 6.82442 25.3843C9.40661 23.151 7.66948 18.9153 7.47759 16.2932C7.37574 14.9014 8.65619 13.8394 9.57071 13.0712C10.0304 12.6851 10.6871 12.5911 11.2413 12.688C13.5592 13.0932 14.0809 16.7631 14.5721 19.5969C14.8299 21.084 15.1591 22.6749 16.0816 24.0031C16.5036 24.6106 17.147 24.8306 17.5795 24.6684C20.5457 23.5555 18.3389 17.2061 17.7778 14.6409C17.0483 10.8044 17.4492 6.338 18.7332 3.26122C19.1217 2.57315 19.5658 2.07935 20.8798 1.0718" stroke="var(--stroke-0, black)" stroke-linecap="round"/>
</svg>
