<svg preserveAspectRatio="none" width="100%" height="100%" overflow="visible" style="display: block;" viewBox="0 0 11.7088 4.42203" fill="none" xmlns="http://www.w3.org/2000/svg">
<path id="Vector 70" d="M0.20768 2.66883C0.0764382 2.79765 0.00174445 2.97332 3.016e-05 3.15721C-0.00168407 3.3411 0.0697216 3.51814 0.198539 3.64938C0.327356 3.78062 0.503032 3.85532 0.686922 3.85703C0.870811 3.85875 1.04785 3.78734 1.17909 3.65852C1.17909 3.65852 1.17909 3.65852 1.17909 3.65852C1.37351 3.46771 1.5673 3.27764 1.76071 3.08941C2.37592 2.49866 3.03471 1.83553 3.61044 1.46357C3.65556 1.43631 3.69773 1.41495 3.72203 1.40539C3.77312 1.38371 3.7894 1.39354 3.74746 1.3912C3.70464 1.39043 3.64818 1.3512 3.65792 1.35919C3.6764 1.3731 3.76521 1.55595 3.81144 1.75423C3.93379 2.19399 3.90296 2.57335 4.13426 3.34129C4.15596 3.39536 4.18649 3.46707 4.24313 3.55332C4.32524 3.67387 4.42919 3.80677 4.63295 3.92525C4.82979 4.04313 5.10952 4.0789 5.30124 4.04194C5.68733 3.96402 5.84441 3.81084 5.99565 3.69577C6.27838 3.45504 6.45582 3.23344 6.6372 3.01605C6.97551 2.60136 7.33916 2.12036 7.55068 1.97292C7.55228 1.97181 7.55383 1.97077 7.55531 1.96978C7.60172 1.94177 7.5793 1.95788 7.56259 1.95302C7.54679 1.94875 7.58979 1.95425 7.66125 2.00632C7.80764 2.10874 8.0011 2.33242 8.17874 2.57278C8.36039 2.81659 8.53946 3.08765 8.7439 3.37246C8.97112 3.65549 9.10612 3.96592 9.68128 4.29921L9.93076 4.42203L10.1971 4.33765C10.341 4.29148 10.4493 4.22415 10.5343 4.15989C10.9371 3.81981 11.0412 3.55924 11.1833 3.29457C11.1987 3.26274 11.2136 3.23061 11.2278 3.19866C11.3091 3.01513 11.3767 2.83436 11.4372 2.65675C11.5319 2.37822 11.6099 2.10744 11.6835 1.83875C11.7324 1.65932 11.71 1.46727 11.6194 1.30431C11.5288 1.14135 11.3778 1.02093 11.1991 0.969433C11.0204 0.917938 10.8284 0.939481 10.665 1.02922C10.5016 1.11896 10.3804 1.26964 10.3263 1.44759C10.3263 1.44759 10.3263 1.44759 10.3263 1.44759C10.2488 1.70236 10.1708 1.95266 10.0874 2.18912C10.0341 2.33988 9.97871 2.48414 9.91912 2.61855C9.90874 2.64197 9.89838 2.66535 9.88813 2.68835C9.81331 2.87228 9.68537 3.07716 9.69479 3.05581C9.70249 3.05027 9.72566 3.0324 9.77694 3.01568L10.2928 3.05412C10.2869 3.06958 10.0391 2.80488 9.87979 2.56402C9.70263 2.31177 9.52287 2.03016 9.31571 1.74189C9.10371 1.45459 8.88572 1.15062 8.50283 0.857804C8.31048 0.716414 8.04915 0.566085 7.70394 0.529389C7.35881 0.488811 7.00398 0.611795 6.77651 0.763497C6.76798 0.768977 6.7595 0.774532 6.75106 0.780159C6.10306 1.26996 5.86765 1.69788 5.5197 2.09292C5.35973 2.28539 5.19362 2.47265 5.068 2.57562C5.01415 2.62779 4.94405 2.63617 5.067 2.60501C5.12758 2.59065 5.26814 2.60635 5.3499 2.6576C5.43481 2.70768 5.45334 2.74499 5.45781 2.7495C5.48467 2.79105 5.48794 2.80459 5.48891 2.80594C5.46551 2.75366 5.40964 2.44289 5.36742 2.20009C5.32098 1.9415 5.26981 1.66722 5.18514 1.37417C5.0918 1.08268 5.00691 0.760287 4.67446 0.393621C4.50973 0.214624 4.21712 0.0383379 3.9185 0.00864804C3.62064 -0.0251365 3.37991 0.0457178 3.19092 0.123314C3.07406 0.172426 2.98152 0.223896 2.89607 0.274955C2.00399 0.863968 1.44518 1.4809 0.793564 2.09556C0.597438 2.28642 0.402449 2.47767 0.20768 2.66883Z" fill="var(--stroke-0, black)"/>
</svg>
