<svg preserveAspectRatio="none" width="100%" height="100%" overflow="visible" style="display: block;" viewBox="0 0 358.207 240.238" fill="none" xmlns="http://www.w3.org/2000/svg">
<path id="Vector" d="M358.023 0.554499C335.918 2.15585 313.549 1.55441 291.309 1.56192C275.524 1.56192 259.994 3.6294 244.285 3.57677C228.74 3.53166 213.196 3.57677 197.659 3.57677C183.981 3.57677 170.092 4.02786 156.428 3.6294C152.651 3.51663 149.1 2.62949 145.338 2.53176C142.765 2.46409 140.139 2.74978 137.574 2.62197C134.331 2.46409 131.261 1.6371 127.996 1.5093C123.075 1.31383 118.034 1.56192 113.106 1.56192C102.415 1.56192 91.7158 1.47171 81.0244 1.56192C76.2769 1.59951 72.1086 0.381583 67.346 0.509391C61.7408 0.659753 56.602 1.60703 50.8839 1.55441C47.3853 1.52433 44.451 2.14833 41.0652 2.48665C39.0338 2.68964 36.9346 2.37388 34.9333 2.65956C33.0373 2.93022 31.7356 1.93783 29.7493 2.08067C27.2589 2.26111 24.588 2.05812 22.0675 2.05812C18.0498 2.05812 14.0245 2.02053 9.99923 2.05812C5.97397 2.09571 4.99587 1.59951 0.887846 1.56192C0.887846 1.23113 0.0677459 9.283 0.812607 11.2227C0.925465 11.5159 1.0007 14.2374 1.0308 14.3276C1.42204 15.4704 1.38442 16.4477 1.36185 17.6582C1.32423 20.3496 2.13681 21.2969 1.54994 23.9132C0.609463 28.1384 2.00138 29.1984 1.2189 32.0778C0.0451744 36.4158 0.880322 41.3025 0.880322 45.6856C0.880322 53.1736 0.99318 60.6616 0.880322 68.1496C0.820131 72.2846 1.2189 75.6151 1.19632 79.8553C1.17375 84.3812 1.27156 88.8695 1.19632 93.3954C1.16623 95.1997 1.97128 99.2369 1.3769 101.259C0.827655 103.124 1.48223 104.891 1.65528 106.732C1.84338 108.777 1.80576 110.995 1.97128 113.04C2.17442 115.544 1.36937 119.528 1.61766 122.032C1.79071 123.761 1.14366 125.941 1.45213 127.64C1.80576 129.58 1.70795 131.256 1.70795 133.219C1.70795 137.752 2.40014 139.669 1.45213 144.105C0.639559 147.887 1.51985 151.164 1.45213 154.991C1.39947 157.713 1.88099 160.9 1.63271 163.584C1.40699 166.005 1.71547 168.486 1.70795 170.922C1.70795 178.861 2.88919 183.808 2.43776 191.709C2.20452 195.829 0.872798 199.791 0.865274 204.002C0.865274 207.46 0.865274 210.911 0.865274 214.369C0.865274 217.384 0.910417 220.398 0.865274 223.413C0.820131 226.676 2.40766 229.262 2.37004 232.525C2.36252 233.435 1.75309 235.833 2.26471 236.638C2.96443 237.743 4.28863 237.735 6.14702 238.081C8.00541 238.427 9.7359 238.246 11.5341 238.525C13.7386 238.863 14.0471 239.509 16.7406 239.6C26.0476 239.915 35.5126 239.592 44.8271 239.592C59.9727 239.592 74.1702 236.916 89.3909 236.577C93.1303 236.495 96.1097 235.54 99.9695 235.562C110.766 235.63 121.315 235.66 132.074 236.57C138.665 237.126 144.872 237.344 151.448 237.547C154.073 237.63 155.796 238.442 158.234 238.66C160.281 238.84 162.229 238.013 164.171 237.698C168.798 236.953 173.861 236.232 178.571 235.758C189.857 234.63 202.151 235.555 213.587 235.555C216.506 235.555 220.043 235.232 222.939 235.502C226.069 235.796 228.657 236.547 231.953 236.585C252.335 236.848 272.506 237.57 292.919 237.57C300.646 237.57 308.132 236.48 315.806 236.54C321.043 236.577 326.272 236.562 331.509 236.562C335.699 236.562 340.251 236.224 344.404 236.54C346.383 236.69 346.932 236.502 348.67 236.788C350.785 237.126 351.304 237.186 353.456 237.186C354.02 237.186 354.524 237.013 355.028 236.916C355.954 236.735 356.668 235.938 356.744 234.976C356.819 234.014 356.473 233.284 356.473 231.518V223.451C356.473 216.639 356.217 209.805 356.435 203.002C356.495 201.077 356.435 199.821 356.646 197.927C356.819 196.333 356.473 194.506 356.473 192.972C356.473 190.01 356.616 186.958 356.3 183.943C355.607 177.395 356.465 171.335 356.465 164.877C356.465 160.321 356.179 155.397 356.337 150.796C356.473 146.947 356.819 143.752 356.811 139.865C356.811 132.369 355.713 126.813 356.292 119.333C356.503 116.589 356.42 111.837 356.518 109.063C356.593 106.935 356.458 104.785 356.458 102.65C356.458 101.041 356.262 99.3723 356.397 97.7709C356.555 95.944 356.864 93.7036 356.631 91.8918C356.021 87.1253 356.127 84.1406 356.458 79.9531C356.804 75.6828 356.458 71.3749 356.458 67.0896C356.458 48.6101 357.707 19.9587 357.707 1.47922" stroke="var(--stroke-0, black)" stroke-miterlimit="10"/>
</svg>
