<svg preserveAspectRatio="none" width="100%" height="100%" overflow="visible" style="display: block;" viewBox="0 0 5.85668 1.42732" fill="none" xmlns="http://www.w3.org/2000/svg">
<path id="Vector 72" d="M0.713082 2.47955e-05C0.525537 -0.00154459 0.34505 0.0714523 0.211325 0.202957C0.0776013 0.334461 0.00159425 0.513702 2.47955e-05 0.701247C-0.00154459 0.888792 0.0714523 1.06928 0.202957 1.203C0.334461 1.33673 0.513702 1.41273 0.701247 1.4143C0.701247 1.4143 0.701247 1.4143 0.701247 1.4143C0.779439 1.41496 0.857661 1.41561 0.935885 1.41626C1.58442 1.42154 2.23366 1.42703 2.88625 1.42732C2.88626 1.42732 2.88627 1.42732 2.88628 1.42732C3.39631 1.42826 3.90379 1.1728 4.39371 1.18361C4.39372 1.18361 4.39372 1.18361 4.39373 1.18361C4.63762 1.18952 4.87764 1.20395 5.12421 1.22505C5.20046 1.23149 5.27744 1.23843 5.35533 1.24545C5.47685 1.2564 5.59775 1.21862 5.69142 1.14044C5.78509 1.06225 5.84387 0.950054 5.85482 0.828531C5.86577 0.707008 5.828 0.586112 5.74981 0.492439C5.67162 0.398766 5.55943 0.33999 5.43791 0.329039C5.43791 0.329039 5.43791 0.329039 5.43791 0.329039C5.36003 0.322022 5.28126 0.314925 5.20168 0.308201C4.94406 0.286098 4.67898 0.270067 4.41671 0.263781C4.4167 0.263781 4.41669 0.263781 4.41669 0.263781C3.89446 0.252384 3.38937 0.0140551 2.8865 0.0129883C2.88649 0.0129883 2.88648 0.0129883 2.88646 0.0129883C2.24289 0.0127088 1.59537 0.00726265 0.947621 0.00198197C0.869463 0.00133348 0.791274 0.000679135 0.713082 2.47955e-05Z" fill="var(--stroke-0, black)"/>
</svg>
