<svg preserveAspectRatio="none" width="100%" height="100%" overflow="visible" style="display: block;" viewBox="0 0 10.8351 13.5365" fill="none" xmlns="http://www.w3.org/2000/svg">
<path id="Vector 81" d="M4.59402 0.965072C4.67635 0.812198 4.69457 0.632883 4.64468 0.466574C4.59479 0.300265 4.48088 0.160585 4.32801 0.0782627C4.17514 -0.00405985 3.99582 -0.0222818 3.82951 0.0276054C3.6632 0.0774927 3.52352 0.191403 3.4412 0.344276C3.4412 0.344276 3.4412 0.344276 3.4412 0.344276C3.18421 0.821516 2.92654 1.29997 2.67113 1.78049C1.74636 3.56328 0.760229 5.30513 0.179414 7.37955C0.178931 7.38145 0.178448 7.38336 0.177966 7.38527C-0.219604 8.61146 0.0317517 10.465 1.10596 11.3992C1.10685 11.4002 1.10774 11.4011 1.10863 11.402C2.65041 13.008 4.90132 13.6236 6.98835 13.5267C6.99058 13.5266 6.99281 13.5265 6.99505 13.5264C8.73945 13.2984 9.37337 11.9757 9.98287 10.9825C9.98517 10.9783 9.98746 10.9741 9.98974 10.9699C10.6336 9.76393 10.936 8.41264 10.8051 7.02363C10.8048 7.02024 10.8044 7.01685 10.8041 7.01347C10.6999 5.78074 10.0413 4.45819 8.93964 3.73813C8.93856 3.73739 8.93748 3.73666 8.93639 3.73592C7.78905 2.98422 6.59966 2.812 5.4826 2.61171C4.93808 2.52346 4.39753 2.45167 3.85544 2.38642C3.70235 2.36815 3.54564 2.40484 3.41863 2.4948C3.29162 2.5847 3.20489 2.71952 3.17729 2.87087C3.14968 3.02222 3.18322 3.17897 3.27031 3.30793C3.35738 3.43694 3.49104 3.52659 3.64072 3.56355C3.64072 3.56355 3.64072 3.56355 3.64072 3.56355C4.16757 3.69356 4.69182 3.81904 5.20951 3.94758C6.27302 4.2187 7.3537 4.47644 8.09139 4.97861C8.09211 4.9791 8.09284 4.9796 8.09356 4.98009C8.82319 5.46663 9.29622 6.24018 9.40496 7.17121C9.40526 7.17372 9.40557 7.17624 9.40588 7.17876C9.52821 8.22534 9.29361 9.37187 8.78983 10.3233C8.78805 10.3266 8.78628 10.3299 8.7845 10.3332C8.31062 11.2419 7.55694 12.1797 6.93303 12.1867C6.93112 12.1868 6.92921 12.1869 6.9273 12.187C5.13158 12.2727 3.27021 11.7256 2.0766 10.4724C2.07588 10.4717 2.07516 10.4709 2.07444 10.4702C1.29197 9.71744 1.16192 8.80938 1.44749 7.70572C1.44789 7.70414 1.44829 7.70255 1.4487 7.70097C1.93958 5.92303 2.91353 4.14361 3.82731 2.39501C4.08044 1.91877 4.33704 1.4423 4.59402 0.965072Z" fill="var(--stroke-0, black)"/>
</svg>
