<svg preserveAspectRatio="none" width="100%" height="100%" overflow="visible" style="display: block;" viewBox="0 0 13.1739 76.3956" fill="none" xmlns="http://www.w3.org/2000/svg">
<path id="Vector 71" d="M3.36407 0.59359C3.33458 0.411121 3.23382 0.247841 3.08394 0.139668C2.93406 0.0314951 2.74735 -0.0127091 2.56488 0.0167799C2.38242 0.0462689 2.21913 0.147035 2.11096 0.296912C2.00279 0.446789 1.95858 0.633498 1.98807 0.815967C1.98807 0.815967 1.98807 0.815967 1.98807 0.815967C2.31133 3.14775 2.31111 5.65321 2.33791 8.10069C2.33796 8.11003 2.33801 8.11937 2.33805 8.12873C2.33879 8.28357 2.33904 8.43848 2.33881 8.593C2.34083 10.7688 2.20876 12.928 2.1319 15.0994C2.13127 15.1177 2.13063 15.1361 2.12999 15.1546C1.91819 20.788 1.63126 26.4418 1.42842 32.0923C1.42693 32.1326 1.42545 32.173 1.42396 32.2135C1.07359 41.72 0.758782 51.2251 0.363764 60.7254C0.360539 60.8013 0.357324 60.8768 0.354119 60.9518C0.27766 64.8806 -0.311691 68.5107 0.220004 72.8114C0.24428 72.9134 0.27252 73.018 0.304132 73.1202C0.838617 75.2225 3.19454 76.2457 4.88795 76.3333C6.6419 76.5196 8.43628 76.2217 9.81046 76.2926C9.84511 76.2957 9.89309 76.3037 9.96403 76.3188C10.1016 76.3311 10.3463 76.4387 10.8619 76.2876C10.9882 76.2667 11.3199 76.028 11.3833 75.8838C11.4734 75.7376 11.4992 75.6413 11.5239 75.5682C11.8878 73.2139 11.8062 71.4649 11.8594 69.436C11.86 69.3513 11.8605 69.2654 11.8609 69.1783C11.869 59.537 11.7548 49.9215 11.9241 40.3016C11.9249 40.2516 11.9258 40.2016 11.9267 40.1515C12.1078 30.0059 12.4851 19.8546 12.9753 9.71762C12.9758 9.70617 12.9764 9.69473 12.977 9.68331C12.9983 9.24681 13.0175 8.82083 13.0351 8.39126C13.1248 5.75658 13.2508 3.16445 13.1124 0.458368C13.1023 0.335041 13.0488 0.217416 12.958 0.131453C12.8673 0.0454897 12.7477 -0.00178304 12.6242 5.14686e-05C12.5008 0.00188595 12.3826 0.052694 12.2945 0.141315C12.2063 0.229937 12.1564 0.3491 12.1499 0.472674C12.1499 0.472674 12.1499 0.472674 12.1499 0.472674C11.9401 3.02491 11.6128 5.69296 11.4737 8.3124C11.448 8.74239 11.4247 9.16896 11.4033 9.60621C11.4028 9.61765 11.4022 9.62911 11.4016 9.64059C10.9108 19.7934 10.5417 29.9558 10.3602 40.1243C10.3593 40.1745 10.3584 40.2246 10.3576 40.2748C10.1866 49.9118 10.1724 59.5527 10.1643 69.1714C10.1639 69.2581 10.1637 69.3436 10.1635 69.4279C10.1437 71.3346 10.2501 73.5571 10.0351 75.0978C10.0357 75.1009 10.029 75.0906 10.0731 75.0137C10.0913 74.9413 10.3506 74.7554 10.3947 74.7562C10.5903 74.698 10.5059 74.6999 10.3273 74.6478C10.2365 74.6276 10.122 74.6038 9.99185 74.5895C6.56434 74.5435 2.76211 75.1813 2.03284 72.5879C2.01406 72.5265 1.99641 72.4608 1.9806 72.3937C1.56155 68.9928 2.08367 64.8534 2.17803 61.0298C2.18125 60.9546 2.18448 60.8789 2.18771 60.8028C2.58336 51.2871 2.89365 41.7836 3.23912 32.2799C3.24059 32.2394 3.24205 32.199 3.24352 32.1587C3.44349 26.5082 3.64614 20.8668 3.79334 15.2028C3.79378 15.1842 3.79421 15.1657 3.79463 15.1472C3.84674 12.9627 3.7677 10.7665 3.73605 8.58564C3.73419 8.43095 3.73275 8.2761 3.7319 8.12155C3.73184 8.11213 3.73179 8.10271 3.73174 8.0933C3.70148 5.60811 3.71612 3.15454 3.36407 0.59359Z" fill="var(--stroke-0, black)"/>
</svg>
