<svg preserveAspectRatio="none" width="100%" height="100%" overflow="visible" style="display: block;" viewBox="0 0 957.624 189.343" fill="none" xmlns="http://www.w3.org/2000/svg">
<path id="Vector 5" d="M0.455328 187.979C0.28043 188.045 0.139022 188.178 0.062212 188.348C-0.0145977 188.519 -0.0205171 188.713 0.0457559 188.888C0.112029 189.063 0.245066 189.204 0.4156 189.281C0.586134 189.358 0.780195 189.364 0.955094 189.297C0.955094 189.297 0.955094 189.297 0.955094 189.297C16.1294 183.778 32.1008 180.608 47.9256 176.744C71.2121 171.301 94.6947 166.051 118.107 160.848C118.112 160.846 118.118 160.845 118.123 160.844C268.4 127.674 419.207 95.5462 570.363 66.3485C570.364 66.3483 570.365 66.3482 570.366 66.348C677.557 45.7435 785.234 27.5228 893.133 11.6321C893.133 11.6321 893.133 11.6321 893.133 11.632C898.542 10.8226 903.878 10.0153 909.222 9.19954C925.282 6.55646 941.369 4.87582 957.307 0.921713C957.426 0.879883 957.523 0.792619 957.577 0.679306C957.631 0.565982 957.639 0.435891 957.597 0.317464C957.556 0.199037 957.469 0.101919 957.356 0.0472867C957.242 -0.00733456 957.112 -0.0149956 956.994 0.0261779C956.994 0.0261779 956.994 0.0261779 956.994 0.0261779C941.368 3.80817 925.057 5.39004 909.034 7.9489C903.687 8.74083 898.349 9.53326 892.94 10.3424C892.94 10.3424 892.94 10.3425 892.94 10.3425C785.031 26.229 677.326 44.4544 570.117 65.0535C570.117 65.0536 570.116 65.0538 570.115 65.0539C418.934 94.2439 268.108 126.294 117.818 159.467C117.812 159.468 117.807 159.469 117.801 159.471C94.3862 164.675 70.9016 169.925 47.604 175.37C31.7514 179.244 15.855 182.383 0.455328 187.979Z" fill="var(--stroke-0, black)"/>
</svg>
