<svg preserveAspectRatio="none" width="100%" height="100%" overflow="visible" style="display: block;" viewBox="0 0 279.74 98.36" fill="none" xmlns="http://www.w3.org/2000/svg">
<g id="eyelash" clip-path="url(#clip0_2251_1679)">
<path id="Vector" d="M24.5 91.21C27.16 90.34 30.08 88.18 32.77 86.91C35.78 85.49 38.92 84.66 41.91 83.28C44.12 82.25 45.63 80.41 47.72 79.21C52.93 76.21 59.21 74.59 64.78 72.55C70 70.64 75.1 68.44 80.61 67.48C86.79 66.4 92.68 64.65 98.75 63.06C109.93 60.15 120.91 58.95 132.37 57.82C142.35 56.84 152.25 56.21 162.28 56.42C169.82 56.58 176.03 58.59 183.2 60.52C190.96 62.61 198.92 63.6 206.67 65.81C214.9 68.16 222.73 71.54 230.71 74.58C234.16 75.89 236.25 77.21 239.13 79.51C243.6 83.09 248.3 85.16 253.16 88.13C256.75 90.33 260.1 92.74 263.38 95.36C264.55 96.29 265.76 97.43 267.17 97.87" stroke="var(--stroke-0, black)" stroke-width="2" stroke-miterlimit="10"/>
<path id="Vector_2" d="M0.5 24.55C0.55 30.71 0.93 37.7 4.4 42.88C9.44 50.38 13.64 56.21 21.59 60.98C27.84 64.73 32.44 69.97 39.49 72.21C42.48 73.16 45.45 74.42 48.56 74.95C50.72 75.32 53.66 74.47 55.16 76.54" stroke="var(--stroke-0, black)" stroke-width="2" stroke-miterlimit="10"/>
<path id="Vector_3" d="M71.17 4.55C71.76 6.61 70.19 6.82 69.77 8.45C69.25 10.47 69.65 13.88 69.74 15.96C70.15 25.06 73.53 35.2 78.06 43.1C81.71 49.46 85.19 53.83 91.23 57.94C93.15 59.25 98.13 62.54 100.49 61.88" stroke="var(--stroke-0, black)" stroke-width="2" stroke-miterlimit="10"/>
<path id="Vector_4" d="M188.45 0.49L189.56 0.69C189.96 2.37 189.68 3.63 189.71 5.43C189.8 10.57 191.42 15.47 190.92 20.66C190.27 27.5 188.01 34.11 185.23 40.34C182.78 45.84 178.04 49.96 172.5 52.54C169.76 53.81 164.85 56.19 161.79 56.49" stroke="var(--stroke-0, black)" stroke-width="2" stroke-miterlimit="10"/>
<path id="Vector_5" d="M213.83 68.55C216.56 68.1 219.86 70.56 222.53 70.99C227.48 71.8 232.66 71.2 237.66 71.21C247.54 71.21 258.39 70 267.3 65.32C270.49 63.65 272.51 61.79 274.33 58.6C275.9 55.86 279.82 50.61 279.16 47.22" stroke="var(--stroke-0, black)" stroke-width="2" stroke-miterlimit="10"/>
</g>
<defs>
<clipPath id="clip0_2251_1679">
<rect width="279.74" height="98.36" fill="white"/>
</clipPath>
</defs>
</svg>
