<svg preserveAspectRatio="none" width="100%" height="100%" overflow="visible" style="display: block;" viewBox="0 0 66.4333 100.939" fill="none" xmlns="http://www.w3.org/2000/svg">
<path id="Vector 67" d="M62.0676 5.51496C62.2454 5.54418 62.4275 5.50157 62.5739 5.39652C62.7202 5.29147 62.8189 5.13257 62.8481 4.95479C62.8773 4.777 62.8347 4.59489 62.7297 4.44852C62.6246 4.30215 62.4657 4.2035 62.2879 4.17428C62.2879 4.17428 62.2879 4.17428 62.2879 4.17428C58.8315 3.60629 55.3699 3.07257 51.902 2.58396C38.3413 0.780254 24.6099 -0.95032 10.8272 0.603678C9.37361 0.796318 7.92606 1.03847 6.48938 1.37498C5.67037 1.56793 4.83739 1.7436 3.99058 1.9736C2.651 2.35819 0.913351 2.87155 0.0978891 4.54185C-0.846817 35.0774 5.25828 64.2427 9.28114 93.8757C9.29451 93.9619 9.31268 94.0471 9.33565 94.1307C9.96903 95.8901 11.5577 96.0623 12.6662 96.314C13.8433 96.5129 14.9966 96.5488 16.1413 96.547C18.4263 96.5321 20.6847 96.3355 22.9178 96.1094C27.3947 95.6471 31.8312 95.0046 36.2598 94.535L36.221 94.5381C38.1981 94.4293 40.1716 94.4035 42.1445 94.4788C45.6366 94.611 49.1133 95.0641 52.4859 95.9287L52.4374 95.9145C53.4895 96.266 54.5778 96.6674 55.649 97.0602C56.7927 97.4816 57.9326 97.9089 59.0715 98.3424C61.1834 99.1547 63.3557 99.9688 65.3525 100.866C65.5335 100.952 65.7412 100.963 65.9301 100.896C66.1191 100.829 66.2736 100.69 66.3598 100.509C66.446 100.328 66.4569 100.12 66.3899 99.9315C66.323 99.7426 66.1839 99.588 66.003 99.5016C66.003 99.5016 66.003 99.5016 66.003 99.5016C63.8609 98.5369 61.7484 97.7507 59.613 96.9239C58.47 96.4865 57.3273 96.0548 56.1789 95.6278C55.0981 95.228 54.0278 94.8282 52.9179 94.4532L52.8694 94.439C49.3824 93.5325 45.7911 93.0534 42.2041 92.9177C40.1772 92.8404 38.1552 92.8686 36.1343 92.9824L36.0956 92.9855C31.6247 93.4658 27.1924 94.1187 22.7596 94.5871C20.5518 94.8165 18.3243 95.0137 16.1335 95.0322C15.04 95.0373 13.9454 94.9999 12.9223 94.8277C11.9093 94.6725 10.8715 94.2436 10.785 93.732C10.7774 93.7044 10.7711 93.6756 10.7663 93.6447C6.66594 64.2728 0.733891 34.1477 1.36457 5.14766C1.80006 4.17446 3.06121 3.67602 4.36002 3.32313C5.15109 3.10694 5.97809 2.92573 6.8112 2.72258C8.18672 2.38845 9.5884 2.13833 11.0053 1.95061C24.4855 0.424221 38.2127 2.12794 51.7125 3.92934C55.1686 4.41629 58.6201 4.94844 62.0676 5.51496Z" fill="var(--stroke-0, black)"/>
</svg>
