<svg preserveAspectRatio="none" width="100%" height="100%" overflow="visible" style="display: block;" viewBox="0 0 80.5386 47.5002" fill="none" xmlns="http://www.w3.org/2000/svg">
<path id="about box" d="M0.630188 47.5002V34.4731C0.630188 29.5143 0.309006 24.3875 0.674797 19.4385C0.951371 15.6157 1.15657 11.941 1.15657 8.10825C1.15657 6.15236 0.781858 3.6433 1.20118 1.75657C2.40561 1.33181 4.26133 1.66766 5.47469 1.66766C9.60545 1.66766 13.7451 1.66766 17.8759 1.66766H27.0653C31.5886 1.66766 36.1565 1.88498 40.6799 1.6973C42.7854 1.60839 44.8463 1.11449 46.9518 1.05522C49.5124 0.97619 52.0818 1.06509 54.6424 1.08485C57.0512 1.09473 59.246 0.492159 61.6638 0.502037C63.7961 0.502037 65.9194 0.502037 68.0517 0.502037C71.0405 0.502037 74.0382 0.551428 77.027 0.502037C78.7846 0.472403 79.2396 0.778627 79.4091 2.81353C79.6143 5.3226 79.9355 7.71312 79.9355 10.2913C79.9355 15.2107 79.989 20.1399 79.9355 25.0592C79.9266 26.0075 79.8106 27.1803 79.9355 28.0002C80.1675 29.5807 79.9355 31.3999 79.9355 33.0002C79.9355 34.9462 79.9355 36.5542 79.9355 38.5002C79.9355 40.4462 79.9355 42.0762 79.9355 45.0002" stroke="var(--stroke-0, black)" stroke-miterlimit="10"/>
</svg>
