<svg preserveAspectRatio="none" width="100%" height="100%" overflow="visible" style="display: block;" viewBox="0 0 157.462 148.698" fill="none" xmlns="http://www.w3.org/2000/svg">
<path id="Vector" d="M69.0723 0.5C74.4716 0.5 80.6791 0.870207 86.085 1.22949H86.0859C87.4417 1.31512 88.6991 1.47734 89.9844 1.62988C91.1051 1.76289 92.2426 1.88784 93.458 1.94238L93.9834 1.96191C94.7485 1.98345 95.4389 2.27966 96.1895 2.65625C96.9106 3.01809 97.7229 3.47694 98.6084 3.66113V3.66016C98.9918 3.74221 99.4347 3.72946 99.8232 3.72363C100.238 3.71742 100.643 3.71679 101.048 3.78809C101.391 3.84845 102.807 4.14262 104.243 4.43848C105.659 4.72998 107.111 5.02666 107.484 5.0791V5.07812C109.703 5.40616 110.864 5.80341 112.008 6.29004C113.166 6.7827 114.366 7.39702 116.576 8.11816V8.11914C123.504 10.3882 130.395 13.66 135.604 18.8096L136.102 19.3135C140.242 23.6074 143.906 29.0449 146.256 34.5244C150.64 44.7424 153.969 55.3705 155.74 66.3418L155.906 67.4053C156.676 72.5407 157.522 78.3442 156.468 83.3936C156.072 85.2832 155.89 87.1503 155.716 88.9902C155.563 90.6069 155.415 92.2024 155.136 93.8096L155.008 94.499C153.428 102.481 151.106 107.65 148.475 115.01L147.944 116.513C146.785 119.846 144.205 123.934 141.055 127.562C137.901 131.192 134.229 134.299 130.92 135.725H130.919C122.433 139.39 114.321 143.28 105.355 145.497C96.1139 147.78 84.07 149.094 74.9873 147.488C72.1475 146.988 69.3868 146.781 66.6826 146.533C63.9698 146.285 61.3045 145.995 58.6035 145.336C52.633 143.872 45.8003 142.267 39.7217 140.353V140.352L37.9092 139.775C33.8128 138.453 30.6119 137.254 27.5986 135.505C24.1616 133.51 20.9439 130.785 16.9346 126.304C14.5591 123.649 12.0052 120.82 9.78711 117.886C7.56789 114.95 5.70787 111.938 4.70508 108.93C1.96474 100.709 -0.010382 89.7412 0.617188 78.9072L0.685547 77.8594C2.01546 59.6564 8.02504 41.4558 18.2646 26.2949H18.2656C21.4717 21.5457 24.4176 19.2982 29.0928 15.3984C30.35 14.3522 31.524 13.1258 32.7578 11.9658C34.007 10.7914 35.3611 9.64043 37.0518 8.6582L37.0508 8.65723C38.1415 8.02938 39.1176 7.38017 40.0332 6.7832C40.8439 6.25464 41.607 5.76826 42.3828 5.35645L42.4043 5.37793L42.7266 5.2168C45.947 3.60996 48.1472 2.72571 49.8818 2.54492L50.2227 2.51855C53.5246 2.34975 56.6302 1.84041 59.7002 1.37891C62.7784 0.916166 65.829 0.500028 69.0723 0.5Z" stroke="var(--stroke-0, black)"/>
</svg>
