<svg preserveAspectRatio="none" width="100%" height="100%" overflow="visible" style="display: block;" viewBox="0 0 160.547 245.541" fill="none" xmlns="http://www.w3.org/2000/svg">
<path id="Vector 8" d="M1.59826 0.329563C1.44659 0.144756 1.22771 0.0277709 0.989784 0.00434178C0.751858 -0.0190874 0.514369 0.052959 0.329563 0.204632C0.144756 0.356304 0.0277709 0.575179 0.00434172 0.813105C-0.0190874 1.05103 0.052959 1.28852 0.204632 1.47333C0.204632 1.47333 0.204632 1.47333 0.204632 1.47333C3.26891 5.20693 6.3439 9.00596 9.37686 12.791C26.6573 34.3818 43.3965 56.3664 59.9138 78.5849C59.9187 78.5915 59.9236 78.5981 59.9284 78.6047C74.7502 98.5983 87.0117 120.356 99.202 142.1C99.2074 142.109 99.2127 142.119 99.2181 142.128C113.444 167.207 127.216 192.507 142.105 217.224L142.111 217.235C142.112 217.236 142.113 217.237 142.114 217.238C145.069 221.975 148.132 226.628 151.151 231.3C151.152 231.3 151.152 231.301 151.152 231.301C151.447 231.757 151.742 232.211 152.038 232.664C154.685 236.726 157.335 240.766 159.303 245.158C159.373 245.313 159.503 245.434 159.662 245.496C159.821 245.559 159.998 245.556 160.154 245.489C160.31 245.422 160.433 245.296 160.498 245.138C160.562 244.98 160.564 244.802 160.499 244.645C160.499 244.645 160.499 244.645 160.499 244.645C158.64 240.081 156.196 235.785 153.591 231.668C153.3 231.208 153.008 230.75 152.713 230.293C152.713 230.293 152.712 230.292 152.712 230.292C149.694 225.609 146.638 220.958 143.7 216.25C143.699 216.248 143.699 216.247 143.698 216.246L143.704 216.257C128.852 191.602 115.06 166.297 100.824 141.222C100.818 141.212 100.813 141.203 100.808 141.193C88.6126 119.463 76.287 97.6447 61.3757 77.5296C61.3708 77.523 61.3659 77.5164 61.361 77.5097C44.8339 55.2781 28.0847 33.2801 10.7838 11.6636C7.74709 7.87393 4.66775 4.06952 1.59826 0.329563Z" fill="var(--stroke-0, black)"/>
</svg>
