<svg preserveAspectRatio="none" width="100%" height="100%" overflow="visible" style="display: block;" viewBox="0 0 17.1021 20.3065" fill="none" xmlns="http://www.w3.org/2000/svg">
<path id="Vector 75" d="M0.395264 2.51901C0.244063 2.57563 0.121549 2.69 0.0546748 2.83696C-0.0121996 2.98392 -0.0179569 3.15142 0.0386696 3.30262C0.095296 3.45382 0.209668 3.57633 0.356624 3.64321C0.50358 3.71008 0.671083 3.71584 0.822284 3.65921C0.822284 3.65921 0.822284 3.65921 0.822284 3.65921C1.65512 3.34735 2.49155 3.04697 3.32971 2.7647C6.06065 1.90588 9.15029 0.789021 11.6145 1.36734C11.7267 1.4074 11.8325 1.45801 11.9193 1.51411C12.2206 1.61225 12.0936 2.70545 11.6722 3.42339C11.5918 3.57681 11.5026 3.72691 11.4057 3.87224C10.1618 5.7471 8.2721 7.12548 6.20326 8.22853C5.94583 8.37125 5.69387 8.50135 5.40412 8.68549C5.15914 8.85958 4.97467 8.93605 4.68815 9.32671C4.6359 9.40688 4.51971 9.61573 4.54243 9.87091C4.553 10.0113 4.60836 10.1522 4.68222 10.2559C4.74582 10.3461 4.81469 10.4086 4.88277 10.4588C5.13625 10.6305 5.29105 10.6487 5.44149 10.6873C6.02956 10.7994 6.48193 10.7866 6.97311 10.7898C7.93069 10.7821 8.86498 10.7284 9.79713 10.6861C11.5593 10.6255 13.8294 10.435 14.9048 10.915C15.0614 11.0424 15.1992 11.1988 15.3167 11.3786C15.657 11.8996 15.8071 12.599 15.823 13.292C15.8273 13.483 15.8157 13.6751 15.7893 13.8657C15.6898 14.5898 15.3636 15.2868 14.8796 15.8464L14.9658 15.7628C14.8339 15.8685 14.699 15.9714 14.562 16.0713C12.7555 17.3843 10.5616 18.1602 8.31967 18.6231L8.3556 18.6167C8.28971 18.6265 8.22315 18.6361 8.15696 18.6452C7.56139 18.7278 6.95704 18.7866 6.34826 18.8338C5.46972 18.9016 4.58223 18.9451 3.68944 18.9897C3.51493 18.9984 3.351 19.076 3.23371 19.2055C3.11642 19.335 3.05539 19.5058 3.06404 19.6803C3.07269 19.8548 3.15031 20.0187 3.27983 20.136C3.40934 20.2533 3.58015 20.3143 3.75467 20.3057C3.75467 20.3057 3.75467 20.3057 3.75467 20.3057C4.64756 20.2615 5.54559 20.2179 6.4498 20.1483C7.07649 20.0999 7.70608 20.039 8.33825 19.9513C8.40852 19.9416 8.47931 19.9314 8.54957 19.921L8.58549 19.9146C10.9492 19.4245 13.313 18.6003 15.3341 17.1293C15.4872 17.0174 15.6382 16.9014 15.786 16.7819L15.8723 16.6984C16.5114 15.9519 16.9393 15.0202 17.0646 14.0341C17.0978 13.7744 17.1092 13.5112 17.0978 13.2482C17.0557 12.3868 16.8637 11.5 16.3503 10.7027C16.1715 10.4289 15.9487 10.1721 15.6844 9.95729C13.3229 8.9102 11.6614 9.47796 9.73953 9.45343C8.80521 9.49616 7.87258 9.54911 6.96642 9.55618C6.51707 9.55724 6.04897 9.55128 5.70182 9.48155C5.62834 9.46989 5.5481 9.42614 5.61162 9.46369C5.64012 9.48176 5.75755 9.5893 5.77168 9.769C5.78137 9.92237 5.72655 9.98925 5.72717 9.99143C5.72147 9.98747 5.89564 9.83178 6.07593 9.71991C6.27612 9.5917 6.54244 9.44995 6.79623 9.31006C8.91716 8.17859 11.0517 6.70919 12.4696 4.58348C12.5916 4.40152 12.7042 4.21295 12.8066 4.01758C13.0609 3.52704 13.2585 2.9963 13.3256 2.39525C13.3867 1.83173 13.3242 0.963262 12.5699 0.481138C12.3939 0.371275 12.2051 0.285489 12.0252 0.221153C8.60574 -0.519155 5.80957 0.76705 2.94119 1.6108C2.08733 1.89836 1.23861 2.20321 0.395264 2.51901Z" fill="var(--stroke-0, black)"/>
</svg>
