<svg preserveAspectRatio="none" width="100%" height="100%" overflow="visible" style="display: block;" viewBox="0 0 3.42758 18.3266" fill="none" xmlns="http://www.w3.org/2000/svg">
<path id="Vector 82" d="M1.47832 0.674443C1.46076 0.478798 1.36621 0.298142 1.21545 0.172216C1.06469 0.0462896 0.870087 -0.0145911 0.674443 0.0029667C0.478798 0.0205245 0.298142 0.115083 0.172216 0.265839C0.0462896 0.416596 -0.0145911 0.611202 0.0029667 0.806846C0.0285651 1.09209 0.054167 1.37736 0.0798015 1.66266C0.28262 3.91766 0.486329 6.17423 0.711028 8.43138C0.711032 8.43142 0.711035 8.43145 0.711038 8.43148C0.976044 11.3264 1.49463 14.2183 2.1337 17.0439C2.19641 17.3228 2.26017 17.6012 2.32604 17.8851C2.35896 18.0265 2.44358 18.1518 2.56512 18.2329C2.68662 18.3139 2.83446 18.3441 2.97684 18.3167C3.11923 18.2893 3.24528 18.2064 3.328 18.086C3.41076 17.9656 3.44279 17.8178 3.42088 17.6743C3.42088 17.6743 3.42088 17.6743 3.42088 17.6743C3.37689 17.3876 3.33406 17.1067 3.29135 16.8259C2.85262 13.9682 2.44775 11.149 2.18502 8.28453C2.18501 8.2845 2.18501 8.28447 2.18501 8.28443C1.96128 6.03711 1.75787 3.78415 1.55514 1.5301C1.52952 1.24491 1.50392 0.959681 1.47832 0.674443Z" fill="var(--stroke-0, black)"/>
</svg>
