<svg preserveAspectRatio="none" width="100%" height="100%" overflow="visible" style="display: block;" viewBox="0 0 165.995 156.756" fill="none" xmlns="http://www.w3.org/2000/svg">
<g id="left">
<path id="Vector" d="M44.7803 5.00181C42.8504 5.96821 41.064 7.36559 38.7951 8.67154C35.1309 10.8002 32.9532 13.6472 30.3322 15.8282C25.4163 19.9289 22.2476 22.3449 18.8181 27.4251C7.96905 43.4883 1.60565 62.7642 0.197351 82.0401C-0.676313 93.8981 1.45949 106 4.4596 115C6.62633 121.5 12.4596 127.912 17.4597 133.5C25.9598 143 31.1929 145.157 41.716 148.461C48.1446 150.485 55.3686 152.183 61.6538 153.724C67.4304 155.134 73.0266 154.955 78.9596 156C88.6352 157.711 101.412 156.31 111.192 153.894C120.698 151.543 129.304 147.416 138.223 143.564C145.408 140.469 153.956 130.196 156.46 123C159.446 114.42 162.138 108.747 163.925 99.7227C164.707 95.7787 164.642 91.9392 165.463 88.0214C166.598 82.5886 165.685 76.3722 164.877 70.9786C163.051 58.9639 159.452 47.3409 154.666 36.188C152.163 30.3504 148.264 24.565 143.856 19.9942C138.223 14.1696 130.634 10.5391 123.058 8.05774C118.455 6.55589 118.155 5.53725 113.383 4.83203C112.639 4.72756 107.358 3.60444 106.615 3.47384C105.65 3.30407 104.724 3.4869 104.059 3.34324C102.364 2.99064 100.956 1.59326 99.0909 1.54103C96.157 1.46267 93.6795 0.953347 90.7846 0.770513C85.0862 0.391786 78.5272 0 72.8158 0C65.8917 0 59.8152 1.7761 52.9171 2.12871C50.909 2.23318 48.4184 3.22571 44.8064 5.02793L44.7803 5.00181Z" fill="var(--fill-0, black)"/>
<path id="Vector_2" d="M87.7496 22.651C86.7474 22.8245 86.2941 22.4124 85.4828 22.1088C82.7625 21.133 80.7343 21.198 77.5368 21.0896C70.9987 20.8944 64.5322 20.8728 58.2088 22.5859C51.8855 24.2991 45.2758 27.1616 40.241 30.7614C30.2191 37.9393 23.3047 48.8741 17.9597 59.5C15.836 63.7504 13.9369 68.2942 13.4597 73C12.72 80.1779 11.0104 86.4066 11.1059 93.6063C11.2729 106.769 14.1124 118.458 23.0844 128.759C26.0671 132.163 29.2169 135.438 32.8916 138.192C36.8049 141.119 41.6011 142.616 46.2064 144.307C52.8877 146.736 59.4019 149.165 66.4411 150.423C72.1202 151.442 78.5867 152.331 84.3612 152.851C90.1358 153.372 95.958 152.418 101.852 151.659C108.581 150.791 115.071 149.989 121.371 147.473C131.321 143.483 137.96 137.192 143.96 130.5C145.892 125.989 149.766 118.249 150.792 113.5C151.938 108.274 152.769 103.335 152.96 98C153.174 91.9063 152.128 84.5069 150.792 78.5C149.885 74.358 147.714 71.6821 146.473 67.6269C143.777 58.7358 139.887 50.582 134.829 42.6668C129.77 34.7515 120.488 29.4603 111.707 26.3375C108.963 25.3617 105.885 23.5835 102.878 23.3232C100.659 23.1281 97.8431 22.3691 87.7258 22.6076L87.7496 22.651Z" fill="url(#paint0_linear_2251_1686)"/>
</g>
<defs>
<linearGradient id="paint0_linear_2251_1686" x1="80.9597" y1="21" x2="80.9597" y2="153" gradientUnits="userSpaceOnUse">
<stop offset="0.365385"/>
<stop offset="0.740385" stop-color="#DFD9C9"/>
</linearGradient>
</defs>
</svg>
