<svg preserveAspectRatio="none" width="100%" height="100%" overflow="visible" style="display: block;" viewBox="0 0 489.923 346.091" fill="none" xmlns="http://www.w3.org/2000/svg">
<g id="insta">
<path id="Vector" d="M73.5681 182.911C58.57 189.901 50.2343 202.629 51.8139 217.361C53.5765 233.771 63.2808 248.954 81.814 254.656C91.3524 257.593 104.607 257.8 113.341 254.656C123.525 250.994 135.832 247.994 143.687 241.482C151.542 234.971 157.408 230.602 156.164 219.908C155.646 215.556 158.314 211.536 156.164 206.408C154.014 201.28 151.603 195.491 147.04 191.558C130.74 177.51 107.46 167.761 73.5307 182.903L73.5681 182.911Z" stroke="var(--stroke-0, black)" stroke-miterlimit="10"/>
<path id="Vector_2" d="M207.67 127.092C205.316 127.585 195.992 130.057 193.855 130.996C192.202 131.711 184.992 135.918 183.356 136.696C180.314 138.908 180.314 138.908 177.314 141.408C175.814 143.408 175.484 144.196 174.814 145.408C174.144 146.621 173.764 147.435 173.244 148.84C172.395 151.133 170.609 155.004 170.241 157.408C168.384 169.485 173.762 180.416 181.197 190.32C188.632 200.224 205.712 204.94 219.772 201.898C227.573 200.224 235.036 197.398 242.633 195.675C244.912 195.17 247.04 193.879 249.206 192.808C253.079 190.878 255.255 188.424 258.357 185.804C264.079 181.001 265.504 177.966 267.302 171.645C268.511 167.403 266.962 168.249 267.302 163.908C267.648 159.28 267.901 153.518 265.47 148.84C263.655 145.374 260.689 142.251 257.974 139.154C252.803 133.292 243.375 129.584 235.176 126.902C229.558 125.074 228.595 125.827 223.763 125.133C219.372 124.497 211.899 126.211 207.695 127.081L207.67 127.092Z" stroke="var(--stroke-0, black)" stroke-miterlimit="10"/>
<path id="Vector_3" d="M290.352 85.7739C285.814 89.4083 280.612 98.7446 279.314 101.908C277.062 107.364 277.514 110.023 277.968 115.59C278.844 126.598 289.292 142.426 301.314 147.908C308.082 151.003 313.296 152.105 321.442 152.688C327.269 153.101 333.014 152.482 338.461 150.763C349.578 147.272 363.638 145.59 371.872 137.956C376.141 133.974 379.314 128.908 380.551 124.128C380.996 122.408 381.64 119.342 381.814 117.408C382.131 113.839 382.314 113.505 381.814 109.908C381.505 107.697 381.145 103.816 379.814 101.908C378.302 99.7266 377.634 98.5124 376.576 96.36C374.967 93.0822 372.335 89.5138 369.572 86.6237C363.303 80.0669 352.04 75.4248 341.725 73.9364C332.296 72.5637 317.863 72.9673 290.39 85.7802L290.352 85.7739Z" stroke="var(--stroke-0, black)" stroke-miterlimit="10"/>
<path id="Vector_4" d="M411.314 30.4081C400.319 34.2238 388.945 50.8073 388.309 59.2529C387.558 69.201 391.149 78.1764 400.862 85.1948C416.978 96.8297 432.508 103.918 453.814 97.9083C466.074 94.4382 480.227 84.0999 484.814 75.4083" stroke="var(--stroke-0, black)" stroke-miterlimit="10"/>
<path id="Vector_5" d="M211.314 308.908C218.251 304.295 223.894 302.239 231.291 298.079C244.26 290.79 257.508 283.657 271.282 277.328L348.91 241.662C357.952 237.507 366.685 233.257 375.265 228.578C383.844 223.899 393.87 219.935 403.123 215.683L435.327 200.887C440.711 198.414 446.072 195.879 451.497 193.458C453.752 192.446 455.246 191.094 457.257 189.837C459.167 188.65 461.455 187.813 463.562 186.845C470.249 183.773 476.915 180.709 483.602 177.637" stroke="var(--stroke-0, black)" stroke-miterlimit="10"/>
<path id="Vector_6" d="M168.131 211.338C165.928 210.853 161.859 210.821 159.061 211.607C157.595 212.019 156.078 213.001 154.714 213.628C153.227 214.311 152.192 214.977 151.336 216.083C149.554 218.376 150.695 221.227 151.287 223.546C151.812 225.61 153.939 227.985 156.092 229.42C158.245 230.855 161.878 231.515 165.002 231.103C167.018 230.842 168.902 229.905 170.824 229.355C172.019 229.019 173.05 228.474 174.133 227.953C175.606 227.253 176.851 226.347 177.639 225.154C178.394 224.046 178.905 222.457 178.625 221.254C178.314 219.97 178.503 219.408 177.684 218.406C177.177 217.759 177.198 217.322 176.903 216.649C176.564 215.878 176.069 215.416 175.402 214.819C174.257 213.824 173.342 211.939 168.204 211.304L168.131 211.338Z" fill="var(--fill-0, #DFD9C9)" stroke="var(--stroke-0, black)" stroke-miterlimit="10"/>
<path id="Vector 15" d="M32.3374 136.904C32.8757 138.111 34.4946 143.832 36.865 149.561C37.8136 151.794 38.6302 154.037 39.3401 156.368C39.6479 157.492 39.8489 158.497 40.6655 160.752" stroke="var(--stroke-0, black)" stroke-linecap="round"/>
<path id="Vector 16" d="M25.1432 151.299C24.9713 151.359 24.8301 151.484 24.7508 151.648C24.6715 151.812 24.6605 152.001 24.7203 152.173C24.7801 152.345 24.9057 152.486 25.0696 152.565C25.2334 152.644 25.4221 152.655 25.5941 152.596C25.5941 152.596 25.5941 152.596 25.5941 152.596C25.9932 152.457 26.3892 152.318 26.7853 152.177C31.0097 150.664 35.2153 149.078 39.2496 146.992C39.2497 146.992 39.2497 146.992 39.2498 146.992L39.2401 146.997C40.7431 146.237 42.2772 145.523 43.8118 144.774C43.8119 144.774 43.812 144.774 43.8121 144.774C45.0582 144.158 46.2678 143.559 47.5186 143.001C47.8996 142.829 48.278 142.662 48.6622 142.494C48.8288 142.421 48.9597 142.285 49.0261 142.116C49.0925 141.947 49.089 141.758 49.0163 141.591C48.9437 141.425 48.8078 141.294 48.6386 141.227C48.4694 141.161 48.2808 141.164 48.1141 141.237C48.1141 141.237 48.1141 141.237 48.1141 141.237C47.7257 141.406 47.3425 141.575 46.9558 141.748C45.6898 142.311 44.4314 142.934 43.2074 143.538C43.2073 143.538 43.2073 143.539 43.2072 143.539C41.6914 144.278 40.1476 145 38.6209 145.772L38.6112 145.777C38.6111 145.777 38.6111 145.777 38.611 145.777C34.6998 147.801 30.5166 149.384 26.3263 150.884C25.933 151.023 25.5398 151.161 25.1432 151.299Z" fill="var(--stroke-0, black)"/>
<path id="Vector 17" d="M320.504 27.6123C320.681 27.6499 320.865 27.6159 321.016 27.5178C321.167 27.4197 321.273 27.2655 321.311 27.0892C321.349 26.9128 321.315 26.7288 321.216 26.5775C321.118 26.4262 320.964 26.3201 320.788 26.2825C319.924 26.0983 319.053 25.9433 318.177 25.8222C314.194 25.275 310.006 25.4013 306.145 26.8656C306.139 26.8682 306.132 26.8709 306.125 26.8736C304.493 27.518 303.852 29.0946 303.351 30.2981C303.35 30.2988 303.35 30.2996 303.35 30.3003C302.704 31.9672 303.087 33.6182 303.491 35.0543C303.491 35.0544 303.491 35.0546 303.491 35.0547C304.102 36.9985 305.66 38.1034 306.966 39.1205L307.053 39.1762C307.055 39.1776 307.058 39.1791 307.061 39.1805C313.457 41.8128 319.968 41.172 326.373 41.2989C326.382 41.2988 326.385 41.2987 326.388 41.2987C327.174 41.2856 327.962 41.2719 328.753 41.2476C329.624 41.2213 330.529 41.1768 331.405 41.078C331.62 41.0555 331.817 40.9485 331.952 40.7795C332.086 40.6105 332.149 40.3934 332.124 40.1768C332.1 39.9603 331.991 39.7623 331.822 39.6274C331.653 39.4925 331.438 39.4317 331.223 39.4574C331.223 39.4574 331.223 39.4574 331.223 39.4574C330.377 39.5656 329.552 39.6216 328.691 39.6627C327.917 39.6996 327.136 39.7248 326.356 39.744C326.353 39.7441 326.351 39.7441 326.348 39.7442C320.065 39.7098 313.283 40.2108 307.738 37.9334C307.736 37.9323 307.733 37.9311 307.731 37.93L307.818 37.9857C306.517 37.014 305.222 35.9704 304.833 34.6592C304.833 34.6591 304.833 34.659 304.833 34.6588C304.437 33.3259 304.189 31.9184 304.63 30.8166C304.631 30.8158 304.631 30.8151 304.631 30.8144C305.101 29.6155 305.67 28.4842 306.612 28.1431C306.618 28.1406 306.624 28.1382 306.631 28.1357C310.195 26.7809 314.166 26.6416 317.991 27.1692C318.832 27.2854 319.671 27.4346 320.504 27.6123Z" fill="var(--stroke-0, black)"/>
<path id="Vector 18" d="M320.621 27.3541C320.601 27.526 320.651 27.6986 320.759 27.8339C320.866 27.9692 321.023 28.0563 321.195 28.0758C321.367 28.0954 321.54 28.0458 321.675 27.9381C321.81 27.8304 321.897 27.6734 321.917 27.5015C321.917 27.5015 321.917 27.5015 321.917 27.5015C322.003 26.7484 322.113 26.0032 322.253 25.2624C322.783 22.455 323.767 19.7293 325.406 17.4348C325.412 17.4273 325.417 17.4198 325.422 17.4123C326.696 15.5671 329.269 15.1575 331.678 15.0928C331.685 15.0926 331.692 15.0924 331.698 15.0922C332.595 15.0351 333.493 16.4845 334.214 17.6942C334.218 17.7011 334.222 17.7079 334.227 17.7148C336.6 21.7955 334.918 27.0155 333.995 31.7443L334.003 31.7098C334.001 31.7165 333.999 31.7232 333.998 31.7299C333.661 32.9498 333.273 34.1551 332.945 35.413C332.944 35.4167 332.943 35.4204 332.942 35.4241C332.762 36.1165 332.604 36.8093 332.454 37.4995C332.289 38.2577 332.132 39.0135 331.975 39.7696C331.938 39.9475 331.974 40.1327 332.074 40.2845C332.173 40.4363 332.329 40.5423 332.507 40.5791C332.685 40.6158 332.871 40.5804 333.022 40.4806C333.174 40.3808 333.28 40.2248 333.317 40.0469C333.317 40.0469 333.317 40.0469 333.317 40.0469C333.473 39.2921 333.629 38.5389 333.791 37.7906C333.939 37.1091 334.093 36.433 334.265 35.7662C334.266 35.7626 334.267 35.759 334.268 35.7554C334.58 34.5486 334.949 33.3222 335.284 32.0856C335.286 32.0788 335.288 32.072 335.289 32.0652L335.298 32.0306C336.152 27.2779 338.046 21.9527 335.316 17.0666C335.311 17.0587 335.306 17.0508 335.302 17.0429C334.919 16.4074 334.536 15.7484 334.022 15.1162C333.525 14.5154 332.758 13.7738 331.662 13.8003C331.655 13.8005 331.648 13.8007 331.641 13.8009C329.17 13.8756 326.09 14.2223 324.361 16.6545C324.355 16.6626 324.349 16.6708 324.343 16.6789C322.569 19.1631 321.525 22.0826 320.972 25.0192C320.825 25.795 320.71 26.5719 320.621 27.3541Z" fill="var(--stroke-0, black)"/>
<path id="Vector_7" d="M159.314 319.408C159.168 315.226 158.784 311.68 157.314 307.908C155.844 304.137 154.255 299.966 151.314 297.408C146.701 293.365 140.057 288.871 133.814 288.408C125.934 287.826 116.034 290.052 109.814 294.908C104.307 299.187 100.784 304.496 98.3139 314.908C96.4787 322.646 97.716 326.408 100.814 332.408" stroke="var(--stroke-0, black)" stroke-miterlimit="10"/>
<path id="Vector 19" d="M162.562 216.061C162.861 216.759 164.072 218.976 165.292 220.807C166.479 222.977 167.325 224.331 167.932 225.259C168.239 225.719 168.54 226.155 168.849 226.705" stroke="var(--stroke-0, black)" stroke-linecap="round"/>
<path id="Vector 20" d="M158.138 224C159.908 223.524 164.437 221.91 167.221 220.24C169.224 219.066 170.612 218.375 171.591 217.928C172.068 217.686 172.504 217.412 173.156 217.131" stroke="var(--stroke-0, black)" stroke-linecap="round"/>
<path id="Vector 21" d="M94.0407 333.125C94.0981 333.294 94.2202 333.433 94.3802 333.511C94.5402 333.59 94.7248 333.602 94.8936 333.545C95.0624 333.487 95.2015 333.365 95.2803 333.205C95.359 333.045 95.371 332.861 95.3136 332.692C95.3136 332.692 95.3136 332.692 95.3136 332.692C94.6371 330.701 94.0452 328.679 93.6382 326.638C92.7455 322.49 93.0335 318.26 93.483 313.974C93.5531 313.255 93.6535 312.54 93.7831 311.829C94.7533 306.495 97.378 301.534 100.847 297.349C101.028 297.13 101.207 296.916 101.391 296.7C105.907 291.077 112.269 287.463 119.058 285.082C119.173 285.041 119.288 285 119.403 284.96C127.146 282.044 135.507 283.611 143.305 286.382C143.567 286.462 143.842 286.545 144.106 286.622C148.539 287.817 152.151 290.813 155.093 294.382C155.306 294.636 155.514 294.89 155.725 295.15L155.644 295.027C158.54 300.655 162.001 306.146 163.098 312.199C163.205 312.834 163.28 313.47 163.32 314.108C163.407 315.499 163.414 316.886 163.326 318.314C163.318 318.438 163.349 318.565 163.422 318.668C163.495 318.772 163.604 318.843 163.725 318.866C163.847 318.89 163.973 318.864 164.08 318.796C164.187 318.728 164.263 318.621 164.302 318.503C164.302 318.503 164.302 318.503 164.302 318.503C164.772 317.066 164.964 315.528 164.868 314.012C164.825 313.316 164.742 312.625 164.626 311.941C163.417 305.408 159.868 299.927 156.984 294.319L156.903 294.196C156.686 293.929 156.471 293.668 156.251 293.407C153.244 289.753 149.267 286.451 144.521 285.195C144.265 285.121 143.996 285.04 143.739 284.962C136.03 282.217 126.999 280.511 118.929 283.606C118.81 283.648 118.69 283.691 118.569 283.735C111.699 286.144 104.958 289.999 100.336 295.804C100.149 296.025 99.9658 296.245 99.7813 296.468C96.2012 300.812 93.4814 305.982 92.4604 311.588C92.3243 312.334 92.2186 313.087 92.1449 313.843C91.6957 318.104 91.3869 322.586 92.3196 326.901C92.7426 329.02 93.3515 331.096 94.0407 333.125Z" fill="var(--stroke-0, black)"/>
<path id="Vector 22" d="M151.951 229.372C152.074 229.203 152.125 228.992 152.092 228.786C152.06 228.579 151.947 228.394 151.778 228.271C151.609 228.148 151.398 228.097 151.191 228.13C150.985 228.162 150.8 228.276 150.677 228.445C150.677 228.445 150.677 228.445 150.677 228.445C148.325 231.913 144.898 234.095 141.772 237.33C141.754 237.351 141.735 237.373 141.717 237.394C141.637 237.487 141.546 237.587 141.459 237.678C136.651 242.036 129.861 244.286 123.514 246.521C123.225 246.618 122.914 246.723 122.624 246.821C115.419 249.167 108.103 252.356 100.862 252.594C100.283 252.559 99.7106 252.526 99.1374 252.493C93.3472 252.11 87.4762 252.146 82.0508 250.587C80.9319 250.262 79.84 249.836 78.7786 249.332C74.5024 247.308 70.953 244.122 67.3923 240.754C67.2398 240.619 67.0893 240.482 66.9408 240.344C62.038 235.772 59.2749 229.279 57.6182 222.706C57.515 222.296 57.4224 221.88 57.3407 221.463C56.3643 216.271 56.6952 210.811 57.6332 205.559C57.7534 204.907 57.9519 204.26 58.2059 203.627C60.3034 198.733 64.6361 194.962 68.6591 191.135C68.6711 191.124 68.683 191.112 68.6949 191.101C71.1294 189.153 74.6934 187.905 77.835 186.407C77.9622 186.349 78.0956 186.29 78.2262 186.234C83.9499 183.89 90.2532 182.757 96.4514 181.617C97.2511 181.476 98.0568 181.352 98.8648 181.244C103.786 180.624 108.87 180.365 113.641 181.359C113.966 181.432 114.286 181.512 114.599 181.6C120.074 183.251 125.925 184.288 130.957 186.406C131.63 186.739 132.279 187.076 132.931 187.434C138.782 190.458 143.213 195.281 147.16 200.621C147.492 201.051 147.823 201.482 148.16 201.916L148.131 201.877C148.38 202.24 148.625 202.603 148.864 202.968C150.303 205.13 151.399 207.415 152.075 209.897C152.231 210.455 152.483 210.989 152.838 211.514C152.903 211.609 152.983 211.695 153.084 211.75C153.185 211.805 153.296 211.823 153.401 211.8C153.506 211.777 153.599 211.713 153.667 211.621C153.735 211.528 153.772 211.416 153.79 211.303C153.79 211.303 153.79 211.303 153.79 211.303C153.886 210.662 153.851 210.037 153.685 209.446C152.976 206.822 151.747 204.29 150.25 202.06C150.002 201.682 149.75 201.309 149.496 200.94L149.467 200.9C149.131 200.469 148.8 200.041 148.468 199.611C144.552 194.31 139.755 189.104 133.708 186.014C133.033 185.646 132.364 185.3 131.671 184.958C126.102 182.641 120.541 181.742 115.029 180.075C114.685 179.978 114.337 179.891 113.986 179.813C108.861 178.755 103.711 179.046 98.6557 179.676C97.827 179.787 97 179.913 96.1765 180.059C89.923 181.214 83.6318 182.313 77.595 184.772C77.456 184.832 77.3135 184.895 77.1771 184.957C73.9851 186.501 70.6816 187.466 67.5666 189.912C67.5549 189.923 67.543 189.934 67.5312 189.945C63.5262 193.769 59.0394 197.521 56.6596 203.006C56.3712 203.725 56.1385 204.477 55.9947 205.257C55.0328 210.68 54.6828 216.266 55.7142 221.781C55.8012 222.225 55.8996 222.67 56.0098 223.11C57.7019 229.841 60.4695 236.685 65.7498 241.622C65.9095 241.771 66.0714 241.918 66.2357 242.063C69.7028 245.342 73.491 248.755 78.0424 250.888C79.1793 251.424 80.3585 251.88 81.5772 252.229C87.3768 253.855 93.2759 253.744 99.0464 254.125C99.618 254.156 100.188 254.189 100.765 254.223C108.877 253.921 115.876 250.685 123.143 248.343C123.431 248.245 123.738 248.14 124.025 248.044C130.486 245.724 137.171 243.645 142.599 238.766C142.702 238.658 142.813 238.537 142.911 238.422C142.927 238.404 142.944 238.385 142.96 238.366C145.684 235.518 149.514 232.98 151.951 229.372Z" fill="var(--stroke-0, black)"/>
<path id="Vector 23" d="M212.689 131.141C212.608 130.666 212.527 130.19 212.447 129.714C208.336 130.329 204.279 131.655 200.451 133.152C199.814 133.395 199.178 133.64 198.539 133.887C198.504 133.9 198.469 133.914 198.434 133.927C192.415 136.246 186.65 139.555 181.976 144.091C181.904 144.16 181.833 144.229 181.762 144.298C178.072 147.935 175.467 152.646 174.569 157.803C174.546 157.949 174.524 158.096 174.504 158.243C173.861 163.154 175.024 167.993 176.566 172.488C176.629 172.669 176.691 172.847 176.754 173.024C179.003 180.467 184.395 186.895 190.275 191.637C190.485 191.825 190.7 192.007 190.918 192.184C197.304 197.115 205.442 197.653 212.871 198.12C213.255 198.142 213.64 198.161 214.026 198.175C219.164 198.433 224.293 197.339 229.092 195.763C229.277 195.703 229.46 195.643 229.641 195.585C235 193.802 240.444 192.204 245.65 189.708C246.388 189.35 247.105 188.968 247.813 188.556C254.616 184.671 259.359 178.276 263.646 172.149C263.809 171.919 263.96 171.684 264.099 171.441C266.498 166.88 264.999 162.201 265.203 157.933C265.205 157.685 265.202 157.438 265.192 157.19C265.057 152.407 262.123 148.514 259.403 145.169C258.977 144.653 258.509 144.18 258.03 143.743C254.218 140.431 249.891 138.265 245.694 135.884C245.1 135.554 244.505 135.239 243.9 134.931C238.299 132.071 232.24 130.19 226.131 128.958L226.093 128.952C225.707 128.89 225.32 128.834 224.933 128.783C224.587 128.737 224.24 128.696 223.892 128.659C222.427 128.505 220.955 128.425 219.466 128.449C218.646 128.469 217.896 128.569 217.142 128.676C215.528 128.915 213.95 129.228 212.371 129.588C212.502 130.148 212.633 130.708 212.765 131.268C214.291 130.908 215.847 130.594 217.388 130.366C218.102 130.264 218.829 130.176 219.491 130.165C220.887 130.152 222.303 130.243 223.707 130.393C224.04 130.429 224.373 130.469 224.705 130.513C225.076 130.563 225.446 130.617 225.816 130.677L225.778 130.67C231.787 131.892 237.667 133.729 243.094 136.511C243.681 136.811 244.256 137.118 244.831 137.438C248.995 139.805 253.337 142.054 256.808 145.084C257.239 145.477 257.649 145.892 258.006 146.324C260.696 149.609 263.311 153.175 263.414 157.262C263.423 157.48 263.426 157.698 263.425 157.919C263.297 162.389 264.541 167.068 262.583 170.569C262.472 170.762 262.351 170.95 262.22 171.134C257.919 177.286 253.351 183.361 246.922 187.022C246.252 187.41 245.574 187.77 244.875 188.108C239.878 190.5 234.44 192.096 229.085 193.875C228.904 193.934 228.721 193.993 228.536 194.053C223.825 195.597 218.994 196.634 214.089 196.401C213.717 196.388 213.345 196.371 212.972 196.35C205.593 195.929 197.734 195.298 191.993 190.849C191.796 190.691 191.603 190.528 191.414 190.361C185.427 185.5 180.599 179.788 178.299 172.473C178.238 172.3 178.176 172.126 178.114 171.95C176.59 167.576 175.477 162.957 176.066 158.452C176.083 158.318 176.103 158.183 176.124 158.049C176.933 153.313 179.407 148.807 182.851 145.412C182.918 145.347 182.984 145.282 183.051 145.218C187.559 140.822 193.065 137.551 198.957 135.277C198.991 135.264 199.025 135.251 199.06 135.237C199.698 134.991 200.333 134.747 200.967 134.505C204.812 133.005 208.631 131.754 212.689 131.141ZM212.447 129.714L212.689 131.141L212.765 131.268L212.371 129.588L212.447 129.714Z" fill="var(--stroke-0, black)"/>
<path id="Vector 24" d="M295.999 89.1721C296.165 89.1111 296.3 88.9867 296.374 88.8263C296.448 88.6659 296.455 88.4827 296.394 88.3169C296.333 88.1511 296.209 88.0163 296.048 87.9422C295.888 87.8681 295.705 87.8608 295.539 87.9218C295.539 87.9218 295.539 87.9218 295.539 87.9218C291.062 89.4689 288.664 93.833 286.393 97.2338C286.384 97.2455 286.375 97.258 286.366 97.2701C286.187 97.5154 286.003 97.7523 285.812 97.9688C283.358 100.739 282.542 104.405 282.093 107.821C282.067 108.022 282.043 108.225 282.02 108.428C281.523 112.557 282.012 116.798 283.112 120.771C283.252 121.284 283.394 121.776 283.548 122.281C285.42 129.258 290.176 135.34 295.481 139.928C295.84 140.266 296.211 140.589 296.592 140.898C302.608 145.672 310.213 146.808 317.25 148.173C317.685 148.253 318.122 148.322 318.559 148.38C323.941 149.1 329.317 148.289 334.463 147.37C334.887 147.296 335.282 147.2 335.673 147.102C341.682 145.452 347.438 143.408 353.27 141.448C353.598 141.337 353.92 141.223 354.244 141.103C359.884 139.056 364.883 135.575 369.316 131.705C369.544 131.509 369.762 131.314 369.982 131.111C373.26 128.096 375.769 124.248 377.187 120.02C377.275 119.756 377.356 119.492 377.429 119.224C379.212 112.285 376.165 105.737 373.686 99.7618C373.596 99.5565 373.488 99.341 373.382 99.1503C368.638 92.3282 361.877 88.3297 355.602 83.7379C355.465 83.6429 355.32 83.5477 355.179 83.4598C349.4 80.345 343.199 79.832 337.196 78.5624C337.079 78.5402 336.961 78.519 336.843 78.4986C329.829 77.4358 323.029 78.9619 316.345 80.0597L316.253 80.0818C316.19 80.1011 316.128 80.1203 316.066 80.1395C312.712 81.1727 309.368 82.2864 306.069 83.5048C303.2 84.5536 300.372 85.731 297.549 86.7739C297.546 86.7752 297.535 86.7789 297.525 86.7826C296.308 87.206 295.283 88.1716 294.257 88.9474C295.52 88.6163 296.845 88.6127 298.028 88.2031C298.038 88.1995 298.048 88.1959 298.058 88.1923C300.951 87.1291 303.746 85.9683 306.595 84.9315C309.865 83.7281 313.183 82.6282 316.517 81.608C316.579 81.589 316.641 81.5701 316.703 81.551L316.61 81.5732C323.272 80.4792 330.06 79.0548 336.573 80.0666C336.682 80.0856 336.791 80.1054 336.9 80.126C342.861 81.3666 349.23 82.0291 354.33 84.8183C354.45 84.8933 354.572 84.9738 354.685 85.0528C360.868 89.544 367.722 93.9696 371.871 99.9837C371.956 100.137 372.04 100.305 372.107 100.457C374.592 106.349 377.435 112.72 375.833 118.787C375.768 119.025 375.697 119.262 375.619 119.497C374.303 123.456 371.954 127.081 368.876 129.911C368.669 130.101 368.464 130.284 368.25 130.468C363.876 134.281 359.07 137.578 353.664 139.527C353.353 139.641 353.044 139.75 352.73 139.856C346.918 141.795 341.086 143.837 335.251 145.431C334.884 145.523 334.508 145.611 334.173 145.669C329.023 146.585 323.854 147.335 318.79 146.657C318.38 146.602 317.971 146.537 317.564 146.463C310.531 145.12 303.153 143.941 297.665 139.572C297.314 139.289 296.974 138.994 296.645 138.686C291.302 134.048 286.973 128.577 285.071 121.81C284.919 121.322 284.778 120.847 284.639 120.35C283.547 116.507 283.04 112.537 283.472 108.58C283.492 108.385 283.513 108.19 283.535 107.996C283.928 104.677 284.661 101.283 286.816 98.8478C287.041 98.5901 287.247 98.3229 287.443 98.0551C287.452 98.0419 287.462 98.0283 287.472 98.0156C289.885 94.3745 292.042 90.5413 295.999 89.1721Z" fill="var(--stroke-0, black)"/>
<path id="Vector 25" d="M415.096 32.5557C415.267 32.481 415.402 32.3411 415.471 32.1668C415.54 31.9926 415.536 31.7982 415.461 31.6265C415.387 31.4548 415.247 31.3198 415.073 31.2512C414.898 31.1827 414.704 31.1861 414.532 31.2609C414.532 31.2609 414.532 31.2609 414.532 31.2609C412.059 32.3611 409.878 33.881 407.794 35.4922C404.409 38.1475 401.313 41.1408 398.536 44.4254C398.009 45.0517 397.496 45.6895 396.999 46.3403C394.637 49.4582 393.376 53.1718 392.542 56.8561C392.382 57.5729 392.237 58.2943 392.106 59.0143C391.408 63.245 392.272 67.4294 393.688 71.3099C394.102 72.4067 394.577 73.481 395.137 74.5226C398.653 81.1319 404.637 85.9456 410.849 89.6766C411.238 89.9129 411.629 90.146 412.02 90.376C417.103 93.5898 423.177 94.9271 428.965 95.7567C429.541 95.8435 430.117 95.9274 430.704 96.0106C434.157 96.52 437.778 96.7268 441.298 96.1428C441.603 96.0949 441.904 96.0428 442.208 95.9859C448.243 94.6445 453.855 92.5125 459.595 90.6221C459.774 90.5614 459.955 90.5004 460.136 90.4392C466.703 87.8674 471.977 83.5665 477.532 79.7198C477.586 79.6813 477.64 79.6427 477.694 79.604L477.708 79.5932C478.63 78.8993 479.535 78.1948 480.429 77.452C481.437 76.6145 482.424 75.7219 483.34 74.7657C483.356 74.749 483.372 74.7324 483.388 74.7159C484.302 73.7718 485.149 72.7465 485.957 71.7612C486.093 71.5964 486.158 71.3843 486.138 71.1716C486.117 70.9588 486.013 70.7628 485.849 70.6268C485.684 70.4907 485.472 70.4256 485.259 70.4459C485.046 70.4662 484.85 70.5702 484.714 70.735C484.714 70.735 484.714 70.735 484.714 70.735C483.892 71.7376 483.1 72.6957 482.225 73.6006C482.21 73.6165 482.195 73.6324 482.179 73.6483C481.308 74.5575 480.376 75.3978 479.396 76.2095C478.53 76.9274 477.642 77.6165 476.735 78.2992L476.75 78.2884C476.696 78.327 476.642 78.3656 476.588 78.4041C471.081 82.2353 465.719 86.6488 459.653 89.0127C459.472 89.074 459.292 89.1351 459.112 89.1958C453.402 91.0804 447.676 93.2262 441.93 94.4944C441.64 94.5484 441.353 94.5977 441.063 94.6429C437.718 95.1919 434.326 94.9772 430.924 94.4698C430.341 94.3858 429.768 94.3017 429.198 94.2156C423.403 93.3756 417.719 92.1751 412.784 89.0758C412.399 88.8494 412.014 88.6201 411.631 88.3877C405.515 84.7142 399.816 80.0604 396.491 73.7939C395.971 72.8242 395.521 71.8077 395.129 70.7676C393.778 67.0934 392.947 63.0638 393.56 59.274C393.683 58.5707 393.82 57.8685 393.972 57.1732C394.761 53.5989 395.961 50.0611 398.125 47.1973C398.605 46.5655 399.103 45.9445 399.616 45.3343C402.322 42.1333 405.366 39.1906 408.663 36.6057C410.686 35.0387 412.82 33.5652 415.096 32.5557Z" fill="var(--stroke-0, black)"/>
<path id="Vector 26" d="M181.396 300.165C181.433 300.329 181.534 300.471 181.676 300.56C181.818 300.65 181.989 300.679 182.153 300.642C182.317 300.605 182.459 300.505 182.548 300.363C182.638 300.221 182.667 300.049 182.63 299.886C182.63 299.886 182.63 299.886 182.63 299.886C182.527 299.431 182.423 298.978 182.317 298.525C181.28 294.025 180.034 289.566 179.124 285.095C179.119 285.071 179.114 285.047 179.11 285.023C179.095 284.952 179.1 284.901 179.101 284.902C179.106 284.901 179.074 284.959 179.057 284.967C179.021 284.979 179.188 284.925 179.371 284.941C179.75 284.963 180.206 285.091 180.626 285.251C180.639 285.257 180.653 285.262 180.667 285.267C181.709 285.672 182.747 286.247 183.875 286.717C183.884 286.721 183.894 286.725 183.904 286.729C185.357 287.338 186.849 287.722 188.321 288.097C188.772 288.211 189.226 288.322 189.68 288.43C189.851 288.471 190.03 288.443 190.18 288.351C190.329 288.259 190.436 288.111 190.477 287.941C190.517 287.77 190.489 287.59 190.397 287.441C190.305 287.291 190.158 287.184 189.987 287.144C189.987 287.144 189.987 287.144 189.987 287.144C189.536 287.037 189.087 286.928 188.642 286.817C187.186 286.449 185.745 286.075 184.408 285.517C184.399 285.514 184.39 285.51 184.381 285.506C183.328 285.072 182.292 284.505 181.131 284.06C181.116 284.054 181.1 284.048 181.085 284.042C180.569 283.854 180.05 283.698 179.426 283.666C179.114 283.665 178.748 283.642 178.298 283.95C178.078 284.107 177.908 284.391 177.863 284.637C177.812 284.883 177.835 285.086 177.868 285.263C177.872 285.288 177.877 285.312 177.882 285.337C178.812 289.902 180.052 294.331 181.085 298.813C181.19 299.264 181.294 299.714 181.396 300.165Z" fill="var(--stroke-0, black)"/>
<path id="Vector 27" d="M180.816 291.619C180.729 291.77 180.706 291.95 180.751 292.119C180.797 292.288 180.908 292.432 181.059 292.519C181.211 292.607 181.391 292.63 181.56 292.584C181.729 292.539 181.873 292.428 181.96 292.276C181.96 292.276 181.96 292.276 181.96 292.276C182.087 292.056 182.213 291.836 182.339 291.617C183.835 289.017 185.327 286.411 186.854 283.842C186.854 283.842 186.854 283.842 186.854 283.842C187.652 282.503 188.42 281.158 189.211 279.826C189.34 279.61 189.469 279.394 189.598 279.177C189.66 279.074 189.685 278.95 189.662 278.83C189.639 278.71 189.571 278.605 189.472 278.536C189.373 278.467 189.251 278.44 189.131 278.46C189.01 278.479 188.902 278.545 188.827 278.639C188.827 278.639 188.827 278.639 188.827 278.639C188.666 278.838 188.508 279.04 188.351 279.243C187.386 280.497 186.524 281.819 185.721 283.166C185.721 283.166 185.721 283.166 185.72 283.166C184.183 285.753 182.692 288.358 181.195 290.959C181.069 291.179 180.942 291.399 180.816 291.619Z" fill="var(--stroke-0, black)"/>
<path id="Vector 28" d="M187.426 272.4C187.313 272.26 187.149 272.171 186.97 272.153C186.792 272.134 186.613 272.187 186.473 272.3C186.334 272.413 186.245 272.577 186.226 272.756C186.207 272.934 186.26 273.113 186.374 273.253C186.374 273.253 186.374 273.253 186.374 273.253C186.562 273.485 186.749 273.717 186.937 273.949C188.685 276.105 190.432 278.262 192.182 280.417C192.182 280.418 192.183 280.419 192.184 280.419C193.763 282.469 195.821 284.408 198.156 285.635C198.423 285.783 198.688 285.922 198.961 286.061C199.056 286.109 199.166 286.123 199.27 286.094C199.373 286.066 199.461 285.999 199.515 285.907C199.568 285.816 199.584 285.706 199.558 285.602C199.532 285.498 199.466 285.408 199.378 285.349C199.378 285.349 199.378 285.349 199.378 285.349C199.13 285.183 198.89 285.018 198.648 284.847C196.517 283.395 194.832 281.62 193.236 279.566C193.235 279.565 193.234 279.564 193.233 279.563C191.485 277.409 189.737 275.252 187.99 273.096C187.802 272.864 187.614 272.632 187.426 272.4Z" fill="var(--stroke-0, black)"/>
<path id="Vector 29" d="M187.733 277.655C187.656 277.811 187.643 277.992 187.699 278.157C187.755 278.322 187.873 278.459 188.03 278.536C188.186 278.614 188.366 278.626 188.531 278.57C188.697 278.515 188.833 278.396 188.91 278.239C188.91 278.239 188.91 278.239 188.91 278.239C189.293 277.469 189.68 276.701 190.072 275.938C191.627 272.982 193.174 269.903 195.263 267.471C195.302 267.428 195.341 267.387 195.38 267.346C195.908 266.78 196.696 266.433 197.296 266.576C197.343 266.587 197.389 266.6 197.433 266.616C198.006 266.822 198.531 267.683 198.764 268.515C198.786 268.589 198.805 268.664 198.823 268.74C199.254 270.561 198.591 272.536 197.835 274.471C197.797 274.57 197.76 274.669 197.724 274.768C197.698 274.846 197.676 274.904 197.663 275.039C197.657 275.108 197.658 275.189 197.677 275.28C197.7 275.391 197.755 275.518 197.84 275.619C198.019 275.828 198.22 275.876 198.329 275.897C198.453 275.917 198.51 275.913 198.585 275.909C198.827 275.888 198.947 275.846 199.088 275.807C199.354 275.727 199.585 275.64 199.815 275.555C200.273 275.385 200.714 275.219 201.156 275.074C202.033 274.787 202.936 274.564 203.735 274.619C203.783 274.623 203.83 274.629 203.877 274.638C204.649 274.775 205.365 275.718 205.748 276.683C205.768 276.731 205.786 276.78 205.804 276.83C206.6 279.231 205.312 282.062 204.069 284.547L204.094 284.502C204.077 284.531 204.059 284.559 204.042 284.588C203.448 285.555 203.211 286.941 202.115 287.629C202.101 287.638 202.087 287.647 202.073 287.655C201.793 287.82 201.5 287.962 201.2 288.086C200.401 288.414 199.56 288.619 198.724 288.826C199.56 288.619 200.401 288.414 201.2 288.086C201.5 287.962 201.793 287.82 202.073 287.655C202.087 287.647 202.101 287.638 202.115 287.63C203.157 287.043 204.559 286.472 205.256 285.337C205.276 285.305 205.295 285.274 205.315 285.242L205.34 285.196C206.584 282.608 208.132 279.655 207.103 276.362C207.079 276.295 207.053 276.228 207.026 276.162C206.513 274.996 205.75 273.683 204.13 273.304C204.033 273.286 203.935 273.273 203.836 273.266C202.697 273.195 201.689 273.473 200.733 273.774C200.255 273.928 199.791 274.101 199.341 274.266C199.118 274.347 198.894 274.429 198.698 274.487C198.604 274.516 198.499 274.537 198.497 274.535C198.502 274.535 198.511 274.532 198.569 274.541C198.619 274.551 198.76 274.576 198.901 274.74C198.967 274.818 199.009 274.917 199.025 274.997C199.039 275.062 199.039 275.113 199.036 275.15C199.029 275.22 199.02 275.232 199.018 275.242C199.051 275.15 199.087 275.055 199.124 274.958C199.867 273.02 200.681 270.774 200.124 268.424C200.1 268.328 200.075 268.233 200.047 268.138C199.703 267.093 199.215 265.949 197.883 265.379C197.786 265.344 197.687 265.315 197.588 265.293C196.303 265.029 195.182 265.656 194.428 266.44C194.383 266.486 194.338 266.535 194.293 266.584C191.978 269.292 190.49 272.337 188.903 275.337C188.507 276.106 188.118 276.88 187.733 277.655Z" fill="var(--stroke-0, black)"/>
<path id="Vector 30" d="M212.865 267.776C212.926 267.609 212.918 267.425 212.844 267.263C212.769 267.102 212.633 266.977 212.467 266.916C212.3 266.855 212.115 266.863 211.954 266.937C211.793 267.012 211.668 267.148 211.607 267.314C211.607 267.314 211.607 267.314 211.607 267.314C211.445 267.756 211.282 268.199 211.122 268.645C210.486 270.485 209.761 272.305 209.628 274.44C209.628 274.442 209.628 274.444 209.628 274.446C209.503 275.901 210.332 277.648 211.698 278.352C211.702 278.354 211.705 278.356 211.709 278.358C212.774 279.007 214.132 279.162 215.293 278.939C215.296 278.938 215.299 278.938 215.302 278.937C217.007 278.634 218.427 277.711 219.67 276.757C219.671 276.756 219.673 276.755 219.674 276.754C221.8 275.079 223.619 273.168 225.418 271.248C225.741 270.901 226.061 270.553 226.38 270.203C226.512 270.058 226.581 269.866 226.572 269.671C226.563 269.475 226.476 269.291 226.331 269.159C226.186 269.027 225.994 268.958 225.799 268.967C225.603 268.976 225.419 269.063 225.287 269.208C225.287 269.208 225.287 269.208 225.287 269.208C224.971 269.555 224.655 269.9 224.336 270.243C222.565 272.14 220.76 274.028 218.774 275.595C218.772 275.596 218.771 275.597 218.77 275.598C217.606 276.5 216.376 277.297 215.047 277.545C215.044 277.545 215.042 277.546 215.04 277.546C214.099 277.73 213.183 277.64 212.394 277.178C212.391 277.177 212.388 277.175 212.386 277.174C211.393 276.629 210.912 275.658 210.967 274.488C210.967 274.487 210.967 274.486 210.967 274.484C211.064 272.745 211.752 270.895 212.382 269.099C212.541 268.658 212.702 268.218 212.865 267.776Z" fill="var(--stroke-0, black)"/>
<path id="Vector 31" d="M224.634 246.316C224.519 246.163 224.348 246.061 224.159 246.034C223.969 246.007 223.777 246.056 223.624 246.171C223.471 246.285 223.369 246.456 223.342 246.646C223.315 246.835 223.364 247.027 223.479 247.181C223.479 247.181 223.479 247.181 223.479 247.181C224.002 247.879 224.525 248.578 225.049 249.277C228.182 253.461 231.315 257.643 234.431 261.837C234.532 261.973 234.632 262.108 234.731 262.242C234.767 262.287 234.776 262.327 234.755 262.261C234.746 262.232 234.728 262.137 234.761 262.023C234.794 261.899 234.881 261.803 234.927 261.769C235.102 261.673 234.9 261.767 234.761 261.76C234.447 261.778 234.059 261.753 233.68 261.722C232.913 261.657 232.125 261.562 231.326 261.49C229.719 261.403 228.108 261.065 226.234 261.934C226.011 262.062 225.806 262.215 225.624 262.382C224.342 263.634 223.989 265.194 223.672 266.636C223.636 266.814 223.606 266.994 223.583 267.175C223.418 268.453 223.51 270.02 224.613 271.175C224.731 271.296 224.858 271.408 224.99 271.509C226.314 272.491 227.949 272.515 229.335 272.138C229.439 272.109 229.542 272.078 229.644 272.044C231.386 271.443 232.748 270.375 234.017 269.307C234.057 269.272 234.097 269.239 234.136 269.205C234.906 268.541 235.609 267.832 236.29 267.118C236.891 266.488 237.478 265.846 238.06 265.187C238.14 265.097 238.191 264.982 238.196 264.859C238.201 264.737 238.161 264.619 238.082 264.529C238.003 264.439 237.892 264.384 237.77 264.373C237.648 264.362 237.527 264.398 237.427 264.465C237.427 264.465 237.427 264.465 237.427 264.465C236.693 264.96 235.982 265.483 235.295 266.031C234.514 266.654 233.774 267.305 233.042 267.935C233.004 267.968 232.966 268 232.928 268.033C231.728 269.056 230.471 270.036 229.127 270.513C229.049 270.54 228.971 270.565 228.894 270.588C227.857 270.9 226.672 270.837 225.917 270.28C225.841 270.224 225.769 270.163 225.703 270.099C225.085 269.506 224.9 268.421 225.039 267.362C225.057 267.214 225.081 267.066 225.109 266.918C225.368 265.593 225.784 264.211 226.599 263.449C226.711 263.347 226.829 263.26 226.951 263.19C227.973 262.668 229.69 262.802 231.195 262.928C231.972 262.997 232.75 263.091 233.561 263.16C233.969 263.192 234.376 263.225 234.847 263.201C235.103 263.162 235.311 263.232 235.816 262.906C235.939 262.812 236.089 262.637 236.149 262.417C236.209 262.214 236.181 262.005 236.148 261.889C236.073 261.631 235.985 261.518 235.89 261.383C235.791 261.249 235.69 261.113 235.589 260.977C232.47 256.779 229.337 252.596 226.203 248.412C225.68 247.713 225.157 247.014 224.634 246.316Z" fill="var(--stroke-0, black)"/>
<path id="Vector 32" d="M236.6 258.331C236.447 258.423 236.337 258.572 236.294 258.745C236.251 258.918 236.278 259.102 236.37 259.255C236.462 259.408 236.61 259.518 236.784 259.561C236.957 259.604 237.14 259.577 237.293 259.485C237.293 259.485 237.293 259.485 237.293 259.485C238.106 258.997 238.915 258.5 239.717 257.99C242.927 255.755 246.577 254.028 248.62 249.961C248.621 249.96 248.621 249.959 248.622 249.957C249.059 248.615 248.443 247.237 247.711 246.331C247.71 246.33 247.71 246.329 247.709 246.328C246.742 245.139 245.389 244.222 243.724 244.153C243.722 244.153 243.721 244.153 243.719 244.153C242.009 244.157 240.644 245.079 239.589 246.154C239.588 246.154 239.588 246.155 239.587 246.155C237.383 248.826 237.664 252.037 237.477 254.902C237.477 254.907 237.476 254.912 237.476 254.917C237.343 258.151 239.192 261.159 241.602 263.065C241.609 263.07 241.616 263.076 241.623 263.081C242.964 264.137 244.715 264.222 246.177 263.851C246.183 263.85 246.188 263.848 246.194 263.847C247.985 263.349 249.352 262.308 250.618 261.239C250.621 261.236 250.624 261.234 250.626 261.232C250.938 260.963 251.238 260.674 251.519 260.365C252.189 259.633 252.741 258.774 253.123 257.866C253.164 257.769 253.179 257.66 253.154 257.555C253.13 257.451 253.07 257.361 252.984 257.304C252.898 257.246 252.792 257.225 252.686 257.242C252.58 257.259 252.485 257.314 252.411 257.388C252.411 257.388 252.411 257.388 252.411 257.388C251.746 258.05 251.09 258.653 250.412 259.241C250.127 259.489 249.839 259.736 249.55 259.985C249.548 259.988 249.545 259.99 249.543 259.992C248.379 260.988 247.104 261.932 245.787 262.311C245.783 262.312 245.778 262.313 245.774 262.314C244.634 262.631 243.362 262.592 242.522 261.936C242.517 261.933 242.513 261.93 242.509 261.926C240.322 260.233 238.755 257.68 238.842 254.949C238.842 254.944 238.842 254.94 238.842 254.936C238.948 252.127 238.889 248.952 240.529 247.045C240.53 247.045 240.53 247.045 240.53 247.044C241.387 246.138 242.575 245.411 243.695 245.429C243.695 245.429 243.696 245.429 243.697 245.429C244.802 245.454 245.967 246.184 246.703 247.114C246.704 247.115 246.705 247.115 246.705 247.116C247.313 247.884 247.594 248.783 247.336 249.559C247.336 249.56 247.335 249.561 247.335 249.562C245.876 252.571 242.116 254.767 238.995 256.854C238.204 257.357 237.405 257.848 236.6 258.331Z" fill="var(--stroke-0, black)"/>
<path id="Vector 33" d="M257.408 241.74C257.503 241.877 257.647 241.97 257.811 242C257.974 242.03 258.142 241.994 258.279 241.9C258.415 241.805 258.509 241.661 258.539 241.497C258.569 241.334 258.532 241.166 258.438 241.029C258.438 241.029 258.438 241.029 258.438 241.029C258.082 240.514 257.726 239.998 257.365 239.483C256.067 237.69 254.885 235.826 252.994 234.313C252.991 234.311 252.988 234.308 252.985 234.306C252.398 233.881 251.647 233.482 250.748 233.542C249.841 233.6 249.094 234.205 248.667 234.839C248.662 234.847 248.657 234.854 248.652 234.861C246.683 238.434 248.206 241.998 248.993 245.195L249.07 245.367C249.075 245.373 249.079 245.38 249.083 245.387C251.277 248.774 253.596 252.396 257.665 254.254L257.685 254.262C257.687 254.263 257.69 254.264 257.692 254.265C258.044 254.394 258.402 254.5 258.762 254.588C259.381 254.738 260.006 254.833 260.639 254.895C260.738 254.905 260.841 254.889 260.93 254.84C261.019 254.791 261.085 254.713 261.115 254.621C261.146 254.528 261.139 254.426 261.097 254.334C261.055 254.241 260.981 254.168 260.895 254.117C260.339 253.788 259.768 253.511 259.198 253.269C258.866 253.128 258.533 252.998 258.2 252.877C258.198 252.876 258.196 252.875 258.193 252.874L258.214 252.882C254.841 251.384 252.387 247.931 250.265 244.649C250.26 244.642 250.256 244.636 250.252 244.629L250.329 244.8C249.463 241.706 248.274 238.103 249.737 235.595C249.74 235.59 249.744 235.585 249.747 235.58C250.342 234.649 251.29 234.588 252.246 235.316C252.249 235.318 252.251 235.32 252.253 235.321C253.818 236.557 255.08 238.44 256.34 240.201C256.698 240.711 257.053 241.225 257.408 241.74Z" fill="var(--stroke-0, black)"/>
<path id="Vector 34" d="M249.86 253.625C249.712 253.783 249.632 253.993 249.638 254.209C249.644 254.426 249.737 254.631 249.894 254.78C250.052 254.928 250.262 255.008 250.478 255.002C250.695 254.996 250.9 254.904 251.049 254.746C251.049 254.746 251.049 254.746 251.049 254.746C251.228 254.556 251.407 254.366 251.586 254.176C253.653 251.993 255.711 249.791 257.859 247.746C257.859 247.746 257.859 247.746 257.86 247.745C259.068 246.6 260.323 245.556 261.677 244.586C261.886 244.434 262.097 244.283 262.309 244.131C262.485 244.005 262.604 243.814 262.639 243.6C262.675 243.386 262.624 243.167 262.498 242.991C262.371 242.815 262.18 242.696 261.967 242.661C261.753 242.626 261.534 242.677 261.358 242.803C261.358 242.803 261.358 242.803 261.358 242.803C261.146 242.955 260.932 243.108 260.718 243.263C259.326 244.259 257.982 245.377 256.738 246.558C256.738 246.558 256.738 246.558 256.738 246.558C254.526 248.664 252.47 250.867 250.398 253.055C250.219 253.245 250.04 253.435 249.86 253.625Z" fill="var(--stroke-0, black)"/>
<path id="Vector 35" d="M271.202 236.523C271.355 236.491 271.489 236.399 271.574 236.268C271.659 236.137 271.688 235.977 271.655 235.825C271.623 235.672 271.531 235.538 271.4 235.453C271.269 235.368 271.11 235.339 270.957 235.372C269.953 235.586 268.944 235.8 267.935 236.043C266.483 236.407 265.019 236.759 263.594 237.523C263.565 237.539 263.536 237.556 263.508 237.572C262.113 238.237 261.286 240.061 261.331 241.459C261.328 241.506 261.326 241.552 261.324 241.599C261.283 242.971 261.337 244.369 261.885 245.765C261.912 245.83 261.94 245.895 261.97 245.959C262.403 246.949 263.394 247.951 264.683 248.007C264.78 248.012 264.878 248.013 264.975 248.008C270.023 247.595 270.878 242.115 272.622 239.166C272.633 239.147 272.645 239.129 272.657 239.112C272.984 238.539 273.974 238.745 274.72 239.351C274.739 239.366 274.758 239.382 274.777 239.397C278.824 242.452 279.339 248.06 278.408 252.984L278.439 252.857C278.424 252.901 278.409 252.944 278.393 252.987C277.91 254.278 276.963 255.409 275.845 256.184C275.823 256.2 275.8 256.215 275.777 256.23C274.916 256.831 273.805 257.049 272.609 257.217C271.622 257.351 270.609 257.438 269.592 257.517C269.372 257.534 269.168 257.637 269.025 257.805C268.882 257.973 268.811 258.191 268.829 258.412C268.846 258.632 268.95 258.837 269.118 258.98C269.286 259.123 269.504 259.193 269.724 259.175C269.724 259.175 269.724 259.175 269.724 259.175C270.756 259.089 271.786 258.997 272.837 258.85C274.079 258.667 275.496 258.413 276.689 257.576C276.718 257.557 276.747 257.536 276.776 257.516C278.177 256.514 279.208 255.101 279.79 253.496C279.809 253.442 279.828 253.388 279.846 253.334L279.877 253.207C280.786 248.178 280.222 241.763 275.592 238.36C275.571 238.343 275.549 238.327 275.527 238.31C275.012 237.92 274.418 237.597 273.692 237.497C272.985 237.368 272.025 237.705 271.604 238.378C271.578 238.416 271.553 238.454 271.529 238.494C269.641 241.965 268.634 246.542 264.918 246.704C264.863 246.707 264.81 246.706 264.756 246.703C264.08 246.676 263.478 246.152 263.137 245.415C263.115 245.367 263.093 245.319 263.073 245.27C262.634 244.202 262.524 242.898 262.552 241.641C262.553 241.597 262.554 241.555 262.556 241.512C262.564 240.195 262.998 239.191 264.099 238.591C264.122 238.577 264.146 238.564 264.17 238.55C265.358 237.907 266.8 237.537 268.211 237.188C269.198 236.95 270.198 236.737 271.202 236.523Z" fill="var(--stroke-0, black)"/>
<path id="Vector 36" d="M86.0756 249.109C86.1288 249.257 86.2388 249.378 86.3812 249.445C86.5236 249.512 86.6869 249.52 86.835 249.467C86.9832 249.414 87.1041 249.304 87.1712 249.161C87.2383 249.019 87.2461 248.856 87.1928 248.708C87.1928 248.708 87.1928 248.708 87.1928 248.708C86.3581 246.372 85.5694 244.022 85.0084 241.639C84.7353 240.437 84.4983 239.203 84.5384 238.057C84.5424 237.97 84.5489 237.879 84.5576 237.795C84.9411 234.177 87.5754 231.253 89.543 227.91C89.6255 227.765 89.7084 227.615 89.7867 227.466C90.6624 225.892 90.0593 224.033 89.3087 222.774C88.5417 221.455 87.5879 220.332 86.6501 219.228C84.7793 217.034 82.7833 214.929 81.6028 212.458C81.6011 212.454 81.5994 212.45 81.5976 212.446C79.3338 206.899 84.4079 201.364 88.0932 196.844C88.1482 196.779 88.2032 196.715 88.2582 196.65C91.3168 192.945 96.7329 192.957 101.532 192.927C101.721 192.927 101.911 192.927 102.103 192.927C107.83 192.789 112.4 197.041 115.671 201.639C115.84 201.866 116.01 202.096 116.177 202.323C118.748 205.704 117.005 210.225 115.525 214.227C115.435 214.494 115.344 214.777 115.266 215.056C115.225 215.203 115.198 215.349 115.19 215.496C115.182 215.678 115.196 215.847 115.267 216.047C115.41 216.46 115.792 216.717 116.078 216.813C116.666 217.007 117.111 216.967 117.573 216.942C118.467 216.869 119.304 216.689 120.132 216.503C121.784 216.121 123.394 215.67 125.009 215.251C128.216 214.443 131.514 213.545 134.666 213.738L134.471 213.689C134.643 213.763 134.817 213.84 134.99 213.918C139.253 215.89 143.29 218.51 146.832 221.597C147.379 222.084 147.91 222.588 148.404 223.111L148.353 223.049C148.378 223.083 148.403 223.118 148.428 223.153C149.368 224.562 150.634 225.875 151.937 226.988C152.022 227.062 152.135 227.099 152.249 227.093C152.364 227.087 152.47 227.038 152.547 226.956C152.624 226.873 152.665 226.763 152.663 226.649C152.66 226.534 152.615 226.424 152.535 226.344C152.535 226.344 152.535 226.344 152.535 226.344C151.325 225.155 150.367 223.87 149.418 222.447C149.393 222.411 149.366 222.374 149.34 222.337L149.289 222.276C148.765 221.719 148.212 221.192 147.645 220.685C143.987 217.482 139.919 214.824 135.505 212.778C135.326 212.698 135.145 212.618 134.967 212.541L134.772 212.492C131.228 212.289 127.943 213.241 124.696 214.056C123.074 214.481 121.463 214.937 119.858 215.311C119.058 215.494 118.245 215.666 117.48 215.729C117.1 215.759 116.709 215.751 116.494 215.673C116.384 215.629 116.405 215.621 116.406 215.631C116.402 215.631 116.389 215.533 116.433 215.381C116.503 215.132 116.587 214.868 116.672 214.613C118.059 210.765 120.175 205.681 117.137 201.616C116.969 201.389 116.798 201.157 116.627 200.927C113.344 196.291 108.378 191.578 102.104 191.735C101.912 191.735 101.721 191.735 101.531 191.735C96.7673 191.792 90.9069 191.591 87.3119 195.84C87.2564 195.905 87.2009 195.97 87.1453 196.035C83.5163 200.63 77.8686 206.105 80.453 212.98C80.4549 212.984 80.4569 212.989 80.4588 212.993C81.7824 215.742 83.8481 217.868 85.7023 220.042C87.4353 222.129 89.825 224.691 88.703 226.897C88.6319 227.033 88.5558 227.172 88.4792 227.307C86.6551 230.479 83.8399 233.542 83.3765 237.674C83.3654 237.782 83.3572 237.896 83.3524 238.003C83.3089 239.386 83.5704 240.651 83.8518 241.907C84.4337 244.377 85.2326 246.75 86.0756 249.109Z" fill="var(--stroke-0, black)"/>
<path id="Vector 37" d="M208.31 195.08C208.356 195.225 208.457 195.346 208.592 195.417C208.727 195.487 208.884 195.501 209.029 195.455C209.174 195.41 209.295 195.308 209.365 195.173C209.436 195.039 209.45 194.881 209.404 194.736C209.404 194.736 209.404 194.736 209.404 194.736C208.654 192.353 208.025 189.938 207.529 187.497C206.674 183.676 206.611 180.064 205.841 175.879C205.8 175.785 205.742 175.666 205.64 175.548C205.268 175.131 204.784 175.103 204.462 175.108C204.125 175.119 203.835 175.18 203.555 175.248C202.999 175.389 202.491 175.571 201.989 175.75C201.006 176.095 199.971 176.52 199.168 176.555C199.159 176.555 199.151 176.555 199.143 176.555C195.762 176.533 194.303 172.304 193.543 168.987C192.769 165.471 192.517 161.822 192.407 158.182C192.404 158.09 192.403 157.999 192.403 157.908C192.401 152.354 196.578 147.821 200.549 143.926C200.557 143.918 200.565 143.91 200.574 143.902C205.034 139.478 211.85 139.171 218.084 139.159C218.167 139.158 218.25 139.158 218.333 139.157C226.066 139.87 231.064 147.729 236.724 153.095C236.847 153.223 236.972 153.351 237.097 153.48C238.128 154.43 237.828 155.492 236.905 156.63C236.789 156.783 236.668 156.936 236.544 157.09C235.467 158.424 234.255 159.663 233.159 161.115C233.01 161.32 232.863 161.53 232.725 161.788C232.622 161.988 232.539 162.205 232.526 162.478C232.509 162.762 232.614 163.072 232.772 163.281C233.098 163.701 233.467 163.849 233.795 163.988C234.453 164.242 235.085 164.358 235.714 164.469C236.967 164.678 238.205 164.807 239.428 164.965C241.864 165.285 244.338 165.629 246.466 166.615L246.38 166.564C246.467 166.625 246.552 166.686 246.637 166.747C248.737 168.261 250.66 170.038 252.231 172.088C252.917 172.984 253.538 173.937 254.045 174.934L254.065 174.971C254.08 174.995 254.095 175.02 254.11 175.044C254.845 176.225 255.745 177.226 256.553 178.256C256.635 178.359 256.755 178.426 256.887 178.442C257.018 178.457 257.15 178.42 257.254 178.339C257.358 178.258 257.425 178.138 257.441 178.007C257.457 177.875 257.421 177.743 257.34 177.639C257.34 177.639 257.34 177.639 257.34 177.639C256.518 176.577 255.646 175.587 254.99 174.503C254.976 174.481 254.962 174.458 254.949 174.436L254.969 174.472C254.439 173.401 253.801 172.39 253.097 171.437C251.485 169.26 249.509 167.369 247.324 165.794C247.236 165.73 247.147 165.667 247.057 165.603L246.972 165.553C244.578 164.453 242.043 164.13 239.576 163.802C238.343 163.644 237.103 163.515 235.909 163.316C234.802 163.17 233.227 162.637 233.758 162.329C233.842 162.17 233.969 161.982 234.1 161.802C235.106 160.464 236.326 159.189 237.434 157.804C237.561 157.645 237.688 157.484 237.813 157.318C238.256 156.711 238.76 156.044 238.885 155.101C239.012 154.126 238.454 153.253 237.9 152.698C237.776 152.571 237.652 152.443 237.529 152.316C231.789 146.997 227.275 138.955 218.326 137.958C218.244 137.958 218.161 137.959 218.077 137.959C211.851 137.98 204.634 138.212 199.732 143.037C199.723 143.046 199.714 143.054 199.705 143.063C195.725 146.995 191.212 151.668 191.162 157.911C191.163 158.012 191.164 158.114 191.167 158.216C191.272 161.9 191.512 165.603 192.308 169.263C193.141 172.613 194.414 177.586 199.136 177.834C199.152 177.834 199.168 177.834 199.184 177.834C200.5 177.75 201.424 177.254 202.417 176.888C202.903 176.698 203.385 176.511 203.85 176.382C204.08 176.318 204.311 176.271 204.499 176.263C204.697 176.251 204.791 176.306 204.774 176.3C204.758 176.279 204.774 176.298 204.787 176.331C205.369 179.769 205.567 183.96 206.405 187.726C206.91 190.207 207.549 192.661 208.31 195.08Z" fill="var(--stroke-0, black)"/>
<path id="Vector 38" d="M320.46 146.137C320.595 146.289 320.785 146.381 320.988 146.393C321.192 146.404 321.391 146.335 321.543 146.2C321.695 146.064 321.787 145.874 321.798 145.671C321.81 145.468 321.741 145.269 321.605 145.117C321.605 145.117 321.605 145.117 321.605 145.117C320.182 143.519 318.783 141.911 317.439 140.262C315.729 138.111 313.86 135.858 313.001 133.497C312.978 133.423 312.955 133.344 312.938 133.273C311.847 129.309 313.258 125.506 314.892 121.465C314.924 121.362 314.957 121.249 314.985 121.142C315.789 114.731 309.028 112.686 308.15 108.421C308.119 108.291 308.092 108.163 308.068 108.035C307.224 103.509 310.706 99.3822 313.594 95.5839C313.64 95.525 313.686 95.4671 313.733 95.4103C316.398 92.1703 321.306 92.166 325.658 92.2113C325.688 92.2116 325.717 92.2122 325.747 92.2129C329.82 92.344 333.356 95.3359 336.041 98.5359C336.065 98.5643 336.089 98.5927 336.112 98.6212C336.591 99.1586 336.732 100.152 337.508 101.14C337.543 101.182 337.58 101.224 337.618 101.265C346.18 107.173 355.76 101.843 364.056 102.742L363.873 102.686C363.955 102.722 364.036 102.76 364.118 102.798C366.305 103.822 368.379 105.132 370.274 106.643C370.926 107.164 371.555 107.712 372.155 108.286L372.127 108.257C372.144 108.275 372.16 108.293 372.177 108.311C373.005 109.186 373.766 110.028 374.27 111.157C374.32 111.266 374.415 111.353 374.53 111.401C374.645 111.448 374.77 111.452 374.883 111.41C374.995 111.368 375.087 111.283 375.143 111.171C375.198 111.06 375.213 110.932 375.178 110.816C375.178 110.816 375.178 110.816 375.178 110.816C374.832 109.562 374.192 108.244 373.281 107.289C373.263 107.27 373.245 107.25 373.226 107.23L373.198 107.201C372.564 106.591 371.902 106.013 371.219 105.464C369.232 103.874 367.076 102.504 364.761 101.418C364.675 101.378 364.588 101.338 364.502 101.299L364.319 101.242C355.267 100.477 345.52 105.107 338.745 100.23C338.724 100.208 338.705 100.186 338.685 100.162C338.226 99.6506 338.025 98.6282 337.259 97.6726C337.234 97.6428 337.209 97.613 337.184 97.5832C334.349 94.2535 330.627 90.9422 325.782 90.7452C325.747 90.7444 325.712 90.7437 325.677 90.7433C321.342 90.742 315.956 90.4656 312.553 94.4285C312.496 94.4972 312.439 94.567 312.383 94.6381C309.541 98.4311 305.565 102.7 306.504 108.325C306.533 108.479 306.565 108.634 306.602 108.789C308.139 114.084 314.366 116.451 313.448 120.737C313.427 120.819 313.401 120.909 313.374 120.995C311.877 124.646 310.194 129.295 311.449 133.645C311.475 133.747 311.506 133.855 311.537 133.954C312.629 136.887 314.499 138.997 316.25 141.231C317.617 142.907 319.028 144.528 320.46 146.137Z" fill="var(--stroke-0, black)"/>
<path id="Vector 39" d="M435.394 95.0218C435.424 95.1975 435.522 95.354 435.668 95.457C435.814 95.5599 435.994 95.6009 436.17 95.5708C436.345 95.5407 436.502 95.442 436.605 95.2965C436.708 95.1509 436.749 94.9705 436.719 94.7948C436.719 94.7948 436.719 94.7948 436.719 94.7948C436.497 93.5013 436.284 92.2072 436.085 90.9189C435.414 86.4152 434.766 81.8641 435.143 77.4039C435.152 77.3037 435.161 77.2041 435.171 77.105C435.429 75.2389 433.739 73.9232 432.512 73.3636C431.198 72.7255 429.856 72.3353 428.541 71.9442C425.939 71.162 423.196 70.5406 421.24 69.0967C421.082 68.9747 420.932 68.8516 420.781 68.7217C417.282 65.7404 416.367 60.7482 415.658 56.0498C415.637 55.9107 415.618 55.7729 415.601 55.6362C414.884 50.9578 416.707 46.4772 419.477 42.5435L419.426 42.6121C419.473 42.5548 419.524 42.4954 419.573 42.4383C421.317 40.4709 423.576 38.8406 425.884 37.387L425.851 37.4062C425.879 37.3907 425.907 37.3755 425.934 37.3604C426.37 37.1206 426.796 36.9157 427.245 36.7501C428.377 36.3348 429.661 36.1094 430.94 35.8815C431.135 35.8477 431.308 35.7379 431.422 35.5764C431.536 35.4149 431.581 35.215 431.548 35.0203C431.514 34.8257 431.405 34.6524 431.244 34.5382C431.082 34.424 430.882 34.3784 430.688 34.4116C430.688 34.4116 430.688 34.4116 430.688 34.4116C429.381 34.6426 428.063 34.8589 426.725 35.3405C426.198 35.5325 425.687 35.777 425.212 36.0354C425.182 36.0516 425.152 36.0681 425.122 36.0846L425.089 36.1038C422.694 37.6009 420.35 39.2112 418.38 41.4012C418.324 41.4657 418.266 41.5332 418.211 41.5988L418.16 41.6674C415.331 45.586 413.154 50.751 413.969 55.842C413.988 55.9906 414.009 56.1404 414.031 56.2913C414.765 61.0089 415.631 66.4428 419.707 69.9668C419.881 70.1168 420.055 70.2584 420.237 70.3983C422.743 72.1921 425.532 72.6463 428.141 73.3794C430.558 74.0642 434.04 74.8396 433.833 76.972C433.823 77.076 433.813 77.1805 433.804 77.2856C433.412 81.978 434.084 86.5855 434.756 91.1237C434.957 92.4215 435.171 93.7226 435.394 95.0218Z" fill="var(--stroke-0, black)"/>
<path id="Vector 40" d="M15.8804 144.506C10.3065 143.66 6.29041 144.149 4.17512 146.051C2.21842 147.81 1.27619 150.042 0.683242 152.196C0.36589 153.349 0.442207 154.72 1.05793 155.954C2.38858 158.623 5.46693 159.702 8.31508 160.182C11.8517 160.779 15.6249 159.844 18.5698 158.742C19.8631 158.257 20.5466 157.455 20.4842 156.784C20.4219 156.114 19.5414 155.48 18.5748 155.127C16.6647 154.429 14.5852 155.036 12.5014 156.257C9.66788 157.916 8.09076 160.974 7.11443 163.394C6.16493 165.747 6.544 168.202 7.07389 170.277C7.60789 172.368 9.7042 174.149 12.1716 175.734C16.9589 178.81 22.736 176.831 25.0068 175.768C25.6949 175.445 24.6078 174.494 23.4504 174.299C17.9695 173.377 13.9376 179.213 11.0299 184.087C9.55789 186.554 10.2478 189.508 11.1163 191.955C12.0767 194.66 14.9782 195.968 17.5486 196.781C24.018 198.826 29.7308 195.207 32.0267 193.559C33.0582 192.818 33.2359 191.594 32.4776 190.971C30.3751 189.243 26.5883 190.713 23.9578 192.255C21.3815 193.766 19.915 195.991 18.7621 198.01C17.3387 200.502 17.0349 204.14 17.2689 207.761C17.4731 210.922 19.9884 212.873 22.084 214.337C26.7924 217.626 33.6466 216.907 39.7761 214.811C40.5295 214.553 39.2763 213.585 38.1614 213.273C35.8779 212.633 33.0775 213.304 30.2097 214.392C24.3201 216.625 22.8478 223.179 21.8646 228.699C21.4525 231.013 22.2426 233.428 23.5121 235.903C25.9899 240.733 35.4973 241.246 41.9935 241.097C43.1918 241.069 44.2132 240.304 45.0362 239.544C45.8592 238.784 46.416 237.781 46.1164 236.868C45.8167 235.955 44.6437 235.163 43.438 234.728C41.1266 233.894 38.3829 234.503 35.5166 235.472C32.3445 236.544 30.2288 239.559 28.8077 242.524C27.443 245.371 27.818 248.519 28.436 251.246C29.0958 254.157 32.0738 255.912 34.9985 257.177C42.2057 260.295 50.6364 258.298 53.7127 256.714C54.2151 256.455 52.0846 255.56 50.5383 255.551C43.7295 255.509 38.8053 262.216 35.5628 268.097C34.8351 269.417 35.0509 270.723 35.3574 271.902C35.9896 274.335 38.4417 276.151 41.3976 277.483C47.3554 280.168 54.1278 278.192 57.0945 276.192C58.8391 275.017 51.8353 276.183 48.8644 277.298C42.1891 279.802 39.6529 286.114 38.0009 291.777C37.5788 293.224 37.803 294.587 38.2146 295.782C39.0385 298.172 42.4647 300.147 46.8832 301.973C50.964 303.659 54.8569 303.15 57.8575 302.221C59.3575 301.756 60.5939 300.712 61.053 299.774C61.5122 298.837 61.101 297.887 60.3909 297.398C58.9292 296.39 56.2785 297.647 53.6897 299.4C51.0613 301.179 49.8681 304.332 48.8621 307.19C47.7942 310.224 48.2899 313.055 49.4691 315.091C52.7879 320.82 62.3624 320.185 67.9193 319.219C69.1631 319.003 70.1677 318.304 70.2275 317.926C70.2873 317.549 69.3192 317.31 67.9994 317.584C61.6104 318.908 53.0126 330.133 49.0796 337.875C48.5622 338.894 50.0278 339.98 51.1099 340.734C52.192 341.488 53.57 341.989 54.9251 342.195C56.2801 342.4 57.5705 342.295 60.857 341.545" stroke="var(--stroke-0, black)" stroke-linecap="round"/>
<path id="Vector 14" d="M332.097 0.0450788C331.868 -0.0298675 331.618 -0.0108001 331.403 0.0980863C331.189 0.206973 331.026 0.396759 330.951 0.625694C330.876 0.854629 330.895 1.10396 331.004 1.31884C331.113 1.53371 331.302 1.69653 331.531 1.77148C331.531 1.77148 331.531 1.77148 331.531 1.77148C334.124 2.62011 336.705 3.47026 339.286 4.33166C347.951 7.21441 356.551 10.2513 365.084 13.4954C365.264 13.5638 365.445 13.6324 365.626 13.701C391.756 23.5826 417.968 33.2663 444.344 42.4713L444.354 42.4747C444.99 42.6876 445.618 42.8983 446.248 43.11C455.249 46.1283 464.239 49.1365 473.131 52.4513L473.122 52.4476C473.895 52.7476 474.669 53.0541 475.441 53.3639C476.154 53.6502 476.867 53.9355 477.58 54.221C480.104 55.233 482.639 56.2354 485.126 57.3154C485.232 57.3621 485.355 57.3641 485.465 57.3224C485.575 57.2806 485.664 57.1984 485.713 57.0927C485.762 56.9869 485.767 56.8659 485.727 56.7549C485.688 56.644 485.607 56.5523 485.502 56.5011C485.502 56.5011 485.502 56.5011 485.502 56.5011C483.044 55.3083 480.571 54.1524 478.075 53.0465C477.369 52.7346 476.661 52.4277 475.95 52.1275C475.18 51.8024 474.407 51.4799 473.635 51.1631L473.625 51.1594C464.778 47.6696 455.829 44.4313 446.821 41.4076C446.19 41.1954 445.561 40.9843 444.925 40.771L444.934 40.7744C418.59 31.5705 392.386 21.8787 366.27 12.0024C366.089 11.9338 365.908 11.8653 365.728 11.7968C357.175 8.54489 348.54 5.49597 339.861 2.6085C337.275 1.74559 334.691 0.894409 332.097 0.0450788Z" fill="var(--stroke-0, black)"/>
<path id="Vector 12" d="M5.63926 128.624C5.56378 128.405 5.40444 128.225 5.1963 128.123C4.98815 128.022 4.74825 128.007 4.52936 128.083C4.31048 128.158 4.13054 128.318 4.02913 128.526C3.92772 128.734 3.91316 128.974 3.98863 129.193C3.98863 129.193 3.98863 129.193 3.98863 129.193C5.18904 132.665 6.36792 136.132 7.5036 139.627C10.8917 150.068 14.049 160.592 17.2077 171.155C17.2153 171.18 17.2229 171.206 17.2304 171.231C26.9321 203.849 36.412 236.597 45.9996 269.26C46.0077 269.287 46.0157 269.315 46.0238 269.342C52.0146 288.99 57.6198 308.677 64.3345 328.128C64.336 328.132 64.3376 328.137 64.3391 328.141C64.5207 328.643 64.7101 329.138 64.9054 329.63C66.2611 333.038 67.8907 336.329 68.8139 339.908C68.3876 336.253 67.6129 332.565 66.4682 329.067C66.3036 328.561 66.1317 328.06 65.9518 327.561C65.9513 327.559 65.9498 327.555 65.9483 327.551C59.2863 308.217 53.6806 288.474 47.6964 268.845C47.69 268.823 47.6819 268.795 47.6738 268.768C38.088 236.109 28.6087 203.362 18.9036 170.732C18.896 170.707 18.8884 170.681 18.8808 170.656C15.7202 160.086 12.562 149.559 9.16376 139.086C8.02483 135.582 6.83971 132.096 5.63926 128.624Z" fill="var(--stroke-0, black)"/>
<path id="Vector 13" d="M4.55096 129.005C4.35499 129.069 4.19228 129.208 4.09863 129.391C4.00498 129.575 3.98806 129.788 4.05159 129.984C4.11513 130.18 4.25391 130.342 4.4374 130.436C4.6209 130.53 4.83409 130.547 5.03006 130.483C5.03006 130.483 5.03006 130.483 5.03006 130.483C10.6103 128.707 16.1532 126.711 21.6071 124.587C30.7834 121.019 39.8397 117.244 48.9358 113.42C48.9362 113.42 48.9366 113.42 48.9371 113.42C91.7513 95.2708 134.462 76.7899 177.662 59.5869C177.662 59.5869 177.662 59.5869 177.662 59.5869C217.269 43.8035 257.315 29.1504 297.478 14.8781C297.479 14.878 297.479 14.8778 297.48 14.8776C303.481 12.7354 309.479 10.5314 315.441 8.29649C320.906 6.18255 326.448 4.34706 331.745 1.64639C331.844 1.59166 331.918 1.49936 331.95 1.3903C331.982 1.28122 331.97 1.16433 331.916 1.06482C331.862 0.965297 331.771 0.891148 331.662 0.858146C331.553 0.825175 331.436 0.836052 331.336 0.888921C331.336 0.888921 331.336 0.888921 331.336 0.888921C326.16 3.41209 320.502 5.13195 315.011 7.10747C309.003 9.20079 302.965 11.2895 296.964 13.4314C296.963 13.4316 296.963 13.4318 296.962 13.4319C256.795 27.7049 216.726 42.3664 177.093 58.159C177.093 58.1591 177.093 58.1591 177.093 58.1591C133.868 75.371 91.1316 93.8461 48.3342 111.988C48.3338 111.988 48.3333 111.988 48.3329 111.988C39.2438 115.809 30.1931 119.581 21.0455 123.139C15.6029 125.257 10.1208 127.233 4.55096 129.005Z" fill="var(--stroke-0, black)"/>
</g>
</svg>
