<svg preserveAspectRatio="none" width="100%" height="100%" overflow="visible" style="display: block;" viewBox="0 0 9.88238 18.9161" fill="none" xmlns="http://www.w3.org/2000/svg">
<path id="Vector 79" d="M1.47929 0.397331C1.37451 0.215157 1.20166 0.082067 0.998749 0.0273405C0.795842 -0.0273859 0.579506 0.000733674 0.397331 0.105513C0.215157 0.210293 0.082067 0.383149 0.0273405 0.586057C-0.0273859 0.788964 0.000733614 1.0053 0.105513 1.18747C0.105513 1.18747 0.105513 1.18747 0.105513 1.18747C0.270973 1.47515 0.436346 1.76268 0.601425 2.05015C2.15522 4.75633 3.68626 7.46125 5.01767 10.2477C5.01784 10.2481 5.018 10.2484 5.01817 10.2488C6.23386 12.7848 7.39574 15.3846 8.81368 17.8927C8.97941 18.1841 9.14904 18.4736 9.32348 18.7605C9.36286 18.8251 9.42321 18.8762 9.49593 18.9005C9.56861 18.9249 9.64704 18.9207 9.71497 18.8884C9.78291 18.8561 9.83568 18.7979 9.86267 18.7261C9.88971 18.6544 9.88811 18.5753 9.86289 18.504C9.86289 18.504 9.86289 18.504 9.86289 18.504C9.75239 18.1916 9.64373 17.8788 9.53571 17.5657C8.61537 14.8781 7.69539 12.1694 6.4482 9.56566C6.44803 9.5653 6.44786 9.56495 6.44769 9.56459C5.08406 6.71121 3.5328 3.97323 1.97575 1.26095C1.81031 0.972846 1.64475 0.685007 1.47929 0.397331Z" fill="var(--stroke-0, black)"/>
</svg>
