<svg preserveAspectRatio="none" width="100%" height="100%" overflow="visible" style="display: block;" viewBox="0 0 252.942 99.1252" fill="none" xmlns="http://www.w3.org/2000/svg">
<path id="Vector 64" d="M0.500093 0.500093C1.23947 1.84478 4.20509 5.22478 10.2695 8.03533C16.1811 10.7751 30.8803 10.4037 40.2589 11.5091C48.6494 12.4981 58.5988 25.7693 63.9077 30.9061C67.431 34.3152 72.4188 34.5059 97.5391 35.5241C111.065 36.0723 118.756 41.6808 126.541 47.3419C133.495 52.3987 138.699 55.8082 145.242 58.4706C150.946 60.7912 162.715 60.1167 173.615 62.5011C178.585 63.5884 181.746 67.5035 188.719 72.7484C193.093 76.0393 196.512 78.7288 202.058 79.9917C211.724 82.1927 217.121 81.2082 222.849 85.7643C226.796 88.9048 230.532 91.8317 237.054 93.5967C245.188 94.7596 247.762 96.5877 249.483 97.6359C250.4 98.0807 251.406 98.3488 252.441 98.6251" stroke="var(--stroke-0, black)" stroke-linecap="round"/>
</svg>
