<svg preserveAspectRatio="none" width="100%" height="100%" overflow="visible" style="display: block;" viewBox="0 0 11.5991 2.04165" fill="none" xmlns="http://www.w3.org/2000/svg">
<path id="Vector 73" d="M0.887891 0.298476C0.658077 0.292875 0.43545 0.378797 0.268987 0.53734C0.102523 0.695883 0.00585836 0.91406 0.000257611 1.14387C-0.00534314 1.37369 0.0805789 1.59632 0.239122 1.76278C0.397665 1.92924 0.615842 2.02591 0.845656 2.03151C0.845656 2.03151 0.845656 2.03151 0.845656 2.03151C1.01452 2.03562 1.18326 2.03843 1.35193 2.04007C3.01412 2.05483 4.65639 1.96437 6.28872 1.83995C6.28873 1.83995 6.28875 1.83995 6.28877 1.83995L6.26692 1.84135C7.15329 1.79544 8.05082 1.79049 8.97287 1.78004C8.97288 1.78004 8.97289 1.78004 8.9729 1.78004C9.40496 1.77456 9.83972 1.76419 10.2714 1.74862C10.438 1.7427 10.6036 1.73619 10.768 1.7297C10.9973 1.72067 11.2136 1.62092 11.3694 1.4524C11.5251 1.28389 11.6075 1.0604 11.5985 0.83112C11.5894 0.601837 11.4897 0.385533 11.3212 0.229794C11.1527 0.0740542 10.9292 -0.00836343 10.6999 0.000671685C10.6999 0.000671685 10.6999 0.000671685 10.6999 0.000671685C10.5354 0.00715613 10.3723 0.0135686 10.2098 0.0193474C9.78933 0.0345011 9.37181 0.0444543 8.95051 0.049814C8.9505 0.0498142 8.95049 0.0498143 8.95048 0.0498144C8.04608 0.0602152 7.11618 0.0615773 6.17778 0.110097L6.15593 0.111499C6.15592 0.1115 6.1559 0.111502 6.15589 0.111503C4.55273 0.23388 2.95222 0.320867 1.36873 0.306602C1.20812 0.305045 1.04783 0.302373 0.887891 0.298476Z" fill="var(--stroke-0, black)"/>
</svg>
