<svg preserveAspectRatio="none" width="100%" height="100%" overflow="visible" style="display: block;" viewBox="0 0 106.555 88.3154" fill="none" xmlns="http://www.w3.org/2000/svg">
<g id="face">
<path id="Vector" d="M6.05785 88.2802C6.33399 84.3642 6.95728 78.0503 8.86661 75.5248C10.7759 72.9992 12.5669 76.3903 14.4684 77.9085C15.352 78.6179 16.3146 78.8591 17.1588 79.7246C17.3245 80.5049 17.5848 81.1718 17.9399 81.7251C18.4054 81.9096 18.8787 82.094 19.3442 82.2785C21.1352 83.1156 23.2891 84.4635 24.8829 81.9947C26.2005 79.9658 26.7606 76.0781 28.4806 74.6167C29.9876 73.3398 33.9561 72.0202 35.5814 73.0844C36.1968 73.4817 36.4256 74.1201 36.8832 74.9289C38.3113 77.4686 38.3823 78.6604 40.41 79.8097C42.7217 81.115 46.3036 81.8387 48.4812 79.4976C49.3964 78.5186 49.7436 76.9578 50.7061 75.9363C51.5898 74.9998 53.5701 73.737 54.4853 73.1128C56.7734 71.552 60.0476 70.7433 62.4856 70.6723C63.7322 70.6298 64.5369 71.0554 65.6494 72.1337C66.6829 73.1411 67.5272 74.489 68.4739 75.6951C69.9888 77.6105 70.7935 77.6956 72.5372 78.4902C74.9357 79.5969 74.8489 79.6678 76.5057 76.3052C80.1114 69.0123 86.5731 66.0185 90.6284 74.1201C92.0407 76.9436 94.8179 82.3494 97.2874 80.8171C98.7786 79.8948 100.301 74.6025 100.025 71.8784" stroke="var(--stroke-0, black)" stroke-miterlimit="10"/>
<path id="Vector_2" d="M31.0578 0.280216C28.265 4.40745 25.1815 8.20884 22.0348 12.0238C17.5359 17.4951 13.4415 23.3601 8.84147 28.7364C7.67884 30.094 3.66018 33.203 4.08985 35.2802" stroke="var(--stroke-0, black)" stroke-miterlimit="10"/>
<path id="Vector_3" d="M0.057846 7.28022C1.50667 7.44897 1.28619 8.46147 2.08934 9.62397C4.76651 13.5615 6.19958 16.3927 9.69564 20.1615C15.4752 26.3677 22.3571 31.0927 28.0578 37.2802" stroke="var(--stroke-0, black)" stroke-miterlimit="10"/>
<path id="Vector_4" d="M106.058 5.28022C105.562 10.3738 98.9635 14.7357 95.8231 17.5241C91.7674 21.1406 87.6099 24.5778 83.6305 28.3186C82.3718 29.5057 80.5537 30.6652 80.0578 32.2802" stroke="var(--stroke-0, black)" stroke-miterlimit="10"/>
<path id="Vector_5" d="M80.0578 5.28022C82.138 5.76007 82.138 6.79088 83.431 8.71031C87.254 14.3975 91.2081 20.6534 96.1929 25.5053C98.6103 27.8513 105.151 31.6191 105.057 35.2802" stroke="var(--stroke-0, black)" stroke-miterlimit="10"/>
</g>
</svg>
