<svg preserveAspectRatio="none" width="100%" height="100%" overflow="visible" style="display: block;" viewBox="0 0 126.988 247.488" fill="none" xmlns="http://www.w3.org/2000/svg">
<path id="Vector 10" d="M126.947 1.15812C127.018 0.933015 126.997 0.688887 126.888 0.479445C126.779 0.270003 126.591 0.112404 126.366 0.0413167C126.141 -0.0297703 125.897 -0.00852162 125.688 0.100388C125.478 0.209298 125.32 0.396948 125.249 0.622057C125.249 0.622057 125.249 0.622057 125.249 0.622057C123.879 5.02476 122.396 9.32642 120.56 13.5246C117.439 20.6975 113.987 27.7322 110.579 34.8293C108.695 38.7337 106.806 42.7121 104.951 46.642C93.1817 71.6216 81.7096 96.7368 69.8688 121.654C63.8919 134.212 57.7765 146.704 51.468 159.089C49.0521 163.839 46.5822 168.603 44.1418 173.354C34.6718 190.42 24.3267 207.279 14.105 224.053C11.8882 227.663 9.68179 231.281 7.46652 234.906C5.04016 238.823 2.71678 242.841 0.134243 246.503C0.0358028 246.627 -0.0122871 246.784 0.00268888 246.943C0.017644 247.101 0.0940803 247.247 0.21558 247.348C0.337079 247.45 0.494132 247.499 0.652587 247.485C0.811062 247.472 0.957598 247.396 1.0621 247.277C1.0621 247.277 1.0621 247.277 1.0621 247.277C3.98653 243.542 6.37637 239.71 8.91962 235.818C11.2247 232.239 13.4767 228.643 15.6957 225.029C25.9402 208.216 36.2317 191.456 45.8009 174.204C48.2363 169.462 50.71 164.69 53.1281 159.934C59.4435 147.532 65.5581 135.019 71.5295 122.444C83.3574 97.4965 94.7987 72.3662 106.561 47.4016C108.414 43.4748 110.302 39.5003 112.183 35.6031C115.593 28.4984 119.041 21.4755 122.195 14.228C124.052 9.98521 125.578 5.55884 126.947 1.15812Z" fill="var(--stroke-0, black)"/>
</svg>
