<svg preserveAspectRatio="none" width="100%" height="100%" overflow="visible" style="display: block;" viewBox="0 0 265.359 93.3036" fill="none" xmlns="http://www.w3.org/2000/svg">
<g id="eyelash" clip-path="url(#clip0_2273_2569)">
<path id="Vector" d="M23.2405 86.5212C25.7638 85.6959 28.5337 83.647 31.0854 82.4422C33.9407 81.0952 36.9193 80.3079 39.7555 78.9989C41.8519 78.0218 43.2843 76.2764 45.2669 75.1381C50.209 72.2923 56.1662 70.7556 61.4499 68.8204C66.4015 67.0086 71.2394 64.9217 76.4661 64.0111C82.3284 62.9866 87.9156 61.3266 93.6736 59.8183C104.279 57.0579 114.694 55.9196 125.565 54.8477C135.032 53.918 144.423 53.3204 153.938 53.5196C161.09 53.6714 166.981 55.5781 173.782 57.4089C181.143 59.3914 188.694 60.3305 196.046 62.4269C203.853 64.6561 211.28 67.8624 218.85 70.7461C222.123 71.9887 224.105 73.2409 226.837 75.4227C231.077 78.8186 235.536 80.7822 240.146 83.5995C243.551 85.6864 246.729 87.9725 249.84 90.4579C250.95 91.3401 252.098 92.4215 253.436 92.8388" stroke="var(--stroke-0, black)" stroke-miterlimit="10"/>
<path id="Vector_2" d="M0.474297 23.288C0.521726 29.1313 0.882192 35.762 4.17381 40.6757C8.95472 47.7901 12.9388 53.3204 20.4801 57.8452C26.4088 61.4024 30.7724 66.3731 37.4599 68.4979C40.2962 69.3991 43.1136 70.5943 46.0637 71.0971C48.1126 71.448 50.9015 70.6417 52.3244 72.6053" stroke="var(--stroke-0, black)" stroke-miterlimit="10"/>
<path id="Vector_3" d="M67.5114 4.3161C68.071 6.2702 66.5818 6.46941 66.1833 8.01561C65.6901 9.93177 66.0695 13.1665 66.1549 15.1395C66.5438 23.7717 69.7501 33.3905 74.0472 40.8844C77.5096 46.9174 80.8107 51.0628 86.5402 54.9615C88.3615 56.2042 93.0855 59.325 95.3241 58.699" stroke="var(--stroke-0, black)" stroke-miterlimit="10"/>
<path id="Vector_4" d="M178.762 0.464811L179.815 0.654529C180.195 2.24817 179.929 3.44339 179.958 5.15086C180.043 10.0266 181.58 14.6747 181.105 19.5979C180.489 26.0863 178.345 32.3565 175.708 38.2663C173.384 43.4835 168.888 47.3917 163.632 49.8391C161.033 51.0438 156.376 53.3015 153.473 53.586" stroke="var(--stroke-0, black)" stroke-miterlimit="10"/>
<path id="Vector_5" d="M202.838 65.0261C205.427 64.5992 208.558 66.9327 211.09 67.3406C215.786 68.109 220.7 67.5398 225.443 67.5493C234.815 67.5493 245.107 66.4015 253.559 61.9621C256.585 60.378 258.501 58.6136 260.228 55.5876C261.717 52.9884 265.435 48.0083 264.809 44.7926" stroke="var(--stroke-0, black)" stroke-miterlimit="10"/>
</g>
<defs>
<clipPath id="clip0_2273_2569">
<rect width="265.359" height="93.3036" fill="white"/>
</clipPath>
</defs>
</svg>
