<svg preserveAspectRatio="none" width="100%" height="100%" overflow="visible" style="display: block;" viewBox="0 0 16.8724 22.0097" fill="none" xmlns="http://www.w3.org/2000/svg">
<path id="Vector 80" d="M0.341771 3.90083C0.186624 3.98828 0.0725733 4.13379 0.0247082 4.30533C-0.0231571 4.47688 -0.000915706 4.66041 0.0865394 4.81556C0.173994 4.9707 0.319499 5.08476 0.491045 5.13262C0.66259 5.18049 0.846124 5.15824 1.00127 5.07079C1.00127 5.07079 1.00127 5.07079 1.00127 5.07079C1.63829 4.71172 2.27421 4.35318 2.91065 4.00072C4.68904 3.03477 6.50986 1.98881 8.31406 1.46747C8.34656 1.45908 8.37845 1.45121 8.4097 1.44385C8.88075 1.32903 9.34303 1.3244 9.594 1.46041C9.83885 1.57635 10.0247 1.88643 10.1593 2.35277C10.1721 2.39639 10.1843 2.44039 10.1962 2.48581C10.688 4.45085 9.63356 6.70308 8.41055 8.59016C8.37258 8.64821 8.33424 8.70619 8.29645 8.76278C8.23942 8.87989 8.10283 8.96596 8.141 9.4043C8.16776 9.61536 8.34539 9.83364 8.45775 9.9025C8.57889 9.98639 8.6684 10.013 8.73702 10.0335C9.00357 10.0985 9.11997 10.0803 9.26142 10.0795C9.51935 10.0682 9.73882 10.0383 9.95835 10.0086C10.395 9.94729 10.8074 9.87818 11.2197 9.81964C12.0335 9.70574 12.8742 9.60872 13.5532 9.71995C13.6 9.72812 13.6462 9.74032 13.693 9.75694C14.2252 9.93782 14.7278 10.7205 15.0921 11.5027C15.1214 11.5647 15.1493 11.627 15.1758 11.6897C15.5192 12.493 15.5845 13.3612 15.416 14.2197L15.4417 14.1221C15.423 14.1758 15.4038 14.2292 15.384 14.2825C14.5279 16.5973 12.5172 18.3984 10.2175 19.4486L10.2587 19.4311C10.2373 19.4393 10.216 19.4475 10.1946 19.4556C9.37615 19.7692 8.53198 19.9948 7.65374 20.178C6.95626 20.3241 6.24398 20.4473 5.52647 20.5665C5.33638 20.5979 5.1669 20.7036 5.05539 20.8608C4.94388 21.0179 4.89947 21.2136 4.93185 21.4043C4.96424 21.595 5.07075 21.7651 5.22787 21.8766C5.385 21.9881 5.57987 22.0319 5.76969 21.9989C5.76969 21.9989 5.76969 21.9989 5.76969 21.9989C6.49597 21.8723 7.22319 21.7394 7.95466 21.5792C8.87281 21.3791 9.80485 21.1227 10.7 20.775C10.7232 20.7661 10.7465 20.757 10.7698 20.7479L10.8109 20.7304C13.3528 19.5543 15.6699 17.5252 16.6843 14.7623C16.7075 14.6989 16.73 14.6351 16.7517 14.5711L16.7773 14.4735C16.9867 13.3814 16.8469 12.1851 16.39 11.1669C16.3551 11.087 16.3186 11.0082 16.2805 10.9302C15.8305 10.0809 15.3771 9.0539 14.1272 8.53621C14.0149 8.49623 13.8979 8.46487 13.7782 8.4437C12.7778 8.28777 11.9059 8.41028 11.0423 8.512C10.6129 8.56706 10.1911 8.6312 9.78305 8.68285C9.58171 8.70792 9.37806 8.73045 9.21567 8.73501C9.14051 8.73984 9.0442 8.72466 9.10421 8.73566C9.12302 8.74203 9.16109 8.74884 9.23975 8.80261C9.3109 8.84356 9.45207 9.01343 9.47157 9.17416C9.49567 9.50385 9.41096 9.49895 9.4171 9.51872C9.45795 9.45873 9.49939 9.39716 9.54043 9.33542C10.8317 7.31726 12.1807 4.90829 11.5497 2.1312C11.5346 2.07359 11.5188 2.01636 11.5016 1.95794C11.3338 1.37419 10.9762 0.585631 10.1861 0.22218C9.4137 -0.121631 8.7027 0.00271243 8.09951 0.136945C8.05943 0.146517 8.01908 0.156556 7.97845 0.167042C5.83371 0.79648 4.08038 1.84578 2.26003 2.8258C1.61745 3.18166 0.978814 3.54175 0.341771 3.90083Z" fill="var(--stroke-0, black)"/>
</svg>
