<svg preserveAspectRatio="none" width="100%" height="100%" overflow="visible" style="display: block;" viewBox="0 0 972.483 4.92623" fill="none" xmlns="http://www.w3.org/2000/svg">
<path id="Vector 11" d="M0.859164 2.27495C0.65202 2.25517 0.445504 2.31849 0.285046 2.45098C0.124588 2.58347 0.0233324 2.77427 0.00355434 2.98141C-0.0162236 3.18856 0.047096 3.39507 0.179584 3.55553C0.312071 3.71599 0.502874 3.81724 0.710018 3.83702C0.710018 3.83702 0.710018 3.83702 0.710018 3.83702C13.2671 5.10629 25.8299 4.82202 38.4036 4.77749C38.4046 4.77749 38.4057 4.77748 38.4068 4.77747C42.0447 4.74462 45.6919 4.69913 49.3404 4.6495C94.0497 3.94641 138.76 3.36113 183.485 3.23251C183.486 3.23251 183.487 3.2325 183.488 3.2325C265.063 2.9866 346.697 3.52055 428.268 3.45435C428.268 3.45435 428.269 3.45435 428.269 3.45435C470.079 3.47955 511.793 2.73032 553.549 2.20007C553.55 2.20006 553.551 2.20005 553.553 2.20004C605.685 1.71098 657.779 2.03429 709.941 2.45917C709.941 2.45917 709.942 2.45917 709.942 2.45918C775.614 3.0241 841.37 3.90334 907.02 4.61454C907.021 4.61455 907.021 4.61455 907.021 4.61455C912.619 4.67233 918.253 4.72698 923.853 4.77327C935.754 4.76288 947.574 5.30463 959.585 4.40905C959.585 4.40903 959.585 4.40901 959.585 4.40899C963.927 3.91544 968.141 2.55256 972.16 0.976689C972.283 0.929188 972.382 0.833776 972.437 0.713025C972.491 0.592183 972.498 0.455897 972.453 0.332565C972.408 0.209233 972.316 0.108502 972.196 0.0509464C972.077 -0.00651735 971.94 -0.0160945 971.815 0.0259062C971.815 0.0259062 971.815 0.0259062 971.815 0.0259062C967.749 1.41446 963.613 2.36079 959.39 2.84169C959.39 2.84171 959.39 2.84173 959.39 2.84175C947.737 3.71104 935.716 3.18562 923.866 3.19139C918.268 3.14479 912.635 3.08983 907.038 3.03179C907.037 3.03179 907.037 3.03178 907.037 3.03178C841.391 2.31735 775.633 1.43207 709.956 0.86711C709.955 0.867106 709.955 0.867103 709.955 0.867099C657.788 0.442201 605.689 0.126607 553.536 0.622647C553.535 0.622657 553.534 0.622668 553.533 0.622678C511.753 1.15869 470.074 1.93423 428.267 1.9091C428.267 1.9091 428.266 1.9091 428.266 1.9091C346.705 1.9753 265.069 1.43261 183.483 1.67359C183.482 1.67359 183.48 1.67359 183.479 1.6736C138.749 1.79949 94.0209 2.37856 49.319 3.08059C45.6719 3.13012 42.0268 3.17554 38.3927 3.20835C38.3916 3.20836 38.3905 3.20837 38.3895 3.20838C25.8285 3.25374 13.2857 3.53344 0.859164 2.27495Z" fill="var(--stroke-0, black)"/>
</svg>
