<svg preserveAspectRatio="none" width="100%" height="100%" overflow="visible" style="display: block;" viewBox="0 0 5.14597 96.9326" fill="none" xmlns="http://www.w3.org/2000/svg">
<path id="Vector 66" d="M1.52557 0.713986C1.51242 0.511897 1.41952 0.323311 1.26732 0.189715C1.11511 0.0561197 0.916076 -0.0115422 0.713986 0.00161445C0.511897 0.014771 0.323311 0.107668 0.189715 0.25987C0.0561198 0.412072 -0.0115421 0.611111 0.00161445 0.8132C0.00161445 0.8132 0.00161445 0.8132 0.00161445 0.8132C0.105144 2.40299 0.208488 3.99257 0.304506 5.58019C0.576353 10.0255 0.774993 14.4716 0.882106 18.9224C0.882106 18.9224 0.882107 18.9224 0.882108 18.9225C1.08866 28.6396 1.0352 38.3906 1.32424 48.1381C1.32424 48.1383 1.32425 48.1385 1.32426 48.1387C1.73247 62.6232 2.51608 77.1068 3.51264 91.5554C3.62303 93.1525 3.73507 94.7312 3.85097 96.3284C3.86337 96.4992 3.94218 96.6587 4.07112 96.7717C4.20004 96.8848 4.36834 96.9422 4.53919 96.9313C4.71003 96.9203 4.86965 96.842 4.98311 96.7134C5.09658 96.5848 5.15443 96.4166 5.14497 96.2456C5.14497 96.2456 5.14497 96.2456 5.14497 96.2456C5.05645 94.6477 4.97044 93.0685 4.88473 91.4712C4.11248 77.02 3.4418 62.5484 3.03437 48.0909C3.03436 48.0907 3.03436 48.0905 3.03435 48.0903C2.74576 38.3585 2.61604 28.6381 2.40883 18.885C2.40883 18.885 2.40883 18.885 2.40883 18.885C2.30132 14.4164 2.10156 9.94607 1.8289 5.48795C1.73261 3.8959 1.6291 2.30375 1.52557 0.713986Z" fill="var(--stroke-0, black)"/>
</svg>
