<svg preserveAspectRatio="none" width="100%" height="100%" overflow="visible" style="display: block;" viewBox="0 0 34.6613 18.2644" fill="none" xmlns="http://www.w3.org/2000/svg">
<path id="Vector 54" d="M0.500112 4.97707C0.661606 4.64787 1.3504 4.27253 2.57078 4.00077C3.17431 3.86638 3.79116 4.01474 4.28482 4.35874C6.37181 5.81302 5.7609 10.0284 5.34691 13.1408C5.17491 14.4339 5.66585 15.8348 6.62075 17.0368C7.07345 17.6067 7.85825 17.714 8.52278 17.7563C9.18731 17.7985 9.80922 17.6751 10.3315 17.3863C12.7207 16.0653 12.9068 11.9018 14.9993 10.13C15.5548 9.65962 16.4295 9.7466 17.0629 9.87628C19.4448 10.364 20.1456 13.9883 21.7229 16.3791C22.5651 17.6558 24.6784 17.2681 26.0144 17.1324C27.2362 17.0082 27.8399 15.4907 28.3697 14.1868C29.6979 10.9176 27.5459 7.10293 27.3894 3.43264C27.3248 1.91744 28.9359 1.12222 30.0541 0.665207C30.6252 0.4318 31.2934 0.455093 31.9088 0.676136C32.5242 0.897178 33.0894 1.38166 33.4614 1.93404C33.8333 2.48643 33.9948 3.09203 34.1612 3.71598" stroke="var(--stroke-0, black)" stroke-linecap="round"/>
</svg>
