<svg preserveAspectRatio="none" width="100%" height="100%" overflow="visible" style="display: block;" viewBox="0 0 183.73 246.76" fill="none" xmlns="http://www.w3.org/2000/svg">
<g id="Insta" clip-path="url(#clip0_2251_1699)">
<path id="Vector" d="M2.49386 209C2.6333 198.112 3.8684 187.3 3.83852 176.337C3.75883 152.188 4.00784 128.098 2.82255 103.965C1.43805 75.8801 1.16912 47.8877 1.16912 19.7771C1.16912 16.0183 1.16912 12.268 1.16912 8.5092C1.16912 5.24033 -0.255225 2.77389 5.16325 3.16244C22.4147 4.40411 39.8654 4.58993 57.605 4.58993C65.0952 4.58993 72.4062 6.42287 79.7769 5.15586C87.317 3.86352 94.4188 4.32809 101.969 3.97333C109.519 3.61856 116.71 3.10332 124.011 2.9006C128.533 2.77389 132.836 1.75184 137.358 1.80252C144.43 1.87855 151.084 2.65564 157.877 1.77718C162.668 1.16058 168.475 0.915622 173.375 1.02543C176.144 1.08456 176.443 0.755134 177.359 3.08642C179.79 9.27785 179.242 16.4744 179.162 22.8517C179.033 34.7109 180.527 46.4264 180.417 58.3194C180.198 82.4263 184.501 106.246 182.439 130.42C181.772 138.267 181.712 146.072 181.812 153.936C181.871 158.996 181.961 163.945 181.812 168.996C181.642 174.419 181.822 179.893 181.871 185.324C181.911 189.285 181.822 192.479 181.812 196.5C181.812 199.042 181.812 206 181.812 209" stroke="var(--stroke-0, black)" stroke-miterlimit="10"/>
<path id="Vector_2" d="M7.78 21.2C10.16 21.2 12.28 21.64 14.67 21.64C16.83 21.64 18.5 22.08 20.67 22.08" stroke="var(--stroke-0, black)" stroke-miterlimit="10"/>
<path id="Vector_3" d="M14 15.42C14 16.91 14 18.4 14 19.89C14 20.47 13.96 21.07 13.99 21.65C14.02 22.27 14.29 22.63 14.41 23.21C14.51 23.73 14.41 24.24 14.44 24.77C14.47 25.46 14.8 25.89 14.92 26.55C15.13 27.75 14.81 28.56 15.34 29.66" stroke="var(--stroke-0, black)" stroke-miterlimit="10"/>
<path id="Vector_4" d="M161.88 18.8C161.77 18.36 161.7 18.14 161.5 17.76C161.35 17.46 161.17 17.2 160.99 16.93C160.79 16.63 160.6 16.32 160.38 16.04C159.62 15.1 158.61 14.35 157.53 14.24C156.98 14.19 156.45 14.32 155.94 14.59C155.47 14.85 155.07 15.37 154.76 15.87C154.5 16.3 154.32 16.8 154.24 17.33C154.13 18 154.07 18.73 154.13 19.41C154.23 20.66 154.69 21.91 155.36 22.85C155.74 23.38 156.19 23.79 156.65 24.2C157.07 24.58 157.52 24.92 157.95 25.3C158.54 25.83 158.46 25.95 159.17 26.62C159.42 26.85 160.36 27.82 160.62 28.03C160.68 28.08 161.55 28.94 161.62 28.99C161.65 29.01 162.25 28.4 162.28 28.4" stroke="var(--stroke-0, black)" stroke-miterlimit="10" stroke-linecap="round"/>
<path id="Vector_5" d="M161.9 19.02C161.98 18.59 161.95 18.28 162.09 17.88C162.22 17.51 162.38 17.16 162.61 16.87C162.82 16.6 163.05 16.35 163.28 16.1C163.66 15.7 164.1 15.19 164.54 14.91C164.75 14.78 164.98 14.76 165.21 14.68C165.44 14.6 165.69 14.59 165.93 14.57C166.38 14.53 166.93 14.78 167.32 15.09C167.77 15.44 168.18 16.06 168.43 16.62C168.57 16.93 168.65 17.54 168.68 17.75C168.73 18.06 168.7 18.23 168.7 18.59C168.7 19.23 168.58 19.72 168.4 20.33C168.2 21.01 167.94 21.65 167.59 22.22C167.4 22.53 167.19 22.84 167 23.15C166.84 23.41 166.69 23.68 166.49 23.91C166.32 24.11 166.17 24.32 166 24.52C165.89 24.63 165.78 24.75 165.68 24.87C165.59 25 165.49 25.13 165.4 25.25C165.1 25.62 164.79 25.99 164.46 26.31C164.13 26.63 163.82 26.92 163.5 27.23C163.31 27.41 163.1 27.56 162.91 27.74C162.78 27.86 162.69 28.02 162.55 28.12C162.13 28.43 161.91 28.66 161.53 29.03" stroke="var(--stroke-0, black)" stroke-miterlimit="10" stroke-linecap="round"/>
<path id="Vector_6" d="M25.19 41.55C18.68 41.59 11.19 44.71 8.02 50.94C4.49 57.88 7.01 66.41 11.48 72.14C13.78 75.09 16.39 77.48 19.95 77.83C24.1 78.24 28.76 79.31 32.88 78.14C37 76.97 42.29 76.26 44.56 71.72C45.48 69.87 45.91 67.93 45.87 65.86C45.83 63.38 46.86 61.07 46.39 58.64C44.71 49.96 39.74 41.72 25.18 41.54L25.19 41.55Z" stroke="var(--stroke-0, black)" stroke-miterlimit="10"/>
<path id="Vector_7" d="M79.86 42.31C79.03 42.06 75.62 41.29 74.75 41.27C74.08 41.25 70.9 41.62 70.22 41.63C68.53 41.69 66.86 41.89 65.2 42.23C64.53 42.25 64.28 42.65 63.63 42.83C63.14 43.21 62.05 43.82 61.56 44.31C60.76 45.11 60.17 45.86 59.49 46.8C56.07 51.52 56.97 58.16 56.88 63.77C56.79 69.38 60.85 74.68 65.83 76.13C68.59 76.94 71.52 77.2 74.23 77.95C75.04 78.18 75.99 78.05 76.9 78.02C78.53 77.96 79.77 77.35 81.33 76.85C84.2 75.94 85.35 74.94 87.39 72.63C88.76 71.08 89.71 69.21 90.84 67.45C92.04 65.57 91.86 65.12 92.23 62.68C92.5 60.87 92.34 58.98 92.25 57.15C92.07 53.68 90.09 50.29 88.24 47.57C86.97 45.71 86.5 45.84 85.2 44.61C84.02 43.49 81.35 42.76 79.87 42.31H79.86Z" stroke="var(--stroke-0, black)" stroke-miterlimit="10"/>
<path id="Vector_8" d="M114.66 40.96C112.97 41.14 109.29 42.9 108.15 43.98C106.18 45.84 105.05 48.68 103.87 51.11C101.53 55.91 101.6 64.04 103.93 68.67C105.24 71.28 105.89 73.3 108.21 75.12C109.87 76.42 111.75 77.27 113.8 77.6C117.98 78.28 122.62 80.29 126.91 78.67C129.14 77.82 131.6 76.78 132.8 74.53C133.23 73.72 134.17 73.19 134.68 72.41C135.62 70.97 136.55 69.72 137.25 68.11C137.68 67.12 137.54 66.5 137.59 65.44C137.65 64.23 137.98 63.19 138.17 62.08C138.46 60.39 138.51 58.38 138.36 56.63C138.02 52.66 135.72 48.53 132.96 45.91C130.44 43.51 125.99 40.89 114.67 40.97L114.66 40.96Z" stroke="var(--stroke-0, black)" stroke-miterlimit="10"/>
<path id="Vector_9" d="M180.7 69.97C180.72 69.43 180.78 68.92 180.86 68.43C180.55 65.74 180.5 63.08 180.59 60.34C180.7 56.72 180.29 53.18 180.25 49.58C178.49 47.03 176.39 44.72 174 43.07C171.48 41.33 168.06 40.41 160.63 42.54C156.41 42.02 152.98 45.5 150.79 48.93C148.21 52.97 147.17 57.44 148.44 62.27C150.55 70.28 156.11 77.03 163.96 78.62C168.48 79.53 171.88 78.41 175.32 75.64C176.47 74.71 178.16 74.25 179.17 73.11C179.77 72.44 180.27 71.55 180.71 70.61C180.71 70.61 180.71 70.59 180.72 70.59C180.72 70.39 180.7 70.18 180.71 69.98L180.7 69.97Z" stroke="var(--stroke-0, black)" stroke-miterlimit="10"/>
<path id="Vector_10" d="M17.56 96.09C16.6 95.92 15.26 96.55 14.46 97.07C12.83 98.13 12.61 99.46 11.88 101.14C11.34 102.37 10.57 103.66 10.44 104.97C10.31 106.28 10.56 107.36 10.99 108.54C11.66 110.4 13.07 112.04 14.67 113.11C16.69 114.46 18.56 114.57 20.89 114.1C22.95 113.69 25.09 112.49 26.47 110.77C28.03 108.81 27.95 106.71 27.43 104.45C27.1 102.98 26.93 101.63 26.33 100.17C26.13 99.68 25.93 99.49 25.66 99.1C25.33 98.63 25.26 98.41 25.01 97.89C23.78 95.38 20.62 94.33 17.55 96.11L17.56 96.09Z" stroke="var(--stroke-0, black)" stroke-miterlimit="10"/>
<path id="Vector_11" d="M2.89 119.64L2.94 119.26C3.69 118.95 4.22 119.5 4.91 119.6C6.08 119.78 7.3 119.6 8.49 119.74C11.46 120.08 14.36 120.09 17.35 120.09C21.11 120.09 24.87 120.09 28.63 120.09C30.58 120.09 33.18 120.54 35.04 120.05C35.6 119.9 36 119.73 36.58 119.64C40.63 119.04 44.86 119.18 48.95 118.86C56.12 118.3 63.35 117.86 70.54 117.86H111.06C115.78 117.86 120.41 117.76 125.11 117.45C129.81 117.14 134.85 117.41 139.68 117.41H156.49C159.3 117.41 162.12 117.38 164.93 117.41C166.1 117.42 167.08 117.14 168.23 117C169.32 116.87 170.45 116.96 171.55 116.96C175.04 116.96 178.52 116.96 182.01 116.96" stroke="var(--stroke-0, black)" stroke-miterlimit="10"/>
<path id="Vector_12" d="M158.91 105.33C158.7 105.77 158.6 106.12 159.07 106.51C159.37 106.76 159.84 107.06 160.14 106.68C160.44 106.3 160.23 105.83 159.91 105.56C159.7 105.38 158.97 104.82 158.91 105.34" stroke="var(--stroke-0, black)" stroke-miterlimit="10"/>
<path id="Vector_13" d="M164.69 105.11C164.7 106.01 164.92 106.52 165.81 106.96C166.38 107.24 166.97 107.2 167.11 106.53C167.24 105.92 166.85 105.53 166.36 105.3C166.1 105.18 165.77 105.01 165.48 105.12C165.23 105.22 165.19 105.49 164.91 105.55" stroke="var(--stroke-0, black)" stroke-miterlimit="10"/>
<path id="Vector_14" d="M172.47 105.11L172.42 104.91C172.19 104.93 171.61 105.52 171.56 105.77C171.5 106.07 171.83 106.69 172.07 106.84C172.45 107.09 173.39 106.91 173.55 106.44C173.75 105.86 173.07 105.37 172.91 104.88" stroke="var(--stroke-0, black)" stroke-miterlimit="10"/>
<path id="Vector_15" d="M48.08 70.16C47.53 69.53 46.31 68.73 45.28 68.52C44.74 68.41 44.05 68.53 43.49 68.53C42.88 68.53 42.41 68.61 41.89 68.91C40.81 69.53 40.48 70.95 40.11 72.04C39.78 73.01 39.86 74.42 40.17 75.44C40.48 76.46 41.42 77.44 42.46 77.87C43.13 78.15 43.92 78.12 44.63 78.26C45.07 78.35 45.51 78.32 45.96 78.31C46.57 78.3 47.16 78.16 47.68 77.81C48.17 77.49 48.7 76.92 48.9 76.36C49.11 75.76 49.3 75.56 49.29 74.98C49.29 74.61 49.4 74.43 49.47 74.09C49.55 73.7 49.51 73.41 49.45 73.03C49.34 72.39 49.51 71.42 48.11 70.16H48.08Z" fill="var(--fill-0, #DFD9C9)" stroke="var(--stroke-0, black)" stroke-miterlimit="10"/>
<path id="Vector_16" d="M45.17 70.14C45.16 70.21 45.12 70.28 45.11 70.36C45.08 70.5 45.05 70.64 45.02 70.77C44.99 70.9 44.98 71.05 44.97 71.2C44.93 71.62 44.89 72.04 44.87 72.46C44.85 72.79 44.87 73.12 44.87 73.45C44.87 73.65 44.87 73.84 44.87 74.04C44.87 74.25 44.89 74.46 44.9 74.67C44.9 74.96 44.9 75.25 44.9 75.54C44.9 75.61 44.87 75.66 44.87 75.73C44.87 75.79 44.87 75.85 44.87 75.9C44.87 76.01 44.9 76.11 44.9 76.23C44.9 76.32 44.9 76.42 44.9 76.51C44.9 76.56 44.88 76.59 44.87 76.63C44.87 76.68 44.87 76.73 44.87 76.78" stroke="var(--stroke-0, black)" stroke-miterlimit="10"/>
<path id="Vector_17" d="M41.34 73.06C41.74 73.06 42.14 73.11 42.54 73.12C42.87 73.12 43.2 73.09 43.52 73.13C43.67 73.15 43.83 73.13 43.98 73.15C44.18 73.17 44.38 73.16 44.58 73.17C45.01 73.19 45.44 73.25 45.88 73.25C46.22 73.25 46.56 73.24 46.9 73.25C47.01 73.25 47.11 73.28 47.22 73.28C47.31 73.28 47.39 73.28 47.48 73.28H48.15" stroke="var(--stroke-0, black)" stroke-miterlimit="10"/>
</g>
<defs>
<clipPath id="clip0_2251_1699">
<rect width="183.73" height="246.76" fill="white"/>
</clipPath>
</defs>
</svg>
