<svg preserveAspectRatio="none" width="100%" height="100%" overflow="visible" style="display: block;" viewBox="0 0 103 205" fill="none" xmlns="http://www.w3.org/2000/svg">
<g id="self care" clip-path="url(#clip0_2251_1718)">
<path id="Vector" d="M78.8511 6.71479C69.3035 1.55712 58.3464 -2.26937 47.6643 2.24972C40.646 5.21661 35.5824 10.7672 30.9756 16.647C29.0308 19.1276 27.6801 21.7555 26.1773 24.5063C24.1244 28.2689 22.1598 31.9333 20.6373 35.9661C19.3407 39.3947 18.3045 42.8528 17.1994 46.3453C16.0796 49.8771 14.896 53.571 14.8322 57.3041C14.7732 60.8801 14.6996 64.4266 15.6474 67.9043C16.5953 71.3821 18.5598 75.13 20.5391 78.3376C21.7375 80.2827 22.8474 82.3163 24.2373 84.1338C25.8482 86.246 27.7587 87.8178 29.6447 89.6304C32.5129 92.391 37.2719 93.2555 41.1764 92.671C46.2547 91.9096 51.1267 89.9939 55.984 88.368C61.7548 86.4376 66.9706 83.9668 71.9605 80.5087C75.3051 78.1902 78.4975 75.7882 81.7291 73.3617C83.7575 71.8389 85.5452 70.0411 87.5785 68.4938C89.3024 67.1823 91.1834 65.8069 92.5389 64.1221C95.0486 60.998 97.46 56.7884 98.9334 53.0748C100.382 49.4153 101.969 45.6036 102.538 41.6739C102.921 39.0362 102.72 35.8482 102.602 33.181C102.538 31.781 102.224 30.2534 101.895 28.878C101.586 27.5911 100.986 26.8248 100.382 25.6999C99.1348 23.3863 96.8216 20.9156 94.862 19.0981C92.9957 17.3691 91.1981 15.6793 89.3466 13.8766C88.0156 12.5798 86.0805 11.45 84.5335 10.4283C83.9981 10.0746 83.4186 9.64238 82.8784 9.32309C82.2055 8.92522 81.2478 8.74838 78.8658 6.7197L78.8511 6.71479Z" stroke="var(--stroke-0, black)" stroke-miterlimit="10"/>
<path id="Vector_2" d="M25.4062 85.6565C24.1882 85.3913 23.0095 84.9983 21.7669 85.072C21.2611 85.1015 21.0204 85.298 20.5342 85.3815C20.3181 85.4208 20.0774 85.3078 19.8663 85.3471C19.5961 85.3962 19.4095 85.5681 19.1443 85.6271C18.5648 85.7548 18.1276 85.8776 17.5432 86.0937C15.3626 86.8993 13.8401 88.4957 12.5337 90.3132C9.31676 94.7733 7.66656 100.358 6.26683 105.668C5.46138 108.724 4.68539 111.779 3.8652 114.829C3.48212 116.244 3.03028 117.708 2.7356 119.132C2.57353 119.918 2.39181 120.684 2.19536 121.465C1.9547 122.428 1.9547 123.357 1.76807 124.31C1.2573 126.947 1.52251 129.61 3.35442 131.658C4.72959 133.195 7.31294 134.758 9.39534 134.846C10.024 134.87 10.5642 135.121 11.2076 135.15C11.7822 135.175 12.3912 135.2 12.956 135.087C15.0826 134.654 16.9096 133.426 18.8496 132.532C20.3279 131.85 21.7178 130.892 23.1126 130.052C24.8169 129.025 26.58 128.224 28.3284 127.286C29.6152 126.599 30.8676 125.739 32.1003 124.958C33.1121 124.314 34.2367 123.936 35.3172 123.42C37.1492 122.546 38.932 121.662 40.7148 120.915C41.3925 120.63 42.2716 120.262 42.9347 120.07C43.9218 119.781 45.0416 119.285 46.0681 119.118C46.2596 119.088 46.4708 119.176 46.6574 119.152C46.849 119.122 46.9079 118.955 47.0651 118.916C47.7281 118.759 48.3273 118.582 48.9805 118.395C49.6141 118.214 50.2967 118.189 50.945 118.042C51.667 117.88 52.3939 117.752 53.1158 117.605C56.593 116.907 59.6921 114.952 60.7038 111.337C60.969 110.389 60.9936 109.598 60.7038 108.63C60.5123 107.997 60.5565 108.193 60.3993 107.559C59.6724 104.647 57.4771 101.911 55.9153 101.552C54.8348 101.301 54.2405 101.247 53.1944 101.449C52.1385 101.655 51.0678 101.685 50.0315 102.024C47.8607 102.731 46.6231 102.927 44.58 103.939C42.8954 104.774 41.3925 106.047 39.6637 106.773C38.7011 107.176 37.6992 107.697 36.7808 108.183C36.162 108.507 35.4547 108.95 34.8654 109.338C32.0217 111.204 28.849 112.506 25.6174 113.606C24.4681 113.999 23.3533 114.407 22.204 114.77C21.4428 115.011 20.1904 115.217 19.5519 115.738C20.1167 115.222 20.2837 114.765 20.598 114.117C20.9369 113.415 21.3102 112.806 21.4772 112.079C21.6491 111.352 22.0862 110.536 22.2188 109.755C22.3072 109.244 22.3219 108.733 22.43 108.213C22.5282 107.751 22.5969 107.058 22.4447 106.597C22.3661 106.582 22.2826 106.562 22.204 106.548" stroke="var(--stroke-0, black)" stroke-miterlimit="10"/>
<path id="Vector_3" d="M66.4402 83.5493C69.1562 83.9422 72.1471 84.5759 74.4456 86.192C76.9111 87.921 77.8197 91.2759 78.0849 94.0955C78.2519 95.8687 78.4876 97.5044 78.2323 99.2924C77.9474 101.282 78.0751 103.35 78.0947 105.359C78.1046 106.439 77.8934 107.481 77.8197 108.552C77.7411 109.745 77.8737 110.934 77.7313 112.123C77.4612 114.377 77.3875 116.632 77.1861 118.887C76.9013 122.104 76.6901 125.484 75.9043 128.617C75.1676 131.55 74.8877 134.546 73.7188 137.356C72.6825 139.861 70.2416 141.109 67.8547 142.155C67.226 142.43 66.5777 142.916 65.9343 143.123C65.4678 143.27 64.9128 143.265 64.4266 143.383C62.742 143.801 61.0329 143.919 59.3237 144.076C57.5655 144.233 55.822 144.41 54.0686 144.606C52.222 144.808 50.2574 144.631 48.401 144.631C45.0367 144.631 41.6528 144.13 38.3868 143.349C37.6059 143.162 36.9625 143.236 36.1718 143.192C35.6414 143.162 35.1748 142.931 34.6542 142.867C33.0335 142.681 31.1917 142.799 29.6545 143.28C28.1173 143.761 26.6537 144.351 25.141 145.068C23.8199 145.692 22.4692 146.227 21.045 146.605C19.714 146.964 17.7495 147.234 16.4431 146.684C14.9893 146.07 14.2428 144.847 13.6043 143.476C12.8234 141.782 12.9167 139.286 14.0414 137.764C15.1661 136.241 16.8311 135.234 18.4125 134.222C18.9184 133.898 19.4783 133.775 19.9743 133.441C20.5833 133.033 21.153 132.709 21.8652 132.468C22.98 132.09 24.0703 131.619 25.2245 131.383C25.9366 131.24 26.693 131.069 27.4051 130.98C28.1173 130.892 28.52 130.283 29.1879 130.116C29.8559 129.949 30.067 129.256 30.789 129.241C31.673 129.222 32.0905 128.637 32.9745 128.617C34.4725 128.583 35.9852 128.627 37.4831 128.627C39.153 128.627 40.7737 128.318 42.4239 128.333C45.9355 128.362 49.4471 128.333 52.9587 128.333C54.3829 128.333 55.7237 128.583 57.1185 128.617C57.8896 128.637 58.6165 128.902 59.3827 128.927C60.1046 128.951 60.3846 128.765 60.5466 128.387C60.7627 127.895 60.9346 127.365 60.7087 126.751C60.5712 126.368 60.6449 125.685 60.6007 125.277C60.3846 123.204 60.3354 122.63 60.3256 122.001C60.306 119.815 60.0948 118.833 60.5123 116.75L60.2569 116.701" stroke="var(--stroke-0, black)" stroke-miterlimit="10"/>
<path id="Vector_4" d="M18.5451 147.293C16.3743 149.337 15.009 150.849 13.6092 153.384C12.0769 156.164 10.8442 159.008 8.93859 161.607C5.30913 166.563 2.51459 172.251 1.22783 178.156C0.569712 181.172 -0.240654 184.669 0.604091 187.749C0.967528 189.08 1.25238 190.431 1.606 191.757C1.91541 192.916 2.63737 194.144 3.3004 195.171C3.67857 195.755 3.93396 196.468 4.36615 197.018C4.79835 197.568 5.57925 198.103 6.14405 198.531C7.29821 199.4 8.75196 200.24 10.2303 200.501C12.9167 200.977 15.6229 200.456 18.0098 199.386C20.3967 198.315 22.651 196.684 24.0949 194.66C24.5418 194.031 25.0084 193.393 25.3964 192.784C25.6665 192.361 25.8335 191.678 26.251 191.364L26.2362 191.541" stroke="var(--stroke-0, black)" stroke-miterlimit="10"/>
<path id="Vector_5" d="M48.5876 158.65C45.7587 160.895 42.2913 162.909 40.0075 165.703C38.9074 167.044 37.9644 168.597 36.9674 170.011C35.9704 171.426 34.8654 172.905 33.8095 174.344C30.3077 179.109 27.9797 184.143 26.4032 189.743C25.75 192.052 26.138 194.631 27.3953 196.713C28.8048 199.056 30.7448 201.208 33.3331 202.328C34.7966 202.961 36.2848 203.286 37.8515 203.625C39.4182 203.964 40.9063 204.489 42.4583 204.632C45.4689 204.907 48.6465 204.641 51.6719 204.641C55.9546 204.641 60.1586 204.479 64.4167 204.361C66.6858 204.298 68.8566 203.531 71.0617 203.114C72.1177 202.912 73.1441 202.588 74.205 202.392C75.6686 202.117 76.9946 201.483 78.4533 201.213C82.623 200.442 86.3163 198.899 90.2109 197.362C91.8218 196.728 93.6636 196.026 94.7735 194.685C95.3187 194.026 95.2991 193.491 95.4513 192.705C95.6478 191.678 95.8933 190.809 95.3973 189.797C94.4985 187.945 93.6538 186.26 91.9888 184.924C90.3239 183.588 88.5804 182.611 86.2279 182.508C84.1357 182.414 82.0287 182.459 79.9856 182.886C79.4994 182.989 78.9886 183.043 78.5073 183.161C77.7608 183.343 77.4563 183.662 76.8178 183.991C76.5133 184.148 75.3739 184.875 75.0988 184.821C74.8926 184.453 75.7324 182.886 75.9583 182.478C77.029 180.543 78.0555 178.838 78.3894 176.633C78.8118 173.862 78.4287 170.817 78.4434 168.022C78.4533 165.591 78.3747 162.933 77.6478 160.58C77.0339 158.601 76.2726 156.685 75.1872 154.897C74.151 153.197 73.0115 151.493 71.8034 149.892C70.6394 148.359 69.4361 147.003 67.9725 145.731C67.1278 144.999 66.7202 144.071 65.5218 144.095" stroke="var(--stroke-0, black)" stroke-miterlimit="10"/>
</g>
<defs>
<clipPath id="clip0_2251_1718">
<rect width="103" height="205" fill="white"/>
</clipPath>
</defs>
</svg>
