<svg preserveAspectRatio="none" width="100%" height="100%" overflow="visible" style="display: block;" viewBox="0 0 5.16653 18.2954" fill="none" xmlns="http://www.w3.org/2000/svg">
<path id="Vector 74" d="M1.21855 0.493501C1.18622 0.333528 1.09168 0.192947 0.955706 0.102684C0.819734 0.0124207 0.653473 -0.0201308 0.493501 0.0121905C0.333528 0.0445119 0.192947 0.139058 0.102684 0.275031C0.0124207 0.411003 -0.0201308 0.577263 0.0121905 0.737236C0.0121905 0.737236 0.0121905 0.737236 0.0121905 0.737236C0.0699057 1.02289 0.127647 1.30868 0.185427 1.59438C0.656997 3.91473 1.1195 6.23589 1.65284 8.55771C1.65287 8.55783 1.6529 8.55795 1.65293 8.55808C1.98867 10.0417 2.39827 11.5227 2.77618 12.9568C2.7762 12.9568 2.77622 12.9569 2.77623 12.957C3.11458 14.2676 3.41223 15.6036 3.7104 16.94C3.77362 17.2242 3.83663 17.5085 3.89971 17.7931C3.9365 17.9591 4.03771 18.1037 4.18109 18.195C4.32446 18.2864 4.49825 18.317 4.66423 18.2802C4.8302 18.2435 4.97477 18.1422 5.06612 17.9989C5.15747 17.8555 5.18813 17.6817 5.15134 17.5157C5.15134 17.5157 5.15134 17.5157 5.15134 17.5157C5.08825 17.2311 5.02518 16.9465 4.96182 16.6617C4.66272 15.3214 4.36405 13.9792 4.01715 12.635C4.01713 12.6349 4.01711 12.6349 4.01709 12.6348C3.6259 11.1516 3.18275 9.74142 2.85175 8.27965C2.85173 8.27953 2.8517 8.27941 2.85167 8.27929C2.32581 5.99048 1.86261 3.66775 1.39174 1.35041C1.33399 1.06487 1.27626 0.779159 1.21855 0.493501Z" fill="var(--stroke-0, black)"/>
</svg>
