<svg preserveAspectRatio="none" width="100%" height="100%" overflow="visible" style="display: block;" viewBox="0 0 66.4129 107.176" fill="none" xmlns="http://www.w3.org/2000/svg">
<path id="Vector 68" d="M0.410362 10.5679C0.241386 10.6447 0.109823 10.7854 0.044615 10.9592C-0.020593 11.1329 -0.0141042 11.3255 0.0626538 11.4945C0.139412 11.6634 0.280151 11.795 0.453912 11.8602C0.627672 11.9254 0.820219 11.9189 0.989195 11.8422C0.989195 11.8422 0.989195 11.8422 0.989195 11.8422C4.36478 10.3091 7.78257 8.93944 11.2845 7.72748C23.6706 3.4054 36.797 1.40389 49.9172 1.40166C50.6809 1.39786 51.4425 1.39933 52.1945 1.40496C54.3793 1.42981 56.5919 1.54769 58.6768 1.98656C59.8712 2.23407 61.3317 2.76416 61.5336 3.42111C67.9454 31.7531 63.3793 61.5327 63.4247 90.705C63.3893 93.6918 63.5464 96.8127 63.1761 99.579C63.1129 99.9598 62.9716 100.354 62.8784 100.435C62.8348 100.474 62.857 100.465 62.7778 100.479C62.7022 100.489 62.5487 100.476 62.3771 100.434C60.6387 100.027 58.863 99.6724 57.1036 99.3659C46.386 97.6687 35.4385 96.3101 24.5179 98.4131C24.2145 98.4827 23.9015 98.5543 23.5948 98.6246C20.3595 99.369 17.123 100.102 13.893 100.987C12.9002 101.266 11.9079 101.545 10.8939 101.941C9.99807 102.309 9.24868 102.772 8.5021 103.235C6.95577 104.175 5.35926 105.605 4.19978 106.235C4.08266 106.25 3.97034 106.301 3.88752 106.388C3.80471 106.475 3.75818 106.588 3.75818 106.705C3.75818 106.823 3.80471 106.936 3.88752 107.023C3.97034 107.109 4.08266 107.161 4.19978 107.176C6.54927 106.714 7.77263 105.552 9.37903 104.632C10.0875 104.189 10.8163 103.751 11.5057 103.47C12.3802 103.127 13.3697 102.841 14.3333 102.569C17.4995 101.695 20.7291 100.953 23.9583 100.21C24.2649 100.139 24.5779 100.068 24.8817 99.9977C35.2777 97.9765 46.2654 99.276 56.8265 100.96C58.5632 101.262 60.3186 101.593 62.0224 101.976C62.2926 102.035 62.5922 102.087 62.9648 102.045C63.3341 102.012 63.7875 101.793 64.0427 101.492C64.5468 100.887 64.6128 100.345 64.7176 99.8594C65.133 96.6616 64.9378 93.7331 64.9748 90.705C64.8482 61.5903 69.43 32.0113 62.866 2.98897C61.9343 1.0719 60.2814 1.00497 58.9745 0.618919C56.7089 0.144762 54.4552 0.0331503 52.205 0.0054884C51.4478 -0.000209153 50.6803 -0.00171059 49.9102 0.0021196C36.6724 0.0030576 23.3596 2.02983 10.8268 6.40486C7.28255 7.63148 3.8244 9.01734 0.410362 10.5679Z" fill="var(--stroke-0, black)"/>
</svg>
