<svg preserveAspectRatio="none" width="100%" height="100%" overflow="visible" style="display: block;" viewBox="0 0 27.7263 10.6523" fill="none" xmlns="http://www.w3.org/2000/svg">
<path id="Vector 62" d="M9.28612 0.975357C9.41447 0.952645 9.52853 0.87988 9.60322 0.773068C9.67792 0.666257 9.70712 0.534148 9.68441 0.405805C9.6617 0.277462 9.58893 0.163397 9.48212 0.0887046C9.37531 0.0140118 9.2432 -0.015191 9.11485 0.00752053C9.11485 0.00752053 9.11485 0.00752053 9.11485 0.00752053C8.26117 0.158687 7.41271 0.344817 6.57245 0.578673C4.80576 1.07311 3.06049 1.77116 1.52319 2.85973C1.52062 2.86155 1.51806 2.86338 1.5155 2.8652C0.783237 3.37102 0.317739 4.19179 0.0957076 4.96106C0.0950097 4.96336 0.0943136 4.96566 0.0936192 4.96796C-0.185378 6.06303 0.221761 6.9245 0.498412 7.71061C0.498477 7.71078 0.498541 7.71094 0.498605 7.71111C0.939134 8.78319 1.85547 9.29245 2.62401 9.74172C2.62454 9.74201 2.62506 9.74231 2.62558 9.7426C4.44083 10.6771 6.25605 10.4998 7.994 10.6057C7.99557 10.6057 7.99713 10.6058 7.9987 10.6058C12.4405 10.7071 16.8391 10.6787 21.3179 10.1529C21.3242 10.1519 21.3304 10.1509 21.3365 10.15C23.3065 9.82767 25.4148 9.18517 26.8819 7.55159C26.8876 7.54518 26.8933 7.53876 26.8989 7.53235C27.4799 6.86797 27.6123 6.03095 27.7014 5.35188C27.7022 5.34606 27.703 5.34026 27.7037 5.33448C27.8055 4.55214 27.5477 3.83415 27.2369 3.24094C27.2338 3.23494 27.2306 3.22894 27.2274 3.22295C26.2113 1.52385 24.457 0.955781 22.8624 0.515257L22.8175 0.506412C22.8164 0.506234 22.8153 0.506055 22.8142 0.505877C22.774 0.499463 22.7341 0.493114 22.6941 0.48679C22.28 0.421819 21.8721 0.358059 21.457 0.323485C21.4565 0.323442 21.456 0.323398 21.4554 0.323355C20.9922 0.286177 20.5639 0.269771 20.1399 0.224999C19.9938 0.209947 19.8466 0.251113 19.7303 0.341911C19.6141 0.432686 19.5384 0.56524 19.5199 0.710874C19.5013 0.856507 19.5414 1.0038 19.6311 1.12082C19.7209 1.23785 19.8531 1.3146 19.9983 1.33666C19.9983 1.33666 19.9983 1.33666 19.9983 1.33666C20.4637 1.40832 20.9309 1.43739 21.3611 1.47226C21.3616 1.4723 21.3621 1.47234 21.3626 1.47238C21.7532 1.50476 22.1496 1.52881 22.5359 1.57886C22.5731 1.58372 22.61 1.58883 22.6469 1.59425C22.6479 1.5944 22.6489 1.59455 22.6499 1.5947L22.605 1.58586C24.0606 1.93905 25.6452 2.57611 26.3009 3.71953C26.3035 3.72446 26.3062 3.72939 26.3089 3.73432C26.5748 4.22543 26.7384 4.74096 26.6751 5.19842C26.6744 5.20412 26.6736 5.20981 26.6728 5.21551C26.5913 5.88053 26.4591 6.46735 26.1186 6.84786C26.114 6.8531 26.1093 6.85834 26.1047 6.86358C24.9188 8.19662 23.0176 8.75695 21.1639 9.05102C21.1586 9.05184 21.1533 9.05267 21.1479 9.05351C16.8554 9.55531 12.4118 9.59224 8.02919 9.48936C8.02764 9.48931 8.02608 9.48927 8.02453 9.48923C6.31582 9.40636 4.4715 9.50575 3.14843 8.79841C3.14802 8.79819 3.14761 8.79796 3.1472 8.79774C2.41472 8.39641 1.70828 7.92572 1.48054 7.33045C1.48048 7.33029 1.48042 7.33013 1.48035 7.32997C1.18998 6.59235 0.931935 5.80282 1.08994 5.26452C1.09052 5.26255 1.0911 5.26057 1.09168 5.25859C1.28043 4.59672 1.57515 4.02434 2.0856 3.66585C2.08794 3.66418 2.09028 3.66251 2.09263 3.66084C3.49812 2.66431 5.14344 1.99832 6.8361 1.52552C7.64098 1.3015 8.4592 1.12177 9.28612 0.975357Z" fill="var(--stroke-0, black)"/>
</svg>
