<svg preserveAspectRatio="none" width="100%" height="100%" overflow="visible" style="display: block;" viewBox="0 0 28.8123 36.4385" fill="none" xmlns="http://www.w3.org/2000/svg">
<path id="Vector 53" d="M6.71676 0.500133C6.03501 0.710104 3.48023 2.14596 1.51915 4.5185C0.598078 5.63282 0.371724 7.03061 0.562121 8.25929C0.657486 8.8747 1.25679 9.33987 1.79743 9.66955C3.89708 10.9499 7.2772 9.00227 10.0817 7.87772C11.4637 7.32356 13.0705 7.58067 14.4413 8.04341C15.7383 8.48123 16.1604 10.001 16.302 11.2483C16.4412 12.4737 15.6165 13.5543 14.5963 14.3876C12.2241 16.3249 8.2062 15.4568 5.47544 16.0095C2.54844 16.6019 2.74777 24.8273 3.62838 30.9034C3.86638 32.5456 5.37175 33.4374 7.12382 34.2177C12.6742 36.6897 20.168 36.0126 23.4022 35.1661C25.0698 34.7296 26.1955 33.5943 27.0473 32.5248C28.0692 31.2415 28.2582 29.2048 28.3106 27.2417C28.3597 25.3996 27.3406 23.992 26.2523 22.8929C23.48 20.0928 19.1879 20.1755 15.8146 20.4275C14.3951 20.5335 13.4409 21.9509 12.7183 23.5059C12.3667 24.2624 12.2817 25.0515 12.416 25.7606C12.6853 27.1835 13.9789 28.1138 15.2191 28.6421C15.8757 28.8061 16.5877 28.7587 17.0487 28.4287C17.5097 28.0986 17.6982 27.4873 17.3534 26.0485" stroke="var(--stroke-0, black)" stroke-linecap="round"/>
</svg>
