<svg preserveAspectRatio="none" width="100%" height="100%" overflow="visible" style="display: block;" viewBox="0 0 19.3749 33.9896" fill="none" xmlns="http://www.w3.org/2000/svg">
<path id="Vector 60" d="M5.61629 9.56978C5.45324 9.48748 4.91738 9.03358 4.171 8.10341C3.41577 7.16223 3.74697 5.72606 4.19291 4.57078C4.42043 3.98136 5.04259 3.57699 5.73689 3.28249C6.43119 2.98798 7.27904 2.86453 8.03879 3.12392C9.62117 3.66417 10.3927 5.54268 10.7797 7.15028C10.9593 7.89588 10.8019 8.55602 10.5343 9.09066C10.0056 10.1472 8.76396 10.6065 7.47513 10.8714C6.00439 11.1736 4.58999 10.851 3.43727 10.396C2.25557 9.92956 1.36815 8.9517 0.820076 7.70869C0.296712 6.52172 0.494877 5.1221 0.847321 3.86211C1.53692 1.39679 5.35711 0.883921 8.36897 0.537828C10.357 0.309385 11.9353 1.15063 12.7681 2.14202C14.6805 4.41845 14.3505 9.77395 12.8941 13.9509C11.8566 16.9266 8.81725 18.3928 7.98424 20.0531C6.25828 23.4931 7.31268 28.6415 8.08143 31.519C8.25667 32.1749 8.81182 32.639 9.48022 32.9902C10.9585 33.7668 13.0089 33.4898 14.829 33.147C16.3023 32.8696 17.358 32.2037 18.0707 31.1531C19.6916 28.7637 18.5903 24.7365 17.1642 22.2553C16.5048 21.1079 14.863 21.1211 13.6058 21.2612C12.4001 21.3956 11.5079 22.5815 10.8432 23.8019C10.5078 25.0223 11.1194 26.998 12.4775 29.1874C13.139 30.025 13.7446 30.3076 15.2226 29.4765" stroke="var(--stroke-0, black)" stroke-linecap="round"/>
</svg>
