<svg preserveAspectRatio="none" width="100%" height="100%" overflow="visible" style="display: block;" viewBox="0 0 179.255 125.823" fill="none" xmlns="http://www.w3.org/2000/svg">
<path id="Vector 41" d="M157.874 28.8041C151.89 28.224 148.045 27.1066 146.757 25.2199C146.086 24.237 145.969 22.8589 146.156 21.7835C146.51 19.7457 148.62 18.492 150.585 17.5464C152.464 16.6429 154.606 16.8046 156.602 17.1223C158.643 17.4471 160.474 18.9859 162.174 20.8862C165.911 25.0632 164.898 31.366 163.38 36.0045C161.965 40.3266 156.562 42.1033 150.859 43.5751C148.57 44.1659 146.478 43.5278 144.482 42.8649C139.931 41.3531 136.648 35.1046 135.297 30.3827C133.663 24.6733 138.507 16.1049 142.732 11.0578C146.885 6.0956 158.331 10.5264 163.388 12.7457C168.099 14.8134 171.192 22.9611 173.306 30.6572C175.382 38.2172 171.076 45.0393 167.091 50.561C163.138 56.0399 155.826 58.2359 146.048 59.8678C137.301 61.3274 129.198 56.7417 120.522 51.3696C107.959 43.5914 102.528 29.2839 95.0841 19.3889C88.6671 10.8588 78.6728 8.0466 67.8606 3.75591C57.3787 -0.403675 44.9514 -0.020358 34.7264 1.82312C25.2536 3.53099 18.4476 10.2385 10.685 18.0977C5.73369 23.1107 1.99245 42.2882 0.600102 59.1688C-0.566129 73.308 8.70885 89.1136 15.3165 100.638C22.8064 113.701 37.5588 120.109 44.4867 123.186C55.0794 127.89 71.2896 123.859 83.4962 120.365C90.2449 118.434 96.3384 113.095 114.19 95.0658C122.271 86.9044 126.322 80.9649 130.115 77.6149C135.961 72.4509 149.969 67.2551 160.685 64.3872C167.281 62.6219 173.558 57.4124 176.415 52.4673C179.775 46.652 178.76 34.6814 177.967 27.2028C177.193 19.9011 171.765 14.8592 167.386 11.1633C162.907 7.38379 154.703 5.93159 147.517 5.07316C141.188 4.31717 136.473 6.95597 132.26 10.6696C128.595 13.8992 127.81 19.9736 127.355 29.1181C127.032 35.629 132.876 40.3785 137.397 44.4878C141.377 48.1045 147.388 48.4845 153.365 48.4092C158.118 48.3494 163.272 44.9021 166.695 41.3146C170.493 37.3348 169.988 30.2525 170.054 25.5548C170.112 21.3829 165.54 17.6535 161.474 14.8937C159.722 13.7042 156.501 13.82 152.996 13.8847C150.498 13.9308 148.413 15.1504 146.757 16.7729C145.451 18.6585 144.583 20.1796 144.565 22.1479C144.811 23.1392 145.065 24.1479 147.675 26.1479" stroke="var(--stroke-0, black)" stroke-linecap="round"/>
</svg>
