<svg preserveAspectRatio="none" width="100%" height="100%" overflow="visible" style="display: block;" viewBox="0 0 11.5899 16.5979" fill="none" xmlns="http://www.w3.org/2000/svg">
<path id="Vector 69" d="M0.0442714 15.6392C-0.021262 15.8162 -0.0137935 16.012 0.0650339 16.1835C0.143861 16.355 0.28759 16.4881 0.464602 16.5537C0.641614 16.6192 0.83741 16.6117 1.00892 16.5329C1.18042 16.4541 1.31359 16.3104 1.37912 16.1333C1.37912 16.1333 1.37912 16.1333 1.37912 16.1333C1.57732 15.5916 1.72345 15.0634 1.86253 14.5367C2.59683 11.6442 3.10573 8.75226 3.60977 5.85349C3.61018 5.8511 3.61059 5.84872 3.611 5.84634C3.91421 4.19539 4.1791 2.3586 4.84399 1.11144C4.84512 1.1096 4.84625 1.10777 4.84737 1.10594L4.18633 1.43036C3.98281 1.39567 3.99238 1.34969 4.00163 1.36806C4.01631 1.38048 4.05257 1.41966 4.08865 1.46617C4.1618 1.55957 4.24435 1.68583 4.32218 1.81439C4.47945 2.07469 4.63322 2.36414 4.78044 2.65234C5.07674 3.23476 5.35917 3.83857 5.63277 4.44564C5.63418 4.44878 5.6356 4.45193 5.63701 4.45507C7.09313 7.71064 8.43304 11.0325 9.7125 14.3724C9.90227 14.8689 10.0905 15.3664 10.2773 15.8649C10.3404 16.0332 10.4679 16.1695 10.6316 16.2438C10.7953 16.3181 10.9819 16.3243 11.1503 16.2611C11.3186 16.1978 11.455 16.0703 11.5293 15.9066C11.6036 15.7429 11.6098 15.5564 11.5465 15.3881C11.5465 15.3881 11.5465 15.3881 11.5465 15.3881C11.3578 14.8872 11.1678 14.3873 10.9762 13.8883C9.6842 10.5305 8.33751 7.19767 6.86407 3.90313C6.86264 3.89994 6.86121 3.89676 6.85977 3.89357C6.58226 3.27774 6.30504 2.66031 6.00348 2.04189C5.8527 1.73438 5.69517 1.42272 5.51164 1.10758C5.41906 0.950092 5.31967 0.78856 5.19099 0.618509C5.1245 0.532024 5.05169 0.442057 4.94366 0.341421C4.82969 0.248402 4.69727 0.0955178 4.32512 0.0417866L3.89117 0L3.66407 0.366207C3.6621 0.369352 3.66012 0.372502 3.65815 0.375659C2.69836 2.19984 2.54811 3.87692 2.20799 5.60631C2.20758 5.60868 2.20718 5.61105 2.20677 5.61342C1.70725 8.49007 1.19474 11.3853 0.48552 14.1763C0.35351 14.6781 0.210908 15.1852 0.0442714 15.6392Z" fill="var(--stroke-0, black)"/>
</svg>
