<svg preserveAspectRatio="none" width="100%" height="100%" overflow="visible" style="display: block;" viewBox="0 0 12.5445 18.4275" fill="none" xmlns="http://www.w3.org/2000/svg">
<path id="Vector 61" d="M0.109378 17.4771C0.0246357 17.5864 -0.0132264 17.7248 0.00412089 17.862C0.0214682 17.9992 0.0926038 18.1239 0.201879 18.2086C0.311154 18.2934 0.449617 18.3312 0.586808 18.3139C0.723999 18.2965 0.848679 18.2254 0.933421 18.1161C0.933421 18.1161 0.933421 18.1161 0.933421 18.1161C1.32532 17.6107 1.70538 17.1015 2.07577 16.5791C3.15343 15.0561 4.14463 13.4403 4.85617 11.6756C4.90498 11.5548 4.95283 11.4325 4.99871 11.3114C6.14379 8.25751 7.01116 5.13056 7.68609 1.94212C7.74652 1.6465 7.80467 1.34747 7.85534 1.04801C7.86789 0.97354 7.87956 0.910663 7.88995 0.860289C7.90132 0.803148 7.91839 0.738072 7.92125 0.732101C7.91997 0.734261 7.91744 0.747041 7.8919 0.787405C7.88493 0.77137 7.86956 0.931296 7.54663 0.993492C7.38869 1.01308 7.23816 0.934384 7.17686 0.875273C7.14025 0.842303 7.12268 0.819162 7.10704 0.797633C7.01635 0.63966 7.06316 0.701311 7.05612 0.70355C7.06423 0.74481 7.07079 0.79608 7.0777 0.861497C7.10248 1.10689 7.11602 1.38503 7.12843 1.65251C7.15261 2.19769 7.16896 2.74113 7.18661 3.28671C7.2213 4.38027 7.25767 5.47885 7.31139 6.57726C7.43772 8.77562 7.52468 10.9744 8.0872 13.1994L8.11124 13.2666C8.1539 13.3641 8.19692 13.4605 8.24108 13.5572C8.71042 14.5905 9.28285 15.6137 10.0253 16.5084L10.0378 16.523C10.0681 16.5572 10.0986 16.5912 10.1291 16.6249C10.2872 16.7995 10.4488 16.9629 10.6137 17.122C11.0691 17.5597 11.5476 17.9656 12.0566 18.3545C12.1139 18.3981 12.184 18.4263 12.2573 18.4274C12.3305 18.4286 12.4003 18.4033 12.4529 18.3556C12.5055 18.3079 12.5375 18.2409 12.5435 18.1678C12.5494 18.0948 12.5282 18.0224 12.4904 17.961C12.4904 17.961 12.4904 17.961 12.4904 17.961C12.1514 17.4139 11.7714 16.8983 11.3611 16.4186C11.2131 16.2449 11.0629 16.0772 10.9149 15.9137C10.8863 15.8822 10.8579 15.8505 10.8299 15.8191L10.8424 15.8337C10.1671 15.0232 9.61857 14.1121 9.1701 13.1319C9.1281 13.0404 9.08707 12.949 9.04628 12.8564L9.07032 12.9236C8.55316 10.9137 8.44064 8.69044 8.3153 6.5271C8.2596 5.439 8.2212 4.34723 8.1848 3.25404C8.16626 2.70804 8.14923 2.16439 8.12396 1.60706C8.11063 1.33069 8.09782 1.05256 8.06809 0.757541C8.05858 0.672778 8.05353 0.617593 8.03179 0.504935C8.01331 0.452886 8.04144 0.426006 7.91884 0.221222C7.89944 0.19444 7.87847 0.167307 7.8376 0.130514C7.76855 0.0645206 7.61007 -0.0172438 7.44396 0.00319508C7.10634 0.0637316 7.06603 0.256435 7.05787 0.243726C7.01944 0.30388 7.00352 0.345055 6.98835 0.384499C6.9136 0.610273 6.9055 0.711924 6.8738 0.882746C6.82636 1.16395 6.76997 1.45481 6.71114 1.74248C6.05063 4.86517 5.14689 7.95825 4.02393 10.9415C3.98049 11.0558 3.93532 11.1711 3.88931 11.285C3.22109 12.9435 2.27483 14.4929 1.22503 15.9761C0.864624 16.4844 0.493324 16.9819 0.109378 17.4771Z" fill="var(--stroke-0, black)"/>
</svg>
