<svg preserveAspectRatio="none" width="100%" height="100%" overflow="visible" style="display: block;" viewBox="0 0 6.54002 317.167" fill="none" xmlns="http://www.w3.org/2000/svg">
<path id="Vector 7" d="M1.53463 0.669156C1.50771 0.466542 1.4014 0.282923 1.23909 0.158691C1.07678 0.0344604 0.87177 -0.0202058 0.669156 0.00671875C0.466542 0.0336434 0.282923 0.139953 0.158691 0.302261C0.0344604 0.46457 -0.0202058 0.669581 0.00671875 0.872195C0.00671875 0.872195 0.00671875 0.872195 0.00671875 0.872195C0.679633 6.06561 1.0977 11.2946 1.48634 16.5469C3.57329 47.0492 4.32329 77.6979 4.99882 108.297L4.99865 108.282C4.99866 108.29 4.99867 108.297 4.99868 108.305C4.98758 151.956 3.85501 195.653 3.02471 239.306C3.02465 239.309 3.02459 239.312 3.02454 239.315C2.62696 259.881 2.41529 280.413 2.32204 300.959C2.29549 306.227 2.27222 311.495 2.24296 316.764C2.24239 316.869 2.28281 316.971 2.3562 317.046C2.42958 317.122 2.52978 317.165 2.6349 317.167C2.74002 317.169 2.84163 317.129 2.91755 317.056C2.99348 316.983 3.03734 316.883 3.04035 316.777C3.04035 316.777 3.04035 316.777 3.04035 316.777C3.19083 311.509 3.32295 306.242 3.44597 300.975C3.91539 280.433 4.31504 259.91 4.71255 239.347C4.71261 239.344 4.71266 239.341 4.71272 239.338C5.54288 195.689 6.52886 151.985 6.54002 108.303C6.54001 108.295 6.54 108.288 6.54 108.281L6.53983 108.266C5.86373 77.6514 5.11486 47.0038 3.02363 16.4353C2.63348 11.166 2.21598 5.92984 1.53463 0.669156Z" fill="var(--stroke-0, black)"/>
</svg>
