<svg preserveAspectRatio="none" width="100%" height="100%" overflow="visible" style="display: block;" viewBox="0 0 103.519 205.513" fill="none" xmlns="http://www.w3.org/2000/svg">
<g id="self care">
<path id="Vector" d="M79.1086 6.97113C69.5611 1.81347 58.6039 -2.01303 47.9218 2.50607C40.9036 5.47295 35.84 11.0236 31.2332 16.9033C29.2883 19.3839 27.9377 22.0119 26.4348 24.7626C24.3819 28.5253 22.4174 32.1897 20.8949 36.2225C19.5983 39.6511 18.562 43.1092 17.457 46.6017C16.3372 50.1334 15.1536 53.8273 15.0897 57.5605C15.0308 61.1364 14.9571 64.683 15.905 68.1607C16.8529 71.6384 18.8174 75.3863 20.7966 78.5939C21.995 80.5391 23.105 82.5727 24.4949 84.3901C26.1058 86.5023 28.0163 88.0742 29.9022 89.8867C32.7704 92.6473 37.5295 93.5118 41.434 92.9273C46.5123 92.1659 51.3843 90.2502 56.2416 88.6243C62.0124 86.6939 67.2282 84.2231 72.2181 80.765C75.5627 78.4465 78.755 76.0446 81.9867 73.618C84.015 72.0953 85.8028 70.2974 87.836 68.7501C89.5599 67.4386 91.4409 66.0632 92.7965 64.3784C95.3061 61.2543 97.7176 57.0447 99.191 53.3312C100.64 49.6717 102.226 45.8599 102.796 41.9303C103.179 39.2925 102.978 36.1046 102.86 33.4373C102.796 32.0374 102.482 30.5097 102.153 29.1344C101.843 27.8474 101.244 27.0811 100.64 25.9563C99.3923 23.6427 97.0791 21.1719 95.1195 19.3544C93.2532 17.6254 91.4557 15.9356 89.6041 14.1329C88.2731 12.8361 86.3381 11.7064 84.791 10.6847C84.2557 10.331 83.6762 9.89872 83.1359 9.57944C82.4631 9.18156 81.5054 9.00473 79.1234 6.97605L79.1086 6.97113Z" stroke="var(--stroke-0, black)" stroke-miterlimit="10"/>
<path id="Vector_2" d="M25.6639 85.913C24.4459 85.6478 23.2672 85.2548 22.0247 85.3285C21.5188 85.3579 21.2781 85.5544 20.7919 85.6379C20.5758 85.6772 20.3352 85.5642 20.124 85.6035C19.8539 85.6527 19.6672 85.8246 19.402 85.8835C18.8225 86.0112 18.3854 86.134 17.8009 86.3502C15.6203 87.1558 14.0978 88.7522 12.7914 90.5696C9.57449 95.0298 7.92429 100.615 6.52457 105.925C5.71912 108.98 4.94313 112.035 4.12294 115.086C3.73986 116.5 3.28802 117.964 2.99334 119.389C2.83127 120.175 2.64955 120.941 2.45309 121.722C2.21244 122.685 2.21244 123.613 2.02581 124.566C1.51503 127.204 1.78025 129.866 3.61216 131.914C4.98733 133.452 7.57068 135.014 9.65308 135.102C10.2817 135.127 10.822 135.377 11.4653 135.407C12.04 135.432 12.649 135.456 13.2138 135.343C15.3404 134.911 17.1674 133.683 19.1073 132.789C20.5857 132.106 21.9756 131.148 23.3704 130.308C25.0746 129.282 26.8378 128.481 28.5862 127.543C29.8729 126.855 31.1253 125.995 32.3581 125.214C33.3698 124.571 34.4945 124.193 35.575 123.677C37.4069 122.803 39.1897 121.918 40.9725 121.172C41.6503 120.887 42.5294 120.518 43.1924 120.327C44.1796 120.037 45.2994 119.541 46.3258 119.374C46.5174 119.344 46.7286 119.433 46.9152 119.408C47.1067 119.379 47.1657 119.212 47.3228 119.173C47.9859 119.015 48.585 118.839 49.2382 118.652C49.8718 118.47 50.5545 118.446 51.2028 118.298C51.9247 118.136 52.6516 118.008 53.3736 117.861C56.8508 117.164 59.9498 115.209 60.9615 111.593C61.2267 110.645 61.2513 109.854 60.9615 108.887C60.77 108.253 60.8142 108.45 60.657 107.816C59.9302 104.903 57.7348 102.167 56.173 101.808C55.0925 101.558 54.4982 101.504 53.4521 101.705C52.3962 101.912 51.3255 101.941 50.2893 102.28C48.1185 102.987 46.8808 103.184 44.8377 104.196C43.1531 105.031 41.6503 106.303 39.9215 107.03C38.9589 107.433 37.957 107.953 37.0385 108.44C36.4197 108.764 35.7125 109.206 35.1231 109.594C32.2795 111.461 29.1068 112.762 25.8751 113.863C24.7259 114.256 23.611 114.663 22.4618 115.027C21.7005 115.267 20.4481 115.474 19.8097 115.994C20.3745 115.479 20.5415 115.022 20.8558 114.373C21.1947 113.671 21.5679 113.062 21.7349 112.335C21.9068 111.608 22.3439 110.793 22.4765 110.012C22.5649 109.501 22.5796 108.99 22.6877 108.469C22.7859 108.007 22.8547 107.315 22.7024 106.853C22.6238 106.838 22.5404 106.819 22.4618 106.804" stroke="var(--stroke-0, black)" stroke-miterlimit="10"/>
<path id="Vector_3" d="M66.698 83.8058C69.4139 84.1987 72.4049 84.8324 74.7034 86.4484C77.1689 88.1775 78.0775 91.5324 78.3427 94.352C78.5097 96.1252 78.7454 97.7609 78.49 99.5489C78.2051 101.538 78.3328 103.606 78.3525 105.615C78.3623 106.696 78.1511 107.737 78.0775 108.808C77.9989 110.002 78.1315 111.19 77.9891 112.379C77.7189 114.634 77.6453 116.888 77.4439 119.143C77.159 122.361 76.9479 125.74 76.162 128.874C75.4254 131.806 75.1454 134.803 73.9765 137.612C72.9402 140.118 70.4993 141.365 68.1124 142.412C67.4838 142.687 66.8355 143.173 66.1921 143.379C65.7255 143.527 65.1705 143.522 64.6843 143.64C62.9997 144.057 61.2906 144.175 59.5815 144.332C57.8232 144.489 56.0797 144.666 54.3264 144.863C52.4797 145.064 50.5152 144.887 48.6587 144.887C45.2945 144.887 41.9106 144.386 38.6446 143.605C37.8637 143.419 37.2203 143.492 36.4295 143.448C35.8991 143.419 35.4326 143.188 34.912 143.124C33.2912 142.937 31.4495 143.055 29.9122 143.536C28.375 144.018 26.9114 144.607 25.3987 145.324C24.0776 145.948 22.727 146.484 21.3027 146.862C19.9717 147.22 18.0072 147.491 16.7008 146.94C15.2471 146.326 14.5005 145.103 13.8621 143.733C13.0812 142.038 13.1745 139.543 14.2992 138.02C15.4239 136.497 17.0888 135.49 18.6703 134.479C19.1761 134.154 19.736 134.032 20.232 133.698C20.841 133.29 21.4108 132.966 22.1229 132.725C23.2378 132.347 24.3281 131.875 25.4822 131.639C26.1944 131.497 26.9507 131.325 27.6629 131.237C28.375 131.148 28.7777 130.539 29.4457 130.372C30.1136 130.205 30.3248 129.512 31.0468 129.498C31.9308 129.478 32.3482 128.894 33.2323 128.874C34.7302 128.84 36.2429 128.884 37.7409 128.884C39.4107 128.884 41.0314 128.574 42.6816 128.589C46.1932 128.619 49.7048 128.589 53.2164 128.589C54.6407 128.589 55.9815 128.84 57.3763 128.874C58.1474 128.894 58.8742 129.159 59.6404 129.183C60.3624 129.208 60.6423 129.021 60.8044 128.643C61.0205 128.152 61.1924 127.621 60.9665 127.007C60.8289 126.624 60.9026 125.941 60.8584 125.534C60.6423 123.461 60.5932 122.886 60.5834 122.257C60.5637 120.072 60.3525 119.089 60.77 117.006L60.5146 116.957" stroke="var(--stroke-0, black)" stroke-miterlimit="10"/>
<path id="Vector_4" d="M18.8027 147.549C16.6319 149.593 15.2666 151.106 13.8668 153.64C12.3345 156.421 11.1018 159.265 9.19618 161.863C5.56672 166.819 2.77219 172.508 1.48542 178.412C0.827307 181.428 0.0169406 184.925 0.861686 188.005C1.22512 189.336 1.50998 190.687 1.86359 192.013C2.17301 193.173 2.89497 194.401 3.558 195.427C3.93617 196.012 4.19155 196.724 4.62375 197.274C5.05595 197.824 5.83684 198.36 6.40164 198.787C7.5558 199.657 9.00955 200.497 10.4879 200.757C13.1743 201.233 15.8805 200.713 18.2674 199.642C20.6543 198.571 22.9086 196.94 24.3525 194.916C24.7994 194.288 25.266 193.649 25.654 193.04C25.9241 192.618 26.0911 191.935 26.5085 191.62L26.4938 191.797" stroke="var(--stroke-0, black)" stroke-miterlimit="10"/>
<path id="Vector_5" d="M48.8452 158.906C46.0163 161.151 42.5489 163.165 40.2652 165.96C39.1651 167.301 38.2221 168.853 37.2251 170.268C36.2281 171.683 35.123 173.161 34.0671 174.6C30.5653 179.365 28.2374 184.4 26.6609 190C26.0077 192.308 26.3956 194.887 27.6529 196.97C29.0625 199.313 31.0025 201.464 33.5907 202.584C35.0543 203.218 36.5424 203.542 38.1091 203.881C39.6758 204.22 41.164 204.746 42.7159 204.888C45.7266 205.163 48.9042 204.898 51.9295 204.898C56.2122 204.898 60.4163 204.736 64.6744 204.618C66.9434 204.554 69.1142 203.788 71.3194 203.37C72.3753 203.169 73.4018 202.845 74.4626 202.648C75.9262 202.373 77.2523 201.74 78.7109 201.469C82.8806 200.698 86.5739 199.156 90.4686 197.618C92.0795 196.985 93.9212 196.282 95.0312 194.941C95.5764 194.283 95.5567 193.748 95.709 192.962C95.9054 191.935 96.151 191.066 95.6549 190.054C94.7562 188.202 93.9114 186.517 92.2465 185.181C90.5816 183.845 88.838 182.867 86.4855 182.764C84.3933 182.671 82.2864 182.715 80.2433 183.142C79.757 183.246 79.2463 183.3 78.765 183.418C78.0184 183.599 77.7139 183.919 77.0755 184.248C76.771 184.405 75.6315 185.132 75.3565 185.078C75.1502 184.709 75.9901 183.142 76.216 182.735C77.2866 180.799 78.3131 179.095 78.6471 176.889C79.0694 174.119 78.6864 171.073 78.7011 168.279C78.7109 165.847 78.6323 163.19 77.9055 160.837C77.2916 158.857 76.5303 156.941 75.4449 155.154C74.4086 153.454 73.2692 151.749 72.061 150.148C70.897 148.616 69.6938 147.26 68.2302 145.988C67.3854 145.256 66.9778 144.327 65.7794 144.352" stroke="var(--stroke-0, black)" stroke-miterlimit="10"/>
</g>
</svg>
