<svg preserveAspectRatio="none" width="100%" height="100%" overflow="visible" style="display: block;" viewBox="0 0 8.71124 11.9547" fill="none" xmlns="http://www.w3.org/2000/svg">
<path id="Vector 83" d="M8.41719 1.31648C8.57257 1.20069 8.67558 1.02792 8.70357 0.836176C8.73156 0.644432 8.68224 0.449423 8.56645 0.294047C8.45066 0.138671 8.27788 0.0356569 8.08614 0.00766587C7.8944 -0.0203252 7.69939 0.029 7.54401 0.14479C7.54401 0.14479 7.54401 0.14479 7.54401 0.14479C7.30576 0.322342 7.06753 0.499881 6.82893 0.678092C4.68614 2.34285 2.4435 3.75856 0.571948 6.10986C0.566686 6.11749 0.561458 6.12511 0.556259 6.13274C0.191777 6.66226 -0.233996 7.54061 0.153271 8.45515C0.546735 9.30653 1.20575 9.64111 1.72333 9.95483C1.72961 9.95841 1.73589 9.96198 1.74218 9.96554C3.15233 10.7413 4.56893 11.1178 5.96916 11.6264C6.24872 11.7242 6.52802 11.8231 6.80928 11.9253C6.93256 11.97 7.07114 11.9631 7.19338 11.909C7.31568 11.8548 7.41162 11.7578 7.46125 11.6365C7.51088 11.5152 7.51048 11.3787 7.4613 11.2543C7.41204 11.1301 7.31804 11.028 7.1988 10.9734C7.1988 10.9734 7.1988 10.9734 7.1988 10.9734C6.92589 10.8489 6.6564 10.724 6.3875 10.5985C5.05208 9.95963 3.65026 9.36235 2.4623 8.69797C2.45681 8.69484 2.45131 8.69169 2.4458 8.68855C1.97823 8.42925 1.5809 8.11583 1.49888 7.88706C1.40436 7.70076 1.48533 7.35794 1.76373 6.95572C1.76736 6.9504 1.77102 6.94506 1.77473 6.93968C3.25692 5.05431 5.60001 3.46094 7.70339 1.84883C7.94113 1.67126 8.17894 1.49403 8.41719 1.31648Z" fill="var(--stroke-0, black)"/>
</svg>
