<svg preserveAspectRatio="none" width="100%" height="100%" overflow="visible" style="display: block;" viewBox="0 0 364.258 50.7866" fill="none" xmlns="http://www.w3.org/2000/svg">
<path id="Vector 65" d="M363.758 2.70835C363.758 2.43764 362.645 1.6846 360.447 0.788424C356.551 -0.800356 350.608 4.58928 344.105 6.84819C335.242 9.92667 328.255 5.57772 323.062 5.01735C317.748 4.44393 312.915 10.1283 308.728 13.4678C303.222 17.8588 289.421 14.0251 282.752 13.543C277.64 13.1734 270.63 20.7077 265.734 24.3934C255.396 32.1743 232.022 25.7082 223.67 24.5144C217.111 23.5769 211.341 25.0892 206.917 27.2947C201.123 30.1826 193.88 34.5291 188.93 35.208C183.07 36.0118 174.833 31.9611 168.543 32.2131C162.233 32.466 157.742 37.9562 151.251 38.0852C143.754 38.2342 138.039 35.1276 132.507 37.4502C128.399 39.1748 125.072 42.2198 120.341 43.2598C109.39 45.6666 96.4903 39.0255 90.935 40.7007C86.0369 42.1777 82.8092 45.1157 80.5757 46.0597C71.8835 49.7334 58.2066 39.744 49.6457 38.7731C43.2251 38.0449 35.8844 46.8438 28.9941 49.2169C23.6757 51.0486 18.0714 45.6762 11.3464 46.3254C9.10526 46.8792 6.42917 47.757 4.59554 48.4439C2.7619 49.1307 1.85183 49.5999 0.500107 50.2865" stroke="var(--stroke-0, black)" stroke-linecap="round"/>
</svg>
