<svg preserveAspectRatio="none" width="100%" height="100%" overflow="visible" style="display: block;" viewBox="0 0 6.52138 298.515" fill="none" xmlns="http://www.w3.org/2000/svg">
<path id="Vector 6" d="M6.0937 0.693244C6.08311 0.499081 5.99582 0.317078 5.85103 0.187274C5.70625 0.0574698 5.51583 -0.00950271 5.32167 0.00108957C5.12751 0.0116818 4.9455 0.0989712 4.8157 0.243755C4.6859 0.388539 4.61892 0.578957 4.62951 0.77312C4.62951 0.77312 4.62951 0.77312 4.62951 0.77312C4.89396 5.68869 4.99232 10.6375 5.0389 15.582C5.17594 38.6567 4.41873 61.675 3.6407 84.7596C3.64058 84.7632 3.64046 84.7667 3.64033 84.7702C2.52805 116.345 0.809413 147.929 0.000264406 179.536C0.000187635 179.539 0.000110805 179.542 3.44515e-05 179.546L0 179.581C0.557451 205.322 1.26457 230.968 3.24684 256.597L3.24577 256.576C3.24586 256.578 3.24594 256.58 3.24603 256.583C3.55648 265.329 3.66571 274.115 3.77888 282.883C3.8393 287.835 3.89042 292.787 3.94173 297.741C3.94387 297.948 4.02828 298.146 4.17635 298.291C4.32442 298.437 4.52403 298.517 4.73129 298.515C4.93855 298.513 5.13648 298.428 5.28158 298.28C5.42667 298.132 5.50703 297.933 5.50496 297.725C5.50496 297.725 5.50496 297.725 5.50496 297.725C5.4555 292.771 5.40648 287.818 5.34811 282.865C5.23851 274.091 5.13317 265.304 4.82365 256.525C4.82356 256.522 4.82348 256.52 4.82339 256.517L4.82232 256.496C2.84625 230.865 2.15111 205.291 1.59323 179.547L1.5932 179.583C1.59327 179.579 1.59335 179.576 1.59343 179.573C2.40143 148.006 3.99293 116.411 5.1058 84.8215C5.10592 84.818 5.10605 84.8144 5.10617 84.8109C5.88439 61.7158 6.64237 38.6967 6.5052 15.5689C6.45843 10.6109 6.36009 5.64624 6.0937 0.693244Z" fill="var(--stroke-0, black)"/>
</svg>
