<svg preserveAspectRatio="none" width="100%" height="100%" overflow="visible" style="display: block;" viewBox="0 0 120.15 67.91" fill="none" xmlns="http://www.w3.org/2000/svg">
<g id="face" clip-path="url(#clip0_2251_1690)">
<path id="Vector" d="M0.5 67.85C0.85 65.09 1.64 60.64 4.06 58.86C6.48 57.08 8.75 59.47 11.16 60.54C12.28 61.04 13.5 61.21 14.57 61.82C14.78 62.37 15.11 62.84 15.56 63.23C16.15 63.36 16.75 63.49 17.34 63.62C19.61 64.21 22.34 65.16 24.36 63.42C26.03 61.99 26.74 59.25 28.92 58.22C30.83 57.32 35.86 56.39 37.92 57.14C38.7 57.42 38.99 57.87 39.57 58.44C41.38 60.23 41.47 61.07 44.04 61.88C46.97 62.8 51.51 63.31 54.27 61.66C55.43 60.97 55.87 59.87 57.09 59.15C58.21 58.49 60.72 57.6 61.88 57.16C64.78 56.06 68.93 55.49 72.02 55.44C73.6 55.41 74.62 55.71 76.03 56.47C77.34 57.18 78.41 58.13 79.61 58.98C81.53 60.33 82.55 60.39 84.76 60.95C87.8 61.73 87.69 61.78 89.79 59.41C94.36 54.27 102.55 52.16 107.69 57.87C109.48 59.86 113 63.67 116.13 62.59C118.02 61.94 119.95 58.21 119.6 56.29" stroke="var(--stroke-0, black)" stroke-miterlimit="10"/>
<path id="Vector_2" d="M25.38 0.29C23.17 3.33 20.73 6.13 18.24 8.94C14.68 12.97 11.44 17.29 7.8 21.25C6.88 22.25 3.7 24.54 4.04 26.07" stroke="var(--stroke-0, black)" stroke-miterlimit="10"/>
<path id="Vector_3" d="M4.94 10.96C5.86 11.05 5.72 11.59 6.23 12.21C7.93 14.31 8.84 15.82 11.06 17.83C14.73 21.14 19.1 23.66 22.72 26.96" stroke="var(--stroke-0, black)" stroke-miterlimit="10"/>
<path id="Vector_4" d="M100.94 1.18C100.55 4.87 95.36 8.03 92.89 10.05C89.7 12.67 86.43 15.16 83.3 17.87C82.31 18.73 80.88 19.57 80.49 20.74" stroke="var(--stroke-0, black)" stroke-miterlimit="10"/>
<path id="Vector_5" d="M81.38 4.74C82.49 5.01 82.49 5.59 83.18 6.67C85.22 9.87 87.33 13.39 89.99 16.12C91.28 17.44 94.77 19.56 94.72 21.62" stroke="var(--stroke-0, black)" stroke-miterlimit="10"/>
</g>
<defs>
<clipPath id="clip0_2251_1690">
<rect width="120.15" height="67.91" fill="white"/>
</clipPath>
</defs>
</svg>
