<svg preserveAspectRatio="none" width="100%" height="100%" overflow="visible" style="display: block;" viewBox="0 0 2.26581 22.9658" fill="none" xmlns="http://www.w3.org/2000/svg">
<path id="Vector 77" d="M2.26094 0.796416C2.283 0.608536 2.22951 0.41959 2.11225 0.271146C1.99499 0.122701 1.82357 0.0269171 1.63569 0.00486535C1.44781 -0.0171863 1.25886 0.0363004 1.11042 0.153559C0.96197 0.270818 0.866187 0.442244 0.844135 0.630124C0.844135 0.630124 0.844135 0.630124 0.844135 0.630124C0.801779 0.99099 0.75938 1.35225 0.717549 1.71396C0.407444 4.35194 0.158222 7.01931 0.0589102 9.69071C0.0589068 9.69079 0.0589033 9.69088 0.0588999 9.69097C-0.0863857 13.6101 0.0564209 17.5113 0.276925 21.3993C0.297962 21.7631 0.319866 22.125 0.342692 22.4895C0.350878 22.6195 0.407591 22.7428 0.50343 22.8321C0.599239 22.9213 0.725818 22.9694 0.855902 22.9656C0.985986 22.9618 1.10955 22.9065 1.2 22.8118C1.29047 22.717 1.33991 22.5907 1.34051 22.4604C1.34051 22.4604 1.34051 22.4604 1.34051 22.4604C1.34209 22.0958 1.34355 21.7339 1.34483 21.3703C1.36306 17.4847 1.34121 13.5998 1.48436 9.74629C1.48437 9.7462 1.48437 9.74612 1.48437 9.74603C1.58227 7.11764 1.82603 4.50415 2.13464 1.87784C2.17629 1.51772 2.21859 1.15728 2.26094 0.796416Z" fill="var(--stroke-0, black)"/>
</svg>
