<svg preserveAspectRatio="none" width="100%" height="100%" overflow="visible" style="display: block;" viewBox="0 0 35.4854 32.9343" fill="none" xmlns="http://www.w3.org/2000/svg">
<path id="Vector 50" d="M12.92 15.0014C13.6452 12.6293 15.7635 5.32261 18.0024 0.712503C18.3622 -0.0284886 19.747 1.31716 20.3269 2.45788C21.5144 4.79384 21.2347 7.91979 21.8403 10.4058C22.9333 14.8925 30.3893 10.8512 32.8807 10.9652C34.079 11.02 35.0165 11.9705 34.9846 12.6679C34.7973 16.7612 27.9108 15.9736 26.7422 17.7623C24.2444 21.5852 32.0243 24.1266 32.1854 26.1189C32.2596 27.0365 30.716 27.5398 29.5534 27.4582C24.3375 27.0921 21.5954 22.7187 19.5603 23.0678C15.0549 23.8408 16.6097 31.01 14.587 32.2721C13.6866 32.8339 12.4804 31.8276 12.0302 30.8207C10.0644 26.424 14.0194 22.4707 13.7844 20.1723C13.1709 14.1722 2.24137 17.7044 0.788084 15.8845C0.119632 15.0474 0.721477 13.7354 1.49267 13.0192C3.47506 12.056 5.93418 12.0439 8.37494 12.4917C9.6045 12.6972 10.8157 12.8587 14.0211 13.5145" stroke="var(--stroke-0, black)" stroke-linecap="round"/>
</svg>
