<svg preserveAspectRatio="none" width="100%" height="100%" overflow="visible" style="display: block;" viewBox="0 0 276.219 221.743" fill="none" xmlns="http://www.w3.org/2000/svg">
<g id="eye">
<path id="Vector" d="M116.327 73.5449C121.726 73.5449 127.934 73.9151 133.34 74.2744H133.341C134.696 74.36 135.954 74.5222 137.239 74.6748C138.36 74.8078 139.497 74.9327 140.713 74.9873L141.238 75.0068C142.003 75.0283 142.694 75.3245 143.444 75.7011C144.165 76.063 144.977 76.5218 145.863 76.706V76.705C146.246 76.7871 146.689 76.7744 147.078 76.7685C147.492 76.7623 147.897 76.7617 148.302 76.833C148.646 76.8933 150.061 77.1875 151.498 77.4834C152.913 77.7749 154.366 78.0715 154.739 78.124V78.123C156.957 78.451 158.119 78.8483 159.262 79.3349C160.42 79.8276 161.621 80.4419 163.831 81.1631V81.164C170.759 83.4331 177.65 86.7049 182.858 91.8545L183.356 92.3584C187.497 96.6523 191.16 102.09 193.51 107.569C197.895 117.787 201.223 128.415 202.995 139.387L203.161 140.45C203.931 145.586 204.777 151.389 203.722 156.438C203.326 158.328 203.145 160.195 202.97 162.035C202.817 163.652 202.67 165.247 202.39 166.854L202.262 167.544C200.682 175.526 198.361 180.695 195.729 188.055L195.199 189.558C194.039 192.891 191.46 196.979 188.309 200.606C185.156 204.237 181.484 207.344 178.175 208.77H178.174C169.688 212.435 161.576 216.325 152.61 218.542C143.369 220.825 131.325 222.139 122.242 220.533C119.402 220.033 116.641 219.826 113.937 219.578C111.224 219.33 108.559 219.04 105.858 218.381C99.8876 216.917 93.0549 215.311 86.9763 213.397V213.396L85.1638 212.82C81.0674 211.498 77.8665 210.299 74.8532 208.55C71.4161 206.555 68.1985 203.83 64.1892 199.349C61.8137 196.694 59.2598 193.865 57.0417 190.931C54.8225 187.995 52.9625 184.983 51.9597 181.975C49.2193 173.754 47.2442 162.786 47.8718 151.952L47.9401 150.904C49.27 132.701 55.2796 114.501 65.5192 99.3398H65.5202C68.7263 94.5906 71.6722 92.3431 76.3474 88.4433C77.6046 87.3971 78.7785 86.1707 80.0124 85.0107C81.2616 83.8363 82.6156 82.6853 84.3063 81.7031L84.3054 81.7021C85.396 81.0743 86.3722 80.4251 87.2878 79.8281C88.0985 79.2995 88.8616 78.8132 89.6374 78.4013L89.6589 78.4228L89.9811 78.2617C93.2016 76.6548 95.4018 75.7706 97.1364 75.5898L97.4772 75.5634C100.779 75.3946 103.885 74.8853 106.955 74.4238C110.033 73.9611 113.084 73.5449 116.327 73.5449Z" stroke="var(--stroke-0, black)"/>
<g id="lash">
<path id="Vector_2" d="M23.5067 88.6668C26.1332 88.2802 29.2097 86.7292 31.9284 85.9733C34.9703 85.1286 38.0392 84.8563 41.056 84.0458C43.2874 83.4374 44.9943 81.9593 47.1409 81.1727C52.4931 79.2037 58.6244 78.6966 64.1592 77.6829C69.3459 76.7346 74.467 75.4959 79.7725 75.4823C85.7236 75.464 91.5111 74.7727 97.4412 74.26C108.36 73.3329 118.819 73.9724 129.714 74.7544C139.202 75.4392 148.559 76.4383 157.902 78.2437C164.926 79.6029 170.41 82.4783 176.803 85.433C183.723 88.6319 191.006 90.8344 197.898 94.1439C205.215 97.6613 211.993 102.077 218.966 106.2C221.982 107.978 223.724 109.547 226.048 112.16C229.652 116.224 233.715 118.913 237.782 122.47C240.785 125.102 243.531 127.893 246.177 130.869C247.122 131.926 248.07 133.186 249.318 133.823" stroke="var(--stroke-0, black)" stroke-miterlimit="10"/>
<path id="Vector_3" d="M11.7622 22.4943C10.8208 28.2614 10.0547 34.8576 12.4679 40.2572C15.9768 48.0777 18.9682 54.2021 25.6357 59.9371C30.8774 64.4457 34.3375 70.0827 40.5694 73.3079C43.2124 74.6758 45.787 76.3302 48.6096 77.3246C50.5697 78.0171 53.4548 77.694 54.5251 79.87" stroke="var(--stroke-0, black)" stroke-miterlimit="10"/>
<path id="Vector_4" d="M81.0423 15.1328C81.2634 17.1534 79.7619 17.0979 79.1077 18.5545C78.2975 20.3596 78.1244 23.6119 77.8749 25.571C76.7984 34.1446 78.3318 44.167 81.2996 52.2797C83.6918 58.8114 86.2444 63.4553 91.232 68.2668C92.8169 69.7996 96.9451 73.6744 99.2574 73.436" stroke="var(--stroke-0, black)" stroke-miterlimit="10"/>
<path id="Vector_5" d="M191.342 30.1515L192.348 30.5166C192.452 32.1514 191.988 33.2845 191.728 34.9722C190.987 39.7922 191.716 44.6332 190.416 49.4053C188.711 55.6959 185.537 61.5133 181.939 66.8919C178.766 71.641 173.673 74.7325 168.08 76.2559C165.314 77.0037 160.342 78.4411 157.433 78.2307" stroke="var(--stroke-0, black)" stroke-miterlimit="10"/>
<path id="Vector_6" d="M204.152 97.8542C206.777 97.8714 209.467 100.701 211.895 101.531C216.393 103.083 221.332 103.353 226.005 104.164C235.242 105.749 245.58 106.358 254.661 103.412C257.911 102.363 260.098 100.948 262.312 98.2572C264.219 95.9474 268.726 91.6679 268.653 88.3926" stroke="var(--stroke-0, black)" stroke-miterlimit="10"/>
</g>
<g id="energy">
<path id="Vector 45" d="M61.4758 131.62C63.561 130.5 64.2984 130.749 64.7714 130.966C67.0794 132.025 66.7263 135.264 66.6443 136.017C66.5296 137.069 63.9605 137.275 62.771 136.851C61.5816 136.428 60.5365 135.583 60.2923 134.563C60.0482 133.543 60.4446 132.174 61.4758 131.62Z" stroke="var(--stroke-0, black)" stroke-linecap="round"/>
<path id="Vector 46" d="M64.7753 147.604C64.6117 147.587 62.8636 147.444 60.6824 148.718C56.3715 151.235 57.9757 155.401 58.8404 157.584C59.2721 158.673 61.1263 159.977 62.2644 160.477C63.4024 160.977 64.7672 161.124 66.0277 160.929C67.2882 160.735 68.4031 160.194 69.2804 159.372C71.0442 157.719 71.4392 155.111 71.121 152.703C70.7511 151.527 69.9581 150.447 68.9992 149.624C68.0404 148.801 66.9395 148.267 65.3095 147.663" stroke="var(--stroke-0, black)" stroke-linecap="round"/>
<path id="Vector 47" d="M67.0489 169.385C66.3375 170.609 65.0477 173.912 65.5982 176.347C65.8653 177.529 66.8434 178.371 67.8686 178.776C68.8939 179.181 70.1249 179.066 70.9863 178.412C71.8478 177.757 73.1528 176.72 73.2447 175.513C73.3367 174.306 73.1313 172.71 72.4388 171.79C71.7464 170.87 70.2887 169.511 67.8445 169.471" stroke="var(--stroke-0, black)" stroke-linecap="round"/>
<path id="Vector 48" d="M75.1281 186.026C75.0581 186.668 74.882 188.283 74.9786 190.75C75.0258 191.955 75.8326 192.975 76.7617 193.495C77.6907 194.016 78.9126 193.984 79.8899 193.384C80.8672 192.784 81.5629 191.618 81.6928 190.455C81.8227 189.293 81.3658 188.168 80.5346 187.358C79.7035 186.548 78.5119 186.087 76.1865 186.477" stroke="var(--stroke-0, black)" stroke-linecap="round"/>
<path id="Vector 50" d="M112.358 192.547C113.336 190.267 116.233 183.233 118.959 178.893C119.397 178.195 120.628 179.683 121.08 180.88C122.008 183.33 121.391 186.408 121.724 188.945C122.324 193.523 130.174 190.314 132.638 190.697C133.824 190.882 134.653 191.928 134.545 192.618C133.916 196.667 127.155 195.137 125.799 196.789C122.902 200.319 130.361 203.688 130.305 205.686C130.279 206.606 128.69 206.94 127.543 206.732C122.398 205.803 120.146 201.158 118.085 201.285C113.522 201.565 114.291 208.861 112.143 209.896C111.188 210.357 110.097 209.226 109.759 208.176C108.281 203.592 112.641 200.091 112.657 197.781C112.697 191.749 101.449 194.076 100.202 192.11C99.6279 191.205 100.368 189.966 101.213 189.338C103.288 188.595 105.734 188.849 108.112 189.559C109.312 189.897 110.498 190.188 113.614 191.188" stroke="var(--stroke-0, black)" stroke-linecap="round"/>
<path id="Vector 53" d="M81.3827 107.867C80.7009 108.077 78.1462 109.512 76.1851 111.885C75.264 112.999 75.0376 114.397 75.228 115.626C75.3234 116.241 75.9227 116.706 76.4634 117.036C78.563 118.316 81.9431 116.369 84.7476 115.244C86.1296 114.69 87.7364 114.947 89.1072 115.41C90.4043 115.848 90.8263 117.367 90.9679 118.615C91.1071 119.84 90.2824 120.921 89.2622 121.754C86.89 123.691 82.8721 122.823 80.1414 123.376C77.2144 123.968 77.4137 132.194 78.2943 138.27C78.5323 139.912 80.0377 140.804 81.7897 141.584C87.3401 144.056 94.8339 143.379 98.0681 142.533C99.7358 142.096 100.861 140.961 101.713 139.891C102.735 138.608 102.924 136.571 102.976 134.608C103.026 132.766 102.006 131.359 100.918 130.259C98.1459 127.459 93.8538 127.542 90.4805 127.794C89.061 127.9 88.1068 129.317 87.3842 130.872C87.0326 131.629 86.9477 132.418 87.0819 133.127C87.3513 134.55 88.6449 135.48 89.885 136.009C90.5416 136.173 91.2536 136.125 91.7146 135.795C92.1756 135.465 92.3641 134.854 92.0193 133.415" stroke="var(--stroke-0, black)" stroke-linecap="round"/>
<path id="Vector 51" d="M172.676 173.371C171.141 173.112 167.713 173.38 164.782 174.953C162.765 176.035 161.691 177.804 161.203 179.032C160.719 180.253 161.406 181.59 162.199 182.597C165.939 187.341 177.969 184.639 180.778 182.964C181.929 182.277 182.352 180.956 182.484 179.729C181.32 177.337 178.949 175.297 176.58 173.757C175.983 173.501 175.342 173.349 173.94 173.111" stroke="var(--stroke-0, black)" stroke-linecap="round"/>
<path id="Vector 52" d="M184.841 171.246C183.606 170.944 179.451 170.765 176.047 172.328C175.295 172.673 175.092 173.377 174.959 173.98C174.827 174.584 174.877 175.239 175.156 175.756C176.695 178.61 184.216 178.434 188.186 177.997C189.106 177.895 189.971 177.036 190.551 176.389C191.13 175.741 191.326 175.061 191.155 174.373C190.441 173.008 189.122 171.981 187.516 171.431C186.671 171.211 185.762 171.112 184.826 171.01" stroke="var(--stroke-0, black)" stroke-linecap="round"/>
<path id="Vector 54" d="M125.477 143.545C125.673 143.236 126.398 142.937 127.641 142.799C128.255 142.731 128.853 142.945 129.306 143.341C131.223 145.013 130.159 149.137 129.41 152.186C129.099 153.453 129.435 154.899 130.254 156.197C130.643 156.813 131.411 157.005 132.067 157.119C132.723 157.233 133.355 157.177 133.905 156.947C136.424 155.893 137.06 151.774 139.332 150.239C139.935 149.832 140.795 150.013 141.411 150.211C143.726 150.953 144.03 154.632 145.339 157.18C146.038 158.54 148.18 158.384 149.523 158.394C150.751 158.403 151.516 156.96 152.184 155.721C153.859 152.615 152.133 148.59 152.375 144.924C152.475 143.411 154.163 142.795 155.324 142.462C155.917 142.291 156.579 142.387 157.166 142.673C157.754 142.96 158.264 143.503 158.573 144.092C158.883 144.682 158.978 145.301 159.076 145.939" stroke="var(--stroke-0, black)" stroke-linecap="round"/>
<path id="Vector 55" d="M133.071 138.246C133.711 138.722 135.257 141.096 135.767 143.973C136.351 147.258 135.724 151.165 135.135 156.942C134.941 158.842 134.429 160.344 134.36 161.892C134.328 162.605 134.688 163.159 135.121 163.519C135.554 163.879 136.147 164.025 136.662 163.669C139.471 161.729 138.203 157.33 138.296 154.702C138.346 153.307 139.734 152.39 140.726 151.726C141.225 151.392 141.888 151.37 142.429 151.526C144.689 152.18 144.81 155.885 144.991 158.755C145.086 160.261 145.241 161.879 146.014 163.299C146.368 163.949 146.984 164.237 147.431 164.123C150.5 163.338 148.995 156.787 148.715 154.176C148.405 150.283 149.288 145.886 150.898 142.967C151.359 142.325 151.854 141.882 153.269 141.023" stroke="var(--stroke-0, black)" stroke-linecap="round"/>
<path id="Vector 56" d="M138.653 139.671C139.346 140.575 140.785 143.551 140.453 146.04C140.286 147.291 139.868 148.502 139.928 149.818C139.991 151.192 140.867 152.468 141.827 153.413C142.279 153.857 143.014 153.772 143.59 153.606C144.166 153.44 144.652 153.079 145.016 152.597C146.787 150.249 146.676 146.236 148.319 144.188C148.889 143.738 149.603 143.302 150.247 142.962C150.891 142.623 151.444 142.393 152.879 142.126" stroke="var(--stroke-0, black)" stroke-linecap="round"/>
<path id="Vector 60" d="M148.772 179.622C148.635 179.501 148.232 178.925 147.747 177.836C147.257 176.733 147.942 175.429 148.668 174.425C149.038 173.913 149.742 173.68 150.489 173.572C151.235 173.464 152.087 173.561 152.755 174.005C154.148 174.93 154.416 176.943 154.381 178.596C154.365 179.363 154.045 179.961 153.65 180.41C152.87 181.297 151.552 181.426 150.238 181.354C148.739 181.272 147.453 180.6 146.454 179.866C145.43 179.114 144.821 177.943 144.607 176.601C144.403 175.32 144.951 174.017 145.613 172.888C146.907 170.68 150.732 171.156 153.733 171.588C155.713 171.873 157.026 173.088 157.579 174.259C158.849 176.947 157.166 182.042 154.695 185.711C152.934 188.325 149.622 188.969 148.393 190.362C145.849 193.25 145.558 198.497 145.569 201.475C145.571 202.154 145.99 202.745 146.547 203.254C147.779 204.382 149.832 204.636 151.68 204.767C153.175 204.874 154.366 204.499 155.322 203.664C157.498 201.766 157.458 197.591 156.71 194.829C156.365 193.551 154.774 193.146 153.522 192.962C152.322 192.785 151.157 193.705 150.204 194.716C149.569 195.81 149.658 197.877 150.414 200.34C150.84 201.318 151.354 201.746 152.995 201.318" stroke="var(--stroke-0, black)" stroke-linecap="round"/>
<path id="Vector 61" d="M93.2009 167.976C93.1048 168.075 93.0521 168.209 93.0545 168.347C93.0569 168.485 93.1141 168.617 93.2136 168.713C93.313 168.809 93.4465 168.862 93.5848 168.859C93.7231 168.857 93.8547 168.8 93.9508 168.7C93.9508 168.7 93.9508 168.7 93.9508 168.7C94.3952 168.24 94.8282 167.775 95.253 167.296C96.4894 165.899 97.6498 164.4 98.5484 162.723C98.61 162.608 98.6708 162.492 98.7296 162.376C100.199 159.464 101.4 156.45 102.416 153.353C102.509 153.066 102.599 152.775 102.682 152.483C102.702 152.41 102.721 152.349 102.736 152.3C102.754 152.244 102.778 152.182 102.781 152.176C102.78 152.178 102.776 152.19 102.746 152.228C102.741 152.211 102.708 152.368 102.381 152.395C102.221 152.398 102.08 152.303 102.026 152.238C101.993 152.201 101.978 152.176 101.965 152.153C101.892 151.986 101.932 152.052 101.924 152.054C101.928 152.096 101.929 152.147 101.929 152.213C101.927 152.46 101.91 152.738 101.893 153.005C101.858 153.55 101.816 154.092 101.774 154.636C101.69 155.727 101.607 156.823 101.542 157.921C101.429 160.12 101.277 162.315 101.595 164.588L101.612 164.657C101.644 164.759 101.676 164.859 101.709 164.96C102.064 166.038 102.522 167.117 103.163 168.087L103.174 168.103C103.201 168.14 103.227 168.178 103.254 168.214C103.392 168.405 103.535 168.585 103.682 168.761C104.087 169.246 104.519 169.701 104.983 170.143C105.035 170.192 105.101 170.228 105.174 170.237C105.247 170.246 105.319 170.228 105.377 170.187C105.434 170.145 105.473 170.082 105.487 170.01C105.501 169.938 105.487 169.864 105.456 169.799C105.456 169.799 105.456 169.799 105.456 169.799C105.179 169.218 104.857 168.664 104.501 168.143C104.373 167.954 104.242 167.771 104.112 167.593C104.087 167.558 104.062 167.524 104.038 167.489L104.049 167.505C103.465 166.626 103.019 165.661 102.679 164.638C102.647 164.543 102.616 164.447 102.586 164.351L102.602 164.42C102.306 162.366 102.435 160.144 102.545 157.98C102.608 156.892 102.688 155.802 102.77 154.712C102.811 154.167 102.853 153.625 102.888 153.068C102.905 152.792 102.922 152.514 102.925 152.217C102.924 152.132 102.925 152.076 102.916 151.962C102.903 151.908 102.934 151.885 102.834 151.668C102.818 151.639 102.8 151.61 102.763 151.569C102.702 151.496 102.553 151.397 102.386 151.4C102.044 151.423 101.983 151.61 101.976 151.597C101.931 151.653 101.911 151.692 101.892 151.729C101.793 151.946 101.774 152.046 101.724 152.212C101.646 152.487 101.559 152.77 101.469 153.049C100.474 156.082 99.2402 159.059 97.8006 161.903C97.745 162.012 97.6876 162.122 97.6296 162.23C96.7856 163.806 95.677 165.244 94.4726 166.605C94.0592 167.071 93.6362 167.525 93.2009 167.976Z" fill="var(--stroke-0, black)"/>
<path id="Vector 62" d="M94.3917 164.357C94.5217 164.348 94.643 164.288 94.7288 164.19C94.8146 164.092 94.858 163.964 94.8493 163.834C94.8407 163.704 94.7807 163.583 94.6826 163.497C94.5845 163.411 94.4563 163.368 94.3263 163.376C94.3263 163.376 94.3263 163.376 94.3263 163.376C93.4613 163.434 92.5976 163.527 91.737 163.669C89.9271 163.969 88.1165 164.473 86.4702 165.389C86.4675 165.391 86.4648 165.392 86.462 165.394C85.6792 165.817 85.1275 166.583 84.8235 167.323C84.8225 167.325 84.8216 167.328 84.8206 167.33C84.4246 168.388 84.736 169.289 84.9258 170.1C84.9259 170.1 84.9259 170.101 84.926 170.101C85.2477 171.214 86.1035 171.82 86.8188 172.35C86.8193 172.35 86.8198 172.35 86.8203 172.351C88.5236 173.477 90.3473 173.497 92.0635 173.791C92.0651 173.791 92.0667 173.791 92.0682 173.791C96.4729 174.373 100.849 174.822 105.358 174.784C105.364 174.784 105.371 174.784 105.377 174.783C107.37 174.676 109.536 174.266 111.171 172.801C111.178 172.796 111.184 172.79 111.19 172.784C111.84 172.186 112.062 171.369 112.224 170.703C112.226 170.698 112.227 170.692 112.228 170.686C112.414 169.92 112.236 169.178 111.991 168.554C111.989 168.548 111.986 168.542 111.984 168.536C111.158 166.736 109.475 165.982 107.938 165.371L107.894 165.357C107.893 165.357 107.892 165.357 107.891 165.356C107.852 165.346 107.813 165.335 107.774 165.324C107.369 165.215 106.97 165.107 106.562 165.028C106.561 165.028 106.56 165.028 106.56 165.028C106.104 164.94 105.679 164.878 105.263 164.787C105.119 164.756 104.968 164.781 104.843 164.859C104.718 164.937 104.628 165.06 104.594 165.203C104.56 165.346 104.583 165.497 104.66 165.623C104.737 165.749 104.86 165.839 105.002 165.877C105.002 165.877 105.002 165.877 105.002 165.877C105.456 165.999 105.918 166.078 106.342 166.159C106.342 166.16 106.343 166.16 106.343 166.16C106.728 166.234 107.119 166.301 107.498 166.393C107.534 166.402 107.571 166.411 107.607 166.42C107.608 166.42 107.609 166.421 107.61 166.421L107.566 166.407C108.975 166.916 110.481 167.721 111.009 168.929C111.011 168.934 111.013 168.939 111.015 168.944C111.226 169.461 111.333 169.992 111.221 170.44C111.219 170.445 111.218 170.451 111.217 170.456C111.063 171.109 110.868 171.678 110.489 172.019C110.483 172.024 110.478 172.028 110.473 172.033C109.15 173.23 107.199 173.581 105.324 173.672C105.319 173.672 105.314 173.673 105.308 173.673C100.987 173.707 96.5652 173.262 92.2195 172.685C92.218 172.684 92.2164 172.684 92.2149 172.684C90.5252 172.416 88.681 172.315 87.4424 171.469C87.442 171.469 87.4416 171.468 87.4412 171.468C86.7565 170.99 86.1053 170.445 85.9434 169.829C85.9433 169.829 85.9433 169.828 85.9432 169.828C85.7345 169.064 85.5635 168.251 85.7789 167.733C85.7797 167.731 85.7805 167.729 85.7813 167.727C86.0407 167.089 86.3957 166.552 86.942 166.251C86.9445 166.25 86.947 166.248 86.9495 166.247C88.4547 165.409 90.1625 164.925 91.8965 164.638C92.7209 164.503 93.5537 164.413 94.3917 164.357Z" fill="var(--stroke-0, black)"/>
</g>
</g>
</svg>
