<svg preserveAspectRatio="none" width="100%" height="100%" overflow="visible" style="display: block;" viewBox="0 0 162.665 107.21" fill="none" xmlns="http://www.w3.org/2000/svg">
<g id="book">
<path id="Vector 66" d="M63.1584 10.9917C63.1452 10.7896 63.0523 10.601 62.9001 10.4674C62.7479 10.3339 62.5489 10.2662 62.3468 10.2793C62.1447 10.2925 61.9561 10.3854 61.8225 10.5376C61.6889 10.6898 61.6213 10.8888 61.6344 11.0909C61.6344 11.0909 61.6344 11.0909 61.6344 11.0909C61.738 12.6807 61.8413 14.2703 61.9373 15.8579C62.2092 20.3032 62.4078 24.7493 62.5149 29.2001C62.5149 29.2001 62.5149 29.2002 62.5149 29.2002C62.7215 38.9173 62.668 48.6683 62.9571 58.4158C62.9571 58.416 62.9571 58.4162 62.9571 58.4164C63.3653 72.9009 64.1489 87.3846 65.1455 101.833C65.2558 103.43 65.3679 105.009 65.4838 106.606C65.4962 106.777 65.575 106.936 65.7039 107.049C65.8329 107.163 66.0012 107.22 66.172 107.209C66.3428 107.198 66.5025 107.12 66.6159 106.991C66.7294 106.863 66.7872 106.694 66.7778 106.523C66.7778 106.523 66.7778 106.523 66.7778 106.523C66.6893 104.925 66.6033 103.346 66.5175 101.749C65.7453 87.2977 65.0746 72.8261 64.6672 58.3687C64.6672 58.3685 64.6672 58.3683 64.6672 58.3681C64.3786 48.6363 64.2489 38.9159 64.0417 29.1628C64.0416 29.1627 64.0416 29.1627 64.0416 29.1627C63.9341 24.6941 63.7344 20.2238 63.4617 15.7657C63.3654 14.1736 63.2619 12.5815 63.1584 10.9917Z" fill="var(--stroke-0, black)"/>
<path id="Vector 67" d="M62.0676 11.5365C62.2454 11.5657 62.4275 11.5231 62.5739 11.4181C62.7202 11.313 62.8189 11.1541 62.8481 10.9763C62.8773 10.7986 62.8347 10.6164 62.7297 10.4701C62.6246 10.3237 62.4657 10.225 62.2879 10.1958C62.2879 10.1958 62.2879 10.1958 62.2879 10.1958C58.8315 9.62784 55.3699 9.09412 51.902 8.60551C38.3413 6.8018 24.6099 5.07123 10.8272 6.62523C9.37361 6.81787 7.92606 7.06002 6.48938 7.39653C5.67037 7.58948 4.83739 7.76515 3.99058 7.99515C2.651 8.37974 0.913351 8.8931 0.0978891 10.5634C-0.846817 41.099 5.25828 70.2643 9.28114 99.8973C9.29451 99.9835 9.31268 100.069 9.33565 100.152C9.96903 101.912 11.5577 102.084 12.6662 102.336C13.8433 102.534 14.9966 102.57 16.1413 102.569C18.4263 102.554 20.6847 102.357 22.9178 102.131C27.3947 101.669 31.8312 101.026 36.2598 100.557L36.221 100.56C38.1981 100.451 40.1716 100.425 42.1445 100.5C45.6366 100.633 49.1133 101.086 52.4859 101.95L52.4374 101.936C53.4895 102.288 54.5778 102.689 55.649 103.082C56.7927 103.503 57.9326 103.93 59.0715 104.364C61.1834 105.176 63.3557 105.99 65.3525 106.888C65.5335 106.974 65.7412 106.985 65.9301 106.918C66.1191 106.851 66.2736 106.711 66.3598 106.531C66.446 106.35 66.4569 106.142 66.3899 105.953C66.323 105.764 66.1839 105.61 66.003 105.523C66.003 105.523 66.003 105.523 66.003 105.523C63.8609 104.558 61.7484 103.772 59.613 102.945C58.47 102.508 57.3273 102.076 56.1789 101.649C55.0981 101.25 54.0278 100.85 52.9179 100.475L52.8694 100.461C49.3824 99.554 45.7911 99.075 42.2041 98.9393C40.1772 98.862 38.1552 98.8901 36.1343 99.0039L36.0956 99.007C31.6247 99.4873 27.1924 100.14 22.7596 100.609C20.5518 100.838 18.3243 101.035 16.1335 101.054C15.04 101.059 13.9454 101.021 12.9223 100.849C11.9093 100.694 10.8715 100.265 10.785 99.7535C10.7774 99.726 10.7711 99.6971 10.7663 99.6663C6.66594 70.2944 0.733891 40.1692 1.36457 11.1692C1.80006 10.196 3.06121 9.69757 4.36002 9.34468C5.15109 9.12849 5.97809 8.94728 6.8112 8.74413C8.18672 8.41 9.5884 8.15988 11.0053 7.97216C24.4855 6.44577 38.2127 8.14949 51.7125 9.95089C55.1686 10.4378 58.6201 10.97 62.0676 11.5365Z" fill="var(--stroke-0, black)"/>
<path id="Vector 68" d="M62.3882 10.5679C62.2193 10.6447 62.0877 10.7854 62.0225 10.9592C61.9573 11.1329 61.9638 11.3255 62.0405 11.4945C62.1173 11.6634 62.258 11.795 62.4318 11.8602C62.6056 11.9254 62.7981 11.9189 62.9671 11.8422C62.9671 11.8422 62.9671 11.8422 62.9671 11.8422C66.3427 10.3091 69.7604 8.93944 73.2623 7.72748C85.6484 3.4054 98.7748 1.40389 111.895 1.40166C112.659 1.39786 113.42 1.39933 114.172 1.40496C116.357 1.42981 118.57 1.54769 120.655 1.98656C121.849 2.23407 123.31 2.76416 123.511 3.42111C129.923 31.7531 125.357 61.5327 125.403 90.705C125.367 93.6918 125.524 96.8127 125.154 99.579C125.091 99.9598 124.949 100.354 124.856 100.435C124.813 100.474 124.835 100.465 124.756 100.479C124.68 100.489 124.527 100.476 124.355 100.434C122.617 100.027 120.841 99.6724 119.081 99.3659C108.364 97.6687 97.4164 96.3101 86.4957 98.4131C86.1924 98.4827 85.8794 98.5543 85.5727 98.6246C82.3374 99.369 79.1009 100.102 75.8709 100.987C74.878 101.266 73.8858 101.545 72.8718 101.941C71.9759 102.309 71.2266 102.772 70.48 103.235C68.9337 104.175 67.3371 105.605 66.1777 106.235C66.0605 106.25 65.9482 106.301 65.8654 106.388C65.7826 106.475 65.7361 106.588 65.7361 106.705C65.7361 106.823 65.7826 106.936 65.8654 107.023C65.9482 107.109 66.0605 107.161 66.1777 107.176C68.5272 106.714 69.7505 105.552 71.3569 104.632C72.0654 104.189 72.7942 103.751 73.4835 103.47C74.3581 103.127 75.3476 102.841 76.3112 102.569C79.4774 101.695 82.707 100.953 85.9362 100.21C86.2428 100.139 86.5558 100.068 86.8596 99.9977C97.2556 97.9765 108.243 99.276 118.804 100.96C120.541 101.262 122.296 101.593 124 101.976C124.27 102.035 124.57 102.087 124.943 102.045C125.312 102.012 125.765 101.793 126.021 101.492C126.525 100.887 126.591 100.345 126.696 99.8594C127.111 96.6616 126.916 93.7331 126.953 90.705C126.826 61.5903 131.408 32.0113 124.844 2.98897C123.912 1.0719 122.259 1.00497 120.952 0.618919C118.687 0.144762 116.433 0.0331503 114.183 0.0054884C113.426 -0.000209153 112.658 -0.00171059 111.888 0.0021196C98.6503 0.0030576 85.3375 2.02983 72.8047 6.40486C69.2604 7.63148 65.8023 9.01734 62.3882 10.5679Z" fill="var(--stroke-0, black)"/>
<path id="Vector 69" d="M150.604 16.2181C150.538 16.3951 150.546 16.5909 150.625 16.7624C150.704 16.9339 150.847 17.0671 151.024 17.1326C151.201 17.1981 151.397 17.1907 151.569 17.1118C151.74 17.033 151.873 16.8893 151.939 16.7123C151.939 16.7123 151.939 16.7123 151.939 16.7123C152.137 16.1705 152.283 15.6424 152.422 15.1156C153.157 12.2231 153.665 9.33119 154.169 6.43242C154.17 6.43004 154.17 6.42766 154.171 6.42527C154.474 4.77432 154.739 2.93753 155.404 1.69038C155.405 1.68853 155.406 1.6867 155.407 1.68488L154.746 2.0093C154.543 1.9746 154.552 1.92862 154.561 1.94699C154.576 1.95942 154.612 1.99859 154.648 2.0451C154.722 2.1385 154.804 2.26476 154.882 2.39332C155.039 2.65362 155.193 2.94307 155.34 3.23127C155.636 3.8137 155.919 4.4175 156.192 5.02457C156.194 5.02771 156.195 5.03086 156.197 5.034C157.653 8.28958 158.993 11.6114 160.272 14.9513C160.462 15.4478 160.65 15.9453 160.837 16.4438C160.9 16.6121 161.028 16.7484 161.191 16.8227C161.355 16.897 161.542 16.9032 161.71 16.84C161.878 16.7767 162.015 16.6492 162.089 16.4855C162.163 16.3218 162.17 16.1353 162.106 15.967C162.106 15.967 162.106 15.967 162.106 15.967C161.918 15.4661 161.727 14.9662 161.536 14.4673C160.244 11.1094 158.897 7.7766 157.424 4.48207C157.422 4.47888 157.421 4.47569 157.419 4.4725C157.142 3.85668 156.865 3.23925 156.563 2.62082C156.412 2.31332 156.255 2.00165 156.071 1.68651C155.979 1.52902 155.879 1.36749 155.751 1.19744C155.684 1.11096 155.611 1.02099 155.503 0.920353C155.389 0.827335 155.257 0.67445 154.885 0.620719L154.451 0.578933L154.224 0.94514C154.222 0.948285 154.22 0.951435 154.218 0.954591C153.258 2.77877 153.108 4.45585 152.768 6.18524C152.767 6.18761 152.767 6.18998 152.766 6.19235C152.267 9.06901 151.754 11.9643 151.045 14.7552C150.913 15.2571 150.771 15.7641 150.604 16.2181Z" fill="var(--stroke-0, black)"/>
<path id="Vector 70" d="M151.164 16.4705C151.032 16.5993 150.958 16.7749 150.956 16.9588C150.954 17.1427 151.026 17.3198 151.154 17.451C151.283 17.5822 151.459 17.6569 151.643 17.6587C151.827 17.6604 152.004 17.589 152.135 17.4601C152.135 17.4601 152.135 17.4601 152.135 17.4601C152.329 17.2693 152.523 17.0793 152.717 16.891C153.332 16.3003 153.991 15.6371 154.566 15.2652C154.612 15.2379 154.654 15.2166 154.678 15.207C154.729 15.1853 154.745 15.1952 154.703 15.1928C154.661 15.1921 154.604 15.1528 154.614 15.1608C154.632 15.1747 154.721 15.3576 154.767 15.5558C154.89 15.9956 154.859 16.375 155.09 17.1429C155.112 17.197 155.142 17.2687 155.199 17.3549C155.281 17.4755 155.385 17.6084 155.589 17.7269C155.786 17.8448 156.065 17.8805 156.257 17.8436C156.643 17.7656 156.8 17.6125 156.952 17.4974C157.234 17.2567 157.412 17.0351 157.593 16.8177C157.931 16.403 158.295 15.922 158.507 15.7745C158.508 15.7734 158.51 15.7724 158.511 15.7714C158.558 15.7434 158.535 15.7595 158.519 15.7546C158.503 15.7504 158.546 15.7559 158.617 15.8079C158.764 15.9104 158.957 16.134 159.135 16.3744C159.316 16.6182 159.495 16.8893 159.7 17.1741C159.927 17.4571 160.062 17.7675 160.637 18.1008L160.887 18.2236L161.153 18.1393C161.297 18.0931 161.405 18.0258 161.49 17.9615C161.893 17.6214 161.997 17.3609 162.139 17.0962C162.155 17.0644 162.17 17.0322 162.184 17.0003C162.265 16.8168 162.333 16.636 162.393 16.4584C162.488 16.1798 162.566 15.9091 162.639 15.6404C162.688 15.4609 162.666 15.2689 162.575 15.1059C162.485 14.943 162.334 14.8225 162.155 14.7711C161.976 14.7196 161.784 14.7411 161.621 14.8308C161.458 14.9206 161.336 15.0713 161.282 15.2492C161.282 15.2492 161.282 15.2492 161.282 15.2492C161.205 15.504 161.127 15.7543 161.043 15.9907C160.99 16.1415 160.935 16.2858 160.875 16.4202C160.865 16.4436 160.854 16.467 160.844 16.49C160.769 16.6739 160.641 16.8788 160.651 16.8574C160.658 16.8519 160.682 16.834 160.733 16.8173L161.249 16.8557C161.243 16.8712 160.995 16.6065 160.836 16.3656C160.659 16.1134 160.479 15.8318 160.272 15.5435C160.06 15.2562 159.842 14.9522 159.459 14.6594C159.266 14.518 159.005 14.3677 158.66 14.331C158.315 14.2904 157.96 14.4134 157.732 14.5651C157.724 14.5706 157.715 14.5762 157.707 14.5818C157.059 15.0716 156.824 15.4995 156.476 15.8945C156.316 16.087 156.15 16.2743 156.024 16.3772C155.97 16.4294 155.9 16.4378 156.023 16.4066C156.084 16.3923 156.224 16.408 156.306 16.4592C156.391 16.5093 156.409 16.5466 156.414 16.5511C156.441 16.5927 156.444 16.6062 156.445 16.6076C156.421 16.5553 156.366 16.2445 156.323 16.0017C156.277 15.7431 156.226 15.4688 156.141 15.1758C156.048 14.8843 155.963 14.5619 155.63 14.1952C155.466 14.0162 155.173 13.84 154.874 13.8103C154.577 13.7765 154.336 13.8473 154.147 13.9249C154.03 13.974 153.937 14.0255 153.852 14.0766C152.96 14.6656 152.401 15.2825 151.75 15.8972C151.553 16.088 151.358 16.2793 151.164 16.4705Z" fill="var(--stroke-0, black)"/>
<path id="Vector 71" d="M152.116 17.1733C152.086 16.9908 151.985 16.8276 151.835 16.7194C151.686 16.6112 151.499 16.567 151.316 16.5965C151.134 16.626 150.971 16.7267 150.863 16.8766C150.754 17.0265 150.71 17.2132 150.74 17.3957C150.74 17.3957 150.74 17.3957 150.74 17.3957C151.063 19.7275 151.063 22.2329 151.089 24.6804C151.09 24.6897 151.09 24.6991 151.09 24.7084C151.09 24.8633 151.091 25.0182 151.09 25.1727C151.092 27.3485 150.96 29.5078 150.883 31.6791C150.883 31.6974 150.882 31.7158 150.882 31.7343C150.67 37.3677 150.383 43.0215 150.18 48.672C150.178 48.7123 150.177 48.7527 150.175 48.7932C149.825 58.2997 149.51 67.8048 149.115 77.3051C149.112 77.381 149.109 77.4565 149.106 77.5315C149.029 81.4603 148.44 85.0904 148.972 89.3911C148.996 89.4931 149.024 89.5977 149.056 89.6999C149.59 91.8022 151.946 92.8254 153.639 92.9131C155.393 93.0993 157.188 92.8014 158.562 92.8723C158.597 92.8754 158.645 92.8834 158.716 92.8985C158.853 92.9108 159.098 93.0184 159.613 92.8673C159.74 92.8464 160.071 92.6077 160.135 92.4635C160.225 92.3173 160.251 92.221 160.275 92.1479C160.639 89.7937 160.558 88.0446 160.611 86.0157C160.612 85.931 160.612 85.8451 160.612 85.758C160.621 76.1167 160.506 66.5012 160.676 56.8814C160.676 56.8313 160.677 56.7813 160.678 56.7312C160.859 46.5856 161.237 36.4343 161.727 26.2973C161.727 26.2859 161.728 26.2744 161.728 26.263C161.75 25.8265 161.769 25.4005 161.787 24.971C161.876 22.3363 162.002 19.7442 161.864 17.0381C161.854 16.9148 161.8 16.7971 161.71 16.7112C161.619 16.6252 161.499 16.5779 161.376 16.5798C161.252 16.5816 161.134 16.6324 161.046 16.721C160.958 16.8096 160.908 16.9288 160.901 17.0524C160.901 17.0524 160.901 17.0524 160.901 17.0524C160.692 19.6046 160.364 22.2727 160.225 24.8921C160.2 25.3221 160.176 25.7487 160.155 26.1859C160.154 26.1974 160.154 26.2088 160.153 26.2203C159.662 36.3731 159.293 46.5355 159.112 56.704C159.111 56.7542 159.11 56.8043 159.109 56.8545C158.938 66.4915 158.924 76.1324 158.916 85.7511C158.915 85.8378 158.915 85.9233 158.915 86.0076C158.895 87.9143 159.002 90.1368 158.787 91.6775C158.787 91.6806 158.781 91.6703 158.825 91.5934C158.843 91.521 159.102 91.3351 159.146 91.3359C159.342 91.2777 159.257 91.2796 159.079 91.2275C158.988 91.2073 158.874 91.1836 158.743 91.1693C155.316 91.1233 151.514 91.7611 150.784 89.1676C150.766 89.1062 150.748 89.0405 150.732 88.9734C150.313 85.5725 150.835 81.4331 150.93 77.6095C150.933 77.5343 150.936 77.4586 150.939 77.3826C151.335 67.8668 151.645 58.3633 151.991 48.8596C151.992 48.8191 151.994 48.7787 151.995 48.7384C152.195 43.0879 152.398 37.4465 152.545 31.7825C152.545 31.7639 152.546 31.7454 152.546 31.7269C152.598 29.5424 152.519 27.3463 152.488 25.1654C152.486 25.0107 152.484 24.8558 152.483 24.7013C152.483 24.6918 152.483 24.6824 152.483 24.673C152.453 22.1878 152.468 19.7342 152.116 17.1733Z" fill="var(--stroke-0, black)"/>
<path id="Vector 72" d="M153.899 7.41817C153.712 7.4166 153.531 7.4896 153.398 7.6211C153.264 7.75261 153.188 7.93185 153.186 8.11939C153.185 8.30694 153.258 8.48742 153.389 8.62115C153.521 8.75487 153.7 8.83088 153.888 8.83245C153.888 8.83245 153.888 8.83245 153.888 8.83245C153.966 8.8331 154.044 8.83376 154.122 8.83441C154.771 8.83969 155.42 8.84517 156.073 8.84546C156.073 8.84546 156.073 8.84546 156.073 8.84546C156.583 8.8464 157.09 8.59094 157.58 8.60176C157.58 8.60176 157.58 8.60176 157.58 8.60176C157.824 8.60767 158.064 8.62209 158.311 8.6432C158.387 8.64964 158.464 8.65657 158.542 8.66359C158.663 8.67454 158.784 8.63677 158.878 8.55858C158.971 8.4804 159.03 8.3682 159.041 8.24668C159.052 8.12515 159.014 8.00426 158.936 7.91059C158.858 7.81691 158.746 7.75814 158.624 7.74719C158.624 7.74719 158.624 7.74719 158.624 7.74719C158.546 7.74017 158.468 7.73307 158.388 7.72635C158.13 7.70424 157.865 7.68821 157.603 7.68193C157.603 7.68193 157.603 7.68193 157.603 7.68193C157.081 7.67053 156.576 7.4322 156.073 7.43113C156.073 7.43113 156.073 7.43113 156.073 7.43113C155.429 7.43085 154.782 7.42541 154.134 7.42013C154.056 7.41948 153.978 7.41883 153.899 7.41817Z" fill="var(--stroke-0, black)"/>
<path id="Vector 73" d="M149.848 82.0986C149.618 82.093 149.396 82.179 149.229 82.3375C149.063 82.496 148.966 82.7142 148.961 82.944C148.955 83.1739 149.041 83.3965 149.199 83.5629C149.358 83.7294 149.576 83.8261 149.806 83.8317C149.806 83.8317 149.806 83.8317 149.806 83.8317C149.975 83.8358 150.144 83.8386 150.312 83.8402C151.974 83.855 153.617 83.7645 155.249 83.6401C155.249 83.6401 155.249 83.6401 155.249 83.6401L155.227 83.6415C156.114 83.5956 157.011 83.5907 157.933 83.5802C157.933 83.5802 157.933 83.5802 157.933 83.5802C158.365 83.5747 158.8 83.5644 159.232 83.5488C159.398 83.5429 159.564 83.5363 159.728 83.5299C159.958 83.5208 160.174 83.4211 160.33 83.2526C160.485 83.084 160.568 82.8606 160.559 82.6313C160.55 82.402 160.45 82.1857 160.281 82.03C160.113 81.8742 159.889 81.7918 159.66 81.8008C159.66 81.8008 159.66 81.8008 159.66 81.8008C159.496 81.8073 159.333 81.8137 159.17 81.8195C158.75 81.8347 158.332 81.8446 157.911 81.85C157.911 81.85 157.911 81.85 157.911 81.85C157.006 81.8604 156.076 81.8617 155.138 81.9103L155.116 81.9117C155.116 81.9117 155.116 81.9117 155.116 81.9117C153.513 82.034 151.913 82.121 150.329 82.1068C150.168 82.1052 150.008 82.1025 149.848 82.0986Z" fill="var(--stroke-0, black)"/>
<path id="Vector 74" d="M9.02303 46.0835C8.9907 45.9235 8.89616 45.783 8.76019 45.6927C8.62421 45.6024 8.45795 45.5699 8.29798 45.6022C8.13801 45.6345 7.99743 45.7291 7.90716 45.8651C7.8169 46.001 7.78435 46.1673 7.81667 46.3273C7.81667 46.3273 7.81667 46.3273 7.81667 46.3273C7.87439 46.6129 7.93213 46.8987 7.98991 47.1844C8.46148 49.5047 8.92398 51.8259 9.45732 54.1477C9.45735 54.1479 9.45738 54.148 9.45741 54.1481C9.79315 55.6317 10.2028 57.1127 10.5807 58.5468C10.5807 58.5469 10.5807 58.5469 10.5807 58.547C10.9191 59.8577 11.2167 61.1936 11.5149 62.53C11.5781 62.8143 11.6411 63.0985 11.7042 63.3832C11.741 63.5491 11.8422 63.6937 11.9856 63.785C12.1289 63.8764 12.3027 63.9071 12.4687 63.8703C12.6347 63.8335 12.7792 63.7323 12.8706 63.5889C12.962 63.4455 12.9926 63.2717 12.9558 63.1057C12.9558 63.1057 12.9558 63.1057 12.9558 63.1057C12.8927 62.8211 12.8297 62.5365 12.7663 62.2517C12.4672 60.9114 12.1685 59.5692 11.8216 58.225C11.8216 58.2249 11.8216 58.2249 11.8216 58.2248C11.4304 56.7416 10.9872 55.3314 10.6562 53.8697C10.6562 53.8696 10.6562 53.8694 10.6561 53.8693C10.1303 51.5805 9.66709 49.2578 9.19621 46.9404C9.13847 46.6549 9.08074 46.3692 9.02303 46.0835Z" fill="var(--stroke-0, black)"/>
<path id="Vector 75" d="M8.82743 45.6352C8.67623 45.6919 8.55372 45.8062 8.48684 45.9532C8.41997 46.1001 8.41421 46.2676 8.47084 46.4188C8.52746 46.57 8.64184 46.6926 8.78879 46.7594C8.93575 46.8263 9.10325 46.8321 9.25445 46.7754C9.25445 46.7754 9.25445 46.7754 9.25445 46.7754C10.0873 46.4636 10.9237 46.1632 11.7619 45.8809C14.4928 45.0221 17.5825 43.9052 20.0466 44.4836C20.1589 44.5236 20.2646 44.5742 20.3514 44.6303C20.6528 44.7285 20.5258 45.8217 20.1044 46.5396C20.024 46.693 19.9347 46.8431 19.8379 46.9885C18.594 48.8633 16.7043 50.2417 14.6354 51.3448C14.378 51.4875 14.126 51.6176 13.8363 51.8017C13.5913 51.9758 13.4068 52.0523 13.1203 52.4429C13.0681 52.5231 12.9519 52.732 12.9746 52.9871C12.9852 53.1275 13.0405 53.2684 13.1144 53.3721C13.178 53.4623 13.2469 53.5248 13.3149 53.575C13.5684 53.7467 13.7232 53.7649 13.8737 53.8035C14.4617 53.9157 14.9141 53.9029 15.4053 53.906C16.3629 53.8984 17.2971 53.8446 18.2293 53.8023C19.9915 53.7418 22.2615 53.5512 23.337 54.0312C23.4936 54.1586 23.6314 54.3151 23.7489 54.4949C24.0892 55.0159 24.2393 55.7152 24.2552 56.4082C24.2594 56.5993 24.2478 56.7913 24.2215 56.9819C24.122 57.706 23.7958 58.403 23.3117 58.9626L23.398 58.879C23.2661 58.9847 23.1312 59.0877 22.9941 59.1875C21.1877 60.5005 18.9938 61.2764 16.7518 61.7393L16.7878 61.7329C16.7219 61.7427 16.6553 61.7523 16.5891 61.7615C15.9936 61.844 15.3892 61.9029 14.7804 61.95C13.9019 62.0178 13.0144 62.0614 12.1216 62.1059C11.9471 62.1146 11.7832 62.1922 11.6659 62.3217C11.5486 62.4513 11.4876 62.622 11.4962 62.7965C11.5049 62.971 11.5825 63.135 11.712 63.2522C11.8415 63.3695 12.0123 63.4306 12.1868 63.4219C12.1868 63.4219 12.1868 63.4219 12.1868 63.4219C13.0797 63.3777 13.9778 63.3341 14.882 63.2646C15.5087 63.2161 16.1382 63.1552 16.7704 63.0676C16.8407 63.0578 16.9115 63.0476 16.9817 63.0372L17.0177 63.0308C19.3814 62.5407 21.7451 61.7166 23.7663 60.2455C23.9194 60.1336 24.0704 60.0176 24.2182 59.8982L24.3044 59.8146C24.9436 59.0681 25.3714 58.1365 25.4968 57.1503C25.5299 56.8906 25.5413 56.6274 25.53 56.3645C25.4878 55.503 25.2958 54.6162 24.7825 53.8189C24.6036 53.5451 24.3809 53.2883 24.1166 53.0735C21.7551 52.0264 20.0936 52.5942 18.1717 52.5697C17.2374 52.6124 16.3047 52.6653 15.3986 52.6724C14.9492 52.6735 14.4811 52.6675 14.134 52.5978C14.0605 52.5861 13.9803 52.5424 14.0438 52.5799C14.0723 52.598 14.1897 52.7055 14.2038 52.8852C14.2135 53.0386 14.1587 53.1055 14.1593 53.1077C14.1536 53.1037 14.3278 52.948 14.5081 52.8361C14.7083 52.7079 14.9746 52.5662 15.2284 52.4263C17.3493 51.2948 19.4838 49.8254 20.9018 47.6997C21.0237 47.5177 21.1364 47.3292 21.2387 47.1338C21.4931 46.6433 21.6907 46.1125 21.7578 45.5115C21.8189 44.948 21.7564 44.0795 21.0021 43.5974C20.826 43.4875 20.6373 43.4017 20.4573 43.3374C17.0379 42.5971 14.2417 43.8833 11.3734 44.727C10.5195 45.0146 9.67078 45.3194 8.82743 45.6352Z" fill="var(--stroke-0, black)"/>
<path id="Vector 76" d="M32.8139 51.4931C32.9016 51.3648 32.9348 51.2069 32.906 51.0541C32.8773 50.9014 32.7891 50.7663 32.6608 50.6786C32.5324 50.5909 32.3745 50.5577 32.2218 50.5864C32.069 50.6152 31.9339 50.7034 31.8462 50.8317C31.8462 50.8317 31.8462 50.8317 31.8462 50.8317C31.5172 51.313 31.1874 51.7955 30.8607 52.2826C29.7684 53.9541 28.6002 55.6013 27.9583 57.6678C27.9577 57.6697 27.9572 57.6716 27.9566 57.6735C27.4661 59.1547 27.8661 61.086 29.0336 62.1881C29.0373 62.1919 29.0409 62.1957 29.0446 62.1995C29.8832 63.1038 31.1559 63.6567 32.3689 63.7077C32.3728 63.7079 32.3768 63.7082 32.3808 63.7084C33.7458 63.7794 35.0719 63.4681 36.2715 62.8511C36.2747 62.8495 36.2778 62.8478 36.281 62.8462C37.4484 62.2436 38.4738 61.2401 39.0114 59.9911C39.0125 59.9885 39.0137 59.9858 39.0148 59.9832C39.5579 58.7113 39.6668 57.3338 39.4144 55.9961C39.4139 55.9934 39.4133 55.9908 39.4128 55.9881C39.1953 54.8229 38.5556 53.6481 37.5605 52.9051C37.559 52.9039 37.5575 52.9028 37.556 52.9016C36.3259 51.9806 34.9368 51.9122 33.6987 51.8165C33.1035 51.7834 32.5154 51.7774 31.9227 51.787C31.8162 51.789 31.7112 51.8263 31.6303 51.8976C31.5493 51.9689 31.4991 52.0674 31.4905 52.173C31.4819 52.2786 31.5156 52.384 31.584 52.4674C31.6523 52.5509 31.7499 52.6046 31.8546 52.6238C31.8546 52.6238 31.8546 52.6238 31.8546 52.6238C32.4304 52.7287 32.9984 52.8306 33.5612 52.9389C34.7471 53.1793 35.9488 53.3899 36.7188 54.0001C36.7199 54.0009 36.721 54.0017 36.7221 54.0026C37.4374 54.5418 37.9176 55.3367 38.1102 56.2558C38.1106 56.2579 38.1111 56.26 38.1115 56.2621C38.3333 57.3218 38.2496 58.4938 37.8416 59.4811C37.8407 59.4832 37.8399 59.4853 37.839 59.4873C37.4372 60.4615 36.6737 61.2668 35.7141 61.7797C35.7115 61.7811 35.7088 61.7825 35.7062 61.7839C34.7195 62.3108 33.5554 62.5954 32.4515 62.534C32.4483 62.5338 32.4451 62.5336 32.442 62.5334C31.4536 62.4809 30.5701 62.0833 29.8989 61.3743C29.896 61.3713 29.8931 61.3683 29.8902 61.3652C28.9858 60.4679 28.7123 59.2304 29.0852 57.9901C29.0857 57.9885 29.0861 57.9869 29.0866 57.9853C29.6181 56.2423 30.7565 54.5696 31.8341 52.9355C32.157 52.4542 32.485 51.9744 32.8139 51.4931Z" fill="var(--stroke-0, black)"/>
<path id="Vector 77" d="M46.8159 44.4448C46.838 44.2569 46.7845 44.068 46.6672 43.9195C46.5499 43.7711 46.3785 43.6753 46.1906 43.6532C46.0028 43.6312 45.8138 43.6847 45.6654 43.8019C45.5169 43.9192 45.4211 44.0906 45.3991 44.2785C45.3991 44.2785 45.3991 44.2785 45.3991 44.2785C45.3567 44.6394 45.3143 45.0006 45.2725 45.3623C44.9624 48.0003 44.7132 50.6677 44.6139 53.3391C44.6139 53.3392 44.6139 53.3393 44.6139 53.3393C44.4686 57.2584 44.6114 61.1597 44.8319 65.0477C44.8529 65.4114 44.8748 65.7734 44.8976 66.1379C44.9058 66.2679 44.9625 66.3911 45.0584 66.4804C45.1542 66.5697 45.2808 66.6178 45.4109 66.614C45.5409 66.6102 45.6645 66.5548 45.755 66.4601C45.8454 66.3654 45.8949 66.2391 45.8955 66.1088C45.8955 66.1088 45.8955 66.1088 45.8955 66.1088C45.897 65.7442 45.8985 65.3823 45.8998 65.0187C45.918 61.1331 45.8962 57.2481 46.0393 53.3947C46.0393 53.3946 46.0393 53.3945 46.0393 53.3944C46.1372 50.766 46.381 48.1525 46.6896 45.5262C46.7312 45.1661 46.7735 44.8057 46.8159 44.4448Z" fill="var(--stroke-0, black)"/>
<path id="Vector 78" d="M53.998 50.793C54.1539 50.7028 54.2675 50.5543 54.3139 50.3802C54.3602 50.2062 54.3356 50.0209 54.2453 49.865C54.155 49.7092 54.0065 49.5956 53.8325 49.5492C53.6585 49.5028 53.4732 49.5275 53.3173 49.6178C53.3173 49.6178 53.3173 49.6178 53.3173 49.6178C53.0801 49.7551 52.8429 49.8925 52.6054 50.0305C50.4057 51.3733 48.1116 52.4414 46.1437 54.5565C46.1385 54.563 46.1333 54.5695 46.1282 54.576C45.6879 55.098 45.2831 56.0542 45.63 56.9103C45.9538 57.7269 46.5385 58.1673 47.0473 58.5564C47.0528 58.5604 47.0582 58.5644 47.0637 58.5684C48.0772 59.3256 49.2467 59.7837 50.3408 60.1808C50.6029 60.2753 50.8651 60.367 51.1268 60.4569C51.2991 60.5161 51.4877 60.5044 51.6513 60.4242C51.8149 60.344 51.94 60.2019 51.999 60.0292C52.058 59.8566 52.0462 59.6677 51.966 59.5041C51.8858 59.3405 51.7438 59.2157 51.5714 59.157C51.5714 59.157 51.5714 59.157 51.5714 59.157C51.3141 59.0694 51.0578 58.9807 50.8042 58.8902C49.7305 58.505 48.7155 58.1027 47.8685 57.4701C47.8638 57.4667 47.8591 57.4633 47.8544 57.4598C47.4077 57.1359 47.0188 56.7621 46.9047 56.4385C46.7885 56.1413 46.8853 55.8117 47.1948 55.4168C47.1983 55.4124 47.2019 55.4079 47.2054 55.4034C48.7257 53.7433 51.1325 52.4962 53.2875 51.2049C53.5241 51.0675 53.7609 50.9304 53.998 50.793Z" fill="var(--stroke-0, black)"/>
<path id="Vector 79" d="M75.8646 47.8494C75.7598 47.6672 75.5869 47.5341 75.384 47.4794C75.1811 47.4247 74.9648 47.4528 74.7826 47.5576C74.6004 47.6623 74.4673 47.8352 74.4126 48.0381C74.3579 48.241 74.386 48.4573 74.4908 48.6395C74.4908 48.6395 74.4908 48.6395 74.4908 48.6395C74.6562 48.9272 74.8216 49.2147 74.9867 49.5022C76.5405 52.2084 78.0715 54.9133 79.4029 57.6998C79.4031 57.7001 79.4033 57.7005 79.4034 57.7008C80.6191 60.2368 81.781 62.8367 83.1989 65.3447C83.3647 65.6361 83.5343 65.9257 83.7087 66.2125C83.7481 66.2771 83.8085 66.3283 83.8812 66.3526C83.9539 66.3769 84.0323 66.3727 84.1002 66.3404C84.1682 66.3081 84.2209 66.2499 84.2479 66.1782C84.275 66.1064 84.2734 66.0273 84.2481 65.956C84.2481 65.956 84.2481 65.956 84.2481 65.956C84.1377 65.6437 84.029 65.3309 83.921 65.0178C83.0006 62.3302 82.0806 59.6215 80.8335 57.0177C80.8333 57.0174 80.8331 57.017 80.8329 57.0166C79.4693 54.1633 77.9181 51.4253 76.361 48.713C76.1956 48.4249 76.03 48.1371 75.8646 47.8494Z" fill="var(--stroke-0, black)"/>
<path id="Vector 80" d="M75.5588 48.2221C75.4037 48.3095 75.2897 48.455 75.2418 48.6266C75.1939 48.7981 75.2162 48.9817 75.3036 49.1368C75.3911 49.2919 75.5366 49.406 75.7081 49.4539C75.8797 49.5017 76.0632 49.4795 76.2183 49.392C76.2183 49.392 76.2183 49.392 76.2183 49.392C76.8554 49.033 77.4913 48.6744 78.1277 48.322C79.9061 47.356 81.7269 46.3101 83.5311 45.7887C83.5636 45.7803 83.5955 45.7725 83.6268 45.7651C84.0978 45.6503 84.5601 45.6456 84.8111 45.7816C85.0559 45.8976 85.2418 46.2077 85.3763 46.674C85.3892 46.7176 85.4014 46.7616 85.4133 46.807C85.9051 48.7721 84.8506 51.0243 83.6276 52.9114C83.5897 52.9694 83.5513 53.0274 83.5135 53.084C83.4565 53.2011 83.3199 53.2872 83.3581 53.7255C83.3848 53.9366 83.5625 54.1549 83.6748 54.2237C83.796 54.3076 83.8855 54.3342 83.9541 54.3547C84.2206 54.4198 84.3371 54.4015 84.4785 54.4007C84.7364 54.3894 84.9559 54.3596 85.1754 54.3298C85.612 54.2685 86.0245 54.1994 86.4368 54.1409C87.2506 54.027 88.0913 53.93 88.7703 54.0412C88.8171 54.0494 88.8633 54.0616 88.9101 54.0782C89.4422 54.2591 89.9449 55.0418 90.3092 55.824C90.3385 55.8859 90.3663 55.9482 90.3928 56.0109C90.7363 56.8142 90.8016 57.6824 90.6331 58.5409L90.6588 58.4434C90.6401 58.497 90.6208 58.5505 90.601 58.6038C89.745 60.9186 87.7342 62.7196 85.4346 63.7698L85.4758 63.7523C85.4544 63.7605 85.433 63.7687 85.4117 63.7768C84.5932 64.0904 83.7491 64.316 82.8708 64.4993C82.1733 64.6453 81.4611 64.7686 80.7435 64.8877C80.5535 64.9192 80.384 65.0249 80.2725 65.182C80.161 65.3391 80.1165 65.5348 80.1489 65.7255C80.1813 65.9163 80.2878 66.0863 80.4449 66.1978C80.6021 66.3093 80.7969 66.3532 80.9868 66.3202C80.9868 66.3202 80.9868 66.3202 80.9868 66.3202C81.7131 66.1935 82.4403 66.0606 83.1717 65.9004C84.0899 65.7004 85.0219 65.444 85.917 65.0963C85.9403 65.0873 85.9636 65.0783 85.9869 65.0692L86.028 65.0517C88.5698 63.8755 90.8869 61.8465 91.9013 59.0836C91.9246 59.0201 91.9471 58.9564 91.9687 58.8923L91.9944 58.7948C92.2038 57.7027 92.0639 56.5064 91.6071 55.4881C91.5722 55.4082 91.5357 55.3294 91.4976 55.2515C91.0476 54.4022 90.5941 53.3751 89.3443 52.8575C89.232 52.8175 89.115 52.7861 88.9953 52.7649C87.9949 52.609 87.123 52.7315 86.2594 52.8332C85.8299 52.8883 85.4081 52.9524 85.0001 53.0041C84.7988 53.0292 84.5951 53.0517 84.4328 53.0563C84.3576 53.0611 84.2613 53.0459 84.3213 53.0569C84.3401 53.0633 84.3782 53.0701 84.4568 53.1238C84.528 53.1648 84.6691 53.3347 84.6886 53.4954C84.7128 53.8251 84.628 53.8202 84.6342 53.84C84.675 53.78 84.7165 53.7184 84.7575 53.6567C86.0488 51.6385 87.3978 49.2295 86.7667 46.4524C86.7517 46.3948 86.7359 46.3376 86.7187 46.2792C86.5509 45.6954 86.1932 44.9069 85.4031 44.5434C84.6308 44.1996 83.9198 44.324 83.3166 44.4582C83.2765 44.4678 83.2362 44.4778 83.1955 44.4883C81.0508 45.1177 79.2975 46.167 77.4771 47.147C76.8345 47.5029 76.1959 47.863 75.5588 48.2221Z" fill="var(--stroke-0, black)"/>
<path id="Vector 81" d="M99.5782 53.1955C99.6605 53.0426 99.6787 52.8633 99.6288 52.697C99.5789 52.5307 99.465 52.391 99.3121 52.3087C99.1593 52.2263 98.98 52.2081 98.8136 52.258C98.6473 52.3079 98.5077 52.4218 98.4253 52.5747C98.4253 52.5747 98.4253 52.5747 98.4253 52.5747C98.1683 53.0519 97.9107 53.5304 97.6553 54.0109C96.7305 55.7937 95.7444 57.5355 95.1635 59.6099C95.1631 59.6119 95.1626 59.6138 95.1621 59.6157C94.7645 60.8419 95.0159 62.6954 96.0901 63.6296C96.091 63.6306 96.0919 63.6315 96.0928 63.6324C97.6345 65.2384 99.8855 65.854 101.972 65.7571C101.975 65.757 101.977 65.7569 101.979 65.7568C103.724 65.5288 104.358 64.2061 104.967 63.2129C104.969 63.2087 104.972 63.2045 104.974 63.2003C105.618 61.9943 105.92 60.643 105.789 59.254C105.789 59.2506 105.789 59.2473 105.788 59.2439C105.684 58.0111 105.025 56.6886 103.924 55.9685C103.923 55.9678 103.922 55.9671 103.921 55.9663C102.773 55.2146 101.584 55.0424 100.467 54.8421C99.9222 54.7539 99.3817 54.6821 98.8396 54.6168C98.6865 54.5986 98.5298 54.6352 98.4028 54.7252C98.2758 54.8151 98.189 54.9499 98.1614 55.1013C98.1338 55.2526 98.1674 55.4094 98.2544 55.5383C98.3415 55.6673 98.4752 55.757 98.6249 55.794C98.6249 55.794 98.6249 55.794 98.6249 55.794C99.1517 55.924 99.6759 56.0494 100.194 56.178C101.257 56.4491 102.338 56.7068 103.076 57.209C103.076 57.2095 103.077 57.21 103.078 57.2105C103.807 57.697 104.28 58.4706 104.389 59.4016C104.389 59.4041 104.39 59.4066 104.39 59.4092C104.512 60.4557 104.278 61.6023 103.774 62.5537C103.772 62.557 103.77 62.5603 103.769 62.5636C103.295 63.4723 102.541 64.4101 101.917 64.4171C101.915 64.4172 101.913 64.4173 101.911 64.4174C100.116 64.5031 98.2543 63.956 97.0607 62.7028C97.06 62.7021 97.0593 62.7013 97.0586 62.7006C96.2761 61.9478 96.1461 61.0398 96.4316 59.9361C96.432 59.9345 96.4324 59.933 96.4328 59.9314C96.9237 58.1534 97.8977 56.374 98.8114 54.6254C99.0646 54.1492 99.3212 53.6727 99.5782 53.1955Z" fill="var(--stroke-0, black)"/>
<path id="Vector 82" d="M107.825 41.1392C107.808 40.9435 107.713 40.7629 107.563 40.637C107.412 40.511 107.217 40.4502 107.022 40.4677C106.826 40.4853 106.645 40.5798 106.519 40.7306C106.393 40.8813 106.333 41.0759 106.35 41.2716C106.376 41.5568 106.401 41.8421 106.427 42.1274C106.63 44.3824 106.834 46.639 107.058 48.8961C107.058 48.8962 107.058 48.8962 107.058 48.8962C107.323 51.7911 107.842 54.683 108.481 57.5087C108.544 57.7875 108.607 58.0659 108.673 58.3498C108.706 58.4912 108.791 58.6166 108.912 58.6976C109.034 58.7787 109.182 58.8089 109.324 58.7815C109.466 58.754 109.592 58.6711 109.675 58.5507C109.758 58.4304 109.79 58.2825 109.768 58.1391C109.768 58.1391 109.768 58.1391 109.768 58.1391C109.724 57.8524 109.681 57.5715 109.639 57.2906C109.2 54.4329 108.795 51.6137 108.532 48.7493C108.532 48.7492 108.532 48.7492 108.532 48.7492C108.308 46.5019 108.105 44.2489 107.902 41.9948C107.877 41.7097 107.851 41.4244 107.825 41.1392Z" fill="var(--stroke-0, black)"/>
<path id="Vector 83" d="M116.622 43.8733C116.778 43.7575 116.881 43.5847 116.909 43.393C116.937 43.2012 116.887 43.0062 116.772 42.8508C116.656 42.6955 116.483 42.5924 116.291 42.5645C116.1 42.5365 115.905 42.5858 115.749 42.7016C115.749 42.7016 115.749 42.7016 115.749 42.7016C115.511 42.8791 115.273 43.0567 115.034 43.2349C112.891 44.8996 110.649 46.3153 108.777 48.6666C108.772 48.6743 108.767 48.6819 108.761 48.6895C108.397 49.219 107.971 50.0974 108.358 51.0119C108.752 51.8633 109.411 52.1979 109.928 52.5116C109.935 52.5152 109.941 52.5188 109.947 52.5223C111.357 53.2981 112.774 53.6746 114.174 54.1832C114.454 54.281 114.733 54.3799 115.014 54.4821C115.138 54.5268 115.276 54.5199 115.399 54.4658C115.521 54.4116 115.617 54.3146 115.666 54.1933C115.716 54.072 115.716 53.9355 115.666 53.8111C115.617 53.6868 115.523 53.5848 115.404 53.5302C115.404 53.5302 115.404 53.5302 115.404 53.5302C115.131 53.4056 114.862 53.2807 114.593 53.1553C113.257 52.5164 111.855 51.9191 110.667 51.2548C110.662 51.2516 110.656 51.2485 110.651 51.2453C110.183 50.986 109.786 50.6726 109.704 50.4438C109.61 50.2575 109.69 49.9147 109.969 49.5125C109.973 49.5072 109.976 49.5018 109.98 49.4965C111.462 47.6111 113.805 46.0177 115.909 44.4056C116.146 44.228 116.384 44.0508 116.622 43.8733Z" fill="var(--stroke-0, black)"/>
</g>
</svg>
