<svg preserveAspectRatio="none" width="100%" height="100%" overflow="visible" style="display: block;" viewBox="0 0 514.346 4.34531" fill="none" xmlns="http://www.w3.org/2000/svg">
<path id="Vector 9" d="M0.818567 2.46054C0.610271 2.45192 0.407081 2.52639 0.253696 2.66758C0.100311 2.80877 0.0092963 3.00511 0.000673413 3.21341C-0.00794947 3.4217 0.066526 3.62489 0.207716 3.77828C0.348906 3.93166 0.545245 4.02268 0.753541 4.0313C0.753541 4.0313 0.753541 4.0313 0.753541 4.0313C9.28727 4.379 17.9063 4.3125 26.3998 4.34441C50.2463 4.35666 73.9303 4.2422 97.8608 4.13186C97.861 4.13186 97.8612 4.13186 97.8614 4.13186C227.881 3.46312 358.074 2.45772 488.135 1.34528C496.69 1.27135 505.231 1.19676 513.79 1.12127C513.939 1.11996 514.081 1.05977 514.185 0.953838C514.29 0.847902 514.348 0.704913 514.346 0.556307C514.345 0.407701 514.285 0.265626 514.179 0.161316C514.073 0.0570054 513.93 -0.00097549 513.782 1.23978e-05C513.782 1.23978e-05 513.782 1.23978e-05 513.782 1.23978e-05C505.223 0.056963 496.681 0.113588 488.126 0.170127C358.064 1.01795 227.869 1.89105 97.8538 2.55977C97.8537 2.55977 97.8535 2.55978 97.8533 2.55978C73.9242 2.67011 50.2395 2.78456 26.4015 2.77231C17.9155 2.74065 9.28494 2.80604 0.818567 2.46054Z" fill="var(--stroke-0, black)"/>
</svg>
