<svg preserveAspectRatio="none" width="100%" height="100%" overflow="visible" style="display: block;" viewBox="0 0 11.7924 13.142" fill="none" xmlns="http://www.w3.org/2000/svg">
<path id="Vector 76" d="M5.06259 0.916772C5.15029 0.788447 5.18343 0.630536 5.15471 0.477777C5.12599 0.325019 5.03776 0.189926 4.90943 0.102219C4.78111 0.0145114 4.6232 -0.0186267 4.47044 0.0100946C4.31768 0.0388159 4.18259 0.127044 4.09488 0.255369C4.09488 0.255369 4.09488 0.255369 4.09488 0.255369C3.76593 0.736682 3.43613 1.21912 3.10937 1.70624C2.01708 3.37771 0.848905 5.02496 0.206949 7.0914C0.206407 7.09333 0.205866 7.09525 0.205326 7.09718C-0.285262 8.57839 0.114768 10.5097 1.28226 11.6117C1.28593 11.6155 1.28961 11.6194 1.29329 11.6232C2.13185 12.5274 3.40459 13.0803 4.61754 13.1313C4.6215 13.1316 4.62547 13.1318 4.62944 13.1321C5.99452 13.203 7.32053 12.8918 8.52016 12.2748C8.52334 12.2731 8.52652 12.2715 8.52969 12.2698C9.69706 11.6672 10.7225 10.6637 11.26 9.41477C11.2612 9.41213 11.2624 9.40949 11.2635 9.40684C11.8066 8.13496 11.9155 6.75741 11.6631 5.41977C11.6626 5.4171 11.662 5.41443 11.6615 5.41176C11.444 4.24656 10.8043 3.07177 9.80922 2.32874C9.80771 2.32758 9.80619 2.32642 9.80468 2.32527C8.57462 1.40422 7.1855 1.33586 5.94733 1.24012C5.35218 1.20708 4.76407 1.20104 4.17133 1.21067C4.06488 1.21264 3.95992 1.24991 3.87896 1.32125C3.79801 1.39254 3.74778 1.49107 3.73919 1.59668C3.73061 1.70228 3.76427 1.80763 3.83264 1.89106C3.90102 1.97454 3.99859 2.02827 4.10332 2.04741C4.10332 2.04741 4.10332 2.04741 4.10332 2.04741C4.67911 2.15235 5.24708 2.25423 5.80991 2.36253C6.99575 2.6029 8.19747 2.81353 8.96748 3.42373C8.96857 3.42456 8.96966 3.42539 8.97075 3.42622C9.68606 3.96546 10.1662 4.76033 10.3589 5.6795C10.3593 5.68159 10.3598 5.68368 10.3602 5.68577C10.5819 6.74546 10.4983 7.91745 10.0903 8.90479C10.0894 8.90685 10.0886 8.9089 10.0877 8.91096C9.68586 9.88518 8.92238 10.6905 7.96273 11.2034C7.96013 11.2048 7.95753 11.2062 7.95492 11.2076C6.96823 11.7344 5.80412 12.0191 4.70022 11.9577C4.69702 11.9575 4.69383 11.9573 4.69063 11.9571C3.70223 11.9046 2.81879 11.5069 2.14759 10.798C2.14467 10.795 2.14176 10.7919 2.13884 10.7889C1.23452 9.89151 0.960969 8.65401 1.33392 7.4137C1.33436 7.41213 1.3348 7.41056 1.33524 7.40898C1.86682 5.66599 3.00515 3.99323 4.0828 2.35918C4.40568 1.87785 4.73364 1.39807 5.06259 0.916772Z" fill="var(--stroke-0, black)"/>
</svg>
