<svg preserveAspectRatio="none" width="100%" height="100%" overflow="visible" style="display: block;" viewBox="0 0 98.2925 93.0292" fill="none" xmlns="http://www.w3.org/2000/svg">
<path id="Vector" d="M24.2452 85.1637C19.6543 82.7625 19.1857 84.5634 14.5149 82.2422C14.1157 82.0421 12.2315 81.3099 10.5149 80.0293C8.79835 78.7486 8.09081 78.3603 6.01494 77.4798C3.69953 76.5194 -0.0665678 72.8775 0.572164 69.716C1.68994 64.0731 12.8677 67.0293 16.78 66.2342C12.4286 62.5924 9.5144 57.3898 7.39861 52.2272C4.684 45.5839 3.20693 38.6605 4.12511 31.4168C5.04328 24.2132 10.8717 22.8926 15.9416 27.2548C18.6962 29.6159 20.4128 32.8576 23.0874 35.3788C24.2851 36.4994 28.1973 40.4213 29.7143 40.2212C28.0149 35.3788 24.5149 26.6528 24.5149 19.5293C24.5149 15.5673 24.1254 9.24575 26.9198 5.96411C28.4767 4.12319 29.0149 1.5293 33.0149 0.52931C39.0149 0.029298 44.485 6.04415 46.2814 10.6064C47.7585 14.3683 49.9142 18.5704 50.3533 22.6525C50.513 24.0932 50.6956 25.8541 51.0149 27.2548C51.2545 28.4153 51.0149 29.5293 51.7106 30.2162C53.9861 29.5359 55.6177 27.1701 57.0149 25.5293C59.0509 23.1281 61.4113 22.2122 63.7667 20.0912C67.8386 16.4493 71.9903 14.5684 77.4994 15.2087C82.0503 15.769 81.6911 20.8916 80.7729 24.7335C79.9745 27.9351 77.8986 30.1762 76.3018 33.0176C75.3437 34.7385 74.973 35.8084 74.0149 37.5293C73.5758 38.3297 72.5738 41.2289 72.0149 42.0293C73.3722 39.5481 79.4999 36.8094 82.0149 36.5293C86.1667 36.0491 90.441 37.6199 93.5149 40.2212C95.3114 41.742 96.5416 42.9483 97.4198 45.0293C97.4198 47.7153 98.2582 49.7284 97.4198 51.5293C96.5815 53.3302 96.5016 53.4278 95.2242 54.9486C93.9467 56.4694 92.0704 58.0301 90.5535 59.3908C87.0005 62.5524 82.5469 66.0481 78.5149 68.5293C74.4829 71.0105 73.8094 73.9981 71.0149 77.4798C69.8173 78.9606 68.6769 80.7215 67.4394 82.2422C66.2817 83.6829 67.0319 83.3089 65.5149 84.0293C64.8762 84.3495 62.8884 85.0836 62.1698 85.2437C60.8924 85.5239 59.7746 85.3638 58.537 85.764C57.6588 86.0441 56.5809 86.6844 55.5829 86.9646C53.1877 87.6849 51.3114 87.725 49.1158 88.7255C46.8004 89.806 44.2454 90.2462 42.0099 91.1266C40.2534 91.807 36.9 93.0076 34.8241 92.3273C32.8281 91.6869 31.8301 89.2857 30.1933 88.0851C28.5566 86.8845 26.1214 86.1242 24.2452 85.1637Z" fill="#DFD9C9" stroke="black" stroke-miterlimit="10"/>
</svg>
