<svg preserveAspectRatio="none" width="100%" height="100%" overflow="visible" style="display: block;" viewBox="0 0 84.6462 33.6635" fill="none" xmlns="http://www.w3.org/2000/svg">
<g id="Vector">
<path d="M4.96319 3.36373C4.96319 7.09137 4.27074 11.6777 5.05111 15.4053C5.22697 16.2842 5.83149 16.5872 5.96338 17.7086C6.08428 18.7188 5.9414 19.8502 5.9414 20.8705C5.9414 21.81 5.65563 23.1737 5.88644 24.0627C6.08428 24.8002 6.77673 25.0325 6.96358 25.77C7.4362 27.5782 6.01834 30.4876 6.84267 32.1645C7.59007 33.7101 9.59046 32.1645 11.3051 32.0938C13.7561 32.0029 15.7565 31.2553 18.1526 31.1947C23.1865 31.0735 28.2535 31.1947 33.2984 31.1947H47.499C51.7416 31.1947 56.4018 30.6795 60.6004 31.1442C63.2383 31.4372 65.2827 32.1039 67.9755 32.0837C68.9647 32.0837 70.4705 31.8211 71.4487 32.0332C72.4269 32.2453 72.8226 32.8212 73.8008 33.0131C75.7133 33.3869 78.2193 32.9424 80.1867 32.9727C83.3961 33.0232 84.3523 32.407 84.1105 29.3865C84.0006 28.0025 83.3302 27.1539 83.0664 25.8407C82.7806 24.4567 83.1213 22.699 83.1213 21.2847C83.1213 19.0218 83.1213 16.759 83.1213 14.4961C83.1213 11.9807 83.0993 9.45523 83.1213 6.93984C83.1433 4.50526 82.3959 3.06067 82.0002 0.787722C79.2085 0.0300718 76.4607 0.949354 73.8448 1.47466C72.2511 1.79792 70.5804 1.37364 68.9647 1.62619C66.7445 1.97976 64.909 2.48486 62.6008 2.44445C58.7209 2.37374 55.1928 3.35363 51.258 3.34353C47.3231 3.33342 43.0585 3.34353 38.9698 3.34353C32.7818 3.34353 25.2199 2.33333 19.1308 3.42434C17.5261 3.7072 16.4599 4.27291 14.7343 4.2426C13.4044 4.2224 12.1184 4.14158 10.8215 4.44464C7.97476 5.12148 5.38085 4.92954 2.40225 5.2124C2.77594 5.01036 2.98478 4.68709 3.00676 4.2426" fill="#DFD9C9"/>
<path d="M4.96319 3.36373C4.96319 7.09137 4.27074 11.6777 5.05111 15.4053C5.22697 16.2842 5.83149 16.5872 5.96338 17.7086C6.08428 18.7188 5.9414 19.8502 5.9414 20.8705C5.9414 21.81 5.65563 23.1737 5.88644 24.0627C6.08428 24.8002 6.77673 25.0325 6.96358 25.77C7.4362 27.5782 6.01834 30.4876 6.84267 32.1645C7.59007 33.7101 9.59046 32.1645 11.3051 32.0938C13.7561 32.0029 15.7565 31.2553 18.1526 31.1947C23.1865 31.0735 28.2535 31.1947 33.2984 31.1947H47.499C51.7416 31.1947 56.4018 30.6795 60.6004 31.1442C63.2383 31.4372 65.2827 32.1039 67.9755 32.0837C68.9647 32.0837 70.4705 31.8211 71.4487 32.0332C72.4269 32.2453 72.8226 32.8212 73.8008 33.0131C75.7133 33.3869 78.2193 32.9424 80.1867 32.9727C83.3961 33.0232 84.3523 32.407 84.1105 29.3865C84.0006 28.0025 83.3302 27.1539 83.0664 25.8407C82.7806 24.4567 83.1213 22.699 83.1213 21.2847C83.1213 19.0218 83.1213 16.759 83.1213 14.4961C83.1213 11.9807 83.0993 9.45523 83.1213 6.93984C83.1433 4.50526 82.3959 3.06067 82.0002 0.787722C79.2085 0.0300718 76.4607 0.949354 73.8448 1.47466C72.2511 1.79792 70.5804 1.37364 68.9647 1.62619C66.7445 1.97976 64.909 2.48486 62.6008 2.44445C58.7209 2.37374 55.1928 3.35363 51.258 3.34353C47.3231 3.33342 43.0585 3.34353 38.9698 3.34353C32.7818 3.34353 25.2199 2.33333 19.1308 3.42434C17.5261 3.7072 16.4599 4.27291 14.7343 4.2426C13.4044 4.2224 12.1184 4.14158 10.8215 4.44464C7.97476 5.12148 5.38085 4.92954 2.40225 5.2124C2.77594 5.01036 2.98478 4.68709 3.00676 4.2426" stroke="var(--stroke-0, black)" stroke-miterlimit="10"/>
</g>
</svg>
