<svg width="53" height="50" overflow="visible" style="display: block;" viewBox="0 0 53.0004 50" fill="none" xmlns="http://www.w3.org/2000/svg">
<g id="Vector">
<path d="M13.1913 45.5783C10.7376 44.2998 10.4871 45.2587 7.99074 44.0228C7.77738 43.9163 6.77032 43.5264 5.85285 42.8446C4.93538 42.1627 4.55722 41.9559 3.44772 41.4871C2.2102 40.9757 0.197325 39.0367 0.53871 37.3533C1.13613 34.3489 7.11036 35.9228 9.20135 35.4995C6.87566 33.5605 5.31809 30.7904 4.18726 28.0417C2.73637 24.5045 1.94692 20.8182 2.43766 16.9614C2.9284 13.1259 6.04354 12.4227 8.75328 14.7453C10.2255 16.0025 11.143 17.7285 12.5725 19.0709C13.2126 19.6675 15.3036 21.7557 16.1144 21.6492C15.2061 19.0709 13.3355 14.4248 13.3355 10.632C13.3355 8.52246 13.1273 5.15661 14.6208 3.40934C15.453 2.42916 15.7406 1.04807 17.8785 0.515634C21.0853 0.249407 24.0089 3.45195 24.9691 5.88109C25.7585 7.88407 26.9107 10.1214 27.1454 12.2949C27.2307 13.062 27.3283 13.9995 27.499 14.7453C27.627 15.3633 27.499 15.9564 27.8708 16.3221C29.087 15.9599 29.9591 14.7003 30.7058 13.8266C31.794 12.5481 33.0556 12.0605 34.3145 10.9311C36.4908 8.99209 38.7098 7.99061 41.6542 8.33154C44.0866 8.62986 43.8946 11.3573 43.4038 13.4029C42.9771 15.1076 41.8676 16.3008 41.0141 17.8137C40.502 18.73 40.304 19.2996 39.7919 20.2159C39.5572 20.6421 39.0216 22.1857 38.7229 22.6119C39.4484 21.2908 42.7235 19.8326 44.0677 19.6835C46.2867 19.4278 48.5712 20.2642 50.2141 21.6492C51.1742 22.4589 51.8317 23.1012 52.3012 24.2092C52.3012 25.6393 52.7492 26.7112 52.3012 27.67C51.8531 28.6289 51.8104 28.6809 51.1276 29.4906C50.4449 30.3003 49.4421 31.1314 48.6313 31.8558C46.7323 33.5392 44.352 35.4004 42.197 36.7215C40.042 38.0426 39.682 39.6333 38.1885 41.4871C37.5484 42.2755 36.9388 43.2131 36.2774 44.0228C35.6586 44.7899 36.0596 44.5908 35.2489 44.9743C34.9075 45.1448 33.845 45.5357 33.461 45.6209C32.7782 45.7701 32.1808 45.6849 31.5194 45.8979C31.05 46.0471 30.4739 46.388 29.9405 46.5372C28.6603 46.9207 27.6575 46.9421 26.4839 47.4748C25.2464 48.0501 23.8809 48.2845 22.686 48.7532C21.7472 49.1155 19.955 49.7547 18.8455 49.3925C17.7786 49.0516 17.2452 47.7731 16.3704 47.1338C15.4956 46.4946 14.1941 46.0897 13.1913 45.5783Z" fill="#D4CDB8"/>
<path d="M13.1913 45.5783C10.7376 44.2998 10.4871 45.2587 7.99074 44.0228C7.77738 43.9163 6.77032 43.5264 5.85285 42.8446C4.93538 42.1627 4.55722 41.9559 3.44772 41.4871C2.2102 40.9757 0.197325 39.0367 0.53871 37.3533C1.13613 34.3489 7.11036 35.9228 9.20135 35.4995C6.87566 33.5605 5.31809 30.7904 4.18726 28.0417C2.73637 24.5045 1.94692 20.8182 2.43766 16.9614C2.9284 13.1259 6.04354 12.4227 8.75328 14.7453C10.2255 16.0025 11.143 17.7285 12.5725 19.0709C13.2126 19.6675 15.3036 21.7557 16.1144 21.6492C15.2061 19.0709 13.3355 14.4248 13.3355 10.632C13.3355 8.52246 13.1273 5.15661 14.6208 3.40934C15.453 2.42916 15.7406 1.04807 17.8785 0.515634C21.0853 0.249407 24.0089 3.45195 24.9691 5.88109C25.7585 7.88407 26.9107 10.1214 27.1454 12.2949C27.2307 13.062 27.3283 13.9995 27.499 14.7453C27.627 15.3633 27.499 15.9564 27.8708 16.3221C29.087 15.9599 29.9591 14.7003 30.7058 13.8266C31.794 12.5481 33.0556 12.0605 34.3145 10.9311C36.4908 8.99209 38.7098 7.99061 41.6542 8.33154C44.0866 8.62986 43.8946 11.3573 43.4038 13.4029C42.9771 15.1076 41.8676 16.3008 41.0141 17.8137C40.502 18.73 40.304 19.2996 39.7919 20.2159C39.5572 20.6421 39.0216 22.1857 38.7229 22.6119C39.4484 21.2908 42.7235 19.8326 44.0677 19.6835C46.2867 19.4278 48.5712 20.2642 50.2141 21.6492C51.1742 22.4589 51.8317 23.1012 52.3012 24.2092C52.3012 25.6393 52.7492 26.7112 52.3012 27.67C51.8531 28.6289 51.8104 28.6809 51.1276 29.4906C50.4449 30.3003 49.4421 31.1314 48.6313 31.8558C46.7323 33.5392 44.352 35.4004 42.197 36.7215C40.042 38.0426 39.682 39.6333 38.1885 41.4871C37.5484 42.2755 36.9388 43.2131 36.2774 44.0228C35.6586 44.7899 36.0596 44.5908 35.2489 44.9743C34.9075 45.1448 33.845 45.5357 33.461 45.6209C32.7782 45.7701 32.1808 45.6849 31.5194 45.8979C31.05 46.0471 30.4739 46.388 29.9405 46.5372C28.6603 46.9207 27.6575 46.9421 26.4839 47.4748C25.2464 48.0501 23.8809 48.2845 22.686 48.7532C21.7472 49.1155 19.955 49.7547 18.8455 49.3925C17.7786 49.0516 17.2452 47.7731 16.3704 47.1338C15.4956 46.4946 14.1941 46.0897 13.1913 45.5783Z" stroke="black" stroke-miterlimit="10"/>
<path d="M13.1913 45.5783C10.7376 44.2998 10.4871 45.2587 7.99074 44.0228C7.77738 43.9163 6.77032 43.5264 5.85285 42.8446C4.93538 42.1627 4.55722 41.9559 3.44772 41.4871C2.2102 40.9757 0.197325 39.0367 0.53871 37.3533C1.13613 34.3489 7.11036 35.9228 9.20135 35.4995C6.87566 33.5605 5.31809 30.7904 4.18726 28.0417C2.73637 24.5045 1.94692 20.8182 2.43766 16.9614C2.9284 13.1259 6.04354 12.4227 8.75328 14.7453C10.2255 16.0025 11.143 17.7285 12.5725 19.0709C13.2126 19.6675 15.3036 21.7557 16.1144 21.6492C15.2061 19.0709 13.3355 14.4248 13.3355 10.632C13.3355 8.52246 13.1273 5.15661 14.6208 3.40934C15.453 2.42916 15.7406 1.04807 17.8785 0.515634C21.0853 0.249407 24.0089 3.45195 24.9691 5.88109C25.7585 7.88407 26.9107 10.1214 27.1454 12.2949C27.2307 13.062 27.3283 13.9995 27.499 14.7453C27.627 15.3633 27.499 15.9564 27.8708 16.3221C29.087 15.9599 29.9591 14.7003 30.7058 13.8266C31.794 12.5481 33.0556 12.0605 34.3145 10.9311C36.4908 8.99209 38.7098 7.99061 41.6542 8.33154C44.0866 8.62986 43.8946 11.3573 43.4038 13.4029C42.9771 15.1076 41.8676 16.3008 41.0141 17.8137C40.502 18.73 40.304 19.2996 39.7919 20.2159C39.5572 20.6421 39.0216 22.1857 38.7229 22.6119C39.4484 21.2908 42.7235 19.8326 44.0677 19.6835C46.2867 19.4278 48.5712 20.2642 50.2141 21.6492C51.1742 22.4589 51.8317 23.1012 52.3012 24.2092C52.3012 25.6393 52.7492 26.7112 52.3012 27.67C51.8531 28.6289 51.8104 28.6809 51.1276 29.4906C50.4449 30.3003 49.4421 31.1314 48.6313 31.8558C46.7323 33.5392 44.352 35.4004 42.197 36.7215C40.042 38.0426 39.682 39.6333 38.1885 41.4871C37.5484 42.2755 36.9388 43.2131 36.2774 44.0228C35.6586 44.7899 36.0596 44.5908 35.2489 44.9743C34.9075 45.1448 33.845 45.5357 33.461 45.6209C32.7782 45.7701 32.1808 45.6849 31.5194 45.8979C31.05 46.0471 30.4739 46.388 29.9405 46.5372C28.6603 46.9207 27.6575 46.9421 26.4839 47.4748C25.2464 48.0501 23.8809 48.2845 22.686 48.7532C21.7472 49.1155 19.955 49.7547 18.8455 49.3925C17.7786 49.0516 17.2452 47.7731 16.3704 47.1338C15.4956 46.4946 14.1941 46.0897 13.1913 45.5783Z" stroke="var(--stroke-1, black)" stroke-opacity="0.2" stroke-miterlimit="10"/>
</g>
</svg>
