<svg preserveAspectRatio="none" width="100%" height="100%" overflow="visible" style="display: block;" viewBox="0 0 218.504 243.987" fill="none" xmlns="http://www.w3.org/2000/svg">
<g id="build box">
<path id="Vector" d="M210.519 23.32C197.529 24.73 184.399 24.2 171.329 24.21C162.059 24.21 152.939 26.03 143.709 25.99C134.479 25.95 125.449 25.99 116.319 25.99C108.289 25.99 100.129 26.39 92.099 26.04C89.879 25.94 87.799 25.16 85.589 25.07C84.079 25.01 82.539 25.26 81.029 25.15C79.119 25.01 77.319 24.28 75.399 24.17C72.509 24 69.549 24.22 66.649 24.22C60.369 24.22 54.089 24.14 47.809 24.22C45.019 24.25 42.569 23.18 39.779 23.29C36.489 23.42 33.469 24.26 30.109 24.21C28.049 24.18 26.329 24.74 24.339 25.03C23.149 25.21 21.919 24.93 20.739 25.18C19.629 25.42 18.839 25.89 17.669 26.01C16.209 26.17 14.639 25.99 13.159 25.99C10.799 25.99 8.42896 25.96 6.06896 25.99C3.70896 26.02 3.13896 24.25 0.728956 24.22C0.728956 23.93 0.248956 31.02 0.678956 32.73C0.748956 32.99 1.39896 33.2 1.41896 33.28C1.64896 34.29 1.62896 35.15 1.61896 36.22C1.59896 38.59 1.61896 40.96 1.61896 43.33C1.61896 46.12 1.47896 48.41 0.928956 51.11C0.148956 54.89 0.728956 59.24 0.728956 63.11C0.728956 69.71 0.798956 76.31 0.728956 82.91C0.688956 86.55 1.62896 89.86 1.60896 93.59C1.59896 97.58 1.64896 101.57 1.60896 105.56C1.58896 107.15 1.97896 108.23 2.30896 109.72C2.65896 111.34 2.36896 112.92 2.46896 114.55C2.57896 116.35 3.32896 117.94 3.42896 119.74C3.54896 121.95 3.21896 124.19 3.35896 126.4C3.45896 127.93 4.14896 129.14 4.32896 130.64C4.53896 132.35 4.27896 134.27 4.27896 136C4.27896 139.99 4.14896 143.67 3.58896 147.58C3.10896 150.91 3.44896 154.38 3.40896 157.76C3.37896 160.16 2.59896 162.3 2.44896 164.67C2.31896 166.8 2.49896 168.99 2.49896 171.14C2.49896 178.14 1.90896 184.86 1.63896 191.82C1.49896 195.45 0.718956 198.94 0.718956 202.65C0.718956 205.7 0.718956 208.74 0.718956 211.79C0.718956 214.45 0.748956 217.1 0.718956 219.76C0.688956 222.64 1.62896 224.92 1.60896 227.79C1.60896 228.59 1.24896 230.71 1.54896 231.41C1.95896 232.38 2.73896 232.38 3.82896 232.68C4.91896 232.98 5.93896 232.83 6.98896 233.07C8.28896 233.37 8.46896 233.94 10.049 234.02C15.509 234.3 21.079 234.02 26.549 234.02C35.439 234.02 43.779 231.66 52.729 231.36C54.929 231.29 56.679 230.44 58.949 230.46C65.289 230.52 71.489 230.55 77.809 231.35C81.679 231.84 85.329 232.03 89.189 232.21C90.729 232.28 91.749 233 93.179 233.19C94.379 233.35 95.529 232.62 96.669 232.34C99.389 231.68 102.359 231.05 105.129 230.63C111.759 229.64 118.979 230.45 125.699 230.45C127.419 230.45 129.489 230.17 131.189 230.4C133.029 230.66 134.549 231.32 136.489 231.36C148.459 231.59 160.309 232.23 172.299 232.23C176.839 232.23 181.229 231.27 185.739 231.32C188.809 231.36 191.889 231.34 194.959 231.34C197.419 231.34 200.099 231.04 202.539 231.32C203.699 231.45 204.119 232.03 205.139 232.28C206.379 232.58 208.359 232.24 209.629 232.23C210.209 232.23 208.959 234.33 209.499 234.56C210.149 232.35 209.629 229.25 209.629 226.9V219.79C209.629 213.79 209.479 207.77 209.609 201.77C209.649 200.07 210.269 198.99 210.569 197.37C210.809 196.06 210.519 194.47 210.519 193.11C210.519 190.5 210.809 187.68 210.319 185.12C209.259 179.57 209.629 173.86 209.629 168.16C209.629 164.14 210.139 159.71 209.549 155.75C209.059 152.4 208.739 149.43 208.739 146.01C208.739 139.4 208.359 132.68 208.709 126.09C208.839 123.67 209.609 121.42 209.669 118.97C209.709 117.09 209.639 115.2 209.639 113.32C209.639 111.9 209.519 110.43 209.609 109.02C209.699 107.41 210.399 106.04 210.579 104.45C210.999 100.66 209.619 97.1 209.649 93.32C209.679 89.54 209.649 85.76 209.649 81.99C209.649 65.7 210.379 40.45 210.379 24.17" stroke="black" stroke-miterlimit="10"/>
<path id="Vector_2" d="M200.629 224.85C200.599 226.92 200.039 228.67 200.039 230.78C200.039 233.22 200.179 235.59 199.579 237.89C199.279 239.04 198.949 242.76 199.989 243.27C201.029 243.78 204.129 243.23 205.319 243.23H209.519C210.899 243.23 212.279 243.21 213.659 243.23C214.739 243.25 215.099 242.81 215.999 242.61C217.329 242.31 217.559 243.1 217.819 241.51C218.039 240.17 217.809 238.64 217.809 237.28C217.809 234.97 218.279 232.11 217.759 229.89C217.309 227.97 216.819 226.23 216.549 224.34C215.559 223.92 214.149 224.81 213.049 224.87C211.949 224.93 210.879 224.86 209.799 224.86C208.809 224.86 207.819 224.87 206.839 224.86C205.539 224.85 204.809 225.29 200.619 224.86L200.629 224.85Z" fill="#DFD9C9" stroke="black" stroke-miterlimit="10"/>
<g id="Vector_3">
<path d="M108.131 1.35724C105.231 1.40084 102.81 1.89488 100.417 3.30434C98.4599 4.46679 95.763 7.82336 96.0385 10.4389C96.111 11.1363 96.6329 11.4124 96.7779 11.8919C96.9664 12.5603 96.7779 13.2433 96.9519 13.8826C97.1839 14.7254 97.5899 16.2075 98.2279 16.905C98.8224 17.5589 100.374 18.4452 101.229 18.6341C101.795 18.7649 102.447 18.4888 103.013 18.5615C104.013 18.6922 104.158 19.0846 104.898 19.2589C110.567 20.5667 115.048 16.3819 115.019 10.8312C115.004 8.39005 114.598 5.61471 113.206 3.60949C111.51 1.16835 109.219 0.543531 106.435 0.499939" fill="#DFD9C9"/>
<path d="M108.131 1.35724C105.231 1.40084 102.81 1.89488 100.417 3.30434C98.4599 4.46679 95.763 7.82336 96.0385 10.4389C96.111 11.1363 96.6329 11.4124 96.7779 11.8919C96.9664 12.5603 96.7779 13.2433 96.9519 13.8826C97.1839 14.7254 97.5899 16.2075 98.2279 16.905C98.8224 17.5589 100.374 18.4452 101.229 18.6341C101.795 18.7649 102.447 18.4888 103.013 18.5615C104.013 18.6922 104.158 19.0846 104.898 19.2589C110.567 20.5667 115.048 16.3819 115.019 10.8312C115.004 8.39005 114.598 5.61471 113.206 3.60949C111.51 1.16835 109.219 0.543531 106.435 0.499939" stroke="black" stroke-miterlimit="10"/>
</g>
</g>
</svg>
