<svg preserveAspectRatio="none" width="100%" height="100%" overflow="visible" style="display: block;" viewBox="0 0 218.49 239.48" fill="none" xmlns="http://www.w3.org/2000/svg">
<g id="build box" clip-path="url(#clip0_2129_205)">
<path id="Vector" d="M210.5 18.82C197.51 20.23 184.38 19.7 171.31 19.71C162.04 19.71 152.92 21.53 143.69 21.49C134.46 21.45 125.43 21.49 116.3 21.49C108.27 21.49 100.11 21.89 92.08 21.54C89.86 21.44 87.78 20.66 85.57 20.57C84.06 20.51 82.52 20.76 81.01 20.65C79.1 20.51 77.3 19.78 75.38 19.67C72.49 19.5 69.53 19.72 66.63 19.72C60.35 19.72 54.07 19.64 47.79 19.72C45 19.75 42.55 18.68 39.76 18.79C36.47 18.92 33.45 19.76 30.09 19.71C28.03 19.68 26.31 20.24 24.32 20.53C23.13 20.71 21.9 20.43 20.72 20.68C19.61 20.92 18.82 21.39 17.65 21.51C16.19 21.67 14.62 21.49 13.14 21.49C10.78 21.49 8.41 21.46 6.05 21.49C3.69 21.52 3.12 19.75 0.71 19.72C0.71 19.43 0.23 26.52 0.66 28.23C0.73 28.49 1.38 28.7 1.4 28.78C1.63 29.79 1.61 30.65 1.6 31.72C1.58 34.09 1.6 36.46 1.6 38.83C1.6 41.62 1.46 43.91 0.91 46.61C0.13 50.39 0.71 54.74 0.71 58.61C0.71 65.21 0.78 71.81 0.71 78.41C0.67 82.05 1.61 85.36 1.59 89.09C1.58 93.08 1.63 97.07 1.59 101.06C1.57 102.65 1.96 103.73 2.29 105.22C2.64 106.84 2.35 108.42 2.45 110.05C2.56 111.85 3.31 113.44 3.41 115.24C3.53 117.45 3.2 119.69 3.34 121.9C3.44 123.43 4.13 124.64 4.31 126.14C4.52 127.85 4.26 129.77 4.26 131.5C4.26 135.49 4.13 139.17 3.57 143.08C3.09 146.41 3.43 149.88 3.39 153.26C3.36 155.66 2.58 157.8 2.43 160.17C2.3 162.3 2.48 164.49 2.48 166.64C2.48 173.64 1.89 180.36 1.62 187.32C1.48 190.95 0.7 194.44 0.7 198.15C0.7 201.2 0.7 204.24 0.7 207.29C0.7 209.95 0.73 212.6 0.7 215.26C0.67 218.14 1.61 220.42 1.59 223.29C1.59 224.09 1.23 226.21 1.53 226.91C1.94 227.88 2.72 227.88 3.81 228.18C4.9 228.48 5.92 228.33 6.97 228.57C8.27 228.87 8.45 229.44 10.03 229.52C15.49 229.8 21.06 229.52 26.53 229.52C35.42 229.52 43.76 227.16 52.71 226.86C54.91 226.79 56.66 225.94 58.93 225.96C65.27 226.02 71.47 226.05 77.79 226.85C81.66 227.34 85.31 227.53 89.17 227.71C90.71 227.78 91.73 228.5 93.16 228.69C94.36 228.85 95.51 228.12 96.65 227.84C99.37 227.18 102.34 226.55 105.11 226.13C111.74 225.14 118.96 225.95 125.68 225.95C127.4 225.95 129.47 225.67 131.17 225.9C133.01 226.16 134.53 226.82 136.47 226.86C148.44 227.09 160.29 227.73 172.28 227.73C176.82 227.73 181.21 226.77 185.72 226.82C188.79 226.86 191.87 226.84 194.94 226.84C197.4 226.84 200.08 226.54 202.52 226.82C203.68 226.95 204.1 227.53 205.12 227.78C206.36 228.08 208.34 227.74 209.61 227.73C210.19 227.73 208.94 229.83 209.48 230.06C210.13 227.85 209.61 224.75 209.61 222.4V215.29C209.61 209.29 209.46 203.27 209.59 197.27C209.63 195.57 210.25 194.49 210.55 192.87C210.79 191.56 210.5 189.97 210.5 188.61C210.5 186 210.79 183.18 210.3 180.62C209.24 175.07 209.61 169.36 209.61 163.66C209.61 159.64 210.12 155.21 209.53 151.25C209.04 147.9 208.72 144.93 208.72 141.51C208.72 134.9 208.34 128.18 208.69 121.59C208.82 119.17 209.59 116.92 209.65 114.47C209.69 112.59 209.62 110.7 209.62 108.82C209.62 107.4 209.5 105.93 209.59 104.52C209.68 102.91 210.38 101.54 210.56 99.95C210.98 96.16 209.6 92.6 209.63 88.82C209.66 85.04 209.63 81.26 209.63 77.49C209.63 61.2 210.36 35.95 210.36 19.67" stroke="black" stroke-miterlimit="10"/>
<path id="Vector_2" d="M200.61 220.35C200.58 222.42 200.02 224.17 200.02 226.28C200.02 228.72 200.16 231.09 199.56 233.39C199.26 234.54 198.93 238.26 199.97 238.77C201.01 239.28 204.11 238.73 205.3 238.73H209.5C210.88 238.73 212.26 238.71 213.64 238.73C214.72 238.75 215.08 238.31 215.98 238.11C217.31 237.81 217.54 238.6 217.8 237.01C218.02 235.67 217.79 234.14 217.79 232.78C217.79 230.47 218.26 227.61 217.74 225.39C217.29 223.47 216.8 221.73 216.53 219.84C215.54 219.42 214.13 220.31 213.03 220.37C211.93 220.43 210.86 220.36 209.78 220.36C208.79 220.36 207.8 220.37 206.82 220.36C205.52 220.35 204.79 220.79 200.6 220.36L200.61 220.35Z" fill="#DFD9C9" stroke="black" stroke-miterlimit="10"/>
<g id="Vector_3">
<path d="M108.17 1.09C106.17 1.12 104.5 1.46 102.85 2.43C101.5 3.23 99.64 5.54 99.83 7.34C99.88 7.82 100.24 8.01 100.34 8.34C100.47 8.8 100.34 9.27 100.46 9.71C100.62 10.29 100.9 11.31 101.34 11.79C101.75 12.24 102.82 12.85 103.41 12.98C103.8 13.07 104.25 12.88 104.64 12.93C105.33 13.02 105.43 13.29 105.94 13.41C109.85 14.31 112.94 11.43 112.92 7.61C112.91 5.93 112.63 4.02 111.67 2.64C110.5 0.96 108.92 0.53 107 0.5" fill="#DFD9C9"/>
<path d="M108.17 1.09C106.17 1.12 104.5 1.46 102.85 2.43C101.5 3.23 99.64 5.54 99.83 7.34C99.88 7.82 100.24 8.01 100.34 8.34C100.47 8.8 100.34 9.27 100.46 9.71C100.62 10.29 100.9 11.31 101.34 11.79C101.75 12.24 102.82 12.85 103.41 12.98C103.8 13.07 104.25 12.88 104.64 12.93C105.33 13.02 105.43 13.29 105.94 13.41C109.85 14.31 112.94 11.43 112.92 7.61C112.91 5.93 112.63 4.02 111.67 2.64C110.5 0.96 108.92 0.53 107 0.5" stroke="black" stroke-miterlimit="10"/>
</g>
</g>
<defs>
<clipPath id="clip0_2129_205">
<rect width="218.49" height="239.48" fill="white"/>
</clipPath>
</defs>
</svg>
