<svg preserveAspectRatio="none" width="100%" height="100%" overflow="visible" style="display: block;" viewBox="0 0 122 53" fill="none" xmlns="http://www.w3.org/2000/svg">
<g id="calender box">
<path id="Vector" d="M3.71633 46.2451C1.84655 40.0373 2.50852 40.3076 2.27625 33.7745C2.21818 32.1059 2.60143 25.0227 2.27625 23.3824C1.60267 20.0451 0.661971 13.2924 0.650357 9.33298C0.650357 4.76547 -0.127749 3.36553 3.71633 2.70091C6.67777 2.17769 10.0341 2.74333 13.042 2.74333H99.7601C102.617 2.74333 106.505 2.36485 109.246 1.55882C111.464 1.55882 113.127 1.03922 116.732 1.14541C117.15 6.34926 118.365 10.5491 118.342 15.9509C118.342 17.8316 118.365 19.7124 118.342 21.6073C118.307 24.4213 119.178 25.6374 119.538 27.6878C120.246 31.6897 119.933 36.2855 119.886 40.4571C119.828 45.265 119.886 45.4244 119.886 50.402" stroke="var(--stroke-0, black)" stroke-miterlimit="10"/>
</g>
</svg>
