<svg preserveAspectRatio="none" width="100%" height="100%" overflow="visible" style="display: block;" viewBox="0 0 66.43 35.26" fill="none" xmlns="http://www.w3.org/2000/svg">
<g id="Candy button" clip-path="url(#clip0_2240_1418)">
<path id="Vector" d="M24.8 4.77C24.54 1.67 28.91 1.59 30.99 1.59C33.65 1.58 36.58 2.3 39 3.38C41.42 4.46 44.09 6.34 45.45 8.81C46.81 11.28 47.9 14.86 47.11 17.72C46.61 19.52 45.34 21.48 44.16 22.92C42.98 24.36 41.82 25.82 40.32 26.85C39.06 27.71 37.75 28.18 36.27 28.58C34.88 28.95 33.51 29.59 32.05 29.65C30.93 29.7 29.75 29.65 28.63 29.61C26.78 29.55 25.75 28.86 24.26 27.8C22.77 26.74 21.22 25.69 20.29 24.05C19.56 22.76 19.12 21.09 18.86 19.65C18.6 18.21 18.78 16.86 18.99 15.41C19.2 13.96 19.52 13.21 20.15 12C20.67 10.99 21.15 10.37 22 9.64C22.47 9.23 22.77 8.7 23.24 8.29C24.95 6.8 27.93 6.97 30.04 7.09C32.68 7.24 35.25 7.89 37.31 9.65C37.85 10.11 38.61 10.8 38.89 11.49C39.35 12.63 39.24 14.29 39.24 15.5C39.24 16.47 39.17 17.77 38.37 18.42C37.74 18.93 36.69 18.9 35.97 19C35.01 19.13 34.12 19.22 33.15 19.21C32.39 19.21 30.96 19.46 30.33 18.87C29.6 18.18 29.41 16.47 29.38 15.57C29.34 14.57 29.82 13.27 30.69 12.72C31.51 12.2 31.58 13.28 32.29 13.43" stroke="var(--stroke-0, black)" stroke-miterlimit="10"/>
<path id="Vector_2" d="M44.15 6.8L44.2 6.56C45.19 6.46 46.36 5.81 47.23 5.46C49.57 4.54 51.86 3.57 54.27 2.87C56.68 2.17 59.16 0.93 61.73 0.54C61.97 0.84 60.12 2.37 60.02 2.47C58.7 3.81 57.61 5.41 56.09 6.54C55.11 7.27 54.12 8.16 53.7 9.34C54.29 9.65 54.97 9.77 55.58 10.06C57.83 11.12 60.03 12.29 62.2 13.49C63.18 14.03 64.31 14.52 65.26 15.12C65.5 15.28 65.71 15.44 65.81 15.69C65.01 16.25 63.65 16.05 62.75 16.12C61.46 16.21 60.11 16.29 58.85 16.61C57.29 17.01 55.81 17.72 54.31 18.31C53.3 18.71 53.05 18.69 53.37 19.65C54.28 22.4 55.26 25.14 56.46 27.77C56.69 28.27 56.77 28.59 56.84 29.1C56.91 29.61 57.32 30.24 57.12 30.78C56.47 30.69 56.18 30.06 55.68 29.73C54.84 29.17 53.73 28.95 52.82 28.56C51.65 28.07 50.58 27.46 49.53 26.76C49.04 26.43 47.65 25.12 47.03 25.29" stroke="var(--stroke-0, black)" stroke-miterlimit="10"/>
<path id="Vector_3" d="M19.31 9.11C18.64 9.02 17.83 8.6 17.16 8.42C15.09 7.86 13.16 6.89 11.12 6.26C9.37 5.72 7.44 5.21 5.64 4.89C4.93 4.76 4.38 4.75 3.75 4.49C3.45 5.19 4.03 5.9 4.29 6.5C4.75 7.56 5.17 8.59 5.67 9.64C6.06 10.46 6.46 11.23 6.9 12.02C7.09 12.36 7.31 12.57 7.16 13.01C7.05 13.33 6.63 13.61 6.37 13.82C5.37 14.62 4.3 15.31 3.45 16.28C2.94 16.86 2.44 17.52 1.98 18.14C1.62 18.62 0.8 19.14 0.61 19.68C1.16 20.01 2.56 19.8 3.15 19.8C4.8 19.8 6.35 19.78 7.98 20.02C8.21 20.05 8.69 20.02 8.92 20.08C9.53 20.23 9.35 20.02 9.5 20.63C9.7 21.46 9.5 22.68 9.49 23.52C9.47 25.44 9.52 27.32 9.78 29.23C9.93 30.32 10.08 31.26 10.07 32.35C10.07 32.93 9.98 33.61 10.13 34.16C10.34 33.89 10.46 33.58 10.65 33.29C11.28 32.31 12.25 31.59 13.12 30.85C14.78 29.44 15.88 27.5 17.55 26.12C18.22 25.57 18.48 25.08 18.95 24.41C19.25 23.99 19.73 23.8 19.9 23.27" stroke="var(--stroke-0, black)" stroke-miterlimit="10"/>
</g>
<defs>
<clipPath id="clip0_2240_1418">
<rect width="66.43" height="35.26" fill="white"/>
</clipPath>
</defs>
</svg>
