<svg preserveAspectRatio="none" width="100%" height="100%" overflow="visible" style="display: block;" viewBox="0 0 258.45 161.99" fill="none" xmlns="http://www.w3.org/2000/svg">
<g id="Date Box" clip-path="url(#clip0_2065_38)">
<rect width="258.45" height="161.99" fill="#DFD9C9"/>
<path id="Vector" d="M0.5 0.96C1.92 13.22 1.39 25.68 1.39 38.02C1.39 40.23 0.84 43.18 1.34 45.3C1.6 46.42 2.13 46.68 2.3 47.94C2.47 49.2 2.28 50.72 2.28 52.03V114.85C2.28 117.26 2.28 119.67 2.28 122.08C2.28 123.25 2.45 124.56 2.3 125.72C2.11 127.16 1.56 127.85 1.37 129.29C0.69 134.5 1.39 140.32 1.39 145.58C1.39 147.08 1.41 148.59 1.39 150.1C1.37 151.43 1.79 151.97 2.08 153.02C2.66 155.1 1.23 159.49 2.8 161.02L2.28 160.95" stroke="var(--stroke-0, black)" stroke-miterlimit="10"/>
<path id="Vector_2" d="M6.35 161.39C9.74 161.05 13.12 160.51 16.27 159.79C17.29 159.56 18.18 159.6 19.24 159.61C21.43 159.63 22.99 159.45 25.02 158.92C26.91 158.43 28.87 158.98 30.8 158.76C32.85 158.52 34.4 157.82 36.58 157.84C38.45 157.85 40.51 158.09 42.36 157.87C44.41 157.63 45.96 156.93 48.14 156.95C50.06 156.96 51.99 156.9 53.92 156.95C56.14 157 57.86 157.87 60.14 157.85C63.99 157.81 67.84 157.85 71.7 157.85C75.75 157.85 79.24 158.74 83.26 158.74C90.96 158.74 98.67 158.74 106.37 158.74C108.29 158.74 110.22 158.77 112.14 158.74C114.06 158.71 115.12 159.56 117.02 159.63C118.92 159.7 120.93 159.38 122.83 159.6C124.73 159.82 125.68 160.53 127.7 160.51C131.53 160.47 135.43 160.34 139.26 160.51C141.15 160.59 142.17 161.43 144.14 161.4C146.11 161.37 148.29 161.4 150.36 161.4H161.92C163.66 161.4 165.55 161.62 167.27 161.42C169.18 161.2 170.43 160.5 172.58 160.51C180.88 160.56 189.17 160.51 197.47 160.51H242.8C244.87 160.51 247.8 160.01 249.76 160.66C249.81 160.91 255.19 161.15 255.25 161.4C257.43 161.34 255.38 159.52 255.2 158.78C254.89 157.49 255.25 155.63 255.25 154.29C255.25 151.48 255.25 148.66 255.25 145.85C255.25 142.73 255.25 139.61 255.25 136.5C255.25 133.33 256.16 130.72 256.14 127.59C256.09 122.58 256.14 117.56 256.14 112.55C256.14 107.54 255.53 101.68 256.12 96.51C256.26 95.26 256.81 94.63 257.06 93.45C257.28 92.42 257.03 90.92 257.03 89.86C257.03 87.34 257.07 84.82 257.03 82.31C257.01 80.81 257.62 80.27 257.84 79.12C258.06 77.97 257.92 76.77 257.92 75.64C257.92 73.27 257.92 70.9 257.92 68.53C257.92 63.49 257.91 58.46 257.92 53.42C257.92 52.11 258.01 50.87 257.72 49.62C257.5 48.66 257.01 48.06 257.03 46.75C257.06 44.38 257.03 42.01 257.03 39.64V24.53C257.03 23.06 257.13 21.55 257.05 20.09C256.98 18.73 256.32 17.83 256.09 16.53C255.4 12.63 256.14 6.82 256.14 3.2C251.64 3.2 245.14 5.99 240.55 5.01C239.53 4.79 238.97 4.27 237.95 4.05C237.03 3.85 235.75 4.07 234.81 4.08C232.3 4.12 230.27 3.16 227.7 3.19C223.59 3.24 220.24 1.39 216.14 1.41C211.7 1.44 207.25 1.41 202.81 1.41H178.81C175.08 1.41 170.44 0.7 166.81 1.49C164.61 1.97 162.95 2.3 160.59 2.3C158.7 2.3 156.64 2.02 154.81 2.5C150.97 3.5 146.87 3.19 142.81 3.19C138.5 3.19 135.15 2.31 130.81 2.3C129.71 2.3 128.33 2.54 127.25 2.35C126.29 2.18 125.55 1.54 124.58 1.37C122.8 1.05 120.63 1.42 118.8 1.42H82.8C78.35 1.42 74.36 2.31 69.91 2.31C65.91 2.31 61.91 2.34 57.91 2.31C55.77 2.3 54.52 3 52.6 3.22C50.68 3.44 48.69 3.2 46.8 3.2H34.8C30.92 3.2 26.49 3.75 22.8 2.76C20.76 2.21 18.74 2.29 16.58 2.31C12.04 2.35 7.43 0.99 2.8 0.53" stroke="var(--stroke-0, black)" stroke-miterlimit="10"/>
</g>
<defs>
<clipPath id="clip0_2065_38">
<rect width="258.45" height="161.99" fill="white"/>
</clipPath>
</defs>
</svg>
