<svg preserveAspectRatio="none" width="100%" height="100%" overflow="visible" style="display: block;" viewBox="0 0 24 17.048" fill="none" xmlns="http://www.w3.org/2000/svg">
<g id="clench hand">
<g id="Vector 1">
<path d="M9.82034 16.5C9.04209 15.9669 7.35309 14.9886 4.75939 13.6415C3.54626 13.0114 2.83171 12.6717 1.72318 11.9061C1.26914 11.5925 0.989511 11.2832 0.7666 11.0404C0.560675 10.816 0.4837 10.4448 0.502796 10.0143C0.518706 9.65575 0.775663 9.38564 1.0167 9.16149C1.50618 8.70629 2.81792 8.83044 3.90634 8.86217C5.1736 8.89911 2.63344 6.98651 2.50326 5.88607C2.40083 5.02012 2.72221 3.94734 3.16334 3.12046C3.48047 2.52602 5.1839 2.33254 6.37508 2.28231C7.18555 2.24813 7.43942 3.21384 7.64699 3.70303C8.15793 4.90726 7.96813 1.88682 8.40583 1.35205C8.88716 0.763952 10.7117 0.560382 12.2185 0.501944C12.8909 0.475869 13.3619 0.713658 13.5873 0.971368C13.8801 1.30614 13.8132 1.93926 13.8064 2.3294C13.8008 2.64846 14.3774 1.50242 15.0196 1.19068C16.23 0.603144 18.3304 0.83608 18.9814 1.13286C19.2539 1.25709 19.3147 1.65231 19.3746 1.99376C19.4327 2.32457 19.3015 2.57617 19.1528 2.74834C19.2839 2.65467 19.4305 2.56275 19.5498 2.51708C20.4607 2.16831 21.6806 2.57887 22.2311 2.87379C22.8254 3.19214 23.2675 3.86564 23.4446 4.55772C23.6443 5.33866 23.2546 6.15948 23.0578 7.00934C22.8071 8.09184 22.1468 9.59762 21.969 10.4146C21.8301 11.0531 21.7522 11.8338 21.4511 12.6206C21.2128 13.2434 20.424 13.4142 18.9876 13.758C18.5171 13.8706 17.8483 14.0767 16.4071 14.5017C12.7018 15.7853 12.1044 15.9321 11.6729 16.0367C11.4803 16.0841 10.3011 16.3544 9.82034 16.5Z" fill="#DFD9C9"/>
<path d="M9.82034 16.5C9.04209 15.9669 7.35309 14.9886 4.75939 13.6415C3.54626 13.0114 2.83171 12.6717 1.72318 11.9061C1.26914 11.5925 0.989511 11.2832 0.7666 11.0404C0.560675 10.816 0.4837 10.4448 0.502796 10.0143C0.518706 9.65575 0.775663 9.38564 1.0167 9.16149C1.50618 8.70629 2.81792 8.83044 3.90634 8.86217C5.1736 8.89911 2.63344 6.98651 2.50326 5.88607C2.40083 5.02012 2.72221 3.94734 3.16334 3.12046C3.48047 2.52602 5.1839 2.33254 6.37508 2.28231C7.18555 2.24813 7.43942 3.21384 7.64699 3.70303C8.15793 4.90726 7.96813 1.88682 8.40583 1.35205C8.88716 0.763952 10.7117 0.560382 12.2185 0.501944C12.8909 0.475869 13.3619 0.713658 13.5873 0.971368C13.8801 1.30614 13.8132 1.93926 13.8064 2.3294C13.8008 2.64846 14.3774 1.50242 15.0196 1.19068C16.23 0.603144 18.3304 0.83608 18.9814 1.13286C19.2539 1.25709 19.3147 1.65231 19.3746 1.99376C19.4822 2.60676 18.94 2.94778 18.8404 3.0154C18.6793 3.12485 19.2194 2.64357 19.5498 2.51708C20.4607 2.16831 21.6806 2.57887 22.2311 2.87379C22.8254 3.19214 23.2675 3.86564 23.4446 4.55772C23.6443 5.33866 23.2546 6.15948 23.0578 7.00934C22.8071 8.09184 22.1468 9.59762 21.969 10.4146C21.8301 11.0531 21.7522 11.8338 21.4511 12.6206C21.2128 13.2434 20.424 13.4142 18.9876 13.758C18.5171 13.8706 17.8483 14.0767 16.4071 14.5017C12.7018 15.7853 12.1044 15.9321 11.6729 16.0367C11.4803 16.0841 10.3011 16.3544 9.82034 16.5Z" stroke="black" stroke-linecap="round"/>
</g>
</g>
</svg>
