<svg preserveAspectRatio="none" width="100%" height="100%" overflow="visible" style="display: block;" viewBox="0 0 396.28 386.37" fill="none" xmlns="http://www.w3.org/2000/svg">
<g id="creature view" clip-path="url(#clip0_0_36)">
<path id="Vector" d="M388.19 380.54C388.95 380.54 389.7 380.56 390.45 380.61C388.04 377.29 375.2 379.21 371.68 379.21H337.9C322.65 379.21 307.12 378.31 291.91 379.14C284.2 379.56 276.53 381.62 268.77 381.94C264.55 382.12 260.34 381.58 256.13 381.97C252.18 382.33 248.32 383.39 244.39 383.92C232.3 385.55 218.91 384.86 206.71 384.61C198.53 384.44 190.45 383.29 182.26 383.13C174.07 382.97 165.33 383.63 156.87 382.91C138.23 381.32 119.48 381.95 100.75 381.88C83.4 381.81 65.61 385.36 48.38 382.18C40.04 380.64 31.36 383.35 22.93 383.24C14.5 383.13 8.8 385.04 0.24 385.88" stroke="var(--stroke-0, black)" stroke-miterlimit="10"/>
<path id="Vector_2" d="M9.23 6.37C7.92 34.29 5.92 62.8 6.92 90.29C14.92 137.13 9.92 183.97 9.92 230.81C1.92 281.72 3.92 332.63 1.92 384.56C1.92 384.56 0.92 385.58 0.23 385.22" stroke="var(--stroke-0, black)" stroke-miterlimit="10"/>
<path id="Vector_3" d="M390.13 379.97C392.55 358.01 394.6 336.38 391.52 314.74C387.42 279.71 390.49 245.72 394.6 210.69C395.63 195.24 396.65 179.79 394.6 164.33C392.55 143.73 392.55 124.15 389.47 103.55C391.52 78.83 390.5 53.07 393.57 28.35C395.62 19.08 395.62 10.84 393.57 1.57C346.39 -0.49 298.19 0.54 251.02 3.63C196.67 -1.52 142.31 0.54 87.95 6.72C61.29 9.81 34.62 6.72 8.23 6.37" stroke="var(--stroke-0, black)" stroke-miterlimit="10"/>
</g>
<defs>
<clipPath id="clip0_0_36">
<rect width="396.28" height="386.37" fill="white"/>
</clipPath>
</defs>
</svg>
