<svg preserveAspectRatio="none" width="100%" height="100%" overflow="visible" style="display: block;" viewBox="0 0 22 27" fill="none" xmlns="http://www.w3.org/2000/svg">
<g id="cursor" clip-path="url(#clip0_2128_154)">
<g id="Vector">
<path d="M3.77667 0.0722892C3.22667 4.49398 3.08 8.85542 1.82111 12.7349C1.07556 15.0482 0.928889 16.7831 0.757778 19.253C1.93111 17.5904 3.88667 16.759 5.18222 15.1807C6.68556 13.3494 7.26 11.7229 9.02 14.4819C9.86333 15.8072 10.5967 17.1566 11.4156 18.5542C12.8211 20.9639 13.2611 24.1566 14.9111 26.3374C16.2067 26.0482 16.9278 24.2892 18.0033 23.4699C19.0789 22.6506 20.2889 22.5301 21.1689 21.5783C20.5822 20.9277 20.4356 20.0482 19.8856 19.3373C19.47 18.8072 18.7611 18.4578 18.3578 17.9157C17.27 16.4819 16.7567 14.7108 15.6689 13.253C14.3367 11.4699 13.53 10.9639 15.6322 9.3253C16.8178 8.39759 19.2867 8.01205 19.5189 6.13253C16.3656 5.22892 13.3222 5.43374 10.1811 4.10843C8.48222 3.38554 4.58333 0.518072 2.78667 1.04819" fill="#DFD9C9"/>
<path d="M3.77667 0.0722892C3.22667 4.49398 3.08 8.85542 1.82111 12.7349C1.07556 15.0482 0.928889 16.7831 0.757778 19.253C1.93111 17.5904 3.88667 16.759 5.18222 15.1807C6.68556 13.3494 7.26 11.7229 9.02 14.4819C9.86333 15.8072 10.5967 17.1566 11.4156 18.5542C12.8211 20.9639 13.2611 24.1566 14.9111 26.3374C16.2067 26.0482 16.9278 24.2892 18.0033 23.4699C19.0789 22.6506 20.2889 22.5301 21.1689 21.5783C20.5822 20.9277 20.4356 20.0482 19.8856 19.3373C19.47 18.8072 18.7611 18.4578 18.3578 17.9157C17.27 16.4819 16.7567 14.7108 15.6689 13.253C14.3367 11.4699 13.53 10.9639 15.6322 9.3253C16.8178 8.39759 19.2867 8.01205 19.5189 6.13253C16.3656 5.22892 13.3222 5.43374 10.1811 4.10843C8.48222 3.38554 4.58333 0.518072 2.78667 1.04819" stroke="black" stroke-miterlimit="10"/>
</g>
</g>
<defs>
<clipPath id="clip0_2128_154">
<rect width="22" height="27" fill="white"/>
</clipPath>
</defs>
</svg>
