<svg preserveAspectRatio="none" width="100%" height="100%" overflow="visible" style="display: block;" viewBox="0 0 12.2836 16" fill="none" xmlns="http://www.w3.org/2000/svg"><g transform="translate(12.2836 0) scale(-1 1)">
<g id="scale cursor">
<path id="Vector" d="M5.53316 7.10443C4.55842 5.95156 3.62325 4.82342 2.78705 3.58148C2.62871 3.34893 2.40605 3.15596 2.25761 2.92341C2.15866 2.76507 2.11412 2.582 2.01516 2.42366C1.95579 2.3247 1.87167 2.27522 1.82219 2.15647C1.72324 1.92392 1.67376 1.7161 1.55006 1.49839C1.40162 1.23615 1.24328 1.02339 1.24823 0.721564" stroke="black" stroke-miterlimit="10"/>
<path id="Vector_2" d="M0.496139 6.006C0.604994 5.13516 0.718797 4.23958 0.713849 3.36379C0.713849 2.78488 0.713849 2.21091 0.713849 1.632C0.713849 1.34502 0.669318 1.01351 0.713849 0.726524C0.743537 0.498918 0.708901 0.538501 0.93156 0.508813C1.07505 0.489022 1.24328 0.508813 1.39172 0.508813C1.66881 0.508813 1.95084 0.49397 2.22793 0.508813C2.50501 0.523657 2.75241 0.612721 3.0196 0.627565C3.53913 0.657252 4.07351 0.563241 4.59305 0.647356C5.05816 0.721576 5.54801 0.850223 6.01312 0.840327C6.33473 0.840327 6.65635 0.840327 6.97797 0.840327" stroke="black" stroke-miterlimit="10"/>
<path id="Vector_3" d="M6.75532 8.8956C7.73007 10.0485 8.66523 11.1766 9.50144 12.4186C9.65977 12.6511 9.88243 12.8441 10.0309 13.0766C10.1298 13.235 10.1744 13.418 10.2733 13.5764C10.3327 13.6753 10.4168 13.7248 10.4663 13.8436C10.5653 14.0761 10.6147 14.2839 10.7384 14.5016C10.8869 14.7639 11.0452 14.9766 11.0403 15.2785" stroke="black" stroke-miterlimit="10"/>
<path id="Vector_4" d="M11.7874 9.99404C11.6786 10.8649 11.5648 11.7605 11.5697 12.6362C11.5697 13.2152 11.5697 13.7891 11.5697 14.368C11.5697 14.655 11.6143 14.9865 11.5697 15.2735C11.54 15.5011 11.5747 15.4615 11.352 15.4912C11.2085 15.511 11.0403 15.4912 10.8918 15.4912C10.6148 15.4912 10.3327 15.5061 10.0556 15.4912C9.77856 15.4764 9.53116 15.3873 9.26397 15.3725C8.74443 15.3428 8.21005 15.4368 7.69052 15.3527C7.22541 15.2785 6.73556 15.1498 6.27045 15.1597C5.94884 15.1597 5.62722 15.1597 5.3056 15.1597" stroke="black" stroke-miterlimit="10"/>
</g>
</g></svg>
