<svg preserveAspectRatio="none" width="100%" height="100%" overflow="visible" style="display: block;" viewBox="0 0 49.4163 30.815" fill="none" xmlns="http://www.w3.org/2000/svg">
<g id="Vector">
<path d="M0.9 5.06075C1.38 8.50075 2.22 11.9808 2.71 15.3508C2.85 16.3108 3.21 16.9908 3.37 17.7008C3.62 18.8208 3.59 19.8808 3.57 21.0608C3.54 22.4808 3.91 23.3008 4.26 24.6208C4.68 26.2408 3.66 29.3208 5.28 30.0208C6.9 30.7208 10.65 29.9508 12.45 29.9608C15.14 29.9608 17.19 29.4208 19.78 29.0308C22.5 28.6108 25.67 29.0808 28.45 29.0808H41.34C43.04 29.0808 46.55 29.7908 48.07 29.1408C49.98 28.3308 48.07 25.7608 48 24.2008C47.9 21.7408 48.15 19.4208 47.56 17.0508C46.91 14.4108 47.28 11.8008 47.12 9.04075C47 6.89075 46.29 5.14075 46.23 2.84075C46.14 -0.229248 44.42 0.640752 41.78 0.640752C40.75 0.640752 39.17 0.360752 38.18 0.590752C37.35 0.790752 36.91 1.35075 36.04 1.56075C34.02 2.04075 31.42 1.39075 29.34 1.51075C27.86 1.59075 26.78 2.26075 25.34 2.45075C24.21 2.60075 22.93 2.42075 21.78 2.42075C20.63 2.42075 19.39 2.24075 18.3 2.50075C16.99 2.81075 16.76 3.33075 15.11 3.31075C10.08 3.24075 5.04 3.31075 0 3.31075" fill="var(--fill-0, #DFD9C9)"/>
<path d="M0.9 5.06075C1.38 8.50075 2.22 11.9808 2.71 15.3508C2.85 16.3108 3.21 16.9908 3.37 17.7008C3.62 18.8208 3.59 19.8808 3.57 21.0608C3.54 22.4808 3.91 23.3008 4.26 24.6208C4.68 26.2408 3.66 29.3208 5.28 30.0208C6.9 30.7208 10.65 29.9508 12.45 29.9608C15.14 29.9608 17.19 29.4208 19.78 29.0308C22.5 28.6108 25.67 29.0808 28.45 29.0808H41.34C43.04 29.0808 46.55 29.7908 48.07 29.1408C49.98 28.3308 48.07 25.7608 48 24.2008C47.9 21.7408 48.15 19.4208 47.56 17.0508C46.91 14.4108 47.28 11.8008 47.12 9.04075C47 6.89075 46.29 5.14075 46.23 2.84075C46.14 -0.229248 44.42 0.640752 41.78 0.640752C40.75 0.640752 39.17 0.360752 38.18 0.590752C37.35 0.790752 36.91 1.35075 36.04 1.56075C34.02 2.04075 31.42 1.39075 29.34 1.51075C27.86 1.59075 26.78 2.26075 25.34 2.45075C24.21 2.60075 22.93 2.42075 21.78 2.42075C20.63 2.42075 19.39 2.24075 18.3 2.50075C16.99 2.81075 16.76 3.33075 15.11 3.31075C10.08 3.24075 5.04 3.31075 0 3.31075" stroke="var(--stroke-0, black)" stroke-miterlimit="10"/>
</g>
</svg>
