<svg preserveAspectRatio="none" width="100%" height="100%" overflow="visible" style="display: block;" viewBox="0 0 164.822 50.4526" fill="none" xmlns="http://www.w3.org/2000/svg">
<path id="energy blocks box" d="M1.25229 50.4526C1.25229 48.5454 1.25228 46.4526 1.25229 44.4526C1.25229 41.9526 1.2633 40.3972 1.25229 38.1113C1.24128 35.4001 1.25229 32.6996 1.25229 29.9884C1.25229 24.2895 0.393493 26.194 0.657734 20.4526C0.734804 18.6983 0.602684 14.8163 0.602684 12.9876C0.602684 11.1589 0.602684 9.20256 0.602684 7.32067C0.602684 6.75717 0.338443 5.28994 0.657734 4.85402C1.51652 3.69512 4.6874 3.83333 5.94255 3.83333C12.7137 3.81207 19.4378 3.43995 26.209 3.35489C27.7614 3.33362 28.9284 3.87586 30.4258 4.03534C34.2353 4.43937 38.4631 4.00345 42.2946 4.00345C46.9518 4.00345 51.6201 3.98218 56.2773 4.01408C60.9346 4.04598 65.1404 3.33362 69.6325 3.35489C79.3323 3.40805 89.0872 3.59943 98.787 3.41868C102.927 3.34426 106.956 2.29168 111.107 2.1003C112.869 2.01524 114.289 1.82386 115.985 1.62185C117.878 1.39858 119.816 1.67501 121.688 1.34542C126.125 0.569271 130.532 2.42989 135.035 1.82386C138.635 1.34542 142.125 1.34542 145.77 1.34542C150.867 1.34542 155.998 -0.00486432 161.14 0.707488C162.648 0.909499 162.373 1.06898 162.428 2.50432C162.549 5.78965 162.505 8.92612 162.901 12.2008C163.375 15.9965 163.544 20.6357 163.709 24.4526C163.786 26.2282 164.011 28.1877 164.209 29.9526C164.363 31.3667 163.643 34.5173 163.709 35.9526C163.973 41.4813 164.322 42.9133 164.322 48.4526" stroke="var(--stroke-0, black)" stroke-miterlimit="10"/>
</svg>
