<svg preserveAspectRatio="xMidYMid meet" width="100%" height="100%" viewBox="0 0 39.5323 42.1515" fill="none" xmlns="http://www.w3.org/2000/svg">
<g id="exit fullscreen">
<!-- Top-left → inward arrow (↘): shaft from corner to center -->
<path d="M5.5 6 L17 17.3" stroke="black" stroke-miterlimit="10"/>
<!-- Top-left arrowhead: L corner at tip (17,17.3), opening back toward UL -->
<path d="M17 11 L17 17.3 L10.7 17.3" stroke="black" stroke-miterlimit="10"/>

<!-- Bottom-right → inward arrow (↖): shaft from corner to center -->
<path d="M34 37 L22.5 25.4" stroke="black" stroke-miterlimit="10"/>
<!-- Bottom-right arrowhead: L corner at tip (22.5,25.4), opening back toward LR -->
<path d="M22.5 31.5 L22.5 25.4 L28.8 25.4" stroke="black" stroke-miterlimit="10"/>

<!-- Outer wavy rounded box (matches enter-fullscreen-button.svg) -->
<path d="M1.32227 1.57C0.622271 9.3 0.782232 17.3 0.782232 25.06C0.782232 27.45 0.842261 30.11 0.812261 32.5C0.782261 35.24 0.272198 36.56 0.622198 39.44C0.792198 40.87 0.382281 41.26 1.58228 41.49C2.96228 41.75 3.59227 41.63 4.69227 41.58C6.84227 41.49 8.93224 41.49 11.0422 41.49H26.4323C29.2923 41.49 32.1522 41.49 35.0222 41.49C36.1322 41.49 37.9523 42.05 38.4323 40.8C38.7523 39.97 38.3922 37.99 38.3922 37.02C38.3822 34.58 39.0422 32.61 39.0322 30.16C39.0122 26.55 39.0322 22.94 39.0322 19.33V2.72C39.0322 0.79 39.0723 0.86 36.9623 0.86C36.0323 0.86 35.5722 1 34.7322 1.05C34.1422 1.08 33.6423 0.87 33.0623 0.96C32.2723 1.08 31.5322 1.04 30.7522 1.21C29.5622 1.47 28.1523 1.29 26.9323 1.28C25.7123 1.27 25.1723 1.25 24.0623 1.15C23.0223 1.06 22.1423 0.99 20.0823 0.87C18.4923 0.78 15.7322 0.610001 14.2622 0.590001C12.0322 0.560001 12.5922 0.5 10.3622 0.5C8.26219 0.5 5.66225 0.78 3.67225 0.69C3.39225 0.75 1.45218 0.55 1.35218 1.61L1.32227 1.57Z" stroke="black" stroke-miterlimit="10"/>
</g>
</svg>
