<svg preserveAspectRatio="none" width="100%" height="100%" overflow="visible" style="display: block;" viewBox="0 0 39.52 42.19" fill="none" xmlns="http://www.w3.org/2000/svg">
<g id="full screen button" clip-path="url(#clip0_2116_3)">
<path id="Vector" d="M17.88 19.99C15.91 17.66 14.02 15.38 12.33 12.87C12.01 12.4 11.56 12.01 11.26 11.54C11.06 11.22 10.97 10.85 10.77 10.53C10.65 10.33 10.48 10.23 10.38 9.99C10.18 9.52 10.08 9.1 9.83 8.66C9.53 8.13 9.21 7.7 9.22 7.09" stroke="var(--stroke-0, black)" stroke-miterlimit="10"/>
<path id="Vector_2" d="M7.7 17.77C7.92 16.01 8.15 14.2 8.14 12.43C8.14 11.26 8.14 10.1 8.14 8.93C8.14 8.35 8.05 7.68 8.14 7.1C8.2 6.64 8.13 6.72 8.58 6.66C8.87 6.62 9.21 6.66 9.51 6.66C10.07 6.66 10.64 6.63 11.2 6.66C11.76 6.69 12.26 6.87 12.8 6.9C13.85 6.96 14.93 6.77 15.98 6.94C16.92 7.09 17.91 7.35 18.85 7.33C19.5 7.33 20.15 7.33 20.8 7.33" stroke="var(--stroke-0, black)" stroke-miterlimit="10"/>
<path id="Vector_3" d="M20.35 23.61C22.32 25.94 24.21 28.22 25.9 30.73C26.22 31.2 26.67 31.59 26.97 32.06C27.17 32.38 27.26 32.75 27.46 33.07C27.58 33.27 27.75 33.37 27.85 33.61C28.05 34.08 28.15 34.5 28.4 34.94C28.7 35.47 29.02 35.9 29.01 36.51" stroke="var(--stroke-0, black)" stroke-miterlimit="10"/>
<path id="Vector_4" d="M30.52 25.83C30.3 27.59 30.07 29.4 30.08 31.17C30.08 32.34 30.08 33.5 30.08 34.67C30.08 35.25 30.17 35.92 30.08 36.5C30.02 36.96 30.09 36.88 29.64 36.94C29.35 36.98 29.01 36.94 28.71 36.94C28.15 36.94 27.58 36.97 27.02 36.94C26.46 36.91 25.96 36.73 25.42 36.7C24.37 36.64 23.29 36.83 22.24 36.66C21.3 36.51 20.31 36.25 19.37 36.27C18.72 36.27 18.07 36.27 17.42 36.27" stroke="var(--stroke-0, black)" stroke-miterlimit="10"/>
<path id="Vector_5" d="M1.33 1.6C0.63 9.33 0.79 17.33 0.79 25.09C0.79 27.48 0.85 30.14 0.82 32.53C0.79 35.27 0.28 36.59 0.63 39.47C0.8 40.9 0.39 41.29 1.59 41.52C2.97 41.78 3.6 41.66 4.7 41.61C6.85 41.52 8.94 41.52 11.05 41.52H26.44C29.3 41.52 32.16 41.52 35.03 41.52C36.14 41.52 37.96 42.08 38.44 40.83C38.76 40 38.4 38.02 38.4 37.05C38.39 34.61 39.05 32.64 39.04 30.19C39.02 26.58 39.04 22.97 39.04 19.36V2.74C39.04 0.81 39.08 0.88 36.97 0.88C36.04 0.88 35.58 1.02 34.74 1.07C34.15 1.1 33.65 0.89 33.07 0.98C32.28 1.1 31.54 1.06 30.76 1.23C29.57 1.49 28.16 1.31 26.94 1.3C25.72 1.29 25.18 1.27 24.07 1.17C23.03 1.08 22.15 1.01 20.09 0.89C18.5 0.8 15.74 0.63 14.27 0.61C12.04 0.58 12.6 0.52 10.37 0.52C8.27 0.52 5.67 0.8 3.68 0.71C3.4 0.77 1.46 0.57 1.36 1.63L1.33 1.6Z" stroke="var(--stroke-0, black)" stroke-miterlimit="10"/>
</g>
<defs>
<clipPath id="clip0_2116_3">
<rect width="39.52" height="42.19" fill="white"/>
</clipPath>
</defs>
</svg>
