<svg preserveAspectRatio="none" width="100%" height="100%" overflow="visible" style="display: block;" viewBox="0 0 1428.32 885.35" fill="none" xmlns="http://www.w3.org/2000/svg">
<g id="full screen" clip-path="url(#clip0_2116_14)">
<path id="Vector" d="M7.28 3.18C7.28 35.63 4.02 66.43 4.02 98.88C4.02 113.55 4.02 127.92 3.43 142.73C3.14 149.93 4.6 161.18 3.43 168.21C2.17 175.76 2.86 179.46 2.09 187.01C1.54 192.36 0.87 197.08 1.66 202.58C2.45 208.08 2.06 211.45 1.96 217.61C1.83 225.27 1.69 235.31 2.26 242.88C2.72 249.05 2.14 255.06 2.26 261.25C2.4 268.58 1.07 268.95 1.07 277.25C1.07 283.63 1.2 290.03 1.35 296.41C1.67 309.85 -0.44 313.34 1.07 322.29C2.67 331.74 0.77 343.04 1.66 352.51C2.64 362.83 3.48 373.45 3.44 383.92C3.41 392.18 4.04 402.92 4.03 411.18C4.03 429.65 2.86 439.62 2.84 457.99C2.84 467 3.92 476.24 4.03 485.25C4.14 494.8 3.25 505.5 3.37 515.03C3.59 533.02 4.05 557.99 4.03 575.92C4.01 609.24 4.62 635.16 4.62 668.47C4.62 679.51 4.23 690.63 4.56 701.66C4.77 708.6 2.7 711.93 2.84 718.73C2.99 725.99 3.72 733.4 4.03 740.66C4.34 748.13 3.5 749.63 3.44 757.25C3.4 762.16 2.85 768.93 2.85 773.84C2.85 780.42 4.46 787.43 4.04 793.99C3.62 800.55 3.97 810.03 4.04 816.51C4.18 828.92 8.07 836.9 5.82 849.1C4.52 856.12 6.55 864.15 5.82 875.17C5.08 875.32 5.37 883.9 4.63 884.06" stroke="var(--stroke-0, black)" stroke-miterlimit="10"/>
<path id="Vector_2" d="M7.28 4.06H137.13C148.9 4.06 160.69 4.26 172.45 4.06C182.84 3.88 191.79 0.65 202.53 1.93C227.98 4.97 254.26 -0.95 279.83 1.85C291.92 3.17 304.29 5.77 316.4 5.84C332.37 5.93 348.72 4.55 364.6 6.37C383.34 8.52 401.42 7.67 420.23 8.31C437.12 8.88 453.34 11.89 470.4 11.18C479.73 10.79 488.33 8.3 497.82 8.39C517.25 8.57 536.08 8.09 555.43 6.38C580.15 4.19 606.29 3.91 631.09 3.91C648.75 3.91 666.42 3.79 684.08 3.91C697.22 3.99 709.76 1.53 722.83 1.11C739.96 0.57 757.23 1.25 774.37 1.25C780.98 1.25 787.34 0.72 793.94 0.52C798.51 0.38 801.97 1.96 804.9 1.41C815.92 -0.67 827.72 2 838.97 2C855.39 2 869.96 2.3 886.38 2.3C895.32 2.3 904.11 3.19 913.05 3.19C919.93 3.19 925.13 2.08 932.01 2C939.87 1.91 947.03 0.13 954.73 0.59C971.02 1.56 986.99 3.11 1003.39 3.12C1009.53 3.12 1016.22 2.35 1022.29 2.98C1026.88 3.46 1030.99 2.52 1035.54 3.01C1040.41 3.53 1045.52 2.12 1050.38 2.73C1058.79 3.79 1064.82 4.17 1073.49 4.06C1082.77 3.94 1091.04 2.56 1100.16 2.73C1127 3.22 1154.87 4.41 1181.66 2.81C1187.24 2.48 1194.84 1.64 1200.41 1.19C1206.27 0.71 1212.82 1.3 1218.68 1.32C1231.88 1.37 1245.42 3.11 1258.48 3.19C1271.19 3.27 1283.9 3.19 1296.6 3.19C1301.92 3.19 1307.28 4.02 1312.6 4.08C1321.12 4.17 1327.65 5.34 1336 4.82C1353 3.76 1370.47 4.96 1387.53 4.96C1399.04 4.96 1410.82 4.08 1420.6 4.08" stroke="var(--stroke-0, black)" stroke-miterlimit="10"/>
<path id="Vector_3" d="M4.61 884.06C20.4 882.03 35.36 878.67 51.14 878.73C61.19 878.76 71.25 878.67 81.3 878.73C92.67 878.79 103.18 876.49 114.37 875.93C125.22 875.39 136.34 876.07 147.22 876.07H221.83C240.39 876.07 256.5 882.46 274.82 879.54C288.11 877.42 303.73 878.43 317.28 878.74C328.34 878.99 338.62 875.89 349.68 876.01C358.75 876.11 367.83 876.07 376.9 876.07C409.75 876.09 446.45 877.65 479.28 877.4C531.67 877.01 584.07 877.34 636.46 877.34H738C753.2 877.34 766.92 875 781.94 877.4C793.05 879.18 804.53 876.05 815.81 876.07C832.72 876.1 848.92 877.63 865.74 878.74C885.22 880.02 904.13 881.4 923.69 881.41C935.25 881.41 946.82 881.32 958.38 881.47C969.94 881.62 981.4 878.7 993.39 878.75C1003.98 878.79 1013.14 878.33 1023.41 876.67C1041.81 873.69 1062.62 876.08 1081.3 876.08C1115.45 876.08 1149.59 876.17 1183.74 876.08C1194.91 876.05 1205.08 878.24 1216.01 878.88C1229.69 879.69 1243.59 877.71 1257.26 878.6C1262.85 878.97 1267.83 881.18 1273.42 881.54C1279.82 881.96 1286.6 881.4 1293.02 881.4C1303.53 881.4 1314.68 880.33 1325.04 881.99C1355.12 886.82 1388.04 884.06 1418.83 884.06" stroke="var(--stroke-0, black)" stroke-miterlimit="10"/>
<path id="Vector_4" d="M1420.61 4.06C1419.07 17.49 1418.8 34.26 1418.83 47.56C1418.84 52.42 1419.44 57.58 1418.97 62.4C1418.29 69.44 1416.13 75.18 1416.17 82.37C1416.21 89.56 1416.94 94.41 1418.23 100.99C1420.1 110.52 1418.82 121.27 1418.82 131.02C1418.82 135.78 1418.89 140.55 1418.82 145.31C1418.75 150.84 1420.64 154.22 1421.62 159.4C1422.92 166.34 1421.3 175 1421.46 182.04C1421.6 188.47 1423.7 193.74 1424.29 200.04C1425.7 215.13 1424.15 231.22 1424.15 246.4C1424.15 263.82 1424.36 281.25 1424.21 298.66C1424.15 305.81 1421.63 312.06 1421.38 319.16C1421.11 326.86 1421.48 334.69 1421.48 342.4C1421.48 407.12 1421.48 471.83 1421.48 536.55C1421.48 554.75 1419.49 574.47 1421.71 592.51C1422.84 601.66 1424.25 609.42 1424.15 618.75C1424.04 629.12 1426.32 638.65 1426.95 648.9C1428.95 681.41 1426.81 714.72 1426.81 747.34C1426.81 762.81 1426.78 776.79 1423.49 791.79C1421.14 802.51 1421.48 812.76 1421.48 823.86V853.97C1421.48 860.95 1424.61 879.53 1418.81 884.07" stroke="var(--stroke-0, black)" stroke-miterlimit="10"/>
<path id="Vector_5" d="M1374.43 21.45C1376.4 23.78 1378.29 26.06 1379.98 28.57C1380.3 29.04 1380.75 29.43 1381.05 29.9C1381.25 30.22 1381.34 30.59 1381.54 30.91C1381.66 31.11 1381.83 31.21 1381.93 31.45C1382.13 31.92 1382.23 32.34 1382.48 32.78C1382.78 33.31 1383.1 33.74 1383.09 34.35" stroke="var(--stroke-0, black)" stroke-miterlimit="10"/>
<path id="Vector_6" d="M1384.61 23.67C1384.39 25.43 1384.16 27.24 1384.17 29.01C1384.17 30.18 1384.17 31.34 1384.17 32.51C1384.17 33.09 1384.26 33.76 1384.17 34.34C1384.11 34.8 1384.18 34.72 1383.73 34.78C1383.44 34.82 1383.1 34.78 1382.8 34.78C1382.24 34.78 1381.67 34.81 1381.11 34.78C1380.55 34.75 1380.05 34.57 1379.51 34.54C1378.46 34.48 1377.38 34.67 1376.33 34.5C1375.39 34.35 1374.4 34.09 1373.46 34.11C1372.81 34.11 1372.16 34.11 1371.51 34.11" stroke="var(--stroke-0, black)" stroke-miterlimit="10"/>
<path id="Vector_7" d="M1399.68 52.96C1397.71 50.63 1395.82 48.35 1394.13 45.84C1393.81 45.37 1393.36 44.98 1393.06 44.51C1392.86 44.19 1392.77 43.82 1392.57 43.5C1392.45 43.3 1392.28 43.2 1392.18 42.96C1391.98 42.49 1391.88 42.07 1391.63 41.63C1391.33 41.1 1391.01 40.67 1391.02 40.06" stroke="var(--stroke-0, black)" stroke-miterlimit="10"/>
</g>
<defs>
<clipPath id="clip0_2116_14">
<rect width="1428.32" height="885.35" fill="white"/>
</clipPath>
</defs>
</svg>
