<svg preserveAspectRatio="none" width="100%" height="100%" overflow="visible" style="display: block;" viewBox="0 0 47.97 63.36" fill="none" xmlns="http://www.w3.org/2000/svg">
<g id="mushroom" clip-path="url(#clip0_2250_1523)">
<g id="Vector">
<path d="M20.16 28.7C20.21 29.19 20.71 31.89 20.49 33.02C20.44 33.29 20.18 33.29 20.14 33.67C20.06 34.31 20.16 35.07 20.16 35.71C20.16 37.88 20.04 39.83 19.67 41.96C19.36 43.74 19.17 45.51 18.79 47.29C18.49 48.67 17.97 50.08 17.79 51.46C17.68 52.32 17.7 52.81 17.51 53.62C17.39 54.16 17.42 54.65 17.42 55.21C17.43 56.47 17.36 57.36 17.81 58.42C18.81 60.77 20.42 61.15 22.33 62.18C23.61 62.87 26.48 63.26 27.76 62.24C28.94 61.3 29.85 59.83 30.38 58.4C31.24 56.07 31.09 53.66 31.12 51.13C31.14 49.51 30.72 47.89 30.42 46.36C30.32 45.84 30.4 45.33 30.3 44.82C30.25 44.56 30.01 44.55 29.97 44.29C29.92 43.94 30.03 43.51 29.96 43.17C29.86 42.65 29.6 42.44 29.54 41.85C29.48 41.26 29.66 40.61 29.57 40.03C29.45 39.25 29.17 38.82 29.15 37.99C29.14 37.4 29.23 36.78 29.12 36.22C28.98 35.55 28.75 35.43 28.76 34.59C28.76 33.99 28.76 33.38 28.76 32.78C28.76 32.12 28.55 31.79 28.46 31.32C28.32 30.61 28.38 29.9 28.37 29.16" fill="var(--fill-0, #E6E0D3)"/>
<path d="M20.16 28.7C20.21 29.19 20.71 31.89 20.49 33.02C20.44 33.29 20.18 33.29 20.14 33.67C20.06 34.31 20.16 35.07 20.16 35.71C20.16 37.88 20.04 39.83 19.67 41.96C19.36 43.74 19.17 45.51 18.79 47.29C18.49 48.67 17.97 50.08 17.79 51.46C17.68 52.32 17.7 52.81 17.51 53.62C17.39 54.16 17.42 54.65 17.42 55.21C17.43 56.47 17.36 57.36 17.81 58.42C18.81 60.77 20.42 61.15 22.33 62.18C23.61 62.87 26.48 63.26 27.76 62.24C28.94 61.3 29.85 59.83 30.38 58.4C31.24 56.07 31.09 53.66 31.12 51.13C31.14 49.51 30.72 47.89 30.42 46.36C30.32 45.84 30.4 45.33 30.3 44.82C30.25 44.56 30.01 44.55 29.97 44.29C29.92 43.94 30.03 43.51 29.96 43.17C29.86 42.65 29.6 42.44 29.54 41.85C29.48 41.26 29.66 40.61 29.57 40.03C29.45 39.25 29.17 38.82 29.15 37.99C29.14 37.4 29.23 36.78 29.12 36.22C28.98 35.55 28.75 35.43 28.76 34.59C28.76 33.99 28.76 33.38 28.76 32.78C28.76 32.12 28.55 31.79 28.46 31.32C28.32 30.61 28.38 29.9 28.37 29.16" stroke="var(--stroke-0, black)" stroke-miterlimit="10"/>
</g>
<path id="Vector_2" d="M1.31 26.51C3.59 26.89 3.63 27.06 5.26 27.45C5.63 27.54 5.99 27.4 6.39 27.52C7.16 27.75 7.88 27.78 8.65 27.97C8.91 28.03 9.14 28.28 9.51 28.33C9.88 28.38 10.32 28.33 10.69 28.32C11.7 28.31 12.47 28.71 13.43 28.78C17.94 29.14 22.59 28.77 27.12 28.77C29.06 28.77 31.42 29.19 33.3 28.67C34.11 28.45 34.93 28.46 35.72 28.22C36.18 28.08 36.39 27.9 36.89 27.86C37.39 27.82 38 28.03 38.47 27.89C38.82 27.79 38.86 27.49 39.21 27.39C39.54 27.3 40.06 27.41 40.4 27.41C41.04 27.41 41.66 27.45 42.27 27.31C43.44 27.04 44.58 26.09 45.57 25.25C46.05 24.84 46.53 24.78 46.95 24.15C47.51 23.31 47.44 22.53 47.44 21.52C47.44 19.71 46.82 17.62 45.78 16.18C44.65 14.62 43.55 12.99 42.27 11.56C41.55 10.75 40.73 10.15 40.01 9.28C39.59 8.77 39.28 8.38 38.75 8.02C38.34 7.95 37.98 7.77 37.64 7.49C37.39 7.17 37.13 6.85 36.88 6.54C36.21 5.92 35.57 5.5 34.93 4.86C34.29 4.22 33.78 3.76 32.97 3.4C31.38 2.7 29.83 1.65 28.29 1.11C24.58 -0.19 19.17 0.59 15.86 2.92C14.56 3.84 12.93 4.49 11.83 5.64C10.88 6.63 10.08 7.83 9.13 8.81C7.92 10.05 6.24 10.97 5.27 12.45C5 12.86 4.63 13.48 4.4 13.92C4.24 14.31 4.08 14.7 3.93 15.09C3.69 15.2 3.49 15.37 3.32 15.6C3.13 16.05 3.17 16.54 2.96 17.01C2.75 17.48 2.4 17.84 2.17 18.34C1.77 19.2 1.22 20.3 0.99 21.17C0.78 21.98 0.39 22.93 0.5 23.8C0.63 24.79 0.88 25.4 1.29 26.51H1.31Z" fill="var(--fill-0, #E6E0D3)" stroke="var(--stroke-0, black)" stroke-miterlimit="10"/>
<path id="Vector_3" d="M18.01 11.7C17.7 11.81 17.17 11.93 16.87 12.17C16.75 12.27 16.64 12.39 16.52 12.49C16.21 12.75 15.9 13.02 15.66 13.37C15.35 13.83 15.09 14.27 15.07 14.88C15.05 15.32 15.02 15.85 15.14 16.26C15.74 18.23 18.36 18.44 19.38 16.85C19.7 16.35 20.02 15.79 20.19 15.2C20.36 14.61 20.25 13.94 20.17 13.34C20.14 13.14 20.05 12.9 19.96 12.73C19.9 12.7 19.85 12.66 19.81 12.6C19.78 12.49 19.74 12.39 19.69 12.3C19.65 12.24 19.57 12.15 19.52 12.11C19.24 11.88 18.86 11.71 18.53 11.67C18.53 11.64 18.52 11.61 18.02 11.69L18.01 11.7Z" stroke="var(--stroke-0, black)" stroke-miterlimit="10"/>
<path id="Vector_4" d="M33.85 18.27C33.38 18.5 32.84 18.6 32.68 19.19C32.57 19.59 32.5 20.09 32.48 20.51C32.46 20.96 32.57 21.24 32.73 21.63C32.89 22.05 33.02 22.41 33.34 22.69C33.86 23.14 34.43 23.15 35.03 23.33C35.36 23.43 35.66 23.5 36 23.48C36.45 23.46 36.69 23.15 36.99 22.79C37.51 22.16 37.79 21.41 37.67 20.52C37.57 19.81 37 19.35 36.5 18.99C36.13 18.73 35.68 18.58 35.27 18.42C34.94 18.29 34.7 18.25 33.86 18.25L33.85 18.27Z" stroke="var(--stroke-0, black)" stroke-miterlimit="10"/>
<path id="Vector_5" d="M6.86 10.51C7.05 10.81 7.29 11.37 7.58 11.57C7.63 11.6 7.73 11.61 7.79 11.63C7.91 11.68 7.97 11.76 8.09 11.82C8.35 11.96 9.04 11.93 9.3 11.81C10.01 11.47 10.83 11.05 11.19 10.18C11.45 9.56 11.56 8.75 11.36 8.13C11.28 7.89 11.21 7.65 11.09 7.42C11 7.25 10.86 6.93 10.67 6.89" stroke="var(--stroke-0, black)" stroke-miterlimit="10"/>
<path id="Vector_6" d="M34.09 4.16C33.98 4.22 33.78 4.3 33.68 4.4C33.62 4.46 33.56 4.52 33.51 4.58C33.43 4.67 33.41 4.76 33.35 4.87C33.29 5 33.24 5.1 33.21 5.25C33.16 5.54 33.18 5.84 33.18 6.13C33.18 6.42 33.17 6.71 33.22 7.01C33.34 7.66 33.68 8.25 34.09 8.7C34.15 8.77 34.23 8.82 34.3 8.89C34.4 9 34.5 9.11 34.61 9.2C34.76 9.32 34.95 9.41 35.12 9.45C35.22 9.48 35.32 9.53 35.42 9.54C35.51 9.55 35.59 9.56 35.68 9.58C35.88 9.62 36.09 9.58 36.29 9.54C36.64 9.48 36.98 9.26 37.29 9.08C37.46 8.98 37.65 8.84 37.8 8.69C37.9 8.59 37.95 8.48 38.02 8.36C38.08 8.26 38.15 8.17 38.2 8.06C38.23 7.99 38.34 7.84 38.32 7.76" stroke="var(--stroke-0, black)" stroke-miterlimit="10"/>
<path id="Vector_7" d="M24.41 5.81C24.29 5.87 23.77 6.07 23.65 6.29C23.63 6.32 23.6 6.44 23.59 6.48C23.52 6.68 23.54 6.89 23.54 7.1C23.54 7.49 23.54 7.73 23.83 7.97C24.24 8.32 24.84 8.2 25.17 7.76C25.51 7.29 25.69 6.71 25.28 6.25C25.15 6.1 25.03 5.92 24.86 5.85C24.73 5.79 24.22 5.72 24.2 5.98" stroke="var(--stroke-0, black)" stroke-miterlimit="10"/>
<path id="Vector_8" d="M10.92 21.11C10.66 21.22 10.35 21.35 10.29 21.92C10.19 22.23 10.6 22.9 11.09 22.96C11.58 23.02 11.84 22.44 11.88 21.95C11.9 21.75 11.9 21.48 11.81 21.31C11.69 21.11 11.62 21.14 11.44 21.11C11.23 21.07 11.13 21 10.93 21.11C10.82 21.16 10.74 21.21 10.71 21.36" stroke="var(--stroke-0, black)" stroke-miterlimit="10"/>
</g>
<defs>
<clipPath id="clip0_2250_1523">
<rect width="47.97" height="63.36" fill="white"/>
</clipPath>
</defs>
</svg>
