<svg preserveAspectRatio="none" width="100%" height="100%" overflow="visible" style="display: block;" viewBox="0 0 37.28 51.84" fill="none" xmlns="http://www.w3.org/2000/svg">
<g id="leaf" clip-path="url(#clip0_2250_1505)">
<g id="Vector">
<path d="M14.96 51.84C14.96 44.62 13.55 35.68 15.36 28.73C16.05 26.09 18.6 20.01 16.65 17.26C15.7 15.93 9.08 15.83 7.18 14.5C4.84 12.86 1.54 11.54 0.74 8.28C0.16 5.9 0.63 3.72 2.3 2.06C3.41 0.95 6.47 -0.14 8.74 0.95C11.22 2.14 12.85 3.51 14.3 6.06C16.14 9.3 16.88 11.81 16.65 15.74C18.63 12.3 18.42 9.66 22.65 7.97C26 6.63 32.67 6.08 35.04 8.64C38.59 12.47 36.25 15.91 32.07 18.5C27.63 21.25 21.18 20.28 17.4 17.17C17.3 16.68 16.83 13.22 16.73 12.73" fill="var(--fill-0, #E6E0D3)"/>
<path d="M14.96 51.84C14.96 44.62 13.55 35.68 15.36 28.73C16.05 26.09 18.6 20.01 16.65 17.26C15.7 15.93 9.08 15.83 7.18 14.5C4.84 12.86 1.54 11.54 0.74 8.28C0.16 5.9 0.63 3.72 2.3 2.06C3.41 0.95 6.47 -0.14 8.74 0.95C11.22 2.14 12.85 3.51 14.3 6.06C16.14 9.3 16.88 11.81 16.65 15.74C18.63 12.3 18.42 9.66 22.65 7.97C26 6.63 32.67 6.08 35.04 8.64C38.59 12.47 36.25 15.91 32.07 18.5C27.63 21.25 21.18 20.28 17.4 17.17C17.3 16.68 16.83 13.22 16.73 12.73" stroke="var(--stroke-0, black)" stroke-miterlimit="10"/>
</g>
</g>
<defs>
<clipPath id="clip0_2250_1505">
<rect width="37.28" height="51.84" fill="white"/>
</clipPath>
</defs>
</svg>
