<svg preserveAspectRatio="none" width="100%" height="100%" overflow="visible" style="display: block;" viewBox="0 0 45.64 83.79" fill="none" xmlns="http://www.w3.org/2000/svg">
<g id="flower" clip-path="url(#clip0_2251_1554)">
<path id="Vector" d="M22.01 32.98C22.55 34.49 23.09 35.82 23.42 37.34C23.69 38.58 24.04 39.81 24.32 41.04C24.6 42.27 24.8 43.6 25.05 44.87C25.44 46.81 25.47 48.75 25.8 50.68C25.94 51.49 25.81 52.25 25.85 53.06C25.89 53.99 26.15 54.87 26.17 55.81C26.21 57.56 26.15 59.32 26.17 61.08C26.18 62.04 25.96 62.94 25.89 63.89C25.83 64.75 25.97 65.63 25.81 66.48C25.7 67.07 25.45 67.64 25.34 68.23C25.22 68.9 25.24 69.53 25.01 70.19C24.9 70.52 24.72 70.86 24.66 71.2C24.61 71.49 24.76 71.82 24.69 72.1C24.63 72.35 24.42 72.41 24.36 72.66C24.27 73.05 24.42 73.45 24.31 73.86C24.22 74.19 24.09 74.38 24.07 74.75C24.06 75.03 24.16 75.38 24.09 75.65C24 76.01 23.82 76.1 23.77 76.52C23.73 76.81 23.77 77.06 23.71 77.35C23.67 77.55 23.5 77.73 23.47 78C23.48 78.21 23.49 78.41 23.49 78.62C23.47 78.78 23.39 78.9 23.24 78.97C23.12 79.44 23.07 79.97 22.89 80.4C22.69 80.86 22.38 81.38 22.27 81.86C22.2 82.15 22.37 82.49 22.3 82.78C22.21 83.15 21.86 83.19 21.99 83.65" stroke="var(--stroke-0, black)" stroke-miterlimit="10"/>
<g id="Vector_2">
<path d="M18.98 19.64C18.25 18.44 17.66 17.13 16.87 15.99C16.08 14.85 15.24 13.56 14.73 12.23C14.38 11.31 14.25 10.27 14.23 9.29C14.21 8.36 14.05 7.18 14.38 6.3C14.81 5.14 16.29 4.18 17.2 3.41C18.19 2.58 19.23 2.06 20.4 1.57C22.18 0.82 23.91 0.06 25.81 0.84C29.74 2.47 28.06 8.45 26.99 11.38C26.51 12.7 25.76 13.9 25.28 15.22C25.05 15.85 24.65 16.35 24.46 16.99C24.34 17.38 24.37 17.8 24.01 18.06L24.03 17.88" fill="#F4B6C2"/>
<path d="M18.98 19.64C18.25 18.44 17.66 17.13 16.87 15.99C16.08 14.85 15.24 13.56 14.73 12.23C14.38 11.31 14.25 10.27 14.23 9.29C14.21 8.36 14.05 7.18 14.38 6.3C14.81 5.14 16.29 4.18 17.2 3.41C18.19 2.58 19.23 2.06 20.4 1.57C22.18 0.82 23.91 0.06 25.81 0.84C29.74 2.47 28.06 8.45 26.99 11.38C26.51 12.7 25.76 13.9 25.28 15.22C25.05 15.85 24.65 16.35 24.46 16.99C24.34 17.38 24.37 17.8 24.01 18.06L24.03 17.88" stroke="var(--stroke-0, black)" stroke-miterlimit="10"/>
</g>
<path id="Vector_3" d="M18.6 21.14C18.32 20.08 18.18 18.82 17.62 17.89C17.25 17.28 16.69 16.69 16.3 16.05C15.96 15.51 15.85 14.87 15.45 14.36C15.11 13.93 14.74 13.78 14.31 13.43C13.47 12.74 12.76 12.32 11.67 11.93C7.31 10.36 2 12.14 0.71 16.36C0.1 18.36 0.86 20.31 2.16 21.97C2.65 22.6 3.63 23.17 4.37 23.52C5.58 24.08 6.76 23.91 8.04 24.09C8.83 24.2 9.44 24.47 10.27 24.41C11.15 24.35 12.16 24.25 13.02 24.12C13.55 24.04 13.94 23.84 14.49 23.81C15.04 23.78 15.79 23.42 18.6 21.14Z" fill="#F4B6C2" stroke="var(--stroke-0, black)" stroke-miterlimit="10"/>
<path id="Vector_4" d="M20.09 22.68C18.92 22.41 17.5 21.79 16.46 22.22C15.28 22.71 14.09 23.15 12.98 23.76C11.36 24.66 9.71 25.23 8.62 26.78C8 27.66 7.62 28.67 7.44 29.8C7.24 31.06 7.61 32.23 7.99 33.54C8.66 35.81 9.72 38.13 12.24 38.66C14.76 39.19 17.87 38.89 19.67 37.31C21 36.14 21.94 33.92 22.26 32.08C22.67 29.71 22.48 26.72 21.62 24.24C21.69 24.34 21.79 24.39 20.1 22.68H20.09Z" fill="#F4B6C2" stroke="var(--stroke-0, black)" stroke-miterlimit="10"/>
<path id="Vector_5" d="M22.14 23.6C21.93 26.2 21.77 28.59 22.22 31.11C22.67 33.63 23.77 36.42 26.19 37.43C28.96 38.58 31.86 37.14 34.19 35.17C35.03 34.45 35.75 34.03 36.08 33C36.31 32.3 36.74 31.27 36.77 30.54C36.83 28.95 35.31 27.26 34.16 26.39C33.5 25.89 32.81 25.42 32.04 25.09C31.34 24.78 30.78 24.31 30.03 24.1C29.28 23.89 28.6 23.41 27.83 23.18C27.17 22.99 26.62 22.87 26 22.6C25.56 22.41 23.26 21.3 22.81 21.87C22.84 21.93 22.88 22 22.16 23.6H22.14Z" fill="#F4B6C2" stroke="var(--stroke-0, black)" stroke-miterlimit="10"/>
<path id="Vector_6" d="M23.2 20.84C26.38 15.25 30.77 8.06 38.03 8.1C38.93 8.1 39.79 7.98 40.62 8.38C41.45 8.78 42.3 9.27 42.88 10.01C44.32 11.86 45.35 14.37 45.1 16.7C44.97 17.91 44.5 18.84 43.88 19.87C43.37 20.72 42.65 21.91 41.89 22.56C39.74 24.37 36.51 24.26 33.93 23.88C31.89 23.58 29.86 23.4 27.87 22.92C26.82 22.67 25.72 22.01 23.21 20.85L23.2 20.84Z" fill="#F4B6C2" stroke="var(--stroke-0, black)" stroke-miterlimit="10"/>
<path id="Vector_7" d="M19.2 15.32C18.57 15.52 17.55 15.67 17.06 16.17C16.73 16.51 16.62 17.05 16.41 17.47C15.77 18.79 15.46 20.11 15.47 21.58C15.47 22.84 15.39 24.25 16.19 25.32C16.77 26.09 17.73 26.87 18.59 27.29C19.36 27.67 20.68 27.52 21.54 27.48C22.07 27.45 22.57 27.18 23.07 27.02C23.37 26.92 23.63 26.85 23.89 26.69C24.52 26.32 25.37 25.81 25.86 25.27C26.2 24.9 26.4 24.37 26.63 23.93C26.83 23.55 27.09 23.25 27.23 22.84C28.01 20.57 27.71 17.56 25.95 15.8C25.36 15.21 24.48 14.89 23.69 14.74C23.23 14.65 22.69 14.72 22.22 14.72C21.75 14.72 21.21 14.63 20.78 14.75C20.77 14.8 20.76 14.86 19.18 15.3L19.2 15.32Z" fill="#F4B6C2" stroke="var(--stroke-0, black)" stroke-miterlimit="10"/>
</g>
<defs>
<clipPath id="clip0_2251_1554">
<rect width="45.64" height="83.79" fill="white"/>
</clipPath>
</defs>
</svg>
