<svg preserveAspectRatio="none" width="100%" height="100%" overflow="visible" style="display: block;" viewBox="0 0 31.73 58.03" fill="none" xmlns="http://www.w3.org/2000/svg">
<g id="clover" clip-path="url(#clip0_2251_1563)">
<path id="Vector" d="M13.21 16.57C11.44 17.26 10.18 17.4 8.23 17.32C6.73 17.26 5.46 16.82 4.05 16.41C2.79 16.04 1.38 14.65 1.18 14.34C0.96 14.01 0.5 12.93 0.51 11.98C0.52 10.27 1.74 9.09 3.26 8.63C4.05 8.39 5.03 8.25 5.86 8.4C6.2 8.46 9.99 8.75 8.7 10.27C6.89 11.12 6.46 7.61 6.29 7.08C5.81 5.6 5.63 4.4 6.25 2.92C7.53 -0.0999998 11.26 -0.19 13.37 2.08C15.31 4.18 15.43 5.75 15.43 8.42C15.43 9.24 15.41 11.07 15.39 11.38C15.39 11.38 15.37 12.81 15.35 13.05C15.33 13.29 15.3 13.62 15.24 13.86C15.18 14.09 15.13 14.33 15.08 14.57C14.98 15.02 14.67 15.36 14.36 15.7C13.99 16.1 13.44 16.41 13.2 16.56L13.21 16.57Z" fill="#DFD9C9" stroke="var(--stroke-0, black)" stroke-miterlimit="10"/>
<path id="Vector_2" d="M15.92 16.74C15.08 16.46 14.2 16.42 13.37 16.59C11.14 17.05 8.58 18.41 7.51 19.6C6.69 20.52 5.65 21.71 5.15 22.91C4.59 24.24 4.71 25.77 5.37 27.14C6.41 29.28 9.36 30.24 11.28 29.97C13.05 29.72 16.97 25.84 15.07 25.04C14.18 24.91 14.39 26.13 14.43 26.33C14.52 26.8 15.03 27.56 15.22 28.03C15.35 28.36 15.8 29.22 16.19 29.82C16.36 30.08 16.88 30.52 17.43 30.78C17.87 30.99 19.61 31.88 20.9 31.4C22.4 30.84 23.56 29.51 24.13 27.96C25.01 25.56 21.65 20.99 20.8 20.18C20.01 19.42 18.78 18.38 18.47 18.12C17.93 17.66 17.39 17.21 15.93 16.73L15.92 16.74Z" fill="#DFD9C9" stroke="var(--stroke-0, black)" stroke-miterlimit="10"/>
<path id="Vector_3" d="M16.96 16.98C16.17 16.45 15.3 16.06 15.41 15.11C15.48 14.52 15.47 13.86 15.54 13.36C15.69 12.25 15.73 11.05 16 9.97C16.56 7.77 18.04 5.34 20.32 4.65C22.41 4.01 25.01 4.49 25.6 6.91C25.91 8.18 25.48 9.66 24.74 10.68C24.35 11.22 23.3 13.98 22.29 13.11C21.67 11.93 24.27 11.31 24.7 11.28C25.92 11.19 27.03 11.12 28.23 11.57C29.14 11.92 30.64 13.14 30.93 14.11C31.09 14.67 31.28 15.44 31.24 16.11C31.19 16.97 31.04 17.45 30.58 18.18C28.59 21.37 24.78 20.02 22 19.02C20.97 18.65 20.12 18.36 19.15 17.91C18.46 17.6 17.8 17.52 16.98 16.97L16.96 16.98Z" fill="#DFD9C9" stroke="var(--stroke-0, black)" stroke-miterlimit="10"/>
<g id="Vector_4">
<path d="M13.02 29.09C12.68 30.71 12.11 32.35 12.12 34.01C12.12 35.9 12.13 37.78 12.13 39.67C12.13 41.56 11.97 43.56 12.2 45.46C12.4 47.15 12.58 48.85 12.7 50.55C12.81 52.13 12.58 53.71 12.96 55.23C13.17 56.1 13.03 57.13 13.03 58.03V57.83" fill="#DFD9C9"/>
<path d="M13.02 29.09C12.68 30.71 12.11 32.35 12.12 34.01C12.12 35.9 12.13 37.78 12.13 39.67C12.13 41.56 11.97 43.56 12.2 45.46C12.4 47.15 12.58 48.85 12.7 50.55C12.81 52.13 12.58 53.71 12.96 55.23C13.17 56.1 13.03 57.13 13.03 58.03V57.83" stroke="var(--stroke-0, black)" stroke-miterlimit="10"/>
</g>
</g>
<defs>
<clipPath id="clip0_2251_1563">
<rect width="31.73" height="58.03" fill="white"/>
</clipPath>
</defs>
</svg>
