<svg preserveAspectRatio="none" width="100%" height="100%" overflow="visible" style="display: block;" viewBox="0 0 18.2408 14.8601" fill="none" xmlns="http://www.w3.org/2000/svg">
<path id="Vector" d="M13.24 1.47752C10.23 1.09752 7.21 0.777517 4.19 0.517517C3.97 0.727517 3.81 0.977517 3.71 1.26752C2.33 2.01752 2.76 1.60752 1.98 2.95752C1.05 4.56752 0.5 5.46752 0.5 7.41752C0.5 11.8275 4.01 13.2975 7.68 14.2475C9.66 14.7575 11.5 13.4075 13.26 12.7275C14.91 12.0875 16.27 11.3275 17.09 9.57751C17.61 8.46751 18.12 4.37752 17.34 3.32752C17.36 3.34752 15.3 2.15751 15.17 2.09751C14.23 1.62751 13.67 1.48752 12.53 1.33752L12.39 0.627517" stroke="var(--stroke-0, black)" stroke-miterlimit="10"/>
</svg>
