<svg preserveAspectRatio="none" width="100%" height="100%" overflow="visible" style="display: block;" viewBox="0 0 19.5672 21.3815" fill="none" xmlns="http://www.w3.org/2000/svg">
<path id="Vector" d="M12.8676 0.507151C9.81759 1.17715 6.81759 2.09715 3.85759 3.26715C3.54759 5.38715 1.59759 6.02715 0.907593 7.79715C0.107593 9.84715 0.527592 15.1572 1.79759 16.7572C2.05759 17.0872 3.75759 18.2071 4.15759 18.4671C4.88759 18.9471 6.31759 19.9872 6.99759 20.2272C8.56759 20.7772 12.1776 21.2072 13.7776 20.5472C15.1676 19.9772 16.3676 17.4572 17.4176 16.0772C19.0676 13.9072 19.2376 11.9071 18.9576 8.70715C18.7576 6.44715 17.5976 4.53715 16.1476 3.11715C15.6576 2.63715 14.5076 1.74715 13.9776 1.35715C12.8976 0.577153 12.4976 0.467151 11.1376 0.507151" stroke="var(--stroke-0, black)" stroke-miterlimit="10"/>
</svg>
