<svg preserveAspectRatio="none" width="100%" height="100%" overflow="visible" style="display: block;" viewBox="0 0 23 24" fill="none" xmlns="http://www.w3.org/2000/svg">
<g id="go to ecosystem">
<path id="Vector" d="M0.639985 0.516258C0.627268 0.528744 0.5 5.56298 0.5 8.19877C0.5 11.2468 0.5 13.8201 0.5 16.9431C0.5 18.1923 0.499927 22.5644 0.627258 23.4763C2.01091 23.4763 5.09343 23.4763 6.6076 23.4763H11.9517C13.7076 23.4763 15.4636 23.4513 17.2195 23.4763C18.5937 23.5013 18.95 23.4763 20.2224 23.4763C22.131 23.4763 22.5 23.8136 22.5 21.9398C22.2328 20.2612 22.5 17.7426 22.5 16.0437C22.5 13.158 22.5 9.79937 22.5 6.94966C22.5 4.45136 22.5 2.77266 22.5 0.516276C20.8586 0.516351 17.843 0.466277 16.4433 0.541229C15.0437 0.61618 13.6822 0.528744 12.308 0.528744C11.0483 0.528744 9.78863 0.541235 8.54167 0.528744C6.88753 0.516252 0.639985 0.516258 0.627268 0.528744L0.639985 0.516258Z" fill="var(--fill-0, #DFD9C9)" stroke="var(--stroke-0, black)" stroke-miterlimit="10"/>
<path id="Vector_2" d="M17.41 1.56002C17.86 5.23002 17.98 8.85002 19.01 12.07C19.62 13.99 19.74 15.43 19.88 17.48C18.92 16.1 17.32 15.41 16.26 14.1C15.03 12.58 14.56 11.23 13.12 13.52C12.43 14.62 11.83 15.74 11.16 16.9C10.01 18.9 9.65 21.55 8.3 23.36C7.24001 23.12 6.65001 21.66 5.77001 20.98C4.89001 20.3 3.90001 20.2 3.18001 19.41C3.66001 18.87 3.78 18.14 4.23 17.55C4.57 17.11 5.15 16.82 5.48 16.37C6.37 15.18 6.79001 13.71 7.68001 12.5C8.77001 11.02 9.43 10.6 7.71 9.24002C6.74 8.47002 4.72 8.15002 4.53 6.59002C7.11 5.84002 9.6 6.01002 12.17 4.91002C13.56 4.31002 16.75 1.93002 18.22 2.37002" stroke="var(--stroke-0, black)" stroke-miterlimit="10"/>
</g>
</svg>
