<svg preserveAspectRatio="none" width="100%" height="100%" overflow="visible" style="display: block;" viewBox="0 0 32.62 31.96" fill="none" xmlns="http://www.w3.org/2000/svg">
<g id="hand" clip-path="url(#clip0_0_10)">
<path id="Vector" d="M1.21002 1.12C1.21002 3.41 1.21002 5.7 1.21002 7.99C1.21002 10.72 1.60002 13.82 1.08002 16.5C0.560021 19.18 0.620021 21.6 0.620021 24.23C0.620021 26.1 0.330021 28.24 0.670021 30.07C2.14002 30.56 4.36002 30.16 5.86002 30.16C7.06002 30.16 8.27002 30.16 9.47002 30.16H14.81C16.75 30.16 18.36 30.16 20.17 30.62C21.51 30.97 22.95 30.66 24.32 30.74C25.24 30.79 25.81 31.19 26.69 31.38C27.42 31.53 28.45 31.35 29.19 31.35C29.67 31.35 31.54 31.67 31.93 31.26C32.32 30.85 32.02 29.34 32.02 28.85C32.02 24.28 30.76 19.92 30.83 15.36C30.86 13.69 30.23 12.33 30.24 10.62C30.24 9.24 30.24 7.85 30.24 6.47C30.24 5.68 30.25 4.89 30.24 4.1C30.23 3.24 30.58 2.81 30.7 2.19C31.17 -0.310002 29.3 0.629998 27.61 0.999998C26.45 1.26 25.39 1.03 24.23 1.1C23.07 1.17 22.02 1.65 20.87 1.75C18.36 1.97 15.72 1.73 13.19 1.72C11.51 1.72 10.49 2.33 8.91002 2.31C7.13002 2.29 5.36002 2.31 1.21002 1.13V1.12Z" fill="var(--fill-0, #DFD9C9)" stroke="var(--stroke-0, black)" stroke-miterlimit="10"/>
<path id="Vector_2" d="M10.5543 25.6979C9.40433 25.0979 8.26433 24.4579 7.09433 23.8779C6.99433 23.8279 6.80433 23.9379 6.69433 23.8579C6.26433 23.5379 6.17433 23.2779 5.65433 23.0579C5.07433 22.8179 3.85433 22.3279 4.01433 21.5379C4.29433 20.1279 7.06433 20.6179 8.07433 20.6679C6.98433 19.7579 6.25433 18.4579 5.72433 17.1679C5.04433 15.5079 4.67433 13.7779 4.90433 11.9679C5.13433 10.1679 6.59433 9.8379 7.86433 10.9279C8.55433 11.5179 8.98433 12.3279 9.65433 12.9579C9.95433 13.2379 10.9343 14.2179 11.3143 14.1679C10.3843 12.6279 10.2443 10.5979 10.2443 8.8179C10.2443 7.8279 9.91433 6.4279 10.6143 5.6079C11.0043 5.1479 11.6743 4.5279 12.1643 4.2279C13.7743 3.2579 15.0143 5.6279 15.4643 6.7679C15.8343 7.7079 16.3743 8.7579 16.4843 9.7779C16.5243 10.1379 16.3743 10.5579 16.4543 10.9079C16.5143 11.1979 16.7743 11.3479 16.8243 11.6679C17.3943 11.4979 17.5843 11.0079 17.9343 10.5979C18.4443 9.9979 19.2543 9.6679 19.8443 9.1379C20.8643 8.2279 21.9043 7.7579 23.2843 7.9179C24.4243 8.0579 24.3343 9.3379 24.1043 10.2979C23.9043 11.0979 23.3843 11.6579 22.9843 12.3679C22.7443 12.7979 22.3843 13.1379 22.1443 13.5679C22.0343 13.7679 22.0643 13.9879 21.9243 14.1879C22.2643 13.5679 24.1243 13.0279 24.7543 12.9579C25.7943 12.8379 26.8043 13.1979 27.5743 13.8479C28.0243 14.2279 28.0543 14.6779 28.2743 15.1979C28.5443 15.8179 28.6743 15.9679 28.3843 16.5879C28.1743 17.0379 28.0443 17.4679 27.7243 17.8479C27.4043 18.2279 26.9343 18.6179 26.5543 18.9579C25.6643 19.7479 24.5843 20.4879 23.5743 21.1079C22.5643 21.7279 22.1943 22.6079 21.4943 23.4779C21.1943 23.8479 21.0743 24.2879 20.7643 24.6679C20.4743 25.0279 20.5443 24.9279 20.1643 25.1079C20.0043 25.1879 19.6243 25.3779 19.4443 25.4179C19.1243 25.4879 18.8443 25.4479 18.5343 25.5479C18.3143 25.6179 18.0443 25.7779 17.7943 25.8479C17.1943 26.0279 16.7243 26.0379 16.1743 26.2879C15.5943 26.5579 14.9543 26.6679 14.3943 26.8879C13.9543 27.0579 13.1143 27.3579 12.5943 27.1879C12.0943 27.0279 11.8443 26.4279 11.4343 26.1279C11.0243 25.8279 10.4143 25.6379 9.94433 25.3979" stroke="var(--stroke-0, black)" stroke-miterlimit="10"/>
</g>
<defs>
<clipPath id="clip0_0_10">
<rect width="32.62" height="31.96" fill="white"/>
</clipPath>
</defs>
</svg>
