<svg preserveAspectRatio="none" width="100%" height="100%" overflow="visible" style="display: block;" viewBox="0 0 396.859 398.377" fill="none" xmlns="http://www.w3.org/2000/svg">
<path id="Vector" d="M0.159376 394.526C8.03938 391.876 17.2594 394.876 25.4594 392.876C34.6794 389.876 44.9294 390.876 54.1494 389.876C64.3994 387.876 73.6194 392.876 83.8594 392.876C111.519 391.876 140.209 392.876 167.879 390.876C184.269 393.876 200.669 391.876 217.059 393.876C250.869 396.876 283.659 396.876 317.469 397.876C343.089 393.876 368.699 396.876 395.339 394.876C395.339 394.876 396.359 393.876 396.359 392.876C395.339 389.876 393.289 386.876 393.289 384.876C391.239 361.876 390.219 338.876 394.309 315.876C392.259 307.876 393.289 298.876 393.289 290.876C395.339 268.876 395.339 247.876 393.289 225.876C392.269 203.876 395.339 182.876 394.309 160.876C394.309 157.876 392.259 155.876 392.259 152.876C393.279 133.876 390.209 113.876 394.309 94.8761C392.259 65.8761 395.329 37.8761 391.239 7.8761C391.239 7.8761 390.219 7.8761 389.509 7.8561C390.199 7.8861 390.899 7.8561 391.589 7.7861C349.659 7.8761 317.469 3.8061 247.659 7.8761C229.219 4.8761 183.239 0.876101 164.789 0.876101C111.519 -0.123899 57.2194 0.876101 3.94938 3.8061" stroke="var(--stroke-0, black)" stroke-miterlimit="10"/>
</svg>
