<svg preserveAspectRatio="none" width="100%" height="100%" overflow="visible" style="display: block;" viewBox="0 0 24.91 35.67" fill="none" xmlns="http://www.w3.org/2000/svg">
<g id="Log in" clip-path="url(#clip0_0_34)">
<path id="Vector" d="M0.64 34.04C3.23 34.28 5.81 34.23 8.37 33.86C8.42 32.66 10.91 33.22 11.81 33.24C13.32 33.27 13.84 32.71 15.14 32.42C17.56 31.87 21.01 32.34 23.48 32.49C22.24 31.39 21.15 30.08 20.01 28.86C18.81 27.58 16.38 25.65 16.38 23.81C17.74 23.7 18.22 22.65 19.25 21.88C20.28 21.11 21.17 20.51 22.07 19.48C23.97 17.32 24.14 14.24 23.77 11.31C23.05 5.62 17.07 1.97 12.56 0.72C7.77 -0.61 2.76 4.39 2.88 9.32C2.95 12.23 3.92 14.53 5.65 16.65C6.57 17.78 7.51 19.19 8.27 20.46C8.68 21.13 10.18 22.87 10.23 23.5C8.25 23.65 5.8 27.25 4.53 28.68C3.74 29.57 3.44 30.52 2.68 31.45C1.93 32.37 1.41 33.84 0.59 34.52L0.63 34.04" stroke="var(--stroke-0, black)" stroke-miterlimit="10"/>
</g>
<defs>
<clipPath id="clip0_0_34">
<rect width="24.91" height="35.67" fill="white"/>
</clipPath>
</defs>
</svg>
