<svg preserveAspectRatio="none" width="100%" height="100%" overflow="visible" style="display: block;" viewBox="0 0 19.55 17.35" fill="none" xmlns="http://www.w3.org/2000/svg">
<g id="&#235;&#143;&#139;&#235;&#179;&#180;&#234;&#184;&#176;" clip-path="url(#clip0_0_14)">
<path id="Vector" d="M9.36 0.49C7.26 0.83 5.18 1.3 3.14 1.9C2.96 3.01 1.41 3.89 1.04 5.04C0.53 6.65 0.19 7.64 0.91 9.24C2.12 11.92 4.64 14.19 7.89 13.68C10.92 13.2 12.91 10.38 13.58 7.71C13.93 6.33 12.66 4.56 11.9 3.47C10.9 2.05 9.92 1.05 8.16 1.09" stroke="var(--stroke-0, black)" stroke-miterlimit="10"/>
<path id="Vector_2" d="M12.72 9.92C13.75 11.07 15.18 12.27 16.02 13.55C16.14 13.73 16.14 13.97 16.29 14.15C16.59 14.53 16.95 14.86 17.29 15.21C17.8 15.73 18.92 16.53 19.07 17.25" stroke="var(--stroke-0, black)" stroke-miterlimit="10"/>
</g>
<defs>
<clipPath id="clip0_0_14">
<rect width="19.55" height="17.35" fill="white"/>
</clipPath>
</defs>
</svg>
