<svg preserveAspectRatio="none" width="100%" height="100%" overflow="visible" style="display: block;" viewBox="0 0 174 175.18" fill="none" xmlns="http://www.w3.org/2000/svg">
<path id="Vector" d="M173.364 0.53122C162.671 1.69249 151.863 1.25599 141.104 1.26422C133.473 1.26422 125.966 2.76317 118.368 2.73023C110.771 2.69728 103.337 2.73023 95.8218 2.73023C89.2118 2.73023 82.4948 3.05967 75.8847 2.77141C74.0573 2.68905 72.3451 2.04664 70.5259 1.97252C69.2829 1.9231 68.0153 2.129 66.7723 2.03841C65.2 1.9231 63.7183 1.32187 62.1378 1.23128C59.7589 1.09127 57.3223 1.27246 54.9351 1.27246C49.7657 1.27246 44.5962 1.20657 39.4267 1.27246C37.1301 1.29717 35.1133 0.415916 32.8167 0.506512C30.1084 0.61358 27.6225 1.3054 24.8566 1.26422C23.1609 1.23951 21.7451 1.70073 20.107 1.93957C19.1274 2.08782 18.1149 1.85721 17.1436 2.06311C16.2299 2.26078 15.5796 2.64787 14.6164 2.7467C13.4146 2.87848 12.1223 2.73023 10.904 2.73023C8.96129 2.73023 7.01039 2.70552 5.06771 2.73023C3.12504 2.75494 2.6723 1.28893 0.688469 1.26422C0.688469 1.02538 0.293349 6.86469 0.647311 8.27305C0.704932 8.48718 1.23999 8.66014 1.25645 8.72603C1.44578 9.55786 1.42932 10.2662 1.42109 11.1474C1.40462 13.0993 1.42109 15.0513 1.42109 17.0032C1.42109 19.301 1.30584 21.1871 0.853102 23.4108C0.211033 26.524 0.688469 30.1066 0.688469 33.294C0.688469 38.7297 0.746091 44.1655 0.688469 49.6012C0.655542 52.5991 1.42932 55.3252 1.41286 58.3973C1.40462 61.6834 1.44578 64.9696 1.41286 68.2557C1.39639 69.5653 1.71743 70.4547 1.98907 71.6819C2.27718 73.0161 2.03846 74.3174 2.12078 75.6599C2.21133 77.1424 2.8287 78.4519 2.91102 79.9344C3.0098 81.7545 2.73815 83.5994 2.8534 85.4195C2.93571 86.6796 3.5037 87.6762 3.65187 88.9116C3.82473 90.3199 3.61071 91.9013 3.61071 93.3261C3.61071 96.6122 3.5037 99.6431 3.04273 102.863C2.64761 105.606 2.92748 108.464 2.89456 111.248C2.86986 113.224 2.22779 114.987 2.10432 116.939C1.9973 118.693 2.14547 120.497 2.14547 122.267C2.14547 128.033 1.65981 133.567 1.43755 139.299C1.32231 142.289 0.680237 145.163 0.680237 148.219C0.680237 150.731 0.680237 153.235 0.680237 155.747C0.680237 157.937 0.704932 160.12 0.680237 162.311C0.655542 164.683 1.42932 166.56 1.41286 168.924C1.41286 169.583 1.11652 171.329 1.36347 171.906C1.70096 172.705 2.34303 172.705 3.24029 172.952C4.13754 173.199 4.97717 173.075 5.84149 173.273C6.91161 173.52 7.05978 173.989 8.36038 174.055C12.8549 174.286 17.4399 174.055 21.9426 174.055C29.2606 174.055 36.1258 172.112 43.4931 171.864C45.3041 171.807 46.7446 171.107 48.6132 171.123C53.8321 171.173 58.9357 171.197 64.1381 171.856C67.3238 172.26 70.3284 172.416 73.5058 172.565C74.7735 172.622 75.6131 173.215 76.7902 173.372C77.778 173.503 78.7246 172.902 79.6631 172.672C81.9021 172.128 84.3469 171.609 86.627 171.263C92.0846 170.448 98.0279 171.115 103.56 171.115C104.975 171.115 106.679 170.884 108.079 171.074C109.593 171.288 110.845 171.832 112.442 171.864C122.295 172.054 132.049 172.581 141.919 172.581C145.656 172.581 149.27 171.79 152.983 171.832C155.51 171.864 158.045 171.848 160.572 171.848C162.597 171.848 164.803 171.601 166.812 171.832C167.767 171.939 168.112 172.416 168.952 172.622C169.973 172.869 171.603 172.589 172.648 172.581C173.125 172.581 172.096 174.311 172.541 174.5C173.076 172.68 172.648 170.127 172.648 168.191V162.335C172.648 157.394 172.524 152.436 172.631 147.494C172.664 146.094 173.175 145.205 173.422 143.87C173.619 142.791 173.381 141.482 173.381 140.362C173.381 138.212 173.619 135.89 173.216 133.781C172.343 129.21 172.648 124.508 172.648 119.813C172.648 116.502 173.068 112.854 172.582 109.592C172.179 106.833 171.915 104.387 171.915 101.57C171.915 96.1263 171.603 90.5917 171.891 85.1642C171.998 83.1711 172.631 81.318 172.681 79.3002C172.714 77.7518 172.656 76.1952 172.656 74.6469C172.656 73.4774 172.557 72.2667 172.631 71.1054C172.706 69.7794 173.282 68.6511 173.43 67.3415C173.776 64.2201 172.64 61.2881 172.664 58.1749C172.689 55.0617 172.664 51.9485 172.664 48.8435C172.664 35.4271 173.265 14.6312 173.265 1.22304" stroke="#3A3A3A" stroke-miterlimit="10"/>
</svg>
