<svg preserveAspectRatio="none" width="100%" height="100%" overflow="visible" style="display: block;" viewBox="0 0 43.09 41.08" fill="none" xmlns="http://www.w3.org/2000/svg">
<g id="Sound Off" clip-path="url(#clip0_2239_1407)">
<path id="Vector" d="M17.38 13.16C17.02 13.24 16.36 13.11 15.62 13.26C15.47 13.29 14.95 13.31 14.77 13.35C14.4 13.42 13.98 13.38 13.61 13.38C12.91 13.38 11.89 13.25 11.38 13.81C10.87 14.37 11.09 15.32 11.09 16.04C11.09 16.93 10.9 17.82 10.9 18.71C10.9 19.67 10.78 20.43 10.79 21.39C10.79 22.57 10.79 23.76 10.79 24.95C10.79 25.93 10.79 26.92 10.79 27.9C10.79 28.18 10.65 29.09 10.83 29.33C10.95 29.48 11.92 29.68 12.12 29.69C12.86 29.75 13.69 29.63 14.45 29.49C15.33 29.33 16.65 29.56 17.56 29.27C18.14 29.08 19.04 29.06 19.5 29.49C19.68 29.65 19.84 29.92 19.96 30.15C20.16 30.51 20.43 30.75 20.64 31.08C21.57 32.52 23.03 33.85 24.23 35.17C24.71 35.7 25.31 36.01 25.81 36.56C26.33 37.13 26.9 37.64 27.45 38.2C27.86 38.62 28.3 38.96 28.78 39.24C29.36 39.58 29.98 40.42 30.28 39.46C30.42 39.01 30.57 38.46 30.56 38.16C30.54 37.62 30.64 37.37 30.63 36.79C30.63 36.4 30.78 35.96 30.78 35.57C30.78 35.02 30.83 34.44 30.85 33.98C30.89 33.24 30.81 32.82 30.81 32.09C30.81 31.72 30.67 30.32 30.74 29.96C30.84 29.41 30.86 28.94 30.85 28.35C30.84 27.56 30.73 26.7 30.88 25.93C30.95 25.57 30.89 25.39 30.91 24.92C30.93 24.43 31.42 24.64 31.69 24.29C31.69 24.3 32.35 23.85 32.4 23.81C32.72 23.61 32.93 23.59 33.22 23.3C33.58 22.94 34.09 22.11 34.2 21.61C34.37 20.86 34.25 19.48 33.89 18.89C33.53 18.3 33.03 18 32.45 17.56C31.87 17.12 30.95 17.32 30.51 16.83C30.11 16.38 30.34 15.36 30.34 14.7C30.34 13.92 30.38 13.02 30.41 12.25C30.43 11.81 30.48 11.31 30.48 11.31L30.71 9.51L30.94 7.61L31.16 6.03C31.21 5.42 31.47 4.21 31.17 3.28C30.87 2.35 29.51 2.55 28.93 3.06C28.4 3.53 27.58 4.05 27.3 4.39C27.22 4.49 26.41 5.29 26.32 5.38L25.57 6.18L25.1 6.71L24.64 7.28L23.77 8.2L21.85 10C21.71 10.13 21.58 10.26 21.45 10.4C21.08 10.79 21.05 11.32 20.54 11.8C20.32 12.01 20.07 12.28 19.83 12.47C19.54 12.7 19.23 12.84 18.83 12.99C18.25 13.11 18.04 13.03 17.39 13.14L17.38 13.16Z" stroke="var(--stroke-0, black)" stroke-miterlimit="10"/>
<path id="Vector_2" d="M43 2.5C40.62 4.98 40.35 5.1 40 5.5C39.11 6.53 38.19 7.56 37.25 8.53C34.95 10.92 34.34 11.17 31.97 13.45C28.6 16.7 24.86 19.29 21.44 22.43C18.8 24.85 15.93 26.99 13.38 29.54C10.13 32.79 7.01 36.16 3.74 39.24" stroke="var(--stroke-0, black)" stroke-miterlimit="10"/>
<path id="Vector_3" d="M1.5 1.5C1.69 2.2 4.59 5.44 5 6C8 9 8.37 9.23 11.94 12.17C14.58 14.34 16.9 16.79 18.91 19.81C20.62 22.37 22.92 24.37 25.09 26.3C29.12 29.88 31.33 31.93 35 36C35.49 36.54 37.02 37.4 37.5 38C37.94 38.55 39 39.5 40 40" stroke="var(--stroke-0, black)" stroke-miterlimit="10"/>
</g>
<defs>
<clipPath id="clip0_2239_1407">
<rect width="43.09" height="41.08" fill="white"/>
</clipPath>
</defs>
</svg>
