<svg preserveAspectRatio="none" width="100%" height="100%" overflow="visible" style="display: block;" viewBox="0 0 41.46 43.06" fill="none" xmlns="http://www.w3.org/2000/svg">
<g id="Sound On" clip-path="url(#clip0_2239_1412)">
<path id="Vector" d="M7.15 13.82C6.79 13.9 6.13 13.77 5.39 13.92C5.24 13.95 4.72 13.97 4.54 14.01C4.17 14.08 3.75 14.04 3.38 14.04C2.68 14.04 1.66 13.91 1.15 14.47C0.64 15.03 0.86 15.98 0.86 16.7C0.86 17.59 0.67 18.48 0.67 19.37C0.67 20.33 0.55 21.09 0.56 22.05C0.56 23.23 0.56 24.42 0.56 25.61C0.56 26.59 0.56 27.58 0.56 28.56C0.56 28.84 0.42 29.75 0.6 29.99C0.72 30.14 1.69 30.34 1.89 30.35C2.63 30.41 3.46 30.29 4.22 30.15C5.1 29.99 6.42 30.22 7.33 29.93C7.91 29.74 8.81 29.72 9.27 30.15C9.45 30.31 9.61 30.58 9.73 30.81C9.93 31.17 10.2 31.41 10.41 31.74C11.34 33.18 12.8 34.51 14 35.83C14.48 36.36 15.08 36.67 15.58 37.22C16.1 37.79 16.67 38.3 17.22 38.86C17.63 39.28 18.07 39.62 18.55 39.9C19.13 40.24 19.75 41.08 20.05 40.12C20.19 39.67 20.34 39.12 20.33 38.82C20.31 38.28 20.41 38.03 20.4 37.45C20.4 37.06 20.55 36.62 20.55 36.23C20.55 35.68 20.6 35.1 20.62 34.64C20.66 33.9 20.58 33.48 20.58 32.75C20.58 32.38 20.44 30.98 20.51 30.62C20.61 30.07 20.63 29.6 20.62 29.01C20.61 28.22 20.5 27.36 20.65 26.59C20.72 26.23 20.66 26.05 20.68 25.58C20.7 25.09 21.19 25.3 21.46 24.95C21.46 24.96 22.12 24.51 22.17 24.47C22.49 24.27 22.7 24.25 22.99 23.96C23.35 23.6 23.86 22.77 23.97 22.27C24.14 21.52 24.02 20.14 23.66 19.55C23.3 18.96 22.8 18.66 22.22 18.22C21.64 17.78 20.72 17.98 20.28 17.49C19.88 17.04 20.11 16.02 20.11 15.36C20.11 14.58 20.15 13.68 20.18 12.91C20.2 12.47 20.25 11.97 20.25 11.97L20.48 10.17L20.71 8.27L20.93 6.69C20.98 6.08 21.24 4.87 20.94 3.94C20.64 3.01 19.28 3.21 18.7 3.72C18.17 4.19 17.35 4.71 17.07 5.05C16.99 5.15 16.18 5.95 16.09 6.04L15.34 6.84L14.87 7.37L14.41 7.94L13.54 8.86L11.62 10.66C11.48 10.79 11.35 10.92 11.22 11.06C10.85 11.45 10.82 11.98 10.31 12.46C10.09 12.67 9.84 12.94 9.6 13.13C9.31 13.36 9 13.5 8.6 13.65C8.02 13.77 7.81 13.69 7.16 13.8L7.15 13.82Z" stroke="var(--stroke-0, black)" stroke-miterlimit="10"/>
<path id="Vector_2" d="M25.14 10.18C26.43 11.9 27.58 13.35 28.1 15.37C28.3 16.16 28.67 16.96 28.7 17.74C28.73 18.73 28.99 19.55 28.99 20.56C28.99 21.47 29.11 22.47 29 23.37C28.89 24.27 28.62 25.18 28.4 26.04C28.17 26.94 27.78 27.9 27.44 28.79C27.18 29.45 26.72 30.07 26.4 30.71C26.08 31.35 25.62 31.86 24.9 32.47" stroke="var(--stroke-0, black)" stroke-miterlimit="10"/>
<path id="Vector_3" d="M28.4 6.03C30.27 7.43 31.69 8.5 32.71 10.53C33.25 11.6 33.69 12.62 34.01 13.8C34.23 14.6 34.32 15.24 34.32 16.1C34.32 16.79 34.32 17.48 34.32 18.17C34.32 19.6 34.36 21.03 34.32 22.46C34.31 22.97 34.34 23.55 34.24 24.03C34.14 24.51 34.16 24.87 34.03 25.32C33.87 25.89 33.8 26.7 33.64 27.33C33.3 28.71 32.86 30.11 32.31 31.26C31.7 32.52 31.36 33.81 30.68 35.08C30.4 35.6 30.13 36.04 29.75 36.48C29.57 36.69 29.37 36.93 29.21 37.09C29.08 37.23 28.6 37.61 28.42 37.7" stroke="var(--stroke-0, black)" stroke-miterlimit="10"/>
<path id="Vector_4" d="M31.55 0.47C32.4 0.77 33.1 0.85 33.92 1.4C34.14 1.55 34.85 2.13 34.94 2.21C35.13 2.4 35.26 2.51 35.44 2.69C35.79 3.04 36.32 3.66 36.62 4.07C37.35 5.09 38.02 6.37 38.44 7.6C38.92 8.99 39.61 10.09 39.96 11.51C40.13 12.19 40.39 12.89 40.53 13.57C40.62 14.02 40.7 14.4 40.74 14.95C40.77 15.47 40.86 15.75 40.85 16.32C40.84 17.97 41.09 19.79 40.87 21.42C40.74 22.34 40.54 23.16 40.48 24.06C40.46 24.43 40.31 24.8 40.27 25.13C40.23 25.5 40.02 26.66 39.93 27.02C39.12 30.17 38.56 32.27 37.34 34.91C37 35.65 36.64 36.27 36.27 37C35.99 37.56 35.62 38.04 35.37 38.62C35.04 39.38 34.6 39.95 34.15 40.66C33.7 41.37 33.26 42.14 32.53 42.65" stroke="var(--stroke-0, black)" stroke-miterlimit="10"/>
</g>
<defs>
<clipPath id="clip0_2239_1412">
<rect width="41.46" height="43.06" fill="white"/>
</clipPath>
</defs>
</svg>
