<svg preserveAspectRatio="none" width="100%" height="100%" overflow="visible" style="display: block;" viewBox="0 0 4.23348 485.531" fill="none" xmlns="http://www.w3.org/2000/svg">
<path id="Vector" d="M1.16691 0C1.16691 7.2439 1.15617 14.4878 1.16691 21.7317C1.16691 26.094 0.694164 29.5459 0.651187 33.7181C0.586721 41.2022 0.651187 48.7162 0.651187 56.2002V195.145C0.651187 203.87 0.318113 213.205 0.640442 221.859C0.801607 226.062 1.16691 229.664 1.15617 234.136C1.15617 238.898 1.15617 243.661 1.15617 248.424V271.986C1.15617 279.77 0.651187 286.634 0.651187 294.468C0.651187 310.197 0.68342 325.935 0.651187 341.674C0.651187 345.426 1.02724 347.317 1.16691 350.629C1.25287 352.6 1.07021 354.711 1.14542 356.692C1.22063 358.673 1.55371 359.353 1.69338 361.074C1.83306 362.835 1.62892 365.286 1.65041 367.107C1.69338 369.509 1.98348 371.39 2.12316 373.761C2.35953 377.563 2.17688 381.985 2.16613 385.878C2.16613 387.889 2.27358 389.439 2.424 391.11C2.61739 393.422 2.44549 396.363 2.64963 398.774C2.80005 400.525 3.11163 401.106 3.19759 403.077C3.29429 405.258 3.15461 407.669 3.1761 409.87C3.20833 411.962 3.50917 412.792 3.64885 414.483C3.81001 416.504 3.69182 418.985 3.69182 421.096C3.69182 425.209 3.76703 429.371 3.43396 433.083C2.77856 440.427 3.1761 449.922 3.1761 457.806C3.1761 460.027 3.22982 462.299 3.18684 464.52C3.13312 467.191 2.74633 469.482 2.63888 472.124C2.46697 476.406 2.66037 481.209 2.66037 485.531" stroke="var(--stroke-0, black)" stroke-miterlimit="10"/>
</svg>
