<svg preserveAspectRatio="none" width="100%" height="100%" overflow="visible" style="display: block;" viewBox="0 0 295.652 2.20737" fill="none" xmlns="http://www.w3.org/2000/svg">
<path id="Vector" d="M0.0126865 1.1126C11.4446 1.40276 22.6402 1.42277 34.1259 1.40276C38.155 1.40276 41.7221 1.69291 45.6975 1.70292C50.8118 1.71292 55.926 1.70292 61.0296 1.70292C63.8553 1.70292 66.6918 1.71292 69.5176 1.70292C72.0962 1.70292 74.1269 1.51282 76.6625 1.43277C81.3793 1.27269 86.4828 1.41276 91.2426 1.41276H132.694C135.069 1.41276 137.497 1.44278 139.871 1.41276C142.246 1.38275 143.976 1.17263 146.178 1.1026C154.215 0.822445 163.38 1.12261 171.546 1.12261C176.123 1.12261 180.367 0.862467 184.89 0.81244C190.488 0.752407 196.193 0.932504 201.791 0.842456C204.047 0.802434 206.035 0.572311 208.28 0.522284C211.299 0.462251 214.501 0.542294 217.52 0.542294C225.611 0.542294 233.862 0.592321 241.845 0.862467C245.703 0.992537 248.851 1.12261 252.837 1.12261H272.349C274.368 1.12261 276.464 1.16263 278.473 1.13261C281.277 1.09259 283.866 0.842456 286.714 0.822445C288.358 0.81244 290.087 0.892483 291.678 0.81244C293.128 0.732397 293.719 0.462251 295.631 0.542294H294.826" stroke="var(--stroke-0, black)" stroke-miterlimit="10"/>
</svg>
