<svg preserveAspectRatio="none" width="100%" height="100%" overflow="visible" style="display: block;" viewBox="0 0 6.14379 489.931" fill="none" xmlns="http://www.w3.org/2000/svg">
<path id="Vector" d="M5.52079 0C5.52079 5.51297 5.48855 11.0459 5.52079 16.5689C5.52079 17.7796 5.75715 19.7506 5.5745 20.8712C5.4778 21.4315 4.81166 22.302 4.77943 22.5221C4.30668 26.1841 4.56453 30.2363 4.56453 34.0383V56.9706C4.56453 65.3551 4.56453 73.7397 4.56453 82.1242C4.56453 89.7283 5.60675 99.2434 4.34966 106.547C1.7388 121.745 4.99432 138.965 3.64053 154.633C3.45788 156.744 2.79174 158.445 2.60909 160.556C2.46941 162.207 2.64132 164.068 2.64132 165.739C2.64132 169.931 2.64132 174.124 2.64132 178.316V212.354C2.64132 216.116 3.25373 221.379 2.69503 225.011C2.48014 226.422 1.85697 227.092 1.65283 228.583C1.41646 230.294 1.68506 232.795 1.68506 234.556C1.68506 238.498 1.68506 242.45 1.68506 246.393C1.68506 250.085 1.7173 253.786 1.68506 257.488C1.66357 260 2.07186 260.36 2.42642 262.271C2.81322 264.412 2.65207 266.753 2.64132 269.005C2.61983 273.207 3.62978 275.718 3.59755 279.7C3.56531 283.643 3.59755 287.595 3.59755 291.537C3.59755 295.239 3.59755 298.941 3.59755 302.633C3.59755 304.524 3.7802 306.685 3.62978 308.556C3.44713 310.897 2.74874 312.748 2.61981 315.139C2.20078 322.914 3.41491 331.568 2.16857 338.892C1.04042 345.516 1.69582 353.95 1.69582 361.094V386.288C1.69582 394.592 2.49089 404.197 1.22307 412.152C-0.0555068 420.116 0.750313 429.721 0.750313 438.046C0.750313 447.641 1.70657 456.526 1.70657 466.161C1.70657 468.132 1.70657 470.103 1.70657 472.084C1.70657 472.954 1.60985 474.185 1.68506 475.076C1.82474 476.676 2.28673 477.177 2.4479 478.327C2.69502 480.118 2.8347 482.059 2.68427 483.95C2.53385 485.841 1.3735 488.163 1.70657 489.833" stroke="var(--stroke-0, black)" stroke-miterlimit="10"/>
</svg>
