<svg preserveAspectRatio="none" width="100%" height="100%" overflow="visible" style="display: block;" viewBox="0 0 112.432 27.0104" fill="none" xmlns="http://www.w3.org/2000/svg">
<g id="upload box">
<g id="Vector">
<path d="M0.499217 2.24867C0.627905 4.54527 0.768293 6.66214 0.756594 8.92878C0.756594 9.32819 0.721497 9.77752 0.750745 10.1769C0.791691 10.7361 0.908681 10.8559 0.961326 11.2653C1.05492 12.0342 1.01982 12.833 1.01982 13.6318C1.01982 14.0312 0.955476 14.7601 1.00812 15.1396C1.04907 15.4791 1.2304 15.5889 1.25965 15.8985C1.41759 17.4961 1.28305 19.4132 1.28305 21.0508V26.4928" fill="var(--fill-0, #DFD9C9)"/>
<path d="M0.499217 2.24867C0.627905 4.54527 0.768293 6.66214 0.756594 8.92878C0.756594 9.32819 0.721497 9.77752 0.750745 10.1769C0.791691 10.7361 0.908681 10.8559 0.961326 11.2653C1.05492 12.0342 1.01982 12.833 1.01982 13.6318C1.01982 14.0312 0.955476 14.7601 1.00812 15.1396C1.04907 15.4791 1.2304 15.5889 1.25965 15.8985C1.41759 17.4961 1.28305 19.4132 1.28305 21.0508V26.4928" stroke="var(--stroke-0, black)" stroke-miterlimit="10"/>
</g>
<g id="Vector_2">
<path d="M1.27725 25.8138C3.83932 26.0235 6.3663 26.0634 8.94007 26.0334C9.40218 26.0334 9.50747 26.1632 9.88768 26.2331C10.2679 26.303 10.6774 26.2531 11.0517 26.2531C11.4612 26.2531 11.9701 26.323 12.3737 26.2631C12.9119 26.1832 13.2628 26.0235 13.8478 26.0334C14.6726 26.0334 15.8132 25.8637 16.6146 26.0235C16.9773 26.0933 17.0825 26.2431 17.5213 26.2631C18.0009 26.2831 18.4923 26.2631 18.9778 26.2631C19.358 26.2631 19.9488 26.1732 20.3115 26.2531C20.6741 26.333 20.7853 26.4728 21.2181 26.4928C22.2242 26.5327 23.2537 26.4928 24.2657 26.4928C25.9328 26.4928 27.5999 26.4928 29.267 26.4928C29.7818 26.4928 30.3141 26.5327 30.8054 26.4428C30.8698 26.4328 30.9985 26.2831 31.1154 26.2631C31.3377 26.2132 31.6887 26.2731 31.9227 26.2731C32.2736 26.2731 32.6305 26.2931 32.9814 26.2731C33.5547 26.2431 33.97 26.0434 34.5666 26.0434C34.9469 26.0434 35.3856 26.0933 35.7541 26.0434C36.1752 25.9935 36.5087 25.8237 36.9415 25.8038C37.8599 25.7638 38.7958 25.8038 39.7142 25.8038C41.4222 25.8038 43.1595 25.8936 44.8617 25.8038C45.4174 25.7738 45.9088 25.5941 46.4586 25.5741C46.8505 25.5541 47.2483 25.5741 47.6402 25.5741C48.5644 25.5741 49.6524 25.7139 50.5533 25.5541C50.992 25.4743 51.2669 25.3445 51.7407 25.3544C52.1794 25.3544 52.624 25.3544 53.0627 25.3544H55.7067C56.3443 25.3544 56.9818 25.3544 57.6136 25.3544C58.4793 25.3544 58.7835 25.4144 59.5381 25.5541C60.3804 25.7139 61.445 25.5741 62.3166 25.5741C63.118 25.5741 63.6327 25.8038 64.4341 25.7938C65.3174 25.7938 66.1948 25.7938 67.078 25.7938C67.5168 25.7938 67.9613 25.7938 68.4 25.7938C68.9616 25.7938 68.9908 25.654 69.4471 25.5641C70.2134 25.4044 71.3072 25.5741 72.1028 25.5741H77.2561C78.9759 25.5741 80.6956 25.5941 82.4095 25.5741C82.9652 25.5741 83.1992 25.7139 83.7198 25.8038C84.2404 25.8936 84.9307 25.7938 85.4688 25.7938H99.8527C100.736 25.7938 101.771 25.9136 102.625 25.7738C103.152 25.684 103.52 25.5641 104.082 25.5741C104.567 25.5741 105.053 25.5741 105.538 25.5741H108.446C109.346 25.5741 110.586 25.7439 111.441 25.5342L111.487 25.3544" fill="var(--fill-0, #DFD9C9)"/>
<path d="M1.27725 25.8138C3.83932 26.0235 6.3663 26.0634 8.94007 26.0334C9.40218 26.0334 9.50747 26.1632 9.88768 26.2331C10.2679 26.303 10.6774 26.2531 11.0517 26.2531C11.4612 26.2531 11.9701 26.323 12.3737 26.2631C12.9119 26.1832 13.2628 26.0235 13.8478 26.0334C14.6726 26.0334 15.8132 25.8637 16.6146 26.0235C16.9773 26.0933 17.0825 26.2431 17.5213 26.2631C18.0009 26.2831 18.4923 26.2631 18.9778 26.2631C19.358 26.2631 19.9488 26.1732 20.3115 26.2531C20.6741 26.333 20.7853 26.4728 21.2181 26.4928C22.2242 26.5327 23.2537 26.4928 24.2657 26.4928C25.9328 26.4928 27.5999 26.4928 29.267 26.4928C29.7818 26.4928 30.3141 26.5327 30.8054 26.4428C30.8698 26.4328 30.9985 26.2831 31.1154 26.2631C31.3377 26.2132 31.6887 26.2731 31.9227 26.2731C32.2736 26.2731 32.6305 26.2931 32.9814 26.2731C33.5547 26.2431 33.97 26.0434 34.5666 26.0434C34.9469 26.0434 35.3856 26.0933 35.7541 26.0434C36.1752 25.9935 36.5087 25.8237 36.9415 25.8038C37.8599 25.7638 38.7958 25.8038 39.7142 25.8038C41.4222 25.8038 43.1595 25.8936 44.8617 25.8038C45.4174 25.7738 45.9088 25.5941 46.4586 25.5741C46.8505 25.5541 47.2483 25.5741 47.6402 25.5741C48.5644 25.5741 49.6524 25.7139 50.5533 25.5541C50.992 25.4743 51.2669 25.3445 51.7407 25.3544C52.1794 25.3544 52.624 25.3544 53.0627 25.3544H55.7067C56.3443 25.3544 56.9818 25.3544 57.6136 25.3544C58.4793 25.3544 58.7835 25.4144 59.5381 25.5541C60.3804 25.7139 61.445 25.5741 62.3166 25.5741C63.118 25.5741 63.6327 25.8038 64.4341 25.7938C65.3174 25.7938 66.1948 25.7938 67.078 25.7938C67.5168 25.7938 67.9613 25.7938 68.4 25.7938C68.9616 25.7938 68.9908 25.654 69.4471 25.5641C70.2134 25.4044 71.3072 25.5741 72.1028 25.5741H77.2561C78.9759 25.5741 80.6956 25.5941 82.4095 25.5741C82.9652 25.5741 83.1992 25.7139 83.7198 25.8038C84.2404 25.8936 84.9307 25.7938 85.4688 25.7938H99.8527C100.736 25.7938 101.771 25.9136 102.625 25.7738C103.152 25.684 103.52 25.5641 104.082 25.5741C104.567 25.5741 105.053 25.5741 105.538 25.5741H108.446C109.346 25.5741 110.586 25.7439 111.441 25.5342L111.487 25.3544" stroke="var(--stroke-0, black)" stroke-miterlimit="10"/>
</g>
<g id="Vector_3">
<path d="M0.499217 2.28852C4.82783 2.99747 9.20909 2.72787 13.5611 2.72787H24.2072C25.1431 2.72787 26.0848 2.7079 27.0208 2.72787C27.4478 2.72787 27.6935 2.5082 28.0152 2.38838C28.5592 2.17869 29.1968 2.27854 29.7642 2.28852C30.2789 2.29851 30.5889 2.03889 31.0686 1.88912C31.6068 1.70938 32.2034 1.84918 32.7532 1.84918C33.6424 1.84918 34.6894 2.09881 35.5552 1.80923C36.0114 1.65946 36.2688 1.38986 36.7543 1.40983C37.2924 1.41981 37.8306 1.40983 38.3687 1.40983H41.0186C42.791 1.40983 44.5634 1.39984 46.3357 1.40983C47.3068 1.40983 48.1081 0.960492 49.0674 0.970477C49.6465 0.970477 50.3251 1.12026 50.8866 0.870625C51.4131 0.640965 51.7641 0.521143 52.349 0.521143C54.0805 0.531128 55.8119 0.521143 57.5492 0.521143H70.8743C71.3189 0.521143 71.7634 0.521143 72.208 0.521143C72.3776 0.521143 72.5824 0.481202 72.7461 0.511157C73.0152 0.561083 73.1498 0.800728 73.3311 0.870625C74.1325 1.17018 75.1035 0.980462 75.94 0.970477C76.87 0.960492 77.6597 1.40983 78.6073 1.40983C80.4733 1.40983 82.3393 1.40983 84.2053 1.40983C85.9543 1.40983 87.5219 1.84918 89.2709 1.84918H95.138C95.6703 1.84918 96.2026 1.85916 96.7349 1.84918C97.2379 1.83919 97.3608 2.13875 97.7878 2.31848C98.6769 2.67795 99.9404 2.29851 100.865 2.29851C101.315 2.29851 101.888 2.14873 102.333 2.27854C102.871 2.4383 103.216 2.75783 103.801 2.74784C104.222 2.74784 104.877 2.55812 105.281 2.72787C105.731 2.90761 105.913 3.20716 106.468 3.19718C106.936 3.19718 107.48 3.08734 107.942 3.19718C108.405 3.30702 108.644 3.61656 109.136 3.6565C110.089 3.73638 111.049 3.42684 111.879 4.04592L111.938 3.6565" fill="var(--fill-0, #DFD9C9)"/>
<path d="M0.499217 2.28852C4.82783 2.99747 9.20909 2.72787 13.5611 2.72787H24.2072C25.1431 2.72787 26.0848 2.7079 27.0208 2.72787C27.4478 2.72787 27.6935 2.5082 28.0152 2.38838C28.5592 2.17869 29.1968 2.27854 29.7642 2.28852C30.2789 2.29851 30.5889 2.03889 31.0686 1.88912C31.6068 1.70938 32.2034 1.84918 32.7532 1.84918C33.6424 1.84918 34.6894 2.09881 35.5552 1.80923C36.0114 1.65946 36.2688 1.38986 36.7543 1.40983C37.2924 1.41981 37.8306 1.40983 38.3687 1.40983H41.0186C42.791 1.40983 44.5634 1.39984 46.3357 1.40983C47.3068 1.40983 48.1081 0.960492 49.0674 0.970477C49.6465 0.970477 50.3251 1.12026 50.8866 0.870625C51.4131 0.640965 51.7641 0.521143 52.349 0.521143C54.0805 0.531128 55.8119 0.521143 57.5492 0.521143H70.8743C71.3189 0.521143 71.7634 0.521143 72.208 0.521143C72.3776 0.521143 72.5824 0.481202 72.7461 0.511157C73.0152 0.561083 73.1498 0.800728 73.3311 0.870625C74.1325 1.17018 75.1035 0.980462 75.94 0.970477C76.87 0.960492 77.6597 1.40983 78.6073 1.40983C80.4733 1.40983 82.3393 1.40983 84.2053 1.40983C85.9543 1.40983 87.5219 1.84918 89.2709 1.84918H95.138C95.6703 1.84918 96.2026 1.85916 96.7349 1.84918C97.2379 1.83919 97.3608 2.13875 97.7878 2.31848C98.6769 2.67795 99.9404 2.29851 100.865 2.29851C101.315 2.29851 101.888 2.14873 102.333 2.27854C102.871 2.4383 103.216 2.75783 103.801 2.74784C104.222 2.74784 104.877 2.55812 105.281 2.72787C105.731 2.90761 105.913 3.20716 106.468 3.19718C106.936 3.19718 107.48 3.08734 107.942 3.19718C108.405 3.30702 108.644 3.61656 109.136 3.6565C110.089 3.73638 111.049 3.42684 111.879 4.04592L111.938 3.6565" stroke="var(--stroke-0, black)" stroke-miterlimit="10"/>
</g>
<g id="Vector_4">
<path d="M111.92 2.93764C111.692 5.98313 111.4 8.4994 111.4 11.5249C111.4 13.0626 111.487 14.7202 111.405 16.2479C111.364 16.9968 111.201 17.2165 111.125 17.8655C111.049 18.5146 111.136 19.4432 111.136 20.1122C111.136 21.7098 111.136 23.3075 111.136 24.9051V24.5356" fill="var(--fill-0, #DFD9C9)"/>
<path d="M111.92 2.93764C111.692 5.98313 111.4 8.4994 111.4 11.5249C111.4 13.0626 111.487 14.7202 111.405 16.2479C111.364 16.9968 111.201 17.2165 111.125 17.8655C111.049 18.5146 111.136 19.4432 111.136 20.1122C111.136 21.7098 111.136 23.3075 111.136 24.9051V24.5356" stroke="var(--stroke-0, black)" stroke-miterlimit="10"/>
</g>
</g>
</svg>
