<svg preserveAspectRatio="none" width="100%" height="100%" overflow="visible" style="display: block;" viewBox="0 0 222.735 33.4907" fill="none" xmlns="http://www.w3.org/2000/svg">
<g id="Vector">
<path d="M1.23173 4.54917C1.23173 7.81917 0.47173 11.8092 1.19173 15.1192C1.48173 16.4492 2.02173 17.4992 2.00173 18.8692C1.98173 20.0592 2.00173 21.2492 2.00173 22.4392C2.00173 24.4892 1.32173 26.9592 2.17173 28.9292C2.23173 29.0792 2.83173 31.1292 2.90173 31.1592C3.46173 31.4192 5.01173 30.8292 5.77173 30.7592C9.64173 30.4392 14.2717 30.8192 18.0017 31.3092C18.1817 31.3292 18.5417 31.6392 18.8917 31.6792C19.4917 31.7592 20.2217 31.6392 20.8417 31.6892C21.6317 31.7592 22.1317 32.0292 23.0117 32.1092C25.1817 32.2992 27.5317 32.2692 29.7417 32.4392C34.3517 32.7992 38.9517 32.9592 43.6117 32.9892C48.2717 33.0192 53.0417 32.6092 57.7617 32.4792C60.9817 32.3892 64.1717 32.0892 67.4017 32.0692C70.9817 32.0492 74.5717 32.2492 78.1317 31.9992C88.9117 31.2292 100.062 31.6592 110.922 31.6492C126.862 31.6492 142.642 30.3192 158.552 30.3192C165.272 30.3192 171.842 30.1392 178.552 29.9292C183.602 29.7692 188.582 29.3892 193.632 29.4292C197.682 29.4592 201.562 28.9492 205.592 28.9792C207.162 28.9792 208.952 28.8592 210.482 29.0892C211.812 29.2892 212.462 29.4392 213.942 29.4292C215.692 29.4192 221.372 29.9592 222.082 29.0192C222.542 28.3992 221.842 27.1192 221.642 26.5492C221.262 25.4592 221.342 24.4792 221.272 23.3292C221.192 21.9192 220.472 20.6292 220.472 19.2092C220.472 17.7292 220.592 16.2392 220.512 14.7492C220.432 13.3592 219.692 12.0892 219.732 10.6992C219.762 9.38917 219.732 8.07917 219.732 6.76917C219.732 4.92917 220.512 2.35917 219.572 0.589168C213.662 2.22917 206.032 1.80917 199.502 2.41917C196.132 2.73917 192.972 2.76917 189.552 2.76917C186.132 2.76917 182.592 3.24917 179.022 3.22917C164.022 3.11917 148.802 4.27917 133.882 4.95917C126.692 5.28917 119.272 4.99917 112.052 4.99917H85.4417C77.8117 4.99917 70.4317 4.55917 62.7817 4.55917H45.1417C41.8917 4.55917 37.9617 4.93917 34.8217 4.51917C34.0717 4.41917 33.7017 4.15917 32.8017 4.09917C31.8017 4.02917 30.8917 4.16917 29.9117 4.00917C24.7417 3.19917 17.9517 3.51917 12.3917 3.65917C11.2117 3.68917 10.9217 3.96917 10.0217 4.06917C9.08173 4.16917 7.99173 4.11917 7.01173 4.10917C5.79173 4.10917 5.06173 4.16917 3.93173 4.32917C2.80173 4.48917 1.68173 4.44917 0.60173 4.62917L0.47173 4.99917" fill="var(--fill-0, #DFD9C9)"/>
<path d="M1.23173 4.54917C1.23173 7.81917 0.47173 11.8092 1.19173 15.1192C1.48173 16.4492 2.02173 17.4992 2.00173 18.8692C1.98173 20.0592 2.00173 21.2492 2.00173 22.4392C2.00173 24.4892 1.32173 26.9592 2.17173 28.9292C2.23173 29.0792 2.83173 31.1292 2.90173 31.1592C3.46173 31.4192 5.01173 30.8292 5.77173 30.7592C9.64173 30.4392 14.2717 30.8192 18.0017 31.3092C18.1817 31.3292 18.5417 31.6392 18.8917 31.6792C19.4917 31.7592 20.2217 31.6392 20.8417 31.6892C21.6317 31.7592 22.1317 32.0292 23.0117 32.1092C25.1817 32.2992 27.5317 32.2692 29.7417 32.4392C34.3517 32.7992 38.9517 32.9592 43.6117 32.9892C48.2717 33.0192 53.0417 32.6092 57.7617 32.4792C60.9817 32.3892 64.1717 32.0892 67.4017 32.0692C70.9817 32.0492 74.5717 32.2492 78.1317 31.9992C88.9117 31.2292 100.062 31.6592 110.922 31.6492C126.862 31.6492 142.642 30.3192 158.552 30.3192C165.272 30.3192 171.842 30.1392 178.552 29.9292C183.602 29.7692 188.582 29.3892 193.632 29.4292C197.682 29.4592 201.562 28.9492 205.592 28.9792C207.162 28.9792 208.952 28.8592 210.482 29.0892C211.812 29.2892 212.462 29.4392 213.942 29.4292C215.692 29.4192 221.372 29.9592 222.082 29.0192C222.542 28.3992 221.842 27.1192 221.642 26.5492C221.262 25.4592 221.342 24.4792 221.272 23.3292C221.192 21.9192 220.472 20.6292 220.472 19.2092C220.472 17.7292 220.592 16.2392 220.512 14.7492C220.432 13.3592 219.692 12.0892 219.732 10.6992C219.762 9.38917 219.732 8.07917 219.732 6.76917C219.732 4.92917 220.512 2.35917 219.572 0.589168C213.662 2.22917 206.032 1.80917 199.502 2.41917C196.132 2.73917 192.972 2.76917 189.552 2.76917C186.132 2.76917 182.592 3.24917 179.022 3.22917C164.022 3.11917 148.802 4.27917 133.882 4.95917C126.692 5.28917 119.272 4.99917 112.052 4.99917H85.4417C77.8117 4.99917 70.4317 4.55917 62.7817 4.55917H45.1417C41.8917 4.55917 37.9617 4.93917 34.8217 4.51917C34.0717 4.41917 33.7017 4.15917 32.8017 4.09917C31.8017 4.02917 30.8917 4.16917 29.9117 4.00917C24.7417 3.19917 17.9517 3.51917 12.3917 3.65917C11.2117 3.68917 10.9217 3.96917 10.0217 4.06917C9.08173 4.16917 7.99173 4.11917 7.01173 4.10917C5.79173 4.10917 5.06173 4.16917 3.93173 4.32917C2.80173 4.48917 1.68173 4.44917 0.60173 4.62917L0.47173 4.99917" stroke="var(--stroke-0, black)" stroke-miterlimit="10"/>
</g>
</svg>
