<svg preserveAspectRatio="none" width="100%" height="100%" overflow="visible" style="display: block;" viewBox="0 0 34.33 31.13" fill="none" xmlns="http://www.w3.org/2000/svg">
<g id="zoom out" clip-path="url(#clip0_2084_99)">
<path id="Vector" d="M1.01432 0.251282C0.894324 1.32128 1.56432 2.23128 1.63432 3.32128C1.75432 5.02128 1.60432 6.80128 1.60432 8.51128V19.8613C1.60432 22.6113 1.65432 25.3613 1.60432 28.1013C1.56432 30.1113 2.05432 29.9113 3.89432 29.8813C6.28432 29.8513 8.68432 29.8813 11.0843 29.8813C14.0643 29.8813 17.6243 30.4313 20.5643 29.9113C21.3143 29.7813 21.8843 29.3713 22.6443 29.2613C23.3343 29.1613 24.1543 29.2813 24.8543 29.2813C26.5843 29.2813 28.3143 29.2813 30.0543 29.2813C31.0843 29.2813 33.5543 29.7113 34.1843 28.9713C34.5243 28.5813 34.2043 26.4413 34.2043 26.0213C34.2043 24.9513 34.2443 23.8613 34.2143 22.7913C34.1643 20.5813 33.5943 18.5013 33.6043 16.2413C33.6043 14.4813 33.6043 12.7213 33.6043 10.9513C33.6043 9.75128 33.7943 8.47128 33.4743 7.30128C33.2643 6.53128 33.0443 6.40128 33.0043 5.57128C32.9643 4.81128 33.1743 3.95128 33.0443 3.20128C32.9043 2.39128 32.4043 1.78128 32.3743 0.931282C25.7043 -0.638718 18.5043 0.251282 11.6743 0.251282H1.01432Z" fill="var(--fill-0, #DFD9C9)" stroke="var(--stroke-0, black)" stroke-miterlimit="10"/>
<path id="Vector_2" d="M6 16H27.71" stroke="var(--stroke-0, black)" stroke-miterlimit="10"/>
</g>
<defs>
<clipPath id="clip0_2084_99">
<rect width="34.33" height="31.13" fill="white"/>
</clipPath>
</defs>
</svg>
